G75*
G70*
%OFA0B0*%
%FSLAX24Y24*%
%IPPOS*%
%LPD*%
%AMOC8*
5,1,8,0,0,1.08239X$1,22.5*
%
%ADD10C,0.0100*%
%ADD11C,0.0120*%
%ADD12C,0.0110*%
%ADD13C,0.0060*%
%ADD14C,0.0080*%
D10*
X008583Y005850D02*
X008583Y006410D01*
X008864Y006410D01*
X008957Y006317D01*
X008957Y006224D01*
X008864Y006130D01*
X008583Y006130D01*
X008583Y005850D02*
X008864Y005850D01*
X008957Y005943D01*
X008957Y006037D01*
X008864Y006130D01*
X009191Y005943D02*
X009284Y005850D01*
X009471Y005850D01*
X009565Y005943D01*
X009565Y006317D01*
X009471Y006410D01*
X009284Y006410D01*
X009191Y006317D01*
X009191Y005943D01*
X009799Y005943D02*
X009799Y006317D01*
X009892Y006410D01*
X010079Y006410D01*
X010172Y006317D01*
X010172Y005943D01*
X010079Y005850D01*
X009892Y005850D01*
X009799Y005943D01*
X010406Y006410D02*
X010780Y006410D01*
X010593Y006410D02*
X010593Y005850D01*
X010814Y006719D02*
X010814Y009081D01*
X008452Y009081D01*
X008452Y006719D01*
X010814Y006719D01*
X008944Y007900D02*
X008946Y007952D01*
X008952Y008004D01*
X008962Y008055D01*
X008975Y008105D01*
X008993Y008155D01*
X009014Y008202D01*
X009038Y008248D01*
X009067Y008292D01*
X009098Y008334D01*
X009132Y008373D01*
X009169Y008410D01*
X009209Y008443D01*
X009252Y008474D01*
X009296Y008501D01*
X009342Y008525D01*
X009391Y008545D01*
X009440Y008561D01*
X009491Y008574D01*
X009542Y008583D01*
X009594Y008588D01*
X009646Y008589D01*
X009698Y008586D01*
X009750Y008579D01*
X009801Y008568D01*
X009851Y008554D01*
X009900Y008535D01*
X009947Y008513D01*
X009992Y008488D01*
X010036Y008459D01*
X010077Y008427D01*
X010116Y008392D01*
X010151Y008354D01*
X010184Y008313D01*
X010214Y008271D01*
X010240Y008226D01*
X010263Y008179D01*
X010282Y008130D01*
X010298Y008080D01*
X010310Y008030D01*
X010318Y007978D01*
X010322Y007926D01*
X010322Y007874D01*
X010318Y007822D01*
X010310Y007770D01*
X010298Y007720D01*
X010282Y007670D01*
X010263Y007621D01*
X010240Y007574D01*
X010214Y007529D01*
X010184Y007487D01*
X010151Y007446D01*
X010116Y007408D01*
X010077Y007373D01*
X010036Y007341D01*
X009992Y007312D01*
X009947Y007287D01*
X009900Y007265D01*
X009851Y007246D01*
X009801Y007232D01*
X009750Y007221D01*
X009698Y007214D01*
X009646Y007211D01*
X009594Y007212D01*
X009542Y007217D01*
X009491Y007226D01*
X009440Y007239D01*
X009391Y007255D01*
X009342Y007275D01*
X009296Y007299D01*
X009252Y007326D01*
X009209Y007357D01*
X009169Y007390D01*
X009132Y007427D01*
X009098Y007466D01*
X009067Y007508D01*
X009038Y007552D01*
X009014Y007598D01*
X008993Y007645D01*
X008975Y007695D01*
X008962Y007745D01*
X008952Y007796D01*
X008946Y007848D01*
X008944Y007900D01*
X013883Y006317D02*
X013883Y006224D01*
X013977Y006130D01*
X014164Y006130D01*
X014257Y006037D01*
X014257Y005943D01*
X014164Y005850D01*
X013977Y005850D01*
X013883Y005943D01*
X013883Y006317D02*
X013977Y006410D01*
X014164Y006410D01*
X014257Y006317D01*
X014491Y006410D02*
X014491Y005850D01*
X014678Y006037D01*
X014865Y005850D01*
X014865Y006410D01*
X015099Y006410D02*
X015379Y006410D01*
X015472Y006317D01*
X015472Y005943D01*
X015379Y005850D01*
X015099Y005850D01*
X015099Y006410D01*
X015133Y009600D02*
X022433Y009600D01*
X022480Y009602D01*
X022527Y009607D01*
X022573Y009617D01*
X022618Y009629D01*
X022663Y009646D01*
X022705Y009665D01*
X022746Y009688D01*
X022786Y009715D01*
X022823Y009744D01*
X022857Y009776D01*
X022889Y009810D01*
X022918Y009847D01*
X022945Y009887D01*
X022968Y009928D01*
X022987Y009970D01*
X023004Y010015D01*
X023016Y010060D01*
X023026Y010106D01*
X023031Y010153D01*
X023033Y010200D01*
X023033Y023600D01*
X023031Y023647D01*
X023026Y023694D01*
X023016Y023740D01*
X023004Y023785D01*
X022987Y023830D01*
X022968Y023872D01*
X022945Y023913D01*
X022918Y023953D01*
X022889Y023990D01*
X022857Y024024D01*
X022823Y024056D01*
X022786Y024085D01*
X022746Y024112D01*
X022705Y024135D01*
X022663Y024154D01*
X022618Y024171D01*
X022573Y024183D01*
X022527Y024193D01*
X022480Y024198D01*
X022433Y024200D01*
X015133Y024200D01*
X015086Y024198D01*
X015039Y024193D01*
X014993Y024183D01*
X014948Y024171D01*
X014903Y024154D01*
X014861Y024135D01*
X014820Y024112D01*
X014780Y024085D01*
X014743Y024056D01*
X014709Y024024D01*
X014677Y023990D01*
X014648Y023953D01*
X014621Y023913D01*
X014598Y023872D01*
X014579Y023830D01*
X014562Y023785D01*
X014550Y023740D01*
X014540Y023694D01*
X014535Y023647D01*
X014533Y023600D01*
X014533Y010200D01*
X014535Y010153D01*
X014540Y010106D01*
X014550Y010060D01*
X014562Y010015D01*
X014579Y009970D01*
X014598Y009928D01*
X014621Y009887D01*
X014648Y009847D01*
X014677Y009810D01*
X014709Y009776D01*
X014743Y009744D01*
X014780Y009715D01*
X014820Y009688D01*
X014861Y009665D01*
X014903Y009646D01*
X014948Y009629D01*
X014993Y009617D01*
X015039Y009607D01*
X015086Y009602D01*
X015133Y009600D01*
X013533Y011900D02*
X007533Y011900D01*
X007533Y021900D01*
X013533Y021900D01*
X013533Y011900D01*
X012533Y012900D02*
X006533Y012900D01*
X006533Y020900D01*
X012533Y020900D01*
X012533Y012900D01*
X011501Y027650D02*
X011501Y028210D01*
X011314Y028210D02*
X011688Y028210D01*
X011080Y028117D02*
X011080Y027930D01*
X010987Y027837D01*
X010706Y027837D01*
X010706Y027650D02*
X010706Y028210D01*
X010987Y028210D01*
X011080Y028117D01*
X010893Y027837D02*
X011080Y027650D01*
X010472Y027650D02*
X010472Y028024D01*
X010286Y028210D01*
X010099Y028024D01*
X010099Y027650D01*
X009865Y027743D02*
X009771Y027650D01*
X009584Y027650D01*
X009491Y027743D01*
X009584Y027930D02*
X009771Y027930D01*
X009865Y027837D01*
X009865Y027743D01*
X010099Y027930D02*
X010472Y027930D01*
X009865Y028117D02*
X009771Y028210D01*
X009584Y028210D01*
X009491Y028117D01*
X009491Y028024D01*
X009584Y027930D01*
X009257Y027743D02*
X009257Y028210D01*
X008883Y028210D02*
X008883Y027743D01*
X008977Y027650D01*
X009164Y027650D01*
X009257Y027743D01*
D11*
X008444Y019540D02*
X008083Y019540D01*
X007993Y019450D01*
X007993Y019270D01*
X008083Y019180D01*
X008264Y019180D01*
X008264Y019360D01*
X008444Y019540D02*
X008534Y019450D01*
X008534Y019270D01*
X008444Y019180D01*
X008354Y018932D02*
X008083Y018932D01*
X007993Y018842D01*
X007993Y018572D01*
X007903Y018572D02*
X007813Y018662D01*
X007813Y018752D01*
X007903Y018572D02*
X008354Y018572D01*
X008354Y018325D02*
X007993Y018325D01*
X008173Y018325D02*
X008354Y018144D01*
X008354Y018054D01*
X008264Y017818D02*
X008083Y017818D01*
X007993Y017728D01*
X007993Y017548D01*
X008083Y017458D01*
X008264Y017458D01*
X008354Y017548D01*
X008354Y017728D01*
X008264Y017818D01*
X008893Y017636D02*
X008983Y017726D01*
X009164Y017726D01*
X009254Y017636D01*
X009254Y017456D01*
X009164Y017366D01*
X009073Y017366D01*
X009073Y017726D01*
X008893Y017636D02*
X008893Y017456D01*
X008983Y017118D02*
X009073Y017028D01*
X009073Y016758D01*
X009164Y016758D02*
X008893Y016758D01*
X008893Y017028D01*
X008983Y017118D01*
X009254Y017028D02*
X009254Y016848D01*
X009164Y016758D01*
X009073Y016510D02*
X009254Y016240D01*
X009164Y016004D02*
X008983Y016004D01*
X008893Y015914D01*
X008893Y015734D01*
X008983Y015644D01*
X009164Y015644D01*
X009254Y015734D01*
X009254Y015914D01*
X009164Y016004D01*
X008893Y016240D02*
X009073Y016510D01*
X008893Y016510D02*
X009434Y016510D01*
X009693Y016519D02*
X009693Y016339D01*
X009783Y016249D01*
X009873Y016249D01*
X009964Y016339D01*
X009964Y016609D01*
X009783Y016609D01*
X009693Y016519D01*
X009964Y016609D02*
X010144Y016429D01*
X010234Y016249D01*
X010144Y016001D02*
X009783Y016001D01*
X010144Y015641D01*
X009783Y015641D01*
X009693Y015731D01*
X009693Y015911D01*
X009783Y016001D01*
X010144Y016001D02*
X010234Y015911D01*
X010234Y015731D01*
X010144Y015641D01*
X010234Y015394D02*
X009964Y015394D01*
X010054Y015214D01*
X010054Y015123D01*
X009964Y015033D01*
X009783Y015033D01*
X009693Y015123D01*
X009693Y015304D01*
X009783Y015394D01*
X010234Y015394D02*
X010234Y015033D01*
X010144Y014786D02*
X009783Y014786D01*
X010144Y014426D01*
X009783Y014426D01*
X009693Y014516D01*
X009693Y014696D01*
X009783Y014786D01*
X010144Y014786D02*
X010234Y014696D01*
X010234Y014516D01*
X010144Y014426D01*
X009344Y014698D02*
X008983Y014698D01*
X008893Y014608D01*
X009254Y014608D02*
X009254Y014789D01*
X009254Y015036D02*
X008893Y015036D01*
X008893Y015306D01*
X008983Y015396D01*
X009254Y015396D01*
X008354Y015297D02*
X008354Y015027D01*
X008264Y014780D02*
X008083Y014780D01*
X007993Y014689D01*
X007993Y014509D01*
X008173Y014419D02*
X008173Y014780D01*
X008264Y014780D02*
X008354Y014689D01*
X008354Y014509D01*
X008264Y014419D01*
X008173Y014419D01*
X007993Y014172D02*
X007993Y013992D01*
X007993Y014082D02*
X008534Y014082D01*
X008534Y014172D01*
X007993Y015027D02*
X007993Y015297D01*
X008083Y015387D01*
X008264Y015387D01*
X008354Y015297D01*
X008354Y015635D02*
X008354Y015905D01*
X008264Y015995D01*
X008083Y015995D01*
X007993Y015905D01*
X007993Y015635D01*
X007993Y016242D02*
X008354Y016242D01*
X008534Y016423D01*
X008354Y016603D01*
X007993Y016603D01*
X008264Y016603D02*
X008264Y016242D01*
X008264Y016850D02*
X008264Y017210D01*
X009254Y017962D02*
X009254Y018052D01*
X009073Y018232D01*
X008893Y018232D02*
X009254Y018232D01*
X009254Y018480D02*
X009164Y018570D01*
X009164Y018840D01*
X009434Y018840D02*
X009434Y018570D01*
X009344Y018480D01*
X009254Y018480D01*
X009164Y018570D02*
X009073Y018480D01*
X008983Y018480D01*
X008893Y018570D01*
X008893Y018840D01*
X009434Y018840D01*
X009693Y018680D02*
X010234Y018680D01*
X010054Y018860D01*
X010234Y019040D01*
X009693Y019040D01*
X009693Y018432D02*
X010234Y018432D01*
X010234Y018162D01*
X010144Y018072D01*
X009964Y018072D01*
X009873Y018162D01*
X009873Y018432D01*
X009783Y017825D02*
X009693Y017734D01*
X009693Y017554D01*
X009783Y017464D01*
X010234Y017464D01*
X009964Y017217D02*
X009964Y016857D01*
X009783Y017825D02*
X010234Y017825D01*
X007334Y017832D02*
X007244Y017832D01*
X007064Y017652D01*
X006793Y017652D01*
X007064Y017652D02*
X007244Y017472D01*
X007334Y017472D01*
X007064Y017225D02*
X007064Y016864D01*
X007064Y016617D02*
X007154Y016437D01*
X007154Y016347D01*
X007064Y016257D01*
X006883Y016257D01*
X006793Y016347D01*
X006793Y016527D01*
X006883Y016617D01*
X007064Y016617D02*
X007334Y016617D01*
X007334Y016257D01*
X007244Y016009D02*
X007334Y015919D01*
X007334Y015739D01*
X007244Y015649D01*
X007154Y015649D01*
X006793Y016009D01*
X006793Y015649D01*
X006793Y015401D02*
X006793Y015041D01*
X006793Y015221D02*
X007334Y015221D01*
X007154Y015401D01*
X007244Y018080D02*
X007334Y018170D01*
X007334Y018350D01*
X007244Y018440D01*
X006883Y018440D01*
X006793Y018350D01*
X006793Y018170D01*
X006883Y018080D01*
X007064Y018080D01*
X007064Y018260D01*
D12*
X020788Y006347D02*
X020788Y006249D01*
X020887Y006150D01*
X021084Y006150D01*
X021182Y006052D01*
X021182Y005953D01*
X021084Y005855D01*
X020887Y005855D01*
X020788Y005953D01*
X020788Y006347D02*
X020887Y006446D01*
X021084Y006446D01*
X021182Y006347D01*
X021433Y006446D02*
X021728Y006446D01*
X021827Y006347D01*
X021827Y006150D01*
X021728Y006052D01*
X021433Y006052D01*
X021433Y005855D02*
X021433Y006446D01*
X022077Y006446D02*
X022274Y006446D01*
X022176Y006446D02*
X022176Y005855D01*
X022274Y005855D02*
X022077Y005855D01*
D13*
X022120Y008011D02*
X022347Y008011D01*
X022404Y008068D01*
X022404Y008181D01*
X022347Y008238D01*
X022120Y008238D01*
X022063Y008181D01*
X022063Y008068D01*
X022120Y008011D01*
X021404Y008002D02*
X021404Y008115D01*
X021404Y008058D02*
X021063Y008058D01*
X021063Y008002D02*
X021063Y008115D01*
X021120Y008257D02*
X021063Y008313D01*
X021063Y008427D01*
X021120Y008483D01*
X021233Y008427D02*
X021233Y008313D01*
X021177Y008257D01*
X021120Y008257D01*
X021233Y008427D02*
X021290Y008483D01*
X021347Y008483D01*
X021404Y008427D01*
X021404Y008313D01*
X021347Y008257D01*
X021347Y008625D02*
X021404Y008682D01*
X021404Y008795D01*
X021347Y008852D01*
X021120Y008852D01*
X021063Y008795D01*
X021063Y008682D01*
X021120Y008625D01*
X021347Y008625D01*
X021404Y008993D02*
X021063Y008993D01*
X021063Y009220D02*
X021404Y009220D01*
X021290Y009107D01*
X021404Y008993D01*
X022063Y008993D02*
X022404Y008993D01*
X022290Y009107D01*
X022404Y009220D01*
X022063Y009220D01*
X022063Y008852D02*
X022063Y008738D01*
X022063Y008795D02*
X022404Y008795D01*
X022404Y008852D02*
X022404Y008738D01*
X022347Y008606D02*
X022290Y008606D01*
X022233Y008549D01*
X022233Y008436D01*
X022177Y008379D01*
X022120Y008379D01*
X022063Y008436D01*
X022063Y008549D01*
X022120Y008606D01*
X022347Y008606D02*
X022404Y008549D01*
X022404Y008436D01*
X022347Y008379D01*
X023063Y008432D02*
X023120Y008375D01*
X023063Y008432D02*
X023063Y008545D01*
X023120Y008602D01*
X023347Y008602D01*
X023404Y008545D01*
X023404Y008432D01*
X023347Y008375D01*
X023404Y008233D02*
X023063Y008233D01*
X023177Y008233D02*
X023404Y008007D01*
X023233Y008177D02*
X023063Y008007D01*
X023120Y008743D02*
X023063Y008800D01*
X023063Y008913D01*
X023120Y008970D01*
X023233Y008913D02*
X023233Y008800D01*
X023177Y008743D01*
X023120Y008743D01*
X023233Y008913D02*
X023290Y008970D01*
X023347Y008970D01*
X023404Y008913D01*
X023404Y008800D01*
X023347Y008743D01*
X024063Y008513D02*
X024063Y008400D01*
X024120Y008343D01*
X024120Y008202D02*
X024063Y008145D01*
X024063Y008032D01*
X024120Y007975D01*
X024177Y007975D01*
X024233Y008032D01*
X024233Y008145D01*
X024290Y008202D01*
X024347Y008202D01*
X024404Y008145D01*
X024404Y008032D01*
X024347Y007975D01*
X024347Y008343D02*
X024404Y008400D01*
X024404Y008513D01*
X024347Y008570D01*
X024120Y008570D01*
X024063Y008513D01*
X025377Y010387D02*
X025377Y010614D01*
X025490Y010500D02*
X025263Y010500D01*
X025632Y010387D02*
X025688Y010330D01*
X025802Y010330D01*
X025859Y010387D01*
X025859Y010443D01*
X025802Y010500D01*
X025745Y010500D01*
X025802Y010500D02*
X025859Y010557D01*
X025859Y010614D01*
X025802Y010670D01*
X025688Y010670D01*
X025632Y010614D01*
X026000Y010387D02*
X026057Y010387D01*
X026057Y010330D01*
X026000Y010330D01*
X026000Y010387D01*
X026184Y010387D02*
X026241Y010330D01*
X026354Y010330D01*
X026411Y010387D01*
X026411Y010443D01*
X026354Y010500D01*
X026298Y010500D01*
X026354Y010500D02*
X026411Y010557D01*
X026411Y010614D01*
X026354Y010670D01*
X026241Y010670D01*
X026184Y010614D01*
X026552Y010670D02*
X026552Y010443D01*
X026666Y010330D01*
X026779Y010443D01*
X026779Y010670D01*
X026170Y011330D02*
X026227Y011387D01*
X026227Y011614D01*
X026170Y011670D01*
X026000Y011670D01*
X026000Y011330D01*
X026170Y011330D01*
X025859Y011330D02*
X025859Y011670D01*
X025632Y011670D02*
X025859Y011330D01*
X025632Y011330D02*
X025632Y011670D01*
X025490Y011614D02*
X025433Y011670D01*
X025320Y011670D01*
X025263Y011614D01*
X025263Y011387D01*
X025320Y011330D01*
X025433Y011330D01*
X025490Y011387D01*
X025490Y011500D01*
X025377Y011500D01*
X025490Y012330D02*
X025490Y012557D01*
X025377Y012670D01*
X025263Y012557D01*
X025263Y012330D01*
X025263Y012500D02*
X025490Y012500D01*
X025632Y012557D02*
X025745Y012670D01*
X025745Y012330D01*
X025632Y012330D02*
X025859Y012330D01*
X025859Y013230D02*
X025632Y013230D01*
X025859Y013457D01*
X025859Y013514D01*
X025802Y013570D01*
X025688Y013570D01*
X025632Y013514D01*
X025490Y013457D02*
X025490Y013230D01*
X025490Y013400D02*
X025263Y013400D01*
X025263Y013457D02*
X025377Y013570D01*
X025490Y013457D01*
X025263Y013457D02*
X025263Y013230D01*
X025263Y014330D02*
X025263Y014557D01*
X025377Y014670D01*
X025490Y014557D01*
X025490Y014330D01*
X025632Y014387D02*
X025688Y014330D01*
X025802Y014330D01*
X025859Y014387D01*
X025859Y014443D01*
X025802Y014500D01*
X025745Y014500D01*
X025802Y014500D02*
X025859Y014557D01*
X025859Y014614D01*
X025802Y014670D01*
X025688Y014670D01*
X025632Y014614D01*
X025490Y014500D02*
X025263Y014500D01*
X025263Y015330D02*
X025263Y015557D01*
X025377Y015670D01*
X025490Y015557D01*
X025490Y015330D01*
X025490Y015500D02*
X025263Y015500D01*
X025632Y015500D02*
X025859Y015500D01*
X025802Y015330D02*
X025802Y015670D01*
X025632Y015500D01*
X025688Y016330D02*
X025632Y016387D01*
X025688Y016330D02*
X025802Y016330D01*
X025859Y016387D01*
X025859Y016500D01*
X025802Y016557D01*
X025745Y016557D01*
X025632Y016500D01*
X025632Y016670D01*
X025859Y016670D01*
X025490Y016557D02*
X025490Y016330D01*
X025490Y016500D02*
X025263Y016500D01*
X025263Y016557D02*
X025377Y016670D01*
X025490Y016557D01*
X025263Y016557D02*
X025263Y016330D01*
X025263Y017330D02*
X025263Y017557D01*
X025377Y017670D01*
X025490Y017557D01*
X025490Y017330D01*
X025632Y017387D02*
X025632Y017500D01*
X025802Y017500D01*
X025859Y017443D01*
X025859Y017387D01*
X025802Y017330D01*
X025688Y017330D01*
X025632Y017387D01*
X025632Y017500D02*
X025745Y017614D01*
X025859Y017670D01*
X025490Y017500D02*
X025263Y017500D01*
X025263Y018330D02*
X025263Y018557D01*
X025377Y018670D01*
X025490Y018557D01*
X025490Y018330D01*
X025632Y018330D02*
X025632Y018387D01*
X025859Y018614D01*
X025859Y018670D01*
X025632Y018670D01*
X025490Y018500D02*
X025263Y018500D01*
X019251Y013636D02*
X019015Y013636D01*
X019015Y013164D02*
X019251Y013164D01*
X019251Y012736D02*
X019015Y012736D01*
X019015Y012264D02*
X019251Y012264D01*
X017451Y010636D02*
X017215Y010636D01*
X017215Y010164D02*
X017451Y010164D01*
X019120Y009207D02*
X019347Y009207D01*
X019233Y009320D02*
X019233Y009093D01*
X019120Y008952D02*
X019063Y008895D01*
X019063Y008782D01*
X019120Y008725D01*
X019177Y008725D01*
X019233Y008782D01*
X019233Y008838D01*
X019233Y008782D02*
X019290Y008725D01*
X019347Y008725D01*
X019404Y008782D01*
X019404Y008895D01*
X019347Y008952D01*
X019120Y008583D02*
X019120Y008527D01*
X019063Y008527D01*
X019063Y008583D01*
X019120Y008583D01*
X019120Y008399D02*
X019063Y008342D01*
X019063Y008229D01*
X019120Y008172D01*
X019177Y008172D01*
X019233Y008229D01*
X019233Y008286D01*
X019233Y008229D02*
X019290Y008172D01*
X019347Y008172D01*
X019404Y008229D01*
X019404Y008342D01*
X019347Y008399D01*
X019404Y008031D02*
X019177Y008031D01*
X019063Y007917D01*
X019177Y007804D01*
X019404Y007804D01*
X020063Y008163D02*
X020063Y008333D01*
X020404Y008333D01*
X020404Y008163D01*
X020347Y008107D01*
X020120Y008107D01*
X020063Y008163D01*
X020063Y008475D02*
X020404Y008475D01*
X020404Y008702D02*
X020063Y008702D01*
X020120Y008843D02*
X020233Y008843D01*
X020233Y008957D01*
X020120Y009070D02*
X020063Y009013D01*
X020063Y008900D01*
X020120Y008843D01*
X020347Y008843D02*
X020404Y008900D01*
X020404Y009013D01*
X020347Y009070D01*
X020120Y009070D01*
X020404Y008702D02*
X020063Y008475D01*
X016404Y008420D02*
X016404Y008307D01*
X016404Y008363D02*
X016063Y008363D01*
X016063Y008307D02*
X016063Y008420D01*
X016120Y008174D02*
X016063Y008118D01*
X016063Y008004D01*
X016120Y007948D01*
X016347Y007948D01*
X016404Y008004D01*
X016404Y008118D01*
X016347Y008174D01*
X016120Y008174D01*
X015404Y008183D02*
X015063Y008183D01*
X015177Y008183D02*
X015404Y007957D01*
X015233Y008127D02*
X015063Y007957D01*
X015063Y008325D02*
X015063Y008552D01*
X015404Y008552D01*
X015347Y008693D02*
X015404Y008750D01*
X015404Y008863D01*
X015347Y008920D01*
X015120Y008920D01*
X015063Y008863D01*
X015063Y008750D01*
X015120Y008693D01*
X014404Y008702D02*
X014063Y008475D01*
X014404Y008475D01*
X014404Y008333D02*
X014404Y008163D01*
X014347Y008107D01*
X014120Y008107D01*
X014063Y008163D01*
X014063Y008333D01*
X014404Y008333D01*
X014404Y008702D02*
X014063Y008702D01*
X014120Y008843D02*
X014233Y008843D01*
X014233Y008957D01*
X014120Y009070D02*
X014063Y009013D01*
X014063Y008900D01*
X014120Y008843D01*
X014347Y008843D02*
X014404Y008900D01*
X014404Y009013D01*
X014347Y009070D01*
X014120Y009070D01*
X013404Y008895D02*
X013404Y008782D01*
X013347Y008725D01*
X013290Y008725D01*
X013233Y008782D01*
X013177Y008725D01*
X013120Y008725D01*
X013063Y008782D01*
X013063Y008895D01*
X013120Y008952D01*
X013233Y008838D02*
X013233Y008782D01*
X013347Y008952D02*
X013404Y008895D01*
X013233Y009093D02*
X013233Y009320D01*
X013120Y009207D02*
X013347Y009207D01*
X013120Y008583D02*
X013120Y008527D01*
X013063Y008527D01*
X013063Y008583D01*
X013120Y008583D01*
X013120Y008399D02*
X013063Y008342D01*
X013063Y008229D01*
X013120Y008172D01*
X013177Y008172D01*
X013233Y008229D01*
X013233Y008286D01*
X013233Y008229D02*
X013290Y008172D01*
X013347Y008172D01*
X013404Y008229D01*
X013404Y008342D01*
X013347Y008399D01*
X013404Y008031D02*
X013177Y008031D01*
X013063Y007917D01*
X013177Y007804D01*
X013404Y007804D01*
X017215Y015264D02*
X017451Y015264D01*
X017451Y015736D02*
X017215Y015736D01*
X011904Y024754D02*
X011677Y024754D01*
X011563Y024867D01*
X011677Y024981D01*
X011904Y024981D01*
X011847Y025122D02*
X011790Y025122D01*
X011733Y025179D01*
X011677Y025122D01*
X011620Y025122D01*
X011563Y025179D01*
X011563Y025292D01*
X011620Y025349D01*
X011620Y025477D02*
X011563Y025477D01*
X011563Y025533D01*
X011620Y025533D01*
X011620Y025477D01*
X011620Y025675D02*
X011563Y025732D01*
X011563Y025845D01*
X011620Y025902D01*
X011733Y025788D02*
X011733Y025732D01*
X011677Y025675D01*
X011620Y025675D01*
X011733Y025732D02*
X011790Y025675D01*
X011847Y025675D01*
X011904Y025732D01*
X011904Y025845D01*
X011847Y025902D01*
X011733Y026043D02*
X011733Y026270D01*
X011620Y026157D02*
X011847Y026157D01*
X010904Y026213D02*
X010847Y026270D01*
X010620Y026270D01*
X010563Y026213D01*
X010563Y026100D01*
X010620Y026043D01*
X010733Y026043D01*
X010733Y026157D01*
X010847Y026043D02*
X010904Y026100D01*
X010904Y026213D01*
X010904Y025902D02*
X010563Y025902D01*
X010563Y025675D02*
X010904Y025675D01*
X010904Y025533D02*
X010904Y025363D01*
X010847Y025307D01*
X010620Y025307D01*
X010563Y025363D01*
X010563Y025533D01*
X010904Y025533D01*
X010904Y025902D02*
X010563Y025675D01*
X009904Y025675D02*
X009563Y025902D01*
X009563Y025675D02*
X009904Y025902D01*
X009904Y026043D02*
X009904Y026270D01*
X009904Y026157D02*
X009563Y026157D01*
X008904Y026100D02*
X008847Y026043D01*
X008733Y026043D01*
X008677Y026100D01*
X008677Y026270D01*
X008677Y026157D02*
X008563Y026043D01*
X008563Y025902D02*
X008904Y025675D01*
X008904Y025902D02*
X008563Y025675D01*
X008904Y026100D02*
X008904Y026270D01*
X008563Y026270D01*
X011733Y025236D02*
X011733Y025179D01*
X011847Y025122D02*
X011904Y025179D01*
X011904Y025292D01*
X011847Y025349D01*
D14*
X011983Y026500D02*
X011483Y026500D01*
X011233Y026750D01*
X010983Y026500D01*
X010483Y026500D01*
X010233Y026750D01*
X009983Y026500D01*
X009483Y026500D01*
X009233Y026750D01*
X008983Y026500D01*
X008483Y026500D01*
X008233Y026750D01*
X008233Y027250D01*
X008483Y027500D01*
X008983Y027500D01*
X009233Y027250D01*
X009483Y027500D01*
X009983Y027500D01*
X010233Y027250D01*
X010483Y027500D01*
X010983Y027500D01*
X011233Y027250D01*
X011483Y027500D01*
X011983Y027500D01*
X012233Y027250D01*
X012233Y026750D01*
X011983Y026500D01*
X014733Y023650D02*
X014983Y023900D01*
X015483Y023900D01*
X015733Y023650D01*
X015733Y023150D01*
X015483Y022900D01*
X015733Y022650D01*
X015733Y022150D01*
X015483Y021900D01*
X015733Y021650D01*
X015733Y021150D01*
X015483Y020900D01*
X015733Y020650D01*
X015733Y020150D01*
X015483Y019900D01*
X015733Y019650D01*
X015733Y019150D01*
X015483Y018900D01*
X015733Y018650D01*
X015733Y018150D01*
X015483Y017900D01*
X015733Y017650D01*
X015733Y017150D01*
X015483Y016900D01*
X015733Y016650D01*
X015733Y016150D01*
X015483Y015900D01*
X015733Y015650D01*
X015733Y015150D01*
X015483Y014900D01*
X015733Y014650D01*
X015733Y014150D01*
X015483Y013900D01*
X015733Y013650D01*
X015733Y013150D01*
X015483Y012900D01*
X015733Y012650D01*
X015733Y012150D01*
X015483Y011900D01*
X015733Y011650D01*
X015733Y011150D01*
X015483Y010900D01*
X015733Y010650D01*
X015733Y010150D01*
X015483Y009900D01*
X014983Y009900D01*
X014733Y010150D01*
X014733Y010650D01*
X014983Y010900D01*
X014733Y011150D01*
X014733Y011650D01*
X014983Y011900D01*
X014733Y012150D01*
X014733Y012650D01*
X014983Y012900D01*
X014733Y013150D01*
X014733Y013650D01*
X014983Y013900D01*
X014733Y014150D01*
X014733Y014650D01*
X014983Y014900D01*
X014733Y015150D01*
X014733Y015650D01*
X014983Y015900D01*
X014733Y016150D01*
X014733Y016650D01*
X014983Y016900D01*
X014733Y017150D01*
X014733Y017650D01*
X014983Y017900D01*
X014733Y018150D01*
X014733Y018650D01*
X014983Y018900D01*
X014733Y019150D01*
X014733Y019650D01*
X014983Y019900D01*
X014733Y020150D01*
X014733Y020650D01*
X014983Y020900D01*
X014733Y021150D01*
X014733Y021650D01*
X014983Y021900D01*
X014733Y022150D01*
X014733Y022650D01*
X014983Y022900D01*
X014733Y023150D01*
X014733Y023650D01*
X013283Y021900D02*
X012783Y021900D01*
X012533Y021650D01*
X012533Y021150D01*
X012783Y020900D01*
X012533Y020650D01*
X012533Y020150D01*
X012283Y019900D01*
X012533Y019650D01*
X012533Y019150D01*
X012283Y018900D01*
X012533Y018650D01*
X012533Y018150D01*
X012283Y017900D01*
X012533Y017650D01*
X012533Y017150D01*
X012283Y016900D01*
X012533Y016650D01*
X012533Y016150D01*
X012283Y015900D01*
X012533Y015650D01*
X012533Y015150D01*
X012283Y014900D01*
X012533Y014650D01*
X012533Y014150D01*
X012283Y013900D01*
X012533Y013650D01*
X012533Y013150D01*
X012283Y012900D01*
X011783Y012900D01*
X011533Y013150D01*
X011533Y013650D01*
X011783Y013900D01*
X011533Y014150D01*
X011533Y014650D01*
X011783Y014900D01*
X011533Y015150D01*
X011533Y015650D01*
X011783Y015900D01*
X011533Y016150D01*
X011533Y016650D01*
X011783Y016900D01*
X011533Y017150D01*
X011533Y017650D01*
X011783Y017900D01*
X011533Y018150D01*
X011533Y018650D01*
X011783Y018900D01*
X011533Y019150D01*
X011533Y019650D01*
X011783Y019900D01*
X011533Y020150D01*
X011533Y020650D01*
X011783Y020900D01*
X012283Y020900D01*
X012533Y020650D01*
X012533Y020150D01*
X012783Y019900D01*
X012533Y019650D01*
X012533Y019150D01*
X012783Y018900D01*
X012533Y018650D01*
X012533Y018150D01*
X012783Y017900D01*
X012533Y017650D01*
X012533Y017150D01*
X012783Y016900D01*
X012533Y016650D01*
X012533Y016150D01*
X012783Y015900D01*
X012533Y015650D01*
X012533Y015150D01*
X012783Y014900D01*
X012533Y014650D01*
X012533Y014150D01*
X012783Y013900D01*
X012533Y013650D01*
X012533Y013150D01*
X012783Y012900D01*
X012533Y012650D01*
X012533Y012150D01*
X012783Y011900D01*
X013283Y011900D01*
X013533Y012150D01*
X013533Y012650D01*
X013283Y012900D01*
X013533Y013150D01*
X013533Y013650D01*
X013283Y013900D01*
X013533Y014150D01*
X013533Y014650D01*
X013283Y014900D01*
X013533Y015150D01*
X013533Y015650D01*
X013283Y015900D01*
X013533Y016150D01*
X013533Y016650D01*
X013283Y016900D01*
X013533Y017150D01*
X013533Y017650D01*
X013283Y017900D01*
X013533Y018150D01*
X013533Y018650D01*
X013283Y018900D01*
X013533Y019150D01*
X013533Y019650D01*
X013283Y019900D01*
X013533Y020150D01*
X013533Y020650D01*
X013283Y020900D01*
X013533Y021150D01*
X013533Y021650D01*
X013283Y021900D01*
X021733Y021650D02*
X021733Y021150D01*
X021983Y020900D01*
X021733Y020650D01*
X021733Y020150D01*
X021983Y019900D01*
X021733Y019650D01*
X021733Y019150D01*
X021983Y018900D01*
X021733Y018650D01*
X021733Y018150D01*
X021983Y017900D01*
X021733Y017650D01*
X021733Y017150D01*
X021983Y016900D01*
X021733Y016650D01*
X021733Y016150D01*
X021983Y015900D01*
X021733Y015650D01*
X021733Y015150D01*
X021983Y014900D01*
X021733Y014650D01*
X021733Y014150D01*
X021983Y013900D01*
X021733Y013650D01*
X021733Y013150D01*
X021983Y012900D01*
X021733Y012650D01*
X021733Y012150D01*
X021983Y011900D01*
X021733Y011650D01*
X021733Y011150D01*
X021983Y010900D01*
X021733Y010650D01*
X021733Y010150D01*
X021983Y009900D01*
X022483Y009900D01*
X022733Y010150D01*
X022733Y010650D01*
X022483Y010900D01*
X022733Y011150D01*
X022733Y011650D01*
X022483Y011900D01*
X022733Y012150D01*
X022733Y012650D01*
X022483Y012900D01*
X022733Y013150D01*
X022733Y013650D01*
X022483Y013900D01*
X022733Y014150D01*
X022733Y014650D01*
X022483Y014900D01*
X022733Y015150D01*
X022733Y015650D01*
X022483Y015900D01*
X022733Y016150D01*
X022733Y016650D01*
X022483Y016900D01*
X022733Y017150D01*
X022733Y017650D01*
X022483Y017900D01*
X022733Y018150D01*
X022733Y018650D01*
X022483Y018900D01*
X022733Y019150D01*
X022733Y019650D01*
X022483Y019900D01*
X022733Y020150D01*
X022733Y020650D01*
X022483Y020900D01*
X022733Y021150D01*
X022733Y021650D01*
X022483Y021900D01*
X022733Y022150D01*
X022733Y022650D01*
X022483Y022900D01*
X022733Y023150D01*
X022733Y023650D01*
X022483Y023900D01*
X021983Y023900D01*
X021733Y023650D01*
X021733Y023150D01*
X021983Y022900D01*
X021733Y022650D01*
X021733Y022150D01*
X021983Y021900D01*
X021733Y021650D01*
X024283Y018900D02*
X024783Y018900D01*
X025033Y018650D01*
X025033Y018150D01*
X024783Y017900D01*
X025033Y017650D01*
X025033Y017150D01*
X024783Y016900D01*
X025033Y016650D01*
X025033Y016150D01*
X024783Y015900D01*
X025033Y015650D01*
X025033Y015150D01*
X024783Y014900D01*
X025033Y014650D01*
X025033Y014150D01*
X024783Y013900D01*
X025033Y013650D01*
X025033Y013150D01*
X024783Y012900D01*
X025033Y012650D01*
X025033Y012150D01*
X024783Y011900D01*
X025033Y011650D01*
X025033Y011150D01*
X024783Y010900D01*
X025033Y010650D01*
X025033Y010150D01*
X024783Y009900D01*
X024283Y009900D01*
X024033Y010150D01*
X024033Y010650D01*
X024283Y010900D01*
X024033Y011150D01*
X024033Y011650D01*
X024283Y011900D01*
X024033Y012150D01*
X024033Y012650D01*
X024283Y012900D01*
X024033Y013150D01*
X024033Y013650D01*
X024283Y013900D01*
X024033Y014150D01*
X024033Y014650D01*
X024283Y014900D01*
X024033Y015150D01*
X024033Y015650D01*
X024283Y015900D01*
X024033Y016150D01*
X024033Y016650D01*
X024283Y016900D01*
X024033Y017150D01*
X024033Y017650D01*
X024283Y017900D01*
X024033Y018150D01*
X024033Y018650D01*
X024283Y018900D01*
X027083Y020400D02*
X027583Y020400D01*
X027583Y013400D02*
X027083Y013400D01*
X024483Y007700D02*
X023983Y007700D01*
X023733Y007450D01*
X023483Y007700D01*
X022983Y007700D01*
X022733Y007450D01*
X022483Y007700D01*
X021983Y007700D01*
X021733Y007450D01*
X021483Y007700D01*
X020983Y007700D01*
X020733Y007450D01*
X020483Y007700D01*
X019983Y007700D01*
X019733Y007450D01*
X019483Y007700D01*
X018983Y007700D01*
X018733Y007450D01*
X018733Y006950D01*
X018983Y006700D01*
X019483Y006700D01*
X019733Y006950D01*
X019983Y006700D01*
X020483Y006700D01*
X020733Y006950D01*
X020983Y006700D01*
X021483Y006700D01*
X021733Y006950D01*
X021983Y006700D01*
X022483Y006700D01*
X022733Y006950D01*
X022983Y006700D01*
X023483Y006700D01*
X023733Y006950D01*
X023983Y006700D01*
X024483Y006700D01*
X024733Y006950D01*
X024733Y007450D01*
X024483Y007700D01*
X017885Y011461D02*
X017885Y011776D01*
X017648Y011776D01*
X017018Y011776D02*
X016782Y011776D01*
X016782Y011461D01*
X016782Y014124D02*
X016782Y014439D01*
X016782Y014124D02*
X017018Y014124D01*
X017648Y014124D02*
X017885Y014124D01*
X017885Y014439D01*
X016483Y007700D02*
X015983Y007700D01*
X015733Y007450D01*
X015483Y007700D01*
X014983Y007700D01*
X014733Y007450D01*
X014483Y007700D01*
X013983Y007700D01*
X013733Y007450D01*
X013483Y007700D01*
X012983Y007700D01*
X012733Y007450D01*
X012733Y006950D01*
X012983Y006700D01*
X013483Y006700D01*
X013733Y006950D01*
X013983Y006700D01*
X014483Y006700D01*
X014733Y006950D01*
X014983Y006700D01*
X015483Y006700D01*
X015733Y006950D01*
X015983Y006700D01*
X016483Y006700D01*
X016733Y006950D01*
X016733Y007450D01*
X016483Y007700D01*
M02*
