G75*
G70*
%OFA0B0*%
%FSLAX24Y24*%
%IPPOS*%
%LPD*%
%AMOC8*
5,1,8,0,0,1.08239X$1,22.5*
%
%ADD10C,0.0100*%
%ADD11C,0.0000*%
%ADD12C,0.0290*%
%ADD13C,0.0180*%
%ADD14C,0.0130*%
%ADD15C,0.0740*%
%ADD16C,0.0740*%
%ADD17R,0.0740X0.0740*%
%ADD18R,0.0610X0.0512*%
%ADD19R,0.0315X0.0472*%
%ADD20R,0.0315X0.0354*%
%ADD21C,0.0400*%
%ADD22C,0.0240*%
%ADD23C,0.0160*%
D10*
X005533Y005300D02*
X004433Y006400D01*
X004433Y027400D01*
X005533Y028500D01*
X025033Y028500D01*
X028533Y025000D01*
X028533Y008800D01*
X025033Y005300D01*
X005533Y005300D01*
X005624Y005520D02*
X004653Y006491D01*
X004653Y027309D01*
X005624Y028280D01*
X024942Y028280D01*
X028313Y024909D01*
X028313Y008891D01*
X024942Y005520D01*
X005624Y005520D01*
X005433Y005711D02*
X005433Y006117D01*
X005474Y006100D02*
X005792Y006100D01*
X006086Y006222D01*
X006311Y006447D01*
X006433Y006741D01*
X006433Y007059D01*
X006311Y007353D01*
X006086Y007578D01*
X005792Y007700D01*
X005474Y007700D01*
X005180Y007578D01*
X004955Y007353D01*
X004833Y007059D01*
X004833Y006741D01*
X004955Y006447D01*
X005180Y006222D01*
X005474Y006100D01*
X005344Y005800D02*
X017823Y005800D01*
X017869Y005754D02*
X017976Y005710D01*
X024991Y005710D01*
X025098Y005754D01*
X025179Y005836D01*
X025879Y006536D01*
X025923Y006642D01*
X025923Y013380D01*
X026153Y013610D01*
X026499Y013610D01*
X026506Y013594D01*
X026657Y013442D01*
X026856Y013360D01*
X027811Y013360D01*
X028009Y013442D01*
X028161Y013594D01*
X028243Y013793D01*
X028243Y014007D01*
X028161Y014206D01*
X028009Y014358D01*
X027907Y014400D01*
X028009Y014442D01*
X028161Y014594D01*
X028243Y014793D01*
X028243Y015007D01*
X028161Y015206D01*
X028009Y015358D01*
X027907Y015400D01*
X028009Y015442D01*
X028161Y015594D01*
X028243Y015793D01*
X028243Y016007D01*
X028161Y016206D01*
X028009Y016358D01*
X027907Y016400D01*
X028009Y016442D01*
X028161Y016594D01*
X028243Y016793D01*
X028243Y017007D01*
X028161Y017206D01*
X028009Y017358D01*
X027907Y017400D01*
X028009Y017442D01*
X028161Y017594D01*
X028243Y017793D01*
X028243Y018007D01*
X028161Y018206D01*
X028009Y018358D01*
X027881Y018411D01*
X027903Y018418D01*
X027976Y018455D01*
X028042Y018503D01*
X028100Y018561D01*
X028148Y018627D01*
X028185Y018700D01*
X028211Y018778D01*
X028222Y018850D01*
X027703Y018850D01*
X027703Y018950D01*
X028222Y018950D01*
X028211Y019022D01*
X028185Y019100D01*
X028148Y019173D01*
X028100Y019239D01*
X028042Y019297D01*
X027976Y019345D01*
X027903Y019382D01*
X027881Y019389D01*
X028009Y019442D01*
X028161Y019594D01*
X028243Y019793D01*
X028243Y020007D01*
X028161Y020206D01*
X028009Y020358D01*
X027811Y020440D01*
X026856Y020440D01*
X026657Y020358D01*
X026506Y020206D01*
X026423Y020007D01*
X026423Y019793D01*
X026506Y019594D01*
X026657Y019442D01*
X026786Y019389D01*
X026764Y019382D01*
X026691Y019345D01*
X026625Y019297D01*
X026567Y019239D01*
X026519Y019173D01*
X026481Y019100D01*
X026456Y019022D01*
X026445Y018950D01*
X026963Y018950D01*
X026963Y018850D01*
X026445Y018850D01*
X026456Y018778D01*
X026481Y018700D01*
X026519Y018627D01*
X026567Y018561D01*
X026625Y018503D01*
X026691Y018455D01*
X026764Y018418D01*
X026786Y018411D01*
X026657Y018358D01*
X026506Y018206D01*
X026423Y018007D01*
X026423Y017793D01*
X026506Y017594D01*
X026657Y017442D01*
X026759Y017400D01*
X026657Y017358D01*
X026506Y017206D01*
X026499Y017190D01*
X026153Y017190D01*
X025923Y017420D01*
X025923Y018958D01*
X025879Y019064D01*
X025279Y019664D01*
X025198Y019746D01*
X025091Y019790D01*
X022607Y019790D01*
X022539Y019858D01*
X022437Y019900D01*
X022539Y019942D01*
X022691Y020094D01*
X022773Y020293D01*
X022773Y020507D01*
X022691Y020706D01*
X022539Y020858D01*
X022437Y020900D01*
X022539Y020942D01*
X022691Y021094D01*
X022773Y021293D01*
X022773Y021507D01*
X022691Y021706D01*
X022539Y021858D01*
X022437Y021900D01*
X022539Y021942D01*
X022691Y022094D01*
X022773Y022293D01*
X022773Y022507D01*
X022691Y022706D01*
X022539Y022858D01*
X022437Y022900D01*
X022539Y022942D01*
X022691Y023094D01*
X022773Y023293D01*
X022773Y023507D01*
X022691Y023706D01*
X022539Y023858D01*
X022341Y023940D01*
X022126Y023940D01*
X021927Y023858D01*
X021776Y023706D01*
X021693Y023507D01*
X021693Y023293D01*
X021776Y023094D01*
X021927Y022942D01*
X022029Y022900D01*
X021927Y022858D01*
X021776Y022706D01*
X021768Y022687D01*
X021669Y022646D01*
X021587Y022564D01*
X020487Y021464D01*
X020443Y021358D01*
X020443Y015600D01*
X016423Y019620D01*
X016423Y021958D01*
X016379Y022064D01*
X015879Y022564D01*
X015798Y022646D01*
X015699Y022687D01*
X015691Y022706D01*
X015539Y022858D01*
X015411Y022911D01*
X015433Y022918D01*
X015506Y022955D01*
X015572Y023003D01*
X015630Y023061D01*
X015678Y023127D01*
X015715Y023200D01*
X015741Y023278D01*
X015752Y023350D01*
X015283Y023350D01*
X015283Y023450D01*
X015183Y023450D01*
X015183Y023350D01*
X014715Y023350D01*
X014726Y023278D01*
X014751Y023200D01*
X014789Y023127D01*
X014837Y023061D01*
X014895Y023003D01*
X014961Y022955D01*
X015034Y022918D01*
X015056Y022911D01*
X014927Y022858D01*
X014776Y022706D01*
X014693Y022507D01*
X014693Y022293D01*
X014776Y022094D01*
X014927Y021942D01*
X015029Y021900D01*
X014927Y021858D01*
X014776Y021706D01*
X014693Y021507D01*
X014693Y021293D01*
X014776Y021094D01*
X014927Y020942D01*
X015029Y020900D01*
X014927Y020858D01*
X014776Y020706D01*
X014769Y020690D01*
X014653Y020690D01*
X014523Y020820D01*
X014523Y022658D01*
X014479Y022764D01*
X014398Y022846D01*
X010879Y026364D01*
X010798Y026446D01*
X010691Y026490D01*
X010683Y026490D01*
X010683Y026950D01*
X010783Y026950D01*
X010783Y026481D01*
X010855Y026493D01*
X010933Y026518D01*
X011006Y026555D01*
X011072Y026603D01*
X011130Y026661D01*
X011178Y026727D01*
X011215Y026800D01*
X011232Y026800D01*
X011215Y026800D02*
X011222Y026822D01*
X011276Y026694D01*
X011427Y026542D01*
X011626Y026460D01*
X011841Y026460D01*
X012039Y026542D01*
X012191Y026694D01*
X012273Y026893D01*
X012273Y027107D01*
X012191Y027306D01*
X012039Y027458D01*
X011841Y027540D01*
X011626Y027540D01*
X011427Y027458D01*
X011276Y027306D01*
X011222Y027178D01*
X011215Y027200D01*
X011178Y027273D01*
X011130Y027339D01*
X011072Y027397D01*
X011006Y027445D01*
X010933Y027482D01*
X010855Y027507D01*
X010783Y027519D01*
X010783Y027050D01*
X010683Y027050D01*
X010683Y027519D01*
X010612Y027507D01*
X010534Y027482D01*
X010461Y027445D01*
X010395Y027397D01*
X010337Y027339D01*
X010289Y027273D01*
X010251Y027200D01*
X010244Y027178D01*
X010191Y027306D01*
X010039Y027458D01*
X009841Y027540D01*
X009626Y027540D01*
X009427Y027458D01*
X009276Y027306D01*
X009273Y027301D01*
X009273Y027440D01*
X009174Y027540D01*
X008293Y027540D01*
X008193Y027440D01*
X008193Y026560D01*
X008293Y026460D01*
X008663Y026460D01*
X009569Y025554D01*
X009676Y025510D01*
X010313Y025510D01*
X013543Y022280D01*
X013543Y021580D01*
X013491Y021706D01*
X013339Y021858D01*
X013141Y021940D01*
X012926Y021940D01*
X012727Y021858D01*
X012576Y021706D01*
X012569Y021690D01*
X011576Y021690D01*
X011469Y021646D01*
X011387Y021564D01*
X009787Y019964D01*
X009743Y019858D01*
X009743Y013742D01*
X009787Y013636D01*
X009869Y013554D01*
X009973Y013450D01*
X007904Y011381D01*
X007823Y011299D01*
X007778Y011193D01*
X007778Y009212D01*
X007693Y009212D01*
X007593Y009112D01*
X007593Y008460D01*
X007693Y008360D01*
X008444Y008360D01*
X008543Y008460D01*
X008543Y009112D01*
X008444Y009212D01*
X008358Y009212D01*
X008358Y011015D01*
X010453Y013110D01*
X011493Y013110D01*
X011493Y012960D01*
X011593Y012860D01*
X012474Y012860D01*
X012573Y012960D01*
X012573Y013099D01*
X012576Y013094D01*
X012727Y012942D01*
X012829Y012900D01*
X012727Y012858D01*
X012576Y012706D01*
X012493Y012507D01*
X012493Y012293D01*
X012576Y012094D01*
X012727Y011942D01*
X012926Y011860D01*
X013141Y011860D01*
X013339Y011942D01*
X013491Y012094D01*
X013573Y012293D01*
X013573Y012507D01*
X013491Y012706D01*
X013339Y012858D01*
X013237Y012900D01*
X013339Y012942D01*
X013491Y013094D01*
X013573Y013293D01*
X013573Y013507D01*
X013491Y013706D01*
X013339Y013858D01*
X013237Y013900D01*
X013339Y013942D01*
X013491Y014094D01*
X013573Y014293D01*
X013573Y014507D01*
X013491Y014706D01*
X013339Y014858D01*
X013237Y014900D01*
X013339Y014942D01*
X013491Y015094D01*
X013573Y015293D01*
X013573Y015507D01*
X013491Y015706D01*
X013339Y015858D01*
X013237Y015900D01*
X013339Y015942D01*
X013491Y016094D01*
X013573Y016293D01*
X013573Y016507D01*
X013491Y016706D01*
X013339Y016858D01*
X013237Y016900D01*
X013339Y016942D01*
X013491Y017094D01*
X013573Y017293D01*
X013573Y017507D01*
X013491Y017706D01*
X013339Y017858D01*
X013237Y017900D01*
X013339Y017942D01*
X013491Y018094D01*
X013573Y018293D01*
X013573Y018507D01*
X013491Y018706D01*
X013339Y018858D01*
X013237Y018900D01*
X013339Y018942D01*
X013491Y019094D01*
X013573Y019293D01*
X013573Y019507D01*
X013491Y019706D01*
X013339Y019858D01*
X013211Y019911D01*
X013233Y019918D01*
X013306Y019955D01*
X013372Y020003D01*
X013430Y020061D01*
X013478Y020127D01*
X013515Y020200D01*
X013541Y020278D01*
X013552Y020350D01*
X013083Y020350D01*
X013083Y020450D01*
X013543Y020450D01*
X013543Y020442D01*
X013587Y020336D01*
X013669Y020254D01*
X014738Y019186D01*
X014776Y019094D01*
X014927Y018942D01*
X015029Y018900D01*
X014927Y018858D01*
X014776Y018706D01*
X014693Y018507D01*
X014693Y018370D01*
X013687Y017364D01*
X013643Y017258D01*
X013643Y009620D01*
X012269Y008246D01*
X012187Y008164D01*
X012143Y008058D01*
X012143Y006842D01*
X012187Y006736D01*
X012687Y006236D01*
X012769Y006154D01*
X012876Y006110D01*
X015891Y006110D01*
X015998Y006154D01*
X016398Y006554D01*
X016479Y006636D01*
X016489Y006660D01*
X016674Y006660D01*
X016773Y006760D01*
X016773Y007640D01*
X016674Y007740D01*
X015793Y007740D01*
X015693Y007640D01*
X015693Y007501D01*
X015691Y007506D01*
X015539Y007658D01*
X015523Y007664D01*
X015523Y008558D01*
X015479Y008664D01*
X015398Y008746D01*
X014623Y009520D01*
X014623Y016880D01*
X014807Y017063D01*
X014927Y016942D01*
X015029Y016900D01*
X014927Y016858D01*
X014776Y016706D01*
X014693Y016507D01*
X014693Y016293D01*
X014776Y016094D01*
X014927Y015942D01*
X015029Y015900D01*
X014927Y015858D01*
X014776Y015706D01*
X014693Y015507D01*
X014693Y015293D01*
X014776Y015094D01*
X014927Y014942D01*
X015029Y014900D01*
X014927Y014858D01*
X014776Y014706D01*
X014693Y014507D01*
X014693Y014293D01*
X014776Y014094D01*
X014927Y013942D01*
X015029Y013900D01*
X014927Y013858D01*
X014776Y013706D01*
X014693Y013507D01*
X014693Y013293D01*
X014776Y013094D01*
X014927Y012942D01*
X015029Y012900D01*
X014927Y012858D01*
X014776Y012706D01*
X014693Y012507D01*
X014693Y012293D01*
X014776Y012094D01*
X014927Y011942D01*
X015029Y011900D01*
X014927Y011858D01*
X014776Y011706D01*
X014693Y011507D01*
X014693Y011293D01*
X014776Y011094D01*
X014927Y010942D01*
X015029Y010900D01*
X014927Y010858D01*
X014776Y010706D01*
X014693Y010507D01*
X014693Y010293D01*
X014776Y010094D01*
X014927Y009942D01*
X015126Y009860D01*
X015341Y009860D01*
X015539Y009942D01*
X015691Y010094D01*
X015698Y010110D01*
X015913Y010110D01*
X016387Y009636D01*
X016469Y009554D01*
X016576Y009510D01*
X017591Y009510D01*
X017698Y009554D01*
X017852Y009708D01*
X017934Y009790D01*
X017978Y009897D01*
X017978Y010056D01*
X018015Y010093D01*
X018015Y010707D01*
X017978Y010744D01*
X017978Y010802D01*
X018035Y010859D01*
X018035Y011354D01*
X017935Y011453D01*
X017479Y011453D01*
X017380Y011354D01*
X017380Y010859D01*
X017398Y010841D01*
X017398Y010744D01*
X017360Y010707D01*
X017360Y010093D01*
X017364Y010090D01*
X017303Y010090D01*
X017306Y010093D01*
X017306Y010707D01*
X017249Y010764D01*
X017249Y010821D01*
X017287Y010859D01*
X017287Y011354D01*
X017187Y011453D01*
X017023Y011453D01*
X017023Y011668D01*
X017105Y011586D01*
X017561Y011586D01*
X017618Y011643D01*
X017892Y011643D01*
X018043Y011492D01*
X018043Y009520D01*
X016987Y008464D01*
X016943Y008358D01*
X016943Y006742D01*
X016987Y006636D01*
X017069Y006554D01*
X017869Y005754D01*
X017933Y005728D02*
X017933Y005520D01*
X017433Y005520D02*
X017433Y006190D01*
X017323Y006300D02*
X016143Y006300D01*
X015933Y006128D02*
X015933Y005520D01*
X015433Y005520D02*
X015433Y006110D01*
X014933Y006110D02*
X014933Y005520D01*
X014433Y005520D02*
X014433Y006110D01*
X013933Y006110D02*
X013933Y005520D01*
X013433Y005520D02*
X013433Y006110D01*
X012933Y006110D02*
X012933Y005520D01*
X012433Y005520D02*
X012433Y006490D01*
X012623Y006300D02*
X006165Y006300D01*
X005933Y006158D02*
X005933Y005520D01*
X006433Y005520D02*
X006433Y009581D01*
X006552Y009581D02*
X006668Y009629D01*
X006756Y009718D01*
X006804Y009834D01*
X006804Y009959D01*
X006756Y010075D01*
X006668Y010163D01*
X006531Y010300D01*
X006668Y010437D01*
X006756Y010525D01*
X006804Y010640D01*
X006804Y010641D01*
X006804Y010766D01*
X006758Y010879D01*
X006756Y010882D01*
X006755Y010883D01*
X006668Y010971D01*
X006553Y011018D01*
X006552Y011019D01*
X006474Y011019D01*
X006555Y011099D01*
X006756Y011301D01*
X006804Y011417D01*
X006804Y012147D01*
X006756Y012263D01*
X006668Y012352D01*
X006552Y012400D01*
X006272Y012400D01*
X006353Y012480D01*
X006756Y012884D01*
X006804Y013000D01*
X006804Y013125D01*
X006756Y013241D01*
X006668Y013329D01*
X006668Y013329D01*
X006264Y013733D01*
X006261Y013734D01*
X006216Y013753D01*
X006264Y013773D01*
X006353Y013861D01*
X006401Y013977D01*
X006401Y014102D01*
X006353Y014218D01*
X006127Y014443D01*
X006353Y014669D01*
X006401Y014784D01*
X006401Y014910D01*
X006353Y015026D01*
X006264Y015114D01*
X006148Y015162D01*
X006071Y015162D01*
X006264Y015356D01*
X006353Y015444D01*
X006401Y015560D01*
X006401Y016089D01*
X006380Y016138D01*
X006353Y016205D01*
X006350Y016207D01*
X006264Y016294D01*
X006151Y016407D01*
X006062Y016495D01*
X006014Y016515D01*
X006062Y016535D01*
X006264Y016737D01*
X006353Y016826D01*
X006401Y016941D01*
X006401Y017294D01*
X006552Y017294D01*
X006668Y017342D01*
X006756Y017431D01*
X006804Y017547D01*
X006804Y017672D01*
X006756Y017788D01*
X006668Y017877D01*
X006552Y017924D01*
X006071Y017924D01*
X006151Y018005D01*
X006353Y018207D01*
X006401Y018322D01*
X006401Y018676D01*
X006552Y018676D01*
X006668Y018724D01*
X006756Y018812D01*
X006804Y018928D01*
X006804Y019053D01*
X006756Y019169D01*
X006668Y019258D01*
X006552Y019306D01*
X006272Y019306D01*
X006353Y019386D01*
X006401Y019502D01*
X006401Y020233D01*
X006380Y020282D01*
X006353Y020348D01*
X006353Y020348D01*
X006350Y020351D01*
X006264Y020437D01*
X006151Y020550D01*
X006151Y020550D01*
X006127Y020574D01*
X006148Y020574D01*
X006264Y020622D01*
X006353Y020711D01*
X006386Y020791D01*
X006466Y020824D01*
X006555Y020912D01*
X006603Y021028D01*
X006603Y021153D01*
X006555Y021269D01*
X006466Y021358D01*
X006386Y021391D01*
X006353Y021471D01*
X006264Y021560D01*
X006148Y021608D01*
X006071Y021608D01*
X006151Y021688D01*
X006353Y021890D01*
X006401Y022006D01*
X006401Y022535D01*
X006353Y022650D01*
X006264Y022739D01*
X006148Y022787D01*
X006023Y022787D01*
X005907Y022739D01*
X005884Y022716D01*
X005860Y022739D01*
X005747Y022852D01*
X005667Y022933D01*
X006552Y022933D01*
X006668Y022981D01*
X006756Y023069D01*
X006804Y023185D01*
X006804Y023310D01*
X006756Y023426D01*
X006668Y023515D01*
X006531Y023651D01*
X006668Y023788D01*
X006756Y023877D01*
X006804Y023991D01*
X006804Y023992D01*
X006804Y024118D01*
X006758Y024230D01*
X006756Y024233D01*
X006755Y024235D01*
X006668Y024322D01*
X006553Y024369D01*
X006552Y024370D01*
X005216Y024370D01*
X005100Y024322D01*
X005011Y024233D01*
X004963Y024118D01*
X004963Y023992D01*
X005011Y023877D01*
X005100Y023788D01*
X005216Y023740D01*
X005781Y023740D01*
X005771Y023714D01*
X005771Y023589D01*
X005781Y023563D01*
X005216Y023563D01*
X005100Y023515D01*
X005011Y023426D01*
X004963Y023310D01*
X004963Y023185D01*
X005011Y023069D01*
X005100Y022981D01*
X005216Y022933D01*
X005294Y022933D01*
X005011Y022650D01*
X004963Y022535D01*
X004963Y021804D01*
X005011Y021688D01*
X005100Y021599D01*
X005216Y021551D01*
X005899Y021551D01*
X005819Y021471D01*
X005792Y021406D01*
X005418Y021406D01*
X005368Y021385D01*
X005302Y021358D01*
X005302Y021358D01*
X005299Y021356D01*
X005213Y021269D01*
X005011Y021067D01*
X004963Y020952D01*
X004963Y020826D01*
X005011Y020711D01*
X005100Y020622D01*
X005216Y020574D01*
X005237Y020574D01*
X005100Y020437D01*
X005011Y020348D01*
X004963Y020233D01*
X004963Y019502D01*
X005011Y019386D01*
X005100Y019297D01*
X005148Y019278D01*
X005100Y019258D01*
X005011Y019169D01*
X004963Y019053D01*
X004963Y018928D01*
X005011Y018812D01*
X005100Y018724D01*
X005216Y018676D01*
X005753Y018676D01*
X005771Y018658D01*
X005771Y018516D01*
X005753Y018498D01*
X005216Y018498D01*
X005100Y018450D01*
X005011Y018362D01*
X004963Y018246D01*
X004963Y018121D01*
X005011Y018005D01*
X005100Y017916D01*
X005148Y017896D01*
X005100Y017877D01*
X005011Y017788D01*
X004963Y017672D01*
X004963Y016941D01*
X005011Y016826D01*
X005100Y016737D01*
X005213Y016624D01*
X005213Y016624D01*
X005302Y016535D01*
X005350Y016515D01*
X005302Y016495D01*
X005011Y016205D01*
X004963Y016089D01*
X004963Y015964D01*
X004963Y015685D01*
X004963Y015560D01*
X005011Y015444D01*
X005100Y015356D01*
X005213Y015243D01*
X005213Y015243D01*
X005294Y015162D01*
X005216Y015162D01*
X005100Y015114D01*
X005011Y015026D01*
X004963Y014910D01*
X004963Y014784D01*
X005011Y014669D01*
X005237Y014443D01*
X005011Y014218D01*
X004963Y014102D01*
X004963Y013977D01*
X005011Y013861D01*
X005100Y013773D01*
X005148Y013753D01*
X005100Y013733D01*
X005011Y013644D01*
X004963Y013529D01*
X004963Y013403D01*
X005011Y013288D01*
X005100Y013199D01*
X005216Y013151D01*
X005569Y013151D01*
X005569Y012974D01*
X005216Y012974D01*
X005100Y012926D01*
X005011Y012837D01*
X004963Y012721D01*
X004963Y012596D01*
X005011Y012480D01*
X005100Y012392D01*
X005148Y012372D01*
X005100Y012352D01*
X005011Y012263D01*
X004963Y012147D01*
X004963Y012022D01*
X005011Y011906D01*
X005100Y011818D01*
X005216Y011770D01*
X005325Y011770D01*
X005011Y011456D01*
X004963Y011340D01*
X004963Y011215D01*
X005011Y011099D01*
X005100Y011010D01*
X005148Y010991D01*
X005100Y010971D01*
X005011Y010882D01*
X004963Y010766D01*
X004963Y010641D01*
X005011Y010525D01*
X005100Y010437D01*
X005216Y010389D01*
X005781Y010389D01*
X005771Y010363D01*
X005771Y010237D01*
X005781Y010211D01*
X005216Y010211D01*
X005100Y010163D01*
X005011Y010075D01*
X004963Y009959D01*
X004963Y009834D01*
X005011Y009718D01*
X005100Y009629D01*
X005216Y009581D01*
X006552Y009581D01*
X006790Y009800D02*
X007778Y009800D01*
X007778Y010300D02*
X006531Y010300D01*
X006668Y010437D02*
X006668Y010437D01*
X006790Y010800D02*
X007778Y010800D01*
X007823Y011300D02*
X006756Y011300D01*
X006804Y011800D02*
X008323Y011800D01*
X008433Y011910D02*
X008433Y026460D01*
X008193Y026800D02*
X006433Y026800D01*
X006433Y026741D02*
X006311Y026447D01*
X006086Y026222D01*
X005792Y026100D01*
X005474Y026100D01*
X005180Y026222D01*
X004955Y026447D01*
X004833Y026741D01*
X004833Y027059D01*
X004955Y027353D01*
X005180Y027578D01*
X005474Y027700D01*
X005792Y027700D01*
X006086Y027578D01*
X006311Y027353D01*
X006433Y027059D01*
X006433Y026741D01*
X006165Y026300D02*
X008823Y026300D01*
X008933Y026190D02*
X008933Y012410D01*
X008823Y012300D02*
X006720Y012300D01*
X006433Y012400D02*
X006433Y012561D01*
X006673Y012800D02*
X009323Y012800D01*
X009433Y012910D02*
X009433Y025690D01*
X009323Y025800D02*
X004653Y025800D01*
X004653Y026300D02*
X005102Y026300D01*
X004933Y026500D02*
X004933Y007300D01*
X004653Y007300D01*
X004653Y006800D02*
X004833Y006800D01*
X004933Y006500D02*
X004933Y006211D01*
X004844Y006300D02*
X005102Y006300D01*
X006433Y006800D02*
X007593Y006800D01*
X007593Y006688D02*
X007693Y006588D01*
X008444Y006588D01*
X008543Y006688D01*
X008543Y007094D01*
X008655Y007212D01*
X009879Y008436D01*
X009923Y008542D01*
X009923Y009580D01*
X011453Y011110D01*
X012800Y011110D01*
X012824Y011086D01*
X012960Y011030D01*
X013107Y011030D01*
X013243Y011086D01*
X013347Y011190D01*
X013403Y011326D01*
X013403Y011474D01*
X013347Y011610D01*
X013243Y011714D01*
X013107Y011770D01*
X012960Y011770D01*
X012824Y011714D01*
X012800Y011690D01*
X011276Y011690D01*
X011169Y011646D01*
X009469Y009946D01*
X009387Y009864D01*
X009343Y009758D01*
X009343Y008720D01*
X008280Y007657D01*
X008277Y007656D01*
X008240Y007617D01*
X008202Y007578D01*
X008200Y007575D01*
X008072Y007440D01*
X007693Y007440D01*
X007593Y007340D01*
X007593Y006688D01*
X007933Y006588D02*
X007933Y005520D01*
X008433Y005520D02*
X008433Y006588D01*
X008543Y006800D02*
X010723Y006800D01*
X010723Y006688D02*
X010823Y006588D01*
X011574Y006588D01*
X011673Y006688D01*
X011673Y007340D01*
X011574Y007440D01*
X010823Y007440D01*
X010723Y007340D01*
X010723Y006688D01*
X010933Y006588D02*
X010933Y005520D01*
X011433Y005520D02*
X011433Y006588D01*
X011673Y006800D02*
X012161Y006800D01*
X012143Y007300D02*
X011673Y007300D01*
X011433Y007440D02*
X011433Y008360D01*
X011574Y008360D02*
X011673Y008460D01*
X011673Y009112D01*
X011574Y009212D01*
X010823Y009212D01*
X010723Y009112D01*
X010723Y008460D01*
X010823Y008360D01*
X011574Y008360D01*
X011673Y008800D02*
X012823Y008800D01*
X012933Y008910D02*
X012933Y011041D01*
X012433Y011110D02*
X012433Y008410D01*
X012323Y008300D02*
X009743Y008300D01*
X009433Y007990D02*
X009433Y005520D01*
X009933Y005520D02*
X009933Y009590D01*
X009923Y009300D02*
X013323Y009300D01*
X013433Y009410D02*
X013433Y012036D01*
X013573Y012300D02*
X013643Y012300D01*
X013643Y011800D02*
X009143Y011800D01*
X008933Y011590D02*
X008933Y008310D01*
X008923Y008300D02*
X004653Y008300D01*
X004653Y007800D02*
X008423Y007800D01*
X008433Y007810D02*
X008433Y008360D01*
X008543Y008800D02*
X009343Y008800D01*
X009343Y009300D02*
X008358Y009300D01*
X008433Y009212D02*
X008433Y011090D01*
X008643Y011300D02*
X010823Y011300D01*
X010933Y011410D02*
X010933Y013110D01*
X011433Y013110D02*
X011433Y011690D01*
X011933Y011690D02*
X011933Y012860D01*
X012433Y012860D02*
X012433Y011690D01*
X012933Y011759D02*
X012933Y011860D01*
X012493Y012300D02*
X009643Y012300D01*
X009433Y012090D02*
X009433Y009910D01*
X009361Y009800D02*
X008358Y009800D01*
X008358Y010300D02*
X009823Y010300D01*
X009933Y010410D02*
X009933Y012590D01*
X010143Y012800D02*
X012670Y012800D01*
X013397Y012800D02*
X013643Y012800D01*
X013433Y012764D02*
X013433Y013036D01*
X013573Y013300D02*
X013643Y013300D01*
X013643Y013800D02*
X013397Y013800D01*
X013433Y013764D02*
X013433Y014036D01*
X013573Y014300D02*
X013643Y014300D01*
X013643Y014800D02*
X013397Y014800D01*
X013433Y014764D02*
X013433Y015036D01*
X013573Y015300D02*
X013643Y015300D01*
X013643Y015800D02*
X013397Y015800D01*
X013433Y015764D02*
X013433Y016036D01*
X013573Y016300D02*
X013643Y016300D01*
X013643Y016800D02*
X013397Y016800D01*
X013433Y016764D02*
X013433Y017036D01*
X013573Y017300D02*
X013661Y017300D01*
X013933Y017610D02*
X013933Y019990D01*
X014123Y019800D02*
X013397Y019800D01*
X013433Y019764D02*
X013433Y020066D01*
X013544Y020300D02*
X013623Y020300D01*
X013433Y020350D02*
X013433Y020450D01*
X012856Y020889D02*
X012834Y020882D01*
X012761Y020845D01*
X012695Y020797D01*
X012637Y020739D01*
X012589Y020673D01*
X012551Y020600D01*
X012544Y020578D01*
X012491Y020706D01*
X012339Y020858D01*
X012141Y020940D01*
X011926Y020940D01*
X011727Y020858D01*
X011576Y020706D01*
X011493Y020507D01*
X011493Y020293D01*
X011576Y020094D01*
X011727Y019942D01*
X011829Y019900D01*
X011727Y019858D01*
X011576Y019706D01*
X011493Y019507D01*
X011493Y019293D01*
X011576Y019094D01*
X011727Y018942D01*
X011829Y018900D01*
X011727Y018858D01*
X011576Y018706D01*
X011493Y018507D01*
X011493Y018293D01*
X011576Y018094D01*
X011727Y017942D01*
X011829Y017900D01*
X011727Y017858D01*
X011576Y017706D01*
X011493Y017507D01*
X011493Y017293D01*
X011576Y017094D01*
X011727Y016942D01*
X011829Y016900D01*
X011727Y016858D01*
X011576Y016706D01*
X011493Y016507D01*
X011493Y016293D01*
X011576Y016094D01*
X011727Y015942D01*
X011829Y015900D01*
X011727Y015858D01*
X011576Y015706D01*
X011493Y015507D01*
X011493Y015293D01*
X011576Y015094D01*
X011727Y014942D01*
X011856Y014889D01*
X011834Y014882D01*
X011761Y014845D01*
X011695Y014797D01*
X011637Y014739D01*
X011589Y014673D01*
X011551Y014600D01*
X011526Y014522D01*
X011515Y014450D01*
X011983Y014450D01*
X011983Y014350D01*
X011515Y014350D01*
X011526Y014278D01*
X011551Y014200D01*
X011589Y014127D01*
X011637Y014061D01*
X011695Y014003D01*
X011761Y013955D01*
X011791Y013940D01*
X011593Y013940D01*
X011493Y013840D01*
X011493Y013690D01*
X010553Y013690D01*
X010548Y013696D01*
X010323Y013920D01*
X010323Y014234D01*
X010361Y014177D01*
X010410Y014128D01*
X010468Y014090D01*
X010531Y014063D01*
X010599Y014050D01*
X010633Y014050D01*
X010633Y014400D01*
X010633Y014750D01*
X010599Y014750D01*
X010531Y014737D01*
X010468Y014710D01*
X010410Y014672D01*
X010361Y014623D01*
X010323Y014566D01*
X010323Y019680D01*
X011753Y021110D01*
X012569Y021110D01*
X012576Y021094D01*
X012727Y020942D01*
X012856Y020889D01*
X012699Y020800D02*
X012397Y020800D01*
X012433Y020764D02*
X012433Y021110D01*
X011933Y021110D02*
X011933Y020940D01*
X011670Y020800D02*
X011443Y020800D01*
X011433Y020790D02*
X011433Y013690D01*
X011493Y013800D02*
X010443Y013800D01*
X010433Y013810D02*
X010433Y014113D01*
X010633Y014050D02*
X010633Y014400D01*
X010633Y014400D01*
X010633Y014400D01*
X010633Y014750D01*
X010668Y014750D01*
X010735Y014737D01*
X010799Y014710D01*
X010856Y014672D01*
X010905Y014623D01*
X010943Y014566D01*
X010970Y014502D01*
X010983Y014434D01*
X010983Y014400D01*
X010633Y014400D01*
X010633Y014400D01*
X010983Y014400D01*
X010983Y014366D01*
X010970Y014298D01*
X010943Y014234D01*
X010905Y014177D01*
X010856Y014128D01*
X010799Y014090D01*
X010735Y014063D01*
X010668Y014050D01*
X010633Y014050D01*
X010633Y014300D02*
X010633Y014300D01*
X010933Y014219D02*
X010933Y013690D01*
X010970Y014300D02*
X011523Y014300D01*
X011933Y014350D02*
X011933Y014450D01*
X011699Y014800D02*
X010323Y014800D01*
X010433Y014687D02*
X010433Y019790D01*
X010443Y019800D02*
X011670Y019800D01*
X011493Y020300D02*
X010943Y020300D01*
X010933Y020290D02*
X010933Y014581D01*
X010933Y014400D02*
X010933Y014400D01*
X011493Y015300D02*
X010323Y015300D01*
X010323Y015800D02*
X011670Y015800D01*
X011493Y016300D02*
X010323Y016300D01*
X010323Y016800D02*
X011670Y016800D01*
X011493Y017300D02*
X010323Y017300D01*
X010323Y017800D02*
X011670Y017800D01*
X011493Y018300D02*
X010323Y018300D01*
X010323Y018800D02*
X011670Y018800D01*
X011493Y019300D02*
X010323Y019300D01*
X009743Y019300D02*
X006566Y019300D01*
X006433Y019306D02*
X006433Y020810D01*
X006409Y020800D02*
X010623Y020800D01*
X010433Y020610D02*
X010433Y025390D01*
X010523Y025300D02*
X004653Y025300D01*
X004653Y024800D02*
X011023Y024800D01*
X010933Y024890D02*
X010933Y021110D01*
X011123Y021300D02*
X006524Y021300D01*
X006433Y021371D02*
X006433Y022933D01*
X006804Y023300D02*
X012523Y023300D01*
X012433Y023390D02*
X012433Y021690D01*
X012670Y021800D02*
X006263Y021800D01*
X006401Y022300D02*
X013523Y022300D01*
X013433Y022390D02*
X013433Y021764D01*
X013397Y021800D02*
X013543Y021800D01*
X012933Y021940D02*
X012933Y022890D01*
X013023Y022800D02*
X005799Y022800D01*
X005747Y022852D02*
X005747Y022852D01*
X005860Y022739D02*
X005860Y022739D01*
X005933Y022750D02*
X005933Y022933D01*
X005161Y022800D02*
X004653Y022800D01*
X004653Y022300D02*
X004963Y022300D01*
X004965Y021800D02*
X004653Y021800D01*
X004653Y021300D02*
X005244Y021300D01*
X005213Y021269D02*
X005213Y021269D01*
X005433Y021406D02*
X005433Y021551D01*
X004974Y020800D02*
X004653Y020800D01*
X004653Y020300D02*
X004991Y020300D01*
X004963Y019800D02*
X004653Y019800D01*
X004653Y019300D02*
X005097Y019300D01*
X005024Y018800D02*
X004653Y018800D01*
X004653Y018300D02*
X004986Y018300D01*
X005433Y018498D02*
X005433Y018676D01*
X005023Y017800D02*
X004653Y017800D01*
X004653Y017300D02*
X004963Y017300D01*
X005037Y016800D02*
X004653Y016800D01*
X005100Y016737D02*
X005100Y016737D01*
X005106Y016300D02*
X004653Y016300D01*
X004653Y015800D02*
X004963Y015800D01*
X005100Y015356D02*
X005100Y015356D01*
X005156Y015300D02*
X004653Y015300D01*
X004653Y014800D02*
X004963Y014800D01*
X005093Y014300D02*
X004653Y014300D01*
X004653Y013800D02*
X005073Y013800D01*
X005006Y013300D02*
X004653Y013300D01*
X004653Y012800D02*
X004996Y012800D01*
X005433Y012974D02*
X005433Y013151D01*
X005048Y012300D02*
X004653Y012300D01*
X004653Y011800D02*
X005143Y011800D01*
X004963Y011300D02*
X004653Y011300D01*
X004653Y010800D02*
X004977Y010800D01*
X005433Y010389D02*
X005433Y010211D01*
X005771Y010300D02*
X004653Y010300D01*
X004653Y009800D02*
X004977Y009800D01*
X005433Y009581D02*
X005433Y007683D01*
X005933Y007642D02*
X005933Y009581D01*
X004653Y009300D02*
X007778Y009300D01*
X007593Y008800D02*
X004653Y008800D01*
X006333Y007300D02*
X007593Y007300D01*
X007933Y007440D02*
X007933Y008360D01*
X008933Y007490D02*
X008933Y005520D01*
X007433Y005520D02*
X007433Y028280D01*
X006933Y028280D02*
X006933Y005520D01*
X008743Y007300D02*
X010723Y007300D01*
X010933Y007440D02*
X010933Y008360D01*
X010723Y008800D02*
X009923Y008800D01*
X010933Y009212D02*
X010933Y010590D01*
X011143Y010800D02*
X013643Y010800D01*
X013643Y011300D02*
X013392Y011300D01*
X014623Y011300D02*
X014693Y011300D01*
X014933Y010940D02*
X014933Y010860D01*
X014870Y010800D02*
X014623Y010800D01*
X014623Y010300D02*
X014693Y010300D01*
X014933Y009940D02*
X014933Y009210D01*
X014843Y009300D02*
X017823Y009300D01*
X017933Y009410D02*
X017933Y009790D01*
X017938Y009800D02*
X018043Y009800D01*
X018015Y010300D02*
X018043Y010300D01*
X018043Y010800D02*
X017978Y010800D01*
X017398Y010800D02*
X017249Y010800D01*
X016669Y010800D02*
X015597Y010800D01*
X015539Y010858D02*
X015437Y010900D01*
X015539Y010942D01*
X015691Y011094D01*
X015698Y011110D01*
X015891Y011110D01*
X015998Y011154D01*
X016298Y011454D01*
X016379Y011536D01*
X016423Y011642D01*
X016423Y013848D01*
X017022Y014447D01*
X017187Y014447D01*
X017287Y014546D01*
X017287Y015041D01*
X017249Y015079D01*
X017249Y015136D01*
X017306Y015193D01*
X017306Y015807D01*
X017207Y015906D01*
X016751Y015906D01*
X016652Y015807D01*
X016652Y015193D01*
X016669Y015176D01*
X016669Y015079D01*
X016632Y015041D01*
X016632Y014876D01*
X015887Y014132D01*
X015843Y014025D01*
X015843Y011820D01*
X015713Y011690D01*
X015698Y011690D01*
X015691Y011706D01*
X015539Y011858D01*
X015437Y011900D01*
X015539Y011942D01*
X015691Y012094D01*
X015773Y012293D01*
X015773Y012507D01*
X015691Y012706D01*
X015539Y012858D01*
X015437Y012900D01*
X015539Y012942D01*
X015691Y013094D01*
X015773Y013293D01*
X015773Y013507D01*
X015691Y013706D01*
X015539Y013858D01*
X015437Y013900D01*
X015539Y013942D01*
X015691Y014094D01*
X015773Y014293D01*
X015773Y014507D01*
X015691Y014706D01*
X015539Y014858D01*
X015437Y014900D01*
X015539Y014942D01*
X015691Y015094D01*
X015773Y015293D01*
X015773Y015507D01*
X015691Y015706D01*
X015539Y015858D01*
X015437Y015900D01*
X015539Y015942D01*
X015691Y016094D01*
X015773Y016293D01*
X015773Y016507D01*
X015691Y016706D01*
X015539Y016858D01*
X015437Y016900D01*
X015539Y016942D01*
X015691Y017094D01*
X015773Y017293D01*
X015773Y017507D01*
X015691Y017706D01*
X015539Y017858D01*
X015437Y017900D01*
X015539Y017942D01*
X015691Y018094D01*
X015773Y018293D01*
X015773Y018507D01*
X015691Y018706D01*
X015539Y018858D01*
X015437Y018900D01*
X015539Y018942D01*
X015691Y019094D01*
X015773Y019293D01*
X015773Y019507D01*
X015691Y019706D01*
X015539Y019858D01*
X015437Y019900D01*
X015539Y019942D01*
X015691Y020094D01*
X015773Y020293D01*
X015773Y020507D01*
X015691Y020706D01*
X015539Y020858D01*
X015437Y020900D01*
X015539Y020942D01*
X015691Y021094D01*
X015773Y021293D01*
X015773Y021507D01*
X015691Y021706D01*
X015539Y021858D01*
X015437Y021900D01*
X015539Y021942D01*
X015610Y022013D01*
X015843Y021780D01*
X015843Y019442D01*
X015887Y019336D01*
X015969Y019254D01*
X020043Y015180D01*
X020043Y009242D01*
X020087Y009136D01*
X020943Y008280D01*
X020943Y007664D01*
X020927Y007658D01*
X020776Y007506D01*
X020722Y007378D01*
X020715Y007400D01*
X020678Y007473D01*
X020630Y007539D01*
X020572Y007597D01*
X020506Y007645D01*
X020433Y007682D01*
X020355Y007707D01*
X020283Y007719D01*
X020283Y007250D01*
X020183Y007250D01*
X020183Y007719D01*
X020112Y007707D01*
X020034Y007682D01*
X019961Y007645D01*
X019895Y007597D01*
X019837Y007539D01*
X019789Y007473D01*
X019751Y007400D01*
X019744Y007378D01*
X019691Y007506D01*
X019539Y007658D01*
X019341Y007740D01*
X019126Y007740D01*
X018927Y007658D01*
X018776Y007506D01*
X018693Y007307D01*
X018693Y007093D01*
X018776Y006894D01*
X018927Y006742D01*
X019053Y006690D01*
X018353Y006690D01*
X017923Y007120D01*
X017923Y007980D01*
X018043Y008100D01*
X018043Y007933D01*
X018020Y007910D01*
X017963Y007774D01*
X017963Y007626D01*
X018020Y007490D01*
X018124Y007386D01*
X018260Y007330D01*
X018407Y007330D01*
X018543Y007386D01*
X018647Y007490D01*
X018703Y007626D01*
X018703Y007774D01*
X018647Y007910D01*
X018623Y007933D01*
X018623Y008080D01*
X019779Y009236D01*
X019823Y009342D01*
X019823Y012612D01*
X019828Y012627D01*
X019823Y012670D01*
X019823Y012712D01*
X019817Y012726D01*
X019816Y012742D01*
X019815Y012743D01*
X019815Y012807D01*
X019778Y012844D01*
X019778Y013056D01*
X019815Y013093D01*
X019815Y013707D01*
X019716Y013806D01*
X019260Y013806D01*
X019160Y013707D01*
X019160Y013093D01*
X019198Y013056D01*
X019198Y012844D01*
X019160Y012807D01*
X019160Y012193D01*
X019243Y012110D01*
X019243Y011613D01*
X019143Y011714D01*
X019007Y011770D01*
X018860Y011770D01*
X018724Y011714D01*
X018623Y011613D01*
X018623Y011669D01*
X018579Y011776D01*
X018422Y011933D01*
X018583Y012094D01*
X019007Y012094D01*
X019106Y012193D01*
X019106Y012807D01*
X019007Y012906D01*
X018551Y012906D01*
X018452Y012807D01*
X018452Y012761D01*
X018415Y012746D01*
X018333Y012664D01*
X017892Y012223D01*
X017618Y012223D01*
X017561Y012280D01*
X017105Y012280D01*
X017023Y012198D01*
X017023Y012280D01*
X017373Y012630D01*
X017407Y012630D01*
X017543Y012686D01*
X017647Y012790D01*
X017703Y012926D01*
X017703Y013074D01*
X017647Y013210D01*
X017543Y013314D01*
X017407Y013370D01*
X017260Y013370D01*
X017124Y013314D01*
X017020Y013210D01*
X016963Y013074D01*
X016963Y013040D01*
X016487Y012564D01*
X016443Y012458D01*
X016443Y011275D01*
X016487Y011168D01*
X016632Y011024D01*
X016632Y010859D01*
X016669Y010821D01*
X016669Y010724D01*
X016652Y010707D01*
X016652Y010192D01*
X016198Y010646D01*
X016091Y010690D01*
X015698Y010690D01*
X015691Y010706D01*
X015539Y010858D01*
X015933Y010690D02*
X015933Y011128D01*
X016143Y011300D02*
X016443Y011300D01*
X016423Y011800D02*
X016443Y011800D01*
X016423Y012300D02*
X016443Y012300D01*
X015843Y012300D02*
X015773Y012300D01*
X015823Y011800D02*
X015597Y011800D01*
X014933Y011860D02*
X014933Y011940D01*
X014870Y011800D02*
X014623Y011800D01*
X014623Y012300D02*
X014693Y012300D01*
X014623Y012800D02*
X014870Y012800D01*
X014933Y012860D02*
X014933Y012940D01*
X014693Y013300D02*
X014623Y013300D01*
X014623Y013800D02*
X014870Y013800D01*
X014933Y013860D02*
X014933Y013940D01*
X014693Y014300D02*
X014623Y014300D01*
X014623Y014800D02*
X014870Y014800D01*
X014933Y014860D02*
X014933Y014940D01*
X014693Y015300D02*
X014623Y015300D01*
X014623Y015800D02*
X014870Y015800D01*
X014933Y015860D02*
X014933Y015940D01*
X014693Y016300D02*
X014623Y016300D01*
X014623Y016800D02*
X014870Y016800D01*
X014933Y016860D02*
X014933Y016940D01*
X015597Y016800D02*
X016974Y016800D01*
X016963Y016826D02*
X017020Y016690D01*
X017124Y016586D01*
X017260Y016530D01*
X017293Y016530D01*
X017398Y016426D01*
X017398Y015844D01*
X017360Y015807D01*
X017360Y015193D01*
X017417Y015136D01*
X017417Y015079D01*
X017380Y015041D01*
X017380Y014546D01*
X017479Y014447D01*
X017935Y014447D01*
X018035Y014546D01*
X018035Y015041D01*
X017997Y015079D01*
X017997Y015176D01*
X018015Y015193D01*
X018015Y015807D01*
X017978Y015844D01*
X017978Y016603D01*
X017934Y016710D01*
X017852Y016792D01*
X017703Y016940D01*
X017703Y016974D01*
X017647Y017110D01*
X017543Y017214D01*
X017407Y017270D01*
X017260Y017270D01*
X017124Y017214D01*
X017020Y017110D01*
X016963Y016974D01*
X016963Y016826D01*
X017433Y017259D02*
X017433Y017790D01*
X017423Y017800D02*
X015597Y017800D01*
X015773Y018300D02*
X016923Y018300D01*
X016933Y018290D02*
X016933Y015906D01*
X016652Y015800D02*
X015597Y015800D01*
X015773Y016300D02*
X017398Y016300D01*
X017360Y015800D02*
X017306Y015800D01*
X018015Y015800D02*
X019423Y015800D01*
X019433Y015790D02*
X019433Y013806D01*
X019254Y013800D02*
X019069Y013800D01*
X019069Y013744D02*
X019069Y014156D01*
X019143Y014186D01*
X019247Y014290D01*
X019303Y014426D01*
X019303Y014574D01*
X019247Y014710D01*
X019143Y014814D01*
X019007Y014870D01*
X018860Y014870D01*
X018724Y014814D01*
X018620Y014710D01*
X018563Y014574D01*
X018563Y014540D01*
X018533Y014510D01*
X018489Y014403D01*
X018489Y014257D01*
X017618Y014257D01*
X017561Y014314D01*
X017105Y014314D01*
X017006Y014215D01*
X017006Y013719D01*
X017105Y013620D01*
X017561Y013620D01*
X017618Y013677D01*
X018452Y013677D01*
X018452Y013093D01*
X018551Y012994D01*
X019007Y012994D01*
X019106Y013093D01*
X019106Y013707D01*
X019069Y013744D01*
X019106Y013300D02*
X019160Y013300D01*
X018933Y012994D02*
X018933Y012906D01*
X019106Y012800D02*
X019160Y012800D01*
X019815Y012800D02*
X020043Y012800D01*
X020043Y012300D02*
X019823Y012300D01*
X019823Y011800D02*
X020043Y011800D01*
X020043Y011300D02*
X019823Y011300D01*
X019823Y010800D02*
X020043Y010800D01*
X020043Y010300D02*
X019823Y010300D01*
X019823Y009800D02*
X020043Y009800D01*
X020043Y009300D02*
X019806Y009300D01*
X019433Y008890D02*
X019433Y007702D01*
X018933Y007660D02*
X018933Y008390D01*
X018843Y008300D02*
X020923Y008300D01*
X020933Y008290D02*
X020933Y007660D01*
X020943Y007800D02*
X018692Y007800D01*
X018693Y007300D02*
X017923Y007300D01*
X017933Y007110D02*
X017933Y007990D01*
X017923Y007800D02*
X017974Y007800D01*
X018433Y007341D02*
X018433Y006690D01*
X018243Y006800D02*
X018870Y006800D01*
X018933Y006740D02*
X018933Y006690D01*
X019933Y007625D02*
X019933Y015290D01*
X019923Y015300D02*
X018015Y015300D01*
X017360Y015300D02*
X017306Y015300D01*
X017287Y014800D02*
X017380Y014800D01*
X017433Y014493D02*
X017433Y014314D01*
X017575Y014300D02*
X018489Y014300D01*
X018433Y014257D02*
X018433Y016790D01*
X018423Y016800D02*
X017843Y016800D01*
X017933Y016710D02*
X017933Y017290D01*
X017923Y017300D02*
X015773Y017300D01*
X014623Y018300D02*
X013573Y018300D01*
X013433Y018036D02*
X013433Y017764D01*
X013397Y017800D02*
X014123Y017800D01*
X014433Y018110D02*
X014433Y019490D01*
X014623Y019300D02*
X013573Y019300D01*
X013433Y019036D02*
X013433Y018764D01*
X013397Y018800D02*
X014870Y018800D01*
X014933Y018860D02*
X014933Y018940D01*
X015597Y018800D02*
X016423Y018800D01*
X016433Y018790D02*
X016433Y014678D01*
X016555Y014800D02*
X015597Y014800D01*
X015773Y014300D02*
X016055Y014300D01*
X015933Y014178D02*
X015933Y019290D01*
X015923Y019300D02*
X015773Y019300D01*
X016433Y019610D02*
X016433Y026168D01*
X016445Y026180D02*
X016526Y026260D01*
X016526Y026182D01*
X016574Y026067D01*
X016662Y025978D01*
X016778Y025930D01*
X017509Y025930D01*
X017625Y025978D01*
X017713Y026067D01*
X017826Y026180D01*
X017826Y026180D01*
X017915Y026268D01*
X017935Y026316D01*
X017955Y026268D01*
X018245Y025978D01*
X018361Y025930D01*
X018486Y025930D01*
X018765Y025930D01*
X018890Y025930D01*
X019006Y025978D01*
X019094Y026067D01*
X019208Y026180D01*
X019296Y026268D01*
X019325Y026338D01*
X019344Y026384D01*
X019344Y026866D01*
X019425Y026785D01*
X019490Y026758D01*
X019490Y026384D01*
X019510Y026335D01*
X019538Y026268D01*
X019540Y026266D01*
X019626Y026180D01*
X019626Y026180D01*
X019828Y025978D01*
X019944Y025930D01*
X020069Y025930D01*
X020185Y025978D01*
X020265Y026058D01*
X020345Y025978D01*
X020461Y025930D01*
X020990Y025930D01*
X021106Y025978D01*
X021195Y026067D01*
X021243Y026182D01*
X021243Y026203D01*
X021379Y026067D01*
X021468Y025978D01*
X021584Y025930D01*
X022315Y025930D01*
X022430Y025978D01*
X022519Y026067D01*
X022539Y026115D01*
X022559Y026067D01*
X022647Y025978D01*
X022763Y025930D01*
X023494Y025930D01*
X023610Y025978D01*
X023698Y026067D01*
X023812Y026180D01*
X023900Y026268D01*
X023929Y026338D01*
X023948Y026384D01*
X023948Y026509D01*
X023900Y026625D01*
X023761Y026764D01*
X023812Y026785D01*
X023900Y026874D01*
X023948Y026990D01*
X023948Y027115D01*
X023900Y027231D01*
X023812Y027319D01*
X023696Y027367D01*
X022965Y027367D01*
X022918Y027348D01*
X022849Y027319D01*
X022761Y027231D01*
X022613Y027083D01*
X022567Y027037D01*
X022567Y027115D01*
X022519Y027231D01*
X022430Y027319D01*
X022315Y027367D01*
X021584Y027367D01*
X021534Y027347D01*
X021468Y027319D01*
X021466Y027317D01*
X021379Y027231D01*
X021266Y027118D01*
X021178Y027029D01*
X021130Y026913D01*
X021130Y026488D01*
X021106Y026512D01*
X021041Y026539D01*
X021041Y027115D01*
X020993Y027231D01*
X020969Y027254D01*
X020993Y027278D01*
X021041Y027393D01*
X021041Y027721D01*
X020993Y027836D01*
X020904Y027925D01*
X020788Y027973D01*
X020663Y027973D01*
X020547Y027925D01*
X020459Y027836D01*
X020411Y027721D01*
X020411Y027393D01*
X020427Y027353D01*
X020345Y027319D01*
X020265Y027239D01*
X020185Y027319D01*
X020105Y027353D01*
X020072Y027433D01*
X019983Y027521D01*
X019868Y027569D01*
X019742Y027569D01*
X019626Y027521D01*
X019538Y027433D01*
X019505Y027353D01*
X019425Y027319D01*
X019336Y027231D01*
X019288Y027115D01*
X019288Y027037D01*
X019094Y027231D01*
X019006Y027319D01*
X018890Y027367D01*
X018361Y027367D01*
X018312Y027347D01*
X018245Y027319D01*
X018243Y027317D01*
X018157Y027231D01*
X018157Y027231D01*
X018043Y027118D01*
X017955Y027029D01*
X017935Y026981D01*
X017915Y027029D01*
X017713Y027231D01*
X017625Y027319D01*
X017509Y027367D01*
X017156Y027367D01*
X017156Y027519D01*
X017108Y027634D01*
X017019Y027723D01*
X016903Y027771D01*
X016778Y027771D01*
X016662Y027723D01*
X016574Y027634D01*
X016526Y027519D01*
X016526Y027037D01*
X016332Y027231D01*
X016243Y027319D01*
X016128Y027367D01*
X015599Y027367D01*
X015549Y027347D01*
X015483Y027319D01*
X015481Y027317D01*
X015394Y027231D01*
X015394Y027231D01*
X015281Y027118D01*
X015201Y027037D01*
X015201Y027317D01*
X015153Y027433D01*
X015064Y027521D01*
X014862Y027723D01*
X014747Y027771D01*
X014016Y027771D01*
X013900Y027723D01*
X013811Y027634D01*
X013763Y027519D01*
X013763Y026182D01*
X013811Y026067D01*
X013900Y025978D01*
X014016Y025930D01*
X014141Y025930D01*
X014257Y025978D01*
X014345Y026067D01*
X014393Y026182D01*
X014393Y026292D01*
X014707Y025978D01*
X014823Y025930D01*
X014948Y025930D01*
X015064Y025978D01*
X015153Y026067D01*
X015201Y026182D01*
X015201Y026260D01*
X015483Y025978D01*
X015599Y025930D01*
X016128Y025930D01*
X016243Y025978D01*
X016332Y026067D01*
X016445Y026180D01*
X016445Y026180D01*
X016332Y026067D02*
X016332Y026067D01*
X015933Y025930D02*
X015933Y022510D01*
X016143Y022300D02*
X017263Y022300D01*
X017263Y022275D02*
X017303Y022180D01*
X017440Y022043D01*
X017513Y021970D01*
X017608Y021930D01*
X017985Y021930D01*
X018081Y021970D01*
X018218Y022106D01*
X018257Y022146D01*
X018434Y021970D01*
X018529Y021930D01*
X018906Y021930D01*
X019002Y021970D01*
X019075Y022043D01*
X019124Y022092D01*
X019144Y022043D01*
X019218Y021970D01*
X019313Y021930D01*
X019827Y021930D01*
X019923Y021970D01*
X019996Y022043D01*
X020132Y022180D01*
X020172Y022275D01*
X020172Y022515D01*
X020155Y022556D01*
X020137Y022600D01*
X020172Y022685D01*
X020172Y022926D01*
X020155Y022966D01*
X020132Y023021D01*
X020131Y023023D01*
X019923Y023231D01*
X019827Y023271D01*
X019313Y023271D01*
X019218Y023231D01*
X019144Y023158D01*
X019124Y023109D01*
X019002Y023231D01*
X018906Y023271D01*
X018529Y023271D01*
X018434Y023231D01*
X018311Y023109D01*
X018291Y023158D01*
X018218Y023231D01*
X018122Y023271D01*
X018019Y023271D01*
X017923Y023231D01*
X017850Y023158D01*
X017810Y023062D01*
X017810Y022450D01*
X017783Y022450D01*
X017783Y023062D01*
X017744Y023158D01*
X017671Y023231D01*
X017575Y023271D01*
X017472Y023271D01*
X017376Y023231D01*
X017303Y023158D01*
X017263Y023062D01*
X017263Y022275D01*
X017433Y022049D02*
X017433Y018610D01*
X017243Y018800D02*
X020443Y018800D01*
X020443Y018300D02*
X017743Y018300D01*
X017933Y018110D02*
X017933Y021930D01*
X018433Y021970D02*
X018433Y017610D01*
X018243Y017800D02*
X020443Y017800D01*
X020443Y017300D02*
X018743Y017300D01*
X018933Y017110D02*
X018933Y021941D01*
X019433Y021930D02*
X019433Y016610D01*
X019243Y016800D02*
X020443Y016800D01*
X020443Y016300D02*
X019743Y016300D01*
X019933Y016110D02*
X019933Y021980D01*
X020172Y022300D02*
X021323Y022300D01*
X021433Y022410D02*
X021433Y026013D01*
X021933Y025930D02*
X021933Y025345D01*
X021912Y025337D02*
X021888Y025290D01*
X021865Y025337D01*
X021680Y025399D01*
X021506Y025312D01*
X021445Y025127D01*
X021671Y024675D01*
X021696Y024598D01*
X021713Y024590D01*
X021722Y024573D01*
X021798Y024547D01*
X021870Y024511D01*
X021888Y024517D01*
X021907Y024511D01*
X021979Y024547D01*
X022055Y024573D01*
X022064Y024590D01*
X022081Y024598D01*
X022106Y024675D01*
X022108Y024678D01*
X022108Y024668D01*
X022246Y024530D01*
X022821Y024530D01*
X022855Y024565D01*
X022890Y024530D01*
X023180Y024530D01*
X023244Y024594D01*
X023307Y024530D01*
X023692Y024530D01*
X023830Y024668D01*
X023925Y024763D01*
X023925Y025338D01*
X023787Y025475D01*
X023692Y025570D01*
X023307Y025570D01*
X023170Y025433D01*
X023075Y025338D01*
X023075Y025095D01*
X022890Y025095D01*
X022795Y025000D01*
X022768Y025000D01*
X022768Y025433D01*
X022630Y025570D01*
X022436Y025570D01*
X022208Y025343D01*
X022097Y025399D01*
X021912Y025337D01*
X021893Y025300D02*
X021884Y025300D01*
X021502Y025300D02*
X011943Y025300D01*
X011933Y025310D02*
X011933Y026498D01*
X012235Y026800D02*
X013763Y026800D01*
X013763Y026300D02*
X010943Y026300D01*
X010933Y026310D02*
X010933Y026518D01*
X010783Y026800D02*
X010683Y026800D01*
X010683Y027300D02*
X010783Y027300D01*
X010933Y027482D02*
X010933Y028280D01*
X011433Y028280D02*
X011433Y027460D01*
X011273Y027300D02*
X011158Y027300D01*
X010433Y027425D02*
X010433Y028280D01*
X009933Y028280D02*
X009933Y027502D01*
X010194Y027300D02*
X010309Y027300D01*
X009433Y027460D02*
X009433Y028280D01*
X008933Y028280D02*
X008933Y027540D01*
X008433Y027540D02*
X008433Y028280D01*
X007933Y028280D02*
X007933Y011410D01*
X008358Y010800D02*
X010323Y010800D01*
X010433Y010910D02*
X010433Y013090D01*
X009933Y013410D02*
X009933Y013490D01*
X009823Y013300D02*
X006697Y013300D01*
X006433Y013564D02*
X006433Y017294D01*
X006565Y017300D02*
X009743Y017300D01*
X009743Y016800D02*
X006327Y016800D01*
X006151Y016407D02*
X006151Y016407D01*
X006258Y016300D02*
X009743Y016300D01*
X009743Y015800D02*
X006401Y015800D01*
X006353Y016205D02*
X006353Y016205D01*
X006264Y016294D02*
X006264Y016294D01*
X006208Y015300D02*
X009743Y015300D01*
X009743Y014800D02*
X006401Y014800D01*
X006271Y014300D02*
X009743Y014300D01*
X009743Y013800D02*
X006291Y013800D01*
X010433Y010090D02*
X010433Y005520D01*
X011933Y005520D02*
X011933Y011110D01*
X011433Y011090D02*
X011433Y009212D01*
X010643Y010300D02*
X013643Y010300D01*
X013643Y009800D02*
X010143Y009800D01*
X009243Y007800D02*
X012143Y007800D01*
X012723Y007800D02*
X014943Y007800D01*
X014943Y007664D02*
X014927Y007658D01*
X014776Y007506D01*
X014722Y007378D01*
X014715Y007400D01*
X014678Y007473D01*
X014630Y007539D01*
X014572Y007597D01*
X014506Y007645D01*
X014433Y007682D01*
X014355Y007707D01*
X014283Y007719D01*
X014283Y007250D01*
X014183Y007250D01*
X014183Y007719D01*
X014112Y007707D01*
X014034Y007682D01*
X013961Y007645D01*
X013895Y007597D01*
X013837Y007539D01*
X013789Y007473D01*
X013751Y007400D01*
X013744Y007378D01*
X013691Y007506D01*
X013539Y007658D01*
X013341Y007740D01*
X013126Y007740D01*
X012927Y007658D01*
X012776Y007506D01*
X012723Y007380D01*
X012723Y007880D01*
X014085Y009242D01*
X014087Y009236D01*
X014943Y008380D01*
X014943Y007664D01*
X014933Y007660D02*
X014933Y008390D01*
X014943Y008300D02*
X013143Y008300D01*
X012933Y008090D02*
X012933Y007660D01*
X013433Y007702D02*
X013433Y008590D01*
X013643Y008800D02*
X014523Y008800D01*
X014433Y008890D02*
X014433Y007682D01*
X014283Y007300D02*
X014183Y007300D01*
X013933Y007625D02*
X013933Y009090D01*
X014623Y009800D02*
X016223Y009800D01*
X016433Y009590D02*
X016433Y007740D01*
X015933Y007740D02*
X015933Y010090D01*
X015433Y009898D02*
X015433Y008710D01*
X015343Y008800D02*
X017323Y008800D01*
X017433Y008910D02*
X017433Y009510D01*
X016933Y009510D02*
X016933Y005520D01*
X016433Y005520D02*
X016433Y006590D01*
X016773Y006800D02*
X016943Y006800D01*
X016943Y007300D02*
X016773Y007300D01*
X016943Y007800D02*
X015523Y007800D01*
X015523Y008300D02*
X016943Y008300D01*
X019343Y008800D02*
X020423Y008800D01*
X020433Y008790D02*
X020433Y007682D01*
X020283Y007300D02*
X020183Y007300D01*
X019933Y005710D02*
X019933Y005520D01*
X020433Y005520D02*
X020433Y005710D01*
X020933Y005710D02*
X020933Y005520D01*
X021433Y005520D02*
X021433Y005710D01*
X021933Y005710D02*
X021933Y005520D01*
X022433Y005520D02*
X022433Y005710D01*
X022933Y005710D02*
X022933Y005520D01*
X023433Y005520D02*
X023433Y005710D01*
X023933Y005710D02*
X023933Y005520D01*
X024433Y005520D02*
X024433Y005710D01*
X024933Y005710D02*
X024933Y005520D01*
X025143Y005800D02*
X025222Y005800D01*
X025433Y006011D02*
X025433Y006090D01*
X025643Y006300D02*
X025722Y006300D01*
X025933Y006511D02*
X025933Y013390D01*
X025923Y013300D02*
X028313Y013300D01*
X027933Y013411D02*
X027933Y009831D01*
X027965Y009800D02*
X028313Y009800D01*
X028011Y009753D02*
X028133Y009459D01*
X028133Y009141D01*
X028011Y008847D01*
X027786Y008622D01*
X027492Y008500D01*
X027174Y008500D01*
X026880Y008622D01*
X026655Y008847D01*
X026533Y009141D01*
X026533Y009459D01*
X026655Y009753D01*
X026880Y009978D01*
X027174Y010100D01*
X027492Y010100D01*
X027786Y009978D01*
X028011Y009753D01*
X028313Y010300D02*
X025923Y010300D01*
X025923Y009800D02*
X026702Y009800D01*
X026933Y010000D02*
X026933Y013360D01*
X026433Y013610D02*
X026433Y007011D01*
X026222Y006800D02*
X025923Y006800D01*
X025923Y007300D02*
X026722Y007300D01*
X026933Y007511D02*
X026933Y008600D01*
X026702Y008800D02*
X025923Y008800D01*
X025923Y008300D02*
X027722Y008300D01*
X027933Y008511D02*
X027933Y008769D01*
X027965Y008800D02*
X028222Y008800D01*
X028133Y009300D02*
X028313Y009300D01*
X027433Y008500D02*
X027433Y008011D01*
X027222Y007800D02*
X025923Y007800D01*
X024943Y007800D02*
X024043Y007800D01*
X024110Y007733D02*
X024126Y007740D01*
X024341Y007740D01*
X024539Y007658D01*
X024691Y007506D01*
X024773Y007307D01*
X024773Y007093D01*
X024691Y006894D01*
X024539Y006742D01*
X024413Y006690D01*
X024613Y006690D01*
X024943Y007020D01*
X024943Y010046D01*
X024839Y009942D01*
X024641Y009860D01*
X024426Y009860D01*
X024227Y009942D01*
X024076Y010094D01*
X023993Y010293D01*
X023993Y010507D01*
X024076Y010706D01*
X024227Y010858D01*
X024356Y010911D01*
X024334Y010918D01*
X024261Y010955D01*
X024195Y011003D01*
X024137Y011061D01*
X024089Y011127D01*
X024051Y011200D01*
X024026Y011278D01*
X024015Y011350D01*
X024483Y011350D01*
X024483Y011450D01*
X024015Y011450D01*
X024026Y011522D01*
X024051Y011600D01*
X024089Y011673D01*
X024137Y011739D01*
X024195Y011797D01*
X024261Y011845D01*
X024334Y011882D01*
X024356Y011889D01*
X024227Y011942D01*
X024076Y012094D01*
X023993Y012293D01*
X023993Y012507D01*
X024076Y012706D01*
X024227Y012858D01*
X024329Y012900D01*
X024227Y012942D01*
X024076Y013094D01*
X023993Y013293D01*
X023993Y013507D01*
X024076Y013706D01*
X024227Y013858D01*
X024329Y013900D01*
X024227Y013942D01*
X024076Y014094D01*
X023993Y014293D01*
X023993Y014507D01*
X024076Y014706D01*
X024227Y014858D01*
X024329Y014900D01*
X024227Y014942D01*
X024076Y015094D01*
X023993Y015293D01*
X023993Y015507D01*
X024076Y015706D01*
X024227Y015858D01*
X024329Y015900D01*
X024227Y015942D01*
X024076Y016094D01*
X023993Y016293D01*
X023993Y016507D01*
X024076Y016706D01*
X024227Y016858D01*
X024329Y016900D01*
X024227Y016942D01*
X024076Y017094D01*
X023993Y017293D01*
X023993Y017507D01*
X024076Y017706D01*
X024227Y017858D01*
X024329Y017900D01*
X024227Y017942D01*
X024076Y018094D01*
X023993Y018293D01*
X023993Y018507D01*
X024076Y018706D01*
X024180Y018810D01*
X023453Y018810D01*
X022798Y018154D01*
X022699Y018113D01*
X022691Y018094D01*
X022539Y017942D01*
X022437Y017900D01*
X022539Y017858D01*
X022691Y017706D01*
X022773Y017507D01*
X022773Y017293D01*
X022691Y017094D01*
X022539Y016942D01*
X022437Y016900D01*
X022539Y016858D01*
X022691Y016706D01*
X022773Y016507D01*
X022773Y016293D01*
X022691Y016094D01*
X022539Y015942D01*
X022437Y015900D01*
X022539Y015858D01*
X022691Y015706D01*
X022773Y015507D01*
X022773Y015293D01*
X022691Y015094D01*
X022539Y014942D01*
X022437Y014900D01*
X022539Y014858D01*
X022691Y014706D01*
X022773Y014507D01*
X022773Y014293D01*
X022691Y014094D01*
X022539Y013942D01*
X022437Y013900D01*
X022539Y013858D01*
X022691Y013706D01*
X022773Y013507D01*
X022773Y013293D01*
X022691Y013094D01*
X022539Y012942D01*
X022437Y012900D01*
X022539Y012858D01*
X022691Y012706D01*
X022773Y012507D01*
X022773Y012293D01*
X022691Y012094D01*
X022539Y011942D01*
X022437Y011900D01*
X022539Y011858D01*
X022691Y011706D01*
X022773Y011507D01*
X022773Y011293D01*
X022691Y011094D01*
X022539Y010942D01*
X022437Y010900D01*
X022539Y010858D01*
X022691Y010706D01*
X022773Y010507D01*
X022773Y010293D01*
X022691Y010094D01*
X022539Y009942D01*
X022341Y009860D01*
X022126Y009860D01*
X021927Y009942D01*
X021823Y010046D01*
X021823Y010020D01*
X024110Y007733D01*
X023933Y007910D02*
X023933Y018810D01*
X024170Y018800D02*
X023443Y018800D01*
X023433Y018790D02*
X023433Y008410D01*
X023543Y008300D02*
X024943Y008300D01*
X024943Y008800D02*
X023043Y008800D01*
X022933Y008910D02*
X022933Y018290D01*
X022943Y018300D02*
X023993Y018300D01*
X024170Y017800D02*
X022597Y017800D01*
X022773Y017300D02*
X023993Y017300D01*
X024170Y016800D02*
X022597Y016800D01*
X022773Y016300D02*
X023993Y016300D01*
X024170Y015800D02*
X022597Y015800D01*
X022773Y015300D02*
X023993Y015300D01*
X024170Y014800D02*
X022597Y014800D01*
X022773Y014300D02*
X023993Y014300D01*
X024170Y013800D02*
X022597Y013800D01*
X022773Y013300D02*
X023993Y013300D01*
X024170Y012800D02*
X022597Y012800D01*
X022773Y012300D02*
X023993Y012300D01*
X024199Y011800D02*
X022597Y011800D01*
X022773Y011300D02*
X024023Y011300D01*
X024433Y011350D02*
X024433Y011450D01*
X024170Y010800D02*
X022597Y010800D01*
X022773Y010300D02*
X023993Y010300D01*
X024433Y009860D02*
X024433Y007702D01*
X024773Y007300D02*
X024943Y007300D01*
X024933Y007010D02*
X024933Y010036D01*
X024943Y009800D02*
X022043Y009800D01*
X021933Y009910D02*
X021933Y009940D01*
X022433Y009898D02*
X022433Y009410D01*
X022543Y009300D02*
X024943Y009300D01*
X025923Y009300D02*
X026533Y009300D01*
X027433Y010100D02*
X027433Y013360D01*
X028243Y013800D02*
X028313Y013800D01*
X028313Y014300D02*
X028067Y014300D01*
X027933Y014389D02*
X027933Y014411D01*
X028243Y014800D02*
X028313Y014800D01*
X028313Y015300D02*
X028067Y015300D01*
X027933Y015389D02*
X027933Y015411D01*
X028243Y015800D02*
X028313Y015800D01*
X028313Y016300D02*
X028067Y016300D01*
X027933Y016389D02*
X027933Y016411D01*
X028243Y016800D02*
X028313Y016800D01*
X028313Y017300D02*
X028067Y017300D01*
X027933Y017389D02*
X027933Y017411D01*
X028243Y017800D02*
X028313Y017800D01*
X028313Y018300D02*
X028067Y018300D01*
X027933Y018389D02*
X027933Y018434D01*
X027933Y018850D02*
X027933Y018950D01*
X028214Y018800D02*
X028313Y018800D01*
X028313Y019300D02*
X028037Y019300D01*
X027933Y019366D02*
X027933Y019411D01*
X028243Y019800D02*
X028313Y019800D01*
X028313Y020300D02*
X028067Y020300D01*
X027933Y020389D02*
X027933Y023969D01*
X028011Y024047D02*
X028133Y024341D01*
X028133Y024659D01*
X028011Y024953D01*
X027786Y025178D01*
X027492Y025300D01*
X027174Y025300D01*
X026880Y025178D01*
X026655Y024953D01*
X026533Y024659D01*
X026533Y024341D01*
X026655Y024047D01*
X026880Y023822D01*
X027174Y023700D01*
X027492Y023700D01*
X027786Y023822D01*
X028011Y024047D01*
X028116Y024300D02*
X028313Y024300D01*
X028313Y023800D02*
X027734Y023800D01*
X027433Y023700D02*
X027433Y020440D01*
X026933Y020440D02*
X026933Y023800D01*
X022597Y023800D01*
X022433Y023902D02*
X022433Y024530D01*
X021933Y024525D02*
X021933Y023860D01*
X021870Y023800D02*
X015567Y023800D01*
X015572Y023797D02*
X015506Y023845D01*
X015433Y023882D01*
X015355Y023907D01*
X015283Y023919D01*
X015283Y023450D01*
X015752Y023450D01*
X015741Y023522D01*
X015715Y023600D01*
X015678Y023673D01*
X015630Y023739D01*
X015572Y023797D01*
X015433Y023882D02*
X015433Y026028D01*
X014933Y025930D02*
X014933Y023825D01*
X014961Y023845D02*
X014895Y023797D01*
X014837Y023739D01*
X014789Y023673D01*
X014751Y023600D01*
X014726Y023522D01*
X014715Y023450D01*
X015183Y023450D01*
X015183Y023919D01*
X015112Y023907D01*
X015034Y023882D01*
X014961Y023845D01*
X014899Y023800D02*
X013443Y023800D01*
X013433Y023810D02*
X013433Y028280D01*
X012933Y028280D02*
X012933Y024310D01*
X012943Y024300D02*
X026550Y024300D01*
X026592Y024800D02*
X023925Y024800D01*
X023433Y024530D02*
X023433Y019790D01*
X022933Y019790D02*
X022933Y024530D01*
X022933Y025095D02*
X022933Y025930D01*
X023433Y025930D02*
X023433Y025570D01*
X023787Y025475D02*
X023787Y025475D01*
X023925Y025300D02*
X027922Y025300D01*
X027933Y025289D02*
X027933Y025031D01*
X028075Y024800D02*
X028313Y024800D01*
X027433Y025300D02*
X027433Y025789D01*
X027422Y025800D02*
X011443Y025800D01*
X011433Y025810D02*
X011433Y026540D01*
X012194Y027300D02*
X013763Y027300D01*
X013933Y027737D02*
X013933Y028280D01*
X014433Y028280D02*
X014433Y027771D01*
X014933Y027652D02*
X014933Y028280D01*
X015433Y028280D02*
X015433Y027270D01*
X015464Y027300D02*
X015201Y027300D01*
X015281Y027118D02*
X015281Y027118D01*
X015483Y027319D02*
X015483Y027319D01*
X015933Y027367D02*
X015933Y028280D01*
X016433Y028280D02*
X016433Y027130D01*
X016526Y027300D02*
X016263Y027300D01*
X016933Y027759D02*
X016933Y028280D01*
X017433Y028280D02*
X017433Y027367D01*
X017644Y027300D02*
X018226Y027300D01*
X018245Y027319D02*
X018245Y027319D01*
X018433Y027367D02*
X018433Y028280D01*
X018933Y028280D02*
X018933Y027349D01*
X019025Y027300D02*
X019405Y027300D01*
X019433Y027323D02*
X019433Y028280D01*
X019933Y028280D02*
X019933Y027542D01*
X020205Y027300D02*
X020326Y027300D01*
X020433Y027775D02*
X020433Y028280D01*
X020444Y027800D02*
X005144Y027800D01*
X004933Y027589D02*
X004933Y027300D01*
X004653Y027300D01*
X004653Y026800D02*
X004833Y026800D01*
X005433Y026117D02*
X005433Y024370D01*
X005078Y024300D02*
X004653Y024300D01*
X004653Y023800D02*
X005088Y023800D01*
X005433Y023740D02*
X005433Y023563D01*
X004963Y023300D02*
X004653Y023300D01*
X005933Y024370D02*
X005933Y026158D01*
X006333Y027300D02*
X008193Y027300D01*
X006433Y028280D02*
X006433Y024370D01*
X006690Y024300D02*
X011523Y024300D01*
X011433Y024390D02*
X011433Y021610D01*
X011933Y021690D02*
X011933Y023890D01*
X012023Y023800D02*
X006680Y023800D01*
X006668Y023788D02*
X006668Y023788D01*
X009933Y025510D02*
X009933Y020110D01*
X010123Y020300D02*
X006373Y020300D01*
X006264Y020437D02*
X006264Y020437D01*
X006401Y019800D02*
X009743Y019800D01*
X009743Y018800D02*
X006744Y018800D01*
X006433Y018676D02*
X006433Y017924D01*
X006744Y017800D02*
X009743Y017800D01*
X009743Y018300D02*
X006391Y018300D01*
X013933Y023310D02*
X013933Y025964D01*
X014433Y026252D02*
X014433Y022810D01*
X014443Y022800D02*
X014870Y022800D01*
X014933Y022860D02*
X014933Y022975D01*
X014933Y023350D02*
X014933Y023450D01*
X014723Y023300D02*
X013943Y023300D01*
X015183Y023800D02*
X015283Y023800D01*
X015433Y023450D02*
X015433Y023350D01*
X015744Y023300D02*
X021693Y023300D01*
X021933Y022940D02*
X021933Y022860D01*
X021870Y022800D02*
X020172Y022800D01*
X020132Y023021D02*
X020132Y023021D01*
X019933Y023220D02*
X019933Y025934D01*
X020433Y025942D02*
X020433Y015610D01*
X020443Y015800D02*
X020243Y015800D01*
X018933Y016290D02*
X018933Y014870D01*
X018710Y014800D02*
X018035Y014800D01*
X017933Y014447D02*
X017933Y014257D01*
X017933Y013677D02*
X017933Y012264D01*
X017969Y012300D02*
X017043Y012300D01*
X017433Y012280D02*
X017433Y012641D01*
X017651Y012800D02*
X018452Y012800D01*
X018433Y012754D02*
X018433Y013677D01*
X018452Y013300D02*
X017557Y013300D01*
X017433Y013359D02*
X017433Y013620D01*
X017110Y013300D02*
X016423Y013300D01*
X015843Y013300D02*
X015773Y013300D01*
X015843Y012800D02*
X015597Y012800D01*
X016423Y012800D02*
X016723Y012800D01*
X016933Y013010D02*
X016933Y014358D01*
X016876Y014300D02*
X017091Y014300D01*
X017006Y013800D02*
X016423Y013800D01*
X016433Y013858D02*
X016433Y010410D01*
X016543Y010300D02*
X016652Y010300D01*
X017306Y010300D02*
X017360Y010300D01*
X017380Y011300D02*
X017287Y011300D01*
X017433Y011407D02*
X017433Y011586D01*
X017933Y011602D02*
X017933Y011453D01*
X018035Y011300D02*
X018043Y011300D01*
X018555Y011800D02*
X019243Y011800D01*
X018933Y011770D02*
X018933Y012094D01*
X019106Y012300D02*
X019160Y012300D01*
X018433Y011944D02*
X018433Y011922D01*
X019815Y013300D02*
X020043Y013300D01*
X020043Y013800D02*
X019722Y013800D01*
X020043Y014300D02*
X019251Y014300D01*
X019157Y014800D02*
X020043Y014800D01*
X018923Y016300D02*
X017978Y016300D01*
X016652Y015300D02*
X015773Y015300D01*
X015843Y013800D02*
X015597Y013800D01*
X016933Y019110D02*
X016933Y025930D01*
X017433Y025930D02*
X017433Y023255D01*
X017933Y023235D02*
X017933Y026312D01*
X017928Y026300D02*
X017942Y026300D01*
X017713Y026067D02*
X017713Y026067D01*
X018433Y025930D02*
X018433Y023231D01*
X018933Y023259D02*
X018933Y025948D01*
X019094Y026067D02*
X019094Y026067D01*
X019208Y026180D02*
X019208Y026180D01*
X019309Y026300D02*
X019525Y026300D01*
X019538Y026268D02*
X019538Y026268D01*
X019433Y026782D02*
X019433Y023271D01*
X017810Y022800D02*
X017783Y022800D01*
X017263Y022800D02*
X015597Y022800D01*
X015433Y022902D02*
X015433Y022918D01*
X014693Y022300D02*
X014523Y022300D01*
X014523Y021800D02*
X014870Y021800D01*
X014933Y021860D02*
X014933Y021940D01*
X015597Y021800D02*
X015823Y021800D01*
X016423Y021800D02*
X020823Y021800D01*
X020933Y021910D02*
X020933Y025930D01*
X021041Y026800D02*
X021130Y026800D01*
X021266Y027118D02*
X021266Y027118D01*
X021379Y027231D02*
X021379Y027231D01*
X021433Y027285D02*
X021433Y028280D01*
X021933Y028280D02*
X021933Y027367D01*
X021468Y027319D02*
X021468Y027319D01*
X021449Y027300D02*
X021002Y027300D01*
X021008Y027800D02*
X025422Y027800D01*
X025433Y027789D02*
X025433Y019510D01*
X025643Y019300D02*
X026629Y019300D01*
X026933Y018950D02*
X026933Y018850D01*
X026453Y018800D02*
X025923Y018800D01*
X025923Y018300D02*
X026600Y018300D01*
X026433Y018032D02*
X026433Y019768D01*
X026423Y019800D02*
X022597Y019800D01*
X022773Y020300D02*
X026600Y020300D01*
X026433Y020032D02*
X026433Y026789D01*
X026422Y026800D02*
X023826Y026800D01*
X023933Y026954D02*
X023933Y026545D01*
X023933Y026348D02*
X023933Y019790D01*
X024433Y019790D02*
X024433Y028280D01*
X024933Y028280D02*
X024933Y019790D01*
X022597Y020800D02*
X028313Y020800D01*
X028313Y021300D02*
X022773Y021300D01*
X022597Y021800D02*
X028313Y021800D01*
X028313Y022300D02*
X022773Y022300D01*
X022597Y022800D02*
X028313Y022800D01*
X028313Y023300D02*
X022773Y023300D01*
X021608Y024800D02*
X012443Y024800D01*
X012433Y024810D02*
X012433Y028280D01*
X011933Y028280D02*
X011933Y027502D01*
X005933Y027642D02*
X005933Y028280D01*
X005433Y028089D02*
X005433Y027683D01*
X014523Y021300D02*
X014693Y021300D01*
X014933Y020940D02*
X014933Y020860D01*
X014870Y020800D02*
X014543Y020800D01*
X015597Y020800D02*
X015843Y020800D01*
X016423Y020800D02*
X020443Y020800D01*
X020443Y020300D02*
X016423Y020300D01*
X016423Y019800D02*
X020443Y019800D01*
X020443Y019300D02*
X016743Y019300D01*
X015843Y019800D02*
X015597Y019800D01*
X015773Y020300D02*
X015843Y020300D01*
X015843Y021300D02*
X015773Y021300D01*
X016423Y021300D02*
X020443Y021300D01*
X022768Y025300D02*
X023075Y025300D01*
X022433Y025568D02*
X022433Y025981D01*
X023698Y026067D02*
X023698Y026067D01*
X023812Y026180D02*
X023812Y026180D01*
X023913Y026300D02*
X026922Y026300D01*
X026933Y026289D02*
X026933Y025200D01*
X025933Y027289D02*
X025933Y017410D01*
X026043Y017300D02*
X026600Y017300D01*
X026433Y017190D02*
X026433Y017768D01*
X026423Y017800D02*
X025923Y017800D01*
X025923Y012800D02*
X028313Y012800D01*
X028313Y012300D02*
X025923Y012300D01*
X025923Y011800D02*
X028313Y011800D01*
X028313Y011300D02*
X025923Y011300D01*
X025923Y010800D02*
X028313Y010800D01*
X024723Y006800D02*
X024597Y006800D01*
X024433Y006698D02*
X024433Y006690D01*
X019433Y005710D02*
X019433Y005520D01*
X018933Y005520D02*
X018933Y005710D01*
X018433Y005710D02*
X018433Y005520D01*
X019344Y026800D02*
X019410Y026800D01*
X018043Y027118D02*
X018043Y027118D01*
X017933Y026985D02*
X017933Y028280D01*
X020933Y028280D02*
X020933Y027896D01*
X022433Y028280D02*
X022433Y027316D01*
X022450Y027300D02*
X022830Y027300D01*
X022761Y027231D02*
X022761Y027231D01*
X022933Y027354D02*
X022933Y028280D01*
X023433Y028280D02*
X023433Y027367D01*
X023831Y027300D02*
X025922Y027300D01*
X023933Y027151D02*
X023933Y028280D01*
D11*
X026703Y024500D02*
X026705Y024550D01*
X026711Y024600D01*
X026721Y024649D01*
X026735Y024697D01*
X026752Y024744D01*
X026773Y024789D01*
X026798Y024833D01*
X026826Y024874D01*
X026858Y024913D01*
X026892Y024950D01*
X026929Y024984D01*
X026969Y025014D01*
X027011Y025041D01*
X027055Y025065D01*
X027101Y025086D01*
X027148Y025102D01*
X027196Y025115D01*
X027246Y025124D01*
X027295Y025129D01*
X027346Y025130D01*
X027396Y025127D01*
X027445Y025120D01*
X027494Y025109D01*
X027542Y025094D01*
X027588Y025076D01*
X027633Y025054D01*
X027676Y025028D01*
X027717Y024999D01*
X027756Y024967D01*
X027792Y024932D01*
X027824Y024894D01*
X027854Y024854D01*
X027881Y024811D01*
X027904Y024767D01*
X027923Y024721D01*
X027939Y024673D01*
X027951Y024624D01*
X027959Y024575D01*
X027963Y024525D01*
X027963Y024475D01*
X027959Y024425D01*
X027951Y024376D01*
X027939Y024327D01*
X027923Y024279D01*
X027904Y024233D01*
X027881Y024189D01*
X027854Y024146D01*
X027824Y024106D01*
X027792Y024068D01*
X027756Y024033D01*
X027717Y024001D01*
X027676Y023972D01*
X027633Y023946D01*
X027588Y023924D01*
X027542Y023906D01*
X027494Y023891D01*
X027445Y023880D01*
X027396Y023873D01*
X027346Y023870D01*
X027295Y023871D01*
X027246Y023876D01*
X027196Y023885D01*
X027148Y023898D01*
X027101Y023914D01*
X027055Y023935D01*
X027011Y023959D01*
X026969Y023986D01*
X026929Y024016D01*
X026892Y024050D01*
X026858Y024087D01*
X026826Y024126D01*
X026798Y024167D01*
X026773Y024211D01*
X026752Y024256D01*
X026735Y024303D01*
X026721Y024351D01*
X026711Y024400D01*
X026705Y024450D01*
X026703Y024500D01*
X027133Y019900D02*
X027135Y019928D01*
X027141Y019955D01*
X027150Y019981D01*
X027163Y020006D01*
X027180Y020029D01*
X027199Y020049D01*
X027221Y020066D01*
X027245Y020080D01*
X027271Y020090D01*
X027298Y020097D01*
X027326Y020100D01*
X027354Y020099D01*
X027381Y020094D01*
X027408Y020085D01*
X027433Y020073D01*
X027456Y020058D01*
X027477Y020039D01*
X027495Y020018D01*
X027510Y019994D01*
X027521Y019968D01*
X027529Y019942D01*
X027533Y019914D01*
X027533Y019886D01*
X027529Y019858D01*
X027521Y019832D01*
X027510Y019806D01*
X027495Y019782D01*
X027477Y019761D01*
X027456Y019742D01*
X027433Y019727D01*
X027408Y019715D01*
X027381Y019706D01*
X027354Y019701D01*
X027326Y019700D01*
X027298Y019703D01*
X027271Y019710D01*
X027245Y019720D01*
X027221Y019734D01*
X027199Y019751D01*
X027180Y019771D01*
X027163Y019794D01*
X027150Y019819D01*
X027141Y019845D01*
X027135Y019872D01*
X027133Y019900D01*
X027133Y018900D02*
X027135Y018928D01*
X027141Y018955D01*
X027150Y018981D01*
X027163Y019006D01*
X027180Y019029D01*
X027199Y019049D01*
X027221Y019066D01*
X027245Y019080D01*
X027271Y019090D01*
X027298Y019097D01*
X027326Y019100D01*
X027354Y019099D01*
X027381Y019094D01*
X027408Y019085D01*
X027433Y019073D01*
X027456Y019058D01*
X027477Y019039D01*
X027495Y019018D01*
X027510Y018994D01*
X027521Y018968D01*
X027529Y018942D01*
X027533Y018914D01*
X027533Y018886D01*
X027529Y018858D01*
X027521Y018832D01*
X027510Y018806D01*
X027495Y018782D01*
X027477Y018761D01*
X027456Y018742D01*
X027433Y018727D01*
X027408Y018715D01*
X027381Y018706D01*
X027354Y018701D01*
X027326Y018700D01*
X027298Y018703D01*
X027271Y018710D01*
X027245Y018720D01*
X027221Y018734D01*
X027199Y018751D01*
X027180Y018771D01*
X027163Y018794D01*
X027150Y018819D01*
X027141Y018845D01*
X027135Y018872D01*
X027133Y018900D01*
X027133Y017900D02*
X027135Y017928D01*
X027141Y017955D01*
X027150Y017981D01*
X027163Y018006D01*
X027180Y018029D01*
X027199Y018049D01*
X027221Y018066D01*
X027245Y018080D01*
X027271Y018090D01*
X027298Y018097D01*
X027326Y018100D01*
X027354Y018099D01*
X027381Y018094D01*
X027408Y018085D01*
X027433Y018073D01*
X027456Y018058D01*
X027477Y018039D01*
X027495Y018018D01*
X027510Y017994D01*
X027521Y017968D01*
X027529Y017942D01*
X027533Y017914D01*
X027533Y017886D01*
X027529Y017858D01*
X027521Y017832D01*
X027510Y017806D01*
X027495Y017782D01*
X027477Y017761D01*
X027456Y017742D01*
X027433Y017727D01*
X027408Y017715D01*
X027381Y017706D01*
X027354Y017701D01*
X027326Y017700D01*
X027298Y017703D01*
X027271Y017710D01*
X027245Y017720D01*
X027221Y017734D01*
X027199Y017751D01*
X027180Y017771D01*
X027163Y017794D01*
X027150Y017819D01*
X027141Y017845D01*
X027135Y017872D01*
X027133Y017900D01*
X027133Y016900D02*
X027135Y016928D01*
X027141Y016955D01*
X027150Y016981D01*
X027163Y017006D01*
X027180Y017029D01*
X027199Y017049D01*
X027221Y017066D01*
X027245Y017080D01*
X027271Y017090D01*
X027298Y017097D01*
X027326Y017100D01*
X027354Y017099D01*
X027381Y017094D01*
X027408Y017085D01*
X027433Y017073D01*
X027456Y017058D01*
X027477Y017039D01*
X027495Y017018D01*
X027510Y016994D01*
X027521Y016968D01*
X027529Y016942D01*
X027533Y016914D01*
X027533Y016886D01*
X027529Y016858D01*
X027521Y016832D01*
X027510Y016806D01*
X027495Y016782D01*
X027477Y016761D01*
X027456Y016742D01*
X027433Y016727D01*
X027408Y016715D01*
X027381Y016706D01*
X027354Y016701D01*
X027326Y016700D01*
X027298Y016703D01*
X027271Y016710D01*
X027245Y016720D01*
X027221Y016734D01*
X027199Y016751D01*
X027180Y016771D01*
X027163Y016794D01*
X027150Y016819D01*
X027141Y016845D01*
X027135Y016872D01*
X027133Y016900D01*
X027133Y015900D02*
X027135Y015928D01*
X027141Y015955D01*
X027150Y015981D01*
X027163Y016006D01*
X027180Y016029D01*
X027199Y016049D01*
X027221Y016066D01*
X027245Y016080D01*
X027271Y016090D01*
X027298Y016097D01*
X027326Y016100D01*
X027354Y016099D01*
X027381Y016094D01*
X027408Y016085D01*
X027433Y016073D01*
X027456Y016058D01*
X027477Y016039D01*
X027495Y016018D01*
X027510Y015994D01*
X027521Y015968D01*
X027529Y015942D01*
X027533Y015914D01*
X027533Y015886D01*
X027529Y015858D01*
X027521Y015832D01*
X027510Y015806D01*
X027495Y015782D01*
X027477Y015761D01*
X027456Y015742D01*
X027433Y015727D01*
X027408Y015715D01*
X027381Y015706D01*
X027354Y015701D01*
X027326Y015700D01*
X027298Y015703D01*
X027271Y015710D01*
X027245Y015720D01*
X027221Y015734D01*
X027199Y015751D01*
X027180Y015771D01*
X027163Y015794D01*
X027150Y015819D01*
X027141Y015845D01*
X027135Y015872D01*
X027133Y015900D01*
X027133Y014900D02*
X027135Y014928D01*
X027141Y014955D01*
X027150Y014981D01*
X027163Y015006D01*
X027180Y015029D01*
X027199Y015049D01*
X027221Y015066D01*
X027245Y015080D01*
X027271Y015090D01*
X027298Y015097D01*
X027326Y015100D01*
X027354Y015099D01*
X027381Y015094D01*
X027408Y015085D01*
X027433Y015073D01*
X027456Y015058D01*
X027477Y015039D01*
X027495Y015018D01*
X027510Y014994D01*
X027521Y014968D01*
X027529Y014942D01*
X027533Y014914D01*
X027533Y014886D01*
X027529Y014858D01*
X027521Y014832D01*
X027510Y014806D01*
X027495Y014782D01*
X027477Y014761D01*
X027456Y014742D01*
X027433Y014727D01*
X027408Y014715D01*
X027381Y014706D01*
X027354Y014701D01*
X027326Y014700D01*
X027298Y014703D01*
X027271Y014710D01*
X027245Y014720D01*
X027221Y014734D01*
X027199Y014751D01*
X027180Y014771D01*
X027163Y014794D01*
X027150Y014819D01*
X027141Y014845D01*
X027135Y014872D01*
X027133Y014900D01*
X027133Y013900D02*
X027135Y013928D01*
X027141Y013955D01*
X027150Y013981D01*
X027163Y014006D01*
X027180Y014029D01*
X027199Y014049D01*
X027221Y014066D01*
X027245Y014080D01*
X027271Y014090D01*
X027298Y014097D01*
X027326Y014100D01*
X027354Y014099D01*
X027381Y014094D01*
X027408Y014085D01*
X027433Y014073D01*
X027456Y014058D01*
X027477Y014039D01*
X027495Y014018D01*
X027510Y013994D01*
X027521Y013968D01*
X027529Y013942D01*
X027533Y013914D01*
X027533Y013886D01*
X027529Y013858D01*
X027521Y013832D01*
X027510Y013806D01*
X027495Y013782D01*
X027477Y013761D01*
X027456Y013742D01*
X027433Y013727D01*
X027408Y013715D01*
X027381Y013706D01*
X027354Y013701D01*
X027326Y013700D01*
X027298Y013703D01*
X027271Y013710D01*
X027245Y013720D01*
X027221Y013734D01*
X027199Y013751D01*
X027180Y013771D01*
X027163Y013794D01*
X027150Y013819D01*
X027141Y013845D01*
X027135Y013872D01*
X027133Y013900D01*
X026703Y009300D02*
X026705Y009350D01*
X026711Y009400D01*
X026721Y009449D01*
X026735Y009497D01*
X026752Y009544D01*
X026773Y009589D01*
X026798Y009633D01*
X026826Y009674D01*
X026858Y009713D01*
X026892Y009750D01*
X026929Y009784D01*
X026969Y009814D01*
X027011Y009841D01*
X027055Y009865D01*
X027101Y009886D01*
X027148Y009902D01*
X027196Y009915D01*
X027246Y009924D01*
X027295Y009929D01*
X027346Y009930D01*
X027396Y009927D01*
X027445Y009920D01*
X027494Y009909D01*
X027542Y009894D01*
X027588Y009876D01*
X027633Y009854D01*
X027676Y009828D01*
X027717Y009799D01*
X027756Y009767D01*
X027792Y009732D01*
X027824Y009694D01*
X027854Y009654D01*
X027881Y009611D01*
X027904Y009567D01*
X027923Y009521D01*
X027939Y009473D01*
X027951Y009424D01*
X027959Y009375D01*
X027963Y009325D01*
X027963Y009275D01*
X027959Y009225D01*
X027951Y009176D01*
X027939Y009127D01*
X027923Y009079D01*
X027904Y009033D01*
X027881Y008989D01*
X027854Y008946D01*
X027824Y008906D01*
X027792Y008868D01*
X027756Y008833D01*
X027717Y008801D01*
X027676Y008772D01*
X027633Y008746D01*
X027588Y008724D01*
X027542Y008706D01*
X027494Y008691D01*
X027445Y008680D01*
X027396Y008673D01*
X027346Y008670D01*
X027295Y008671D01*
X027246Y008676D01*
X027196Y008685D01*
X027148Y008698D01*
X027101Y008714D01*
X027055Y008735D01*
X027011Y008759D01*
X026969Y008786D01*
X026929Y008816D01*
X026892Y008850D01*
X026858Y008887D01*
X026826Y008926D01*
X026798Y008967D01*
X026773Y009011D01*
X026752Y009056D01*
X026735Y009103D01*
X026721Y009151D01*
X026711Y009200D01*
X026705Y009250D01*
X026703Y009300D01*
X005003Y006900D02*
X005005Y006950D01*
X005011Y007000D01*
X005021Y007049D01*
X005035Y007097D01*
X005052Y007144D01*
X005073Y007189D01*
X005098Y007233D01*
X005126Y007274D01*
X005158Y007313D01*
X005192Y007350D01*
X005229Y007384D01*
X005269Y007414D01*
X005311Y007441D01*
X005355Y007465D01*
X005401Y007486D01*
X005448Y007502D01*
X005496Y007515D01*
X005546Y007524D01*
X005595Y007529D01*
X005646Y007530D01*
X005696Y007527D01*
X005745Y007520D01*
X005794Y007509D01*
X005842Y007494D01*
X005888Y007476D01*
X005933Y007454D01*
X005976Y007428D01*
X006017Y007399D01*
X006056Y007367D01*
X006092Y007332D01*
X006124Y007294D01*
X006154Y007254D01*
X006181Y007211D01*
X006204Y007167D01*
X006223Y007121D01*
X006239Y007073D01*
X006251Y007024D01*
X006259Y006975D01*
X006263Y006925D01*
X006263Y006875D01*
X006259Y006825D01*
X006251Y006776D01*
X006239Y006727D01*
X006223Y006679D01*
X006204Y006633D01*
X006181Y006589D01*
X006154Y006546D01*
X006124Y006506D01*
X006092Y006468D01*
X006056Y006433D01*
X006017Y006401D01*
X005976Y006372D01*
X005933Y006346D01*
X005888Y006324D01*
X005842Y006306D01*
X005794Y006291D01*
X005745Y006280D01*
X005696Y006273D01*
X005646Y006270D01*
X005595Y006271D01*
X005546Y006276D01*
X005496Y006285D01*
X005448Y006298D01*
X005401Y006314D01*
X005355Y006335D01*
X005311Y006359D01*
X005269Y006386D01*
X005229Y006416D01*
X005192Y006450D01*
X005158Y006487D01*
X005126Y006526D01*
X005098Y006567D01*
X005073Y006611D01*
X005052Y006656D01*
X005035Y006703D01*
X005021Y006751D01*
X005011Y006800D01*
X005005Y006850D01*
X005003Y006900D01*
X005003Y026900D02*
X005005Y026950D01*
X005011Y027000D01*
X005021Y027049D01*
X005035Y027097D01*
X005052Y027144D01*
X005073Y027189D01*
X005098Y027233D01*
X005126Y027274D01*
X005158Y027313D01*
X005192Y027350D01*
X005229Y027384D01*
X005269Y027414D01*
X005311Y027441D01*
X005355Y027465D01*
X005401Y027486D01*
X005448Y027502D01*
X005496Y027515D01*
X005546Y027524D01*
X005595Y027529D01*
X005646Y027530D01*
X005696Y027527D01*
X005745Y027520D01*
X005794Y027509D01*
X005842Y027494D01*
X005888Y027476D01*
X005933Y027454D01*
X005976Y027428D01*
X006017Y027399D01*
X006056Y027367D01*
X006092Y027332D01*
X006124Y027294D01*
X006154Y027254D01*
X006181Y027211D01*
X006204Y027167D01*
X006223Y027121D01*
X006239Y027073D01*
X006251Y027024D01*
X006259Y026975D01*
X006263Y026925D01*
X006263Y026875D01*
X006259Y026825D01*
X006251Y026776D01*
X006239Y026727D01*
X006223Y026679D01*
X006204Y026633D01*
X006181Y026589D01*
X006154Y026546D01*
X006124Y026506D01*
X006092Y026468D01*
X006056Y026433D01*
X006017Y026401D01*
X005976Y026372D01*
X005933Y026346D01*
X005888Y026324D01*
X005842Y026306D01*
X005794Y026291D01*
X005745Y026280D01*
X005696Y026273D01*
X005646Y026270D01*
X005595Y026271D01*
X005546Y026276D01*
X005496Y026285D01*
X005448Y026298D01*
X005401Y026314D01*
X005355Y026335D01*
X005311Y026359D01*
X005269Y026386D01*
X005229Y026416D01*
X005192Y026450D01*
X005158Y026487D01*
X005126Y026526D01*
X005098Y026567D01*
X005073Y026611D01*
X005052Y026656D01*
X005035Y026703D01*
X005021Y026751D01*
X005011Y026800D01*
X005005Y026850D01*
X005003Y026900D01*
D12*
X005278Y024055D02*
X006489Y024055D01*
X006086Y023651D01*
X006489Y023248D01*
X005278Y023248D01*
X005480Y022674D02*
X005682Y022472D01*
X005682Y021866D01*
X005884Y021866D02*
X005278Y021866D01*
X005278Y022472D01*
X005480Y022674D01*
X006086Y022472D02*
X006086Y022068D01*
X005884Y021866D01*
X006086Y021293D02*
X006086Y020889D01*
X006288Y021091D02*
X005480Y021091D01*
X005278Y020889D01*
X005480Y020372D02*
X005278Y020170D01*
X005278Y019564D01*
X005278Y018991D02*
X006489Y018991D01*
X006086Y018789D02*
X006086Y018385D01*
X005884Y018183D01*
X005278Y018183D01*
X005278Y017609D02*
X005278Y017004D01*
X005480Y016802D01*
X005884Y016802D01*
X006086Y017004D01*
X006086Y017609D01*
X006489Y017609D02*
X005278Y017609D01*
X006086Y018789D02*
X005884Y018991D01*
X006086Y019564D02*
X006086Y020170D01*
X005884Y020372D01*
X005480Y020372D01*
X005480Y016228D02*
X005278Y016026D01*
X005278Y015623D01*
X005480Y015421D01*
X005884Y015421D01*
X006086Y015623D01*
X006086Y016026D01*
X005884Y016228D01*
X005480Y016228D01*
X005278Y014847D02*
X006086Y014040D01*
X006086Y013466D02*
X005278Y013466D01*
X005884Y013466D02*
X005884Y012659D01*
X006086Y012659D02*
X005278Y012659D01*
X005278Y012085D02*
X006489Y012085D01*
X006489Y011479D01*
X006288Y011277D01*
X005884Y011277D01*
X005682Y011479D01*
X005682Y012085D01*
X005682Y011681D02*
X005278Y011277D01*
X005278Y010704D02*
X006489Y010704D01*
X006086Y010300D01*
X006489Y009896D01*
X005278Y009896D01*
X006086Y012659D02*
X006489Y013062D01*
X006086Y013466D01*
X005278Y014040D02*
X006086Y014847D01*
X014078Y026245D02*
X014078Y027456D01*
X014684Y027456D01*
X014886Y027254D01*
X014886Y026851D01*
X014684Y026649D01*
X014078Y026649D01*
X014482Y026649D02*
X014886Y026245D01*
X015460Y026447D02*
X015460Y026851D01*
X015661Y027052D01*
X016065Y027052D01*
X016267Y026851D01*
X016267Y026447D01*
X016065Y026245D01*
X015661Y026245D01*
X015460Y026447D01*
X016841Y026245D02*
X016841Y027456D01*
X016841Y027052D02*
X017446Y027052D01*
X017648Y026851D01*
X017648Y026447D01*
X017446Y026245D01*
X016841Y026245D01*
X018222Y026447D02*
X018424Y026245D01*
X018827Y026245D01*
X019029Y026447D01*
X019029Y026851D01*
X018827Y027052D01*
X018424Y027052D01*
X018222Y026851D01*
X018222Y026447D01*
X019603Y027052D02*
X020007Y027052D01*
X019805Y027254D02*
X019805Y026447D01*
X020007Y026245D01*
X020524Y026245D02*
X020928Y026245D01*
X020726Y026245D02*
X020726Y027052D01*
X020524Y027052D01*
X020726Y027456D02*
X020726Y027658D01*
X021445Y026851D02*
X021646Y027052D01*
X022252Y027052D01*
X022826Y026851D02*
X023028Y027052D01*
X023633Y027052D01*
X023431Y026649D02*
X023028Y026649D01*
X022826Y026851D01*
X022826Y026245D02*
X023431Y026245D01*
X023633Y026447D01*
X023431Y026649D01*
X022252Y026245D02*
X021646Y026245D01*
X021445Y026447D01*
X021445Y026851D01*
D13*
X019775Y023011D02*
X019365Y023011D01*
X019365Y022190D01*
X019775Y022190D01*
X019912Y022327D01*
X019912Y022464D01*
X019775Y022600D01*
X019365Y022600D01*
X018991Y022464D02*
X018991Y022327D01*
X018854Y022190D01*
X018581Y022190D01*
X018444Y022327D01*
X018581Y022600D02*
X018854Y022600D01*
X018991Y022464D01*
X018991Y022874D02*
X018854Y023011D01*
X018581Y023011D01*
X018444Y022874D01*
X018444Y022737D01*
X018581Y022600D01*
X018070Y022327D02*
X018070Y023011D01*
X017523Y023011D02*
X017523Y022327D01*
X017660Y022190D01*
X017934Y022190D01*
X018070Y022327D01*
X019775Y022600D02*
X019912Y022737D01*
X019912Y022874D01*
X019775Y023011D01*
D14*
X021888Y024765D02*
X022079Y025145D01*
X022343Y025145D02*
X022533Y025335D01*
X022533Y024765D01*
X022343Y024765D02*
X022723Y024765D01*
X022987Y024765D02*
X023083Y024765D01*
X023083Y024860D01*
X022987Y024860D01*
X022987Y024765D01*
X023310Y024860D02*
X023690Y025240D01*
X023690Y024860D01*
X023595Y024765D01*
X023405Y024765D01*
X023310Y024860D01*
X023310Y025240D01*
X023405Y025335D01*
X023595Y025335D01*
X023690Y025240D01*
X021888Y024765D02*
X021698Y025145D01*
D15*
X026963Y019900D02*
X027703Y019900D01*
X027703Y018900D02*
X026963Y018900D01*
X026963Y017900D02*
X027703Y017900D01*
X027703Y016900D02*
X026963Y016900D01*
X026963Y015900D02*
X027703Y015900D01*
X027703Y014900D02*
X026963Y014900D01*
X026963Y013900D02*
X027703Y013900D01*
D16*
X024533Y013400D03*
X024533Y012400D03*
X024533Y011400D03*
X024533Y010400D03*
X022233Y010400D03*
X022233Y011400D03*
X022233Y012400D03*
X022233Y013400D03*
X022233Y014400D03*
X022233Y015400D03*
X022233Y016400D03*
X022233Y017400D03*
X022233Y018400D03*
X022233Y019400D03*
X022233Y020400D03*
X022233Y021400D03*
X022233Y022400D03*
X022233Y023400D03*
X024533Y018400D03*
X024533Y017400D03*
X024533Y016400D03*
X024533Y015400D03*
X024533Y014400D03*
X024233Y007200D03*
X023233Y007200D03*
X022233Y007200D03*
X021233Y007200D03*
X020233Y007200D03*
X019233Y007200D03*
X015233Y007200D03*
X014233Y007200D03*
X013233Y007200D03*
X015233Y010400D03*
X015233Y011400D03*
X015233Y012400D03*
X015233Y013400D03*
X015233Y014400D03*
X015233Y015400D03*
X015233Y016400D03*
X015233Y017400D03*
X015233Y018400D03*
X015233Y019400D03*
X015233Y020400D03*
X015233Y021400D03*
X015233Y022400D03*
X015233Y023400D03*
X013033Y021400D03*
X013033Y020400D03*
X012033Y020400D03*
X012033Y019400D03*
X013033Y019400D03*
X013033Y018400D03*
X012033Y018400D03*
X012033Y017400D03*
X013033Y017400D03*
X013033Y016400D03*
X012033Y016400D03*
X012033Y015400D03*
X013033Y015400D03*
X013033Y014400D03*
X012033Y014400D03*
X013033Y013400D03*
X013033Y012400D03*
X011733Y027000D03*
X010733Y027000D03*
X009733Y027000D03*
D17*
X008733Y027000D03*
X012033Y013400D03*
X016233Y007200D03*
D18*
X011198Y007014D03*
X011198Y008786D03*
X008068Y008786D03*
X008068Y007014D03*
D19*
X016979Y010400D03*
X017688Y010400D03*
X018779Y012500D03*
X019488Y012500D03*
X019488Y013400D03*
X018779Y013400D03*
X017688Y015500D03*
X016979Y015500D03*
D20*
X016959Y014794D03*
X017707Y014794D03*
X017333Y013967D03*
X017333Y011933D03*
X016959Y011106D03*
X017707Y011106D03*
D21*
X018933Y011400D03*
X017333Y013000D03*
X018933Y014500D03*
X017333Y016900D03*
X010633Y014400D03*
X013033Y011400D03*
X018333Y007700D03*
D22*
X018333Y008200D01*
X019533Y009400D01*
X019533Y012654D01*
X019488Y012500D01*
X019488Y013400D01*
X018779Y013400D02*
X018779Y013967D01*
X018779Y014346D01*
X018933Y014500D01*
X018779Y013967D02*
X017333Y013967D01*
X016959Y014794D02*
X016133Y013968D01*
X016133Y011700D01*
X015833Y011400D01*
X015233Y011400D01*
X015233Y010400D02*
X016033Y010400D01*
X016633Y009800D01*
X017533Y009800D01*
X017688Y009954D01*
X017688Y010400D01*
X017688Y011087D01*
X017707Y011106D01*
X016959Y011106D02*
X016959Y010420D01*
X016979Y010400D01*
X016959Y011106D02*
X016733Y011332D01*
X016733Y012400D01*
X017333Y013000D01*
X018012Y011933D02*
X018579Y012500D01*
X018779Y012500D01*
X018012Y011933D02*
X018333Y011612D01*
X018333Y009400D01*
X017233Y008300D01*
X017233Y006800D01*
X018033Y006000D01*
X024933Y006000D01*
X025633Y006700D01*
X025633Y013500D01*
X026033Y013900D01*
X027333Y013900D01*
X027333Y014900D02*
X025833Y014900D01*
X025233Y014300D01*
X025233Y006900D01*
X024733Y006400D01*
X018233Y006400D01*
X017633Y007000D01*
X017633Y008100D01*
X018933Y009400D01*
X018933Y011400D01*
X018012Y011933D02*
X017333Y011933D01*
X014333Y009400D02*
X015233Y008500D01*
X015233Y007200D01*
X015833Y006400D02*
X016233Y006800D01*
X016233Y007200D01*
X015833Y006400D02*
X012933Y006400D01*
X012433Y006900D01*
X012433Y008000D01*
X013933Y009500D01*
X013933Y017200D01*
X015133Y018400D01*
X015233Y018400D01*
X015233Y019400D02*
X014933Y019400D01*
X013833Y020500D01*
X013833Y022400D01*
X010433Y025800D01*
X009733Y025800D01*
X008733Y026800D01*
X008733Y027000D01*
X009733Y027000D02*
X009733Y026800D01*
X010333Y026200D01*
X010633Y026200D01*
X014233Y022600D01*
X014233Y020700D01*
X014533Y020400D01*
X015233Y020400D01*
X016133Y019500D02*
X016133Y021900D01*
X015633Y022400D01*
X015233Y022400D01*
X013033Y021400D02*
X011633Y021400D01*
X010033Y019800D01*
X010033Y013800D01*
X010383Y013450D01*
X008068Y011135D01*
X008068Y008786D01*
X008448Y007414D02*
X009633Y008600D01*
X009633Y009700D01*
X011333Y011400D01*
X013033Y011400D01*
X012033Y013400D02*
X010433Y013400D01*
X010383Y013450D01*
X014333Y017000D02*
X014333Y009400D01*
X020333Y009300D02*
X021233Y008400D01*
X021233Y007200D01*
X022233Y007200D02*
X022233Y008000D01*
X020733Y009500D01*
X020733Y021300D01*
X021833Y022400D01*
X022233Y022400D01*
X022233Y021400D02*
X021833Y021400D01*
X021133Y020700D01*
X021133Y009700D01*
X023233Y007600D01*
X023233Y007200D01*
X024233Y007200D02*
X021533Y009900D01*
X021533Y020100D01*
X021833Y020400D01*
X022233Y020400D01*
X022333Y019500D02*
X022233Y019400D01*
X022333Y019500D02*
X025033Y019500D01*
X025633Y018900D01*
X025633Y017300D01*
X026033Y016900D01*
X027333Y016900D01*
X027333Y015900D02*
X025833Y015900D01*
X025233Y016500D01*
X025233Y018700D01*
X024833Y019100D01*
X023333Y019100D01*
X022633Y018400D01*
X022233Y018400D01*
X020333Y015300D02*
X020333Y009300D01*
X017707Y014794D02*
X017707Y015480D01*
X017688Y015500D01*
X017688Y016546D01*
X017333Y016900D01*
X016979Y015500D02*
X016959Y015480D01*
X016959Y014794D01*
X014733Y017400D02*
X014333Y017000D01*
X014733Y017400D02*
X015233Y017400D01*
X016133Y019500D02*
X020333Y015300D01*
X008448Y007414D02*
X008068Y007014D01*
D23*
X018779Y013354D02*
X018779Y013400D01*
M02*
