%
M48
M72
T01C0.0200
T02C0.0400
T03C0.1260
%
T01
X13033Y11400
X10633Y14400
X17333Y13000
X18933Y14500
X17333Y16900
X18933Y11400
X18333Y7700
T02
X19233Y7200
X20233Y7200
X21233Y7200
X22233Y7200
X23233Y7200
X24233Y7200
X24533Y10400
X24533Y11400
X24533Y12400
X24533Y13400
X24533Y14400
X24533Y15400
X24533Y16400
X24533Y17400
X24533Y18400
X22233Y18400
X22233Y19400
X22233Y20400
X22233Y21400
X22233Y22400
X22233Y23400
X27333Y19900
X27333Y19900
X27333Y18900
X27333Y18900
X27333Y17900
X27333Y17900
X27333Y16900
X27333Y16900
X27333Y15900
X27333Y15900
X27333Y14900
X27333Y14900
X27333Y13900
X27333Y13900
X22233Y13400
X22233Y12400
X22233Y11400
X22233Y10400
X22233Y14400
X22233Y15400
X22233Y16400
X22233Y17400
X15233Y17400
X15233Y16400
X15233Y15400
X15233Y14400
X15233Y13400
X15233Y12400
X15233Y11400
X15233Y10400
X13033Y12400
X13033Y13400
X12033Y13400
X12033Y14400
X13033Y14400
X13033Y15400
X12033Y15400
X12033Y16400
X13033Y16400
X13033Y17400
X12033Y17400
X12033Y18400
X13033Y18400
X13033Y19400
X12033Y19400
X12033Y20400
X13033Y20400
X13033Y21400
X15233Y21400
X15233Y20400
X15233Y19400
X15233Y18400
X15233Y22400
X15233Y23400
X11733Y27000
X10733Y27000
X9733Y27000
X8733Y27000
X13233Y7200
X14233Y7200
X15233Y7200
X16233Y7200
T03
X5633Y6900
X27333Y9300
X27333Y24500
X5633Y26900
M30
