G75*
G70*
%OFA0B0*%
%FSLAX24Y24*%
%IPPOS*%
%LPD*%
%AMOC8*
5,1,8,0,0,1.08239X$1,22.5*
%
%ADD10C,0.0740*%
%ADD11C,0.0740*%
%ADD12R,0.0740X0.0740*%
%ADD13R,0.0315X0.0472*%
%ADD14C,0.0400*%
%ADD15C,0.0100*%
%ADD16C,0.0240*%
D10*
X026963Y013900D02*
X027703Y013900D01*
X027703Y014900D02*
X026963Y014900D01*
X026963Y015900D02*
X027703Y015900D01*
X027703Y016900D02*
X026963Y016900D01*
X026963Y017900D02*
X027703Y017900D01*
X027703Y018900D02*
X026963Y018900D01*
X026963Y019900D02*
X027703Y019900D01*
D11*
X024533Y018400D03*
X024533Y017400D03*
X024533Y016400D03*
X024533Y015400D03*
X024533Y014400D03*
X024533Y013400D03*
X024533Y012400D03*
X024533Y011400D03*
X024533Y010400D03*
X022233Y010400D03*
X022233Y011400D03*
X022233Y012400D03*
X022233Y013400D03*
X022233Y014400D03*
X022233Y015400D03*
X022233Y016400D03*
X022233Y017400D03*
X022233Y018400D03*
X022233Y019400D03*
X022233Y020400D03*
X022233Y021400D03*
X022233Y022400D03*
X022233Y023400D03*
X015233Y023400D03*
X015233Y022400D03*
X015233Y021400D03*
X015233Y020400D03*
X015233Y019400D03*
X015233Y018400D03*
X015233Y017400D03*
X015233Y016400D03*
X015233Y015400D03*
X015233Y014400D03*
X015233Y013400D03*
X015233Y012400D03*
X015233Y011400D03*
X015233Y010400D03*
X013033Y012400D03*
X013033Y013400D03*
X013033Y014400D03*
X012033Y014400D03*
X012033Y015400D03*
X013033Y015400D03*
X013033Y016400D03*
X012033Y016400D03*
X012033Y017400D03*
X013033Y017400D03*
X013033Y018400D03*
X012033Y018400D03*
X012033Y019400D03*
X013033Y019400D03*
X013033Y020400D03*
X012033Y020400D03*
X013033Y021400D03*
X011733Y027000D03*
X010733Y027000D03*
X009733Y027000D03*
X013233Y007200D03*
X014233Y007200D03*
X015233Y007200D03*
X019233Y007200D03*
X020233Y007200D03*
X021233Y007200D03*
X022233Y007200D03*
X023233Y007200D03*
X024233Y007200D03*
D12*
X016233Y007200D03*
X012033Y013400D03*
X008733Y027000D03*
D13*
X019979Y019400D03*
X020688Y019400D03*
X020688Y018400D03*
X019979Y018400D03*
D14*
X017333Y016900D03*
X018933Y014500D03*
X017333Y013000D03*
X018933Y011400D03*
X018333Y007700D03*
X013033Y011400D03*
X010633Y014400D03*
D15*
X004653Y006491D02*
X005624Y005520D01*
X024942Y005520D01*
X028313Y008891D01*
X028313Y024909D01*
X024942Y028280D01*
X005624Y028280D01*
X004653Y027309D01*
X004653Y006491D01*
X004844Y006300D02*
X005102Y006300D01*
X005180Y006222D02*
X005474Y006100D01*
X005792Y006100D01*
X006086Y006222D01*
X006311Y006447D01*
X006433Y006741D01*
X006433Y007059D01*
X006311Y007353D01*
X006086Y007578D01*
X005792Y007700D01*
X005474Y007700D01*
X005180Y007578D01*
X004955Y007353D01*
X004833Y007059D01*
X004833Y006741D01*
X004955Y006447D01*
X005180Y006222D01*
X004933Y006211D02*
X004933Y006500D01*
X004833Y006800D02*
X004653Y006800D01*
X004653Y007300D02*
X004933Y007300D01*
X004933Y026500D01*
X004955Y026447D02*
X005180Y026222D01*
X005474Y026100D01*
X005792Y026100D01*
X006086Y026222D01*
X006311Y026447D01*
X006433Y026741D01*
X006433Y027059D01*
X006311Y027353D01*
X006086Y027578D01*
X005792Y027700D01*
X005474Y027700D01*
X005180Y027578D01*
X004955Y027353D01*
X004833Y027059D01*
X004833Y026741D01*
X004955Y026447D01*
X005102Y026300D02*
X004653Y026300D01*
X004653Y025800D02*
X011461Y025800D01*
X011443Y025842D02*
X011487Y025736D01*
X012743Y024480D01*
X012743Y021864D01*
X012727Y021858D01*
X012576Y021706D01*
X012569Y021690D01*
X011576Y021690D01*
X011469Y021646D01*
X011387Y021564D01*
X009787Y019964D01*
X009743Y019858D01*
X009743Y011542D01*
X009787Y011436D01*
X012943Y008280D01*
X012943Y007664D01*
X012927Y007658D01*
X012776Y007506D01*
X012693Y007307D01*
X012693Y007093D01*
X012776Y006894D01*
X012927Y006742D01*
X013126Y006660D01*
X013341Y006660D01*
X013539Y006742D01*
X013691Y006894D01*
X013744Y007022D01*
X013751Y007000D01*
X013789Y006927D01*
X013837Y006861D01*
X013895Y006803D01*
X013961Y006755D01*
X014034Y006718D01*
X014112Y006693D01*
X014183Y006681D01*
X014183Y007150D01*
X014283Y007150D01*
X014283Y006681D01*
X014355Y006693D01*
X014433Y006718D01*
X014506Y006755D01*
X014572Y006803D01*
X014630Y006861D01*
X014678Y006927D01*
X014715Y007000D01*
X014722Y007022D01*
X014776Y006894D01*
X014927Y006742D01*
X015126Y006660D01*
X015341Y006660D01*
X015539Y006742D01*
X015691Y006894D01*
X015693Y006899D01*
X015693Y006760D01*
X015793Y006660D01*
X016674Y006660D01*
X016773Y006760D01*
X016773Y007640D01*
X016674Y007740D01*
X015793Y007740D01*
X015693Y007640D01*
X015693Y007501D01*
X015691Y007506D01*
X015539Y007658D01*
X015341Y007740D01*
X015126Y007740D01*
X014927Y007658D01*
X014776Y007506D01*
X014722Y007378D01*
X014715Y007400D01*
X014678Y007473D01*
X014630Y007539D01*
X014572Y007597D01*
X014506Y007645D01*
X014433Y007682D01*
X014355Y007707D01*
X014283Y007719D01*
X014283Y007250D01*
X014183Y007250D01*
X014183Y007719D01*
X014112Y007707D01*
X014034Y007682D01*
X013961Y007645D01*
X013895Y007597D01*
X013837Y007539D01*
X013789Y007473D01*
X013751Y007400D01*
X013744Y007378D01*
X013691Y007506D01*
X013539Y007658D01*
X013523Y007664D01*
X013523Y008458D01*
X013479Y008564D01*
X010323Y011720D01*
X010323Y014234D01*
X010361Y014177D01*
X010410Y014128D01*
X010468Y014090D01*
X010531Y014063D01*
X010599Y014050D01*
X010633Y014050D01*
X010633Y014400D01*
X010633Y014400D01*
X010633Y014750D01*
X010599Y014750D01*
X010531Y014737D01*
X010468Y014710D01*
X010410Y014672D01*
X010361Y014623D01*
X010323Y014566D01*
X010323Y019680D01*
X011753Y021110D01*
X012569Y021110D01*
X012576Y021094D01*
X012727Y020942D01*
X012856Y020889D01*
X012834Y020882D01*
X012761Y020845D01*
X012695Y020797D01*
X012637Y020739D01*
X012589Y020673D01*
X012551Y020600D01*
X012544Y020578D01*
X012491Y020706D01*
X012339Y020858D01*
X012141Y020940D01*
X011926Y020940D01*
X011727Y020858D01*
X011576Y020706D01*
X011493Y020507D01*
X011493Y020293D01*
X011576Y020094D01*
X011727Y019942D01*
X011829Y019900D01*
X011727Y019858D01*
X011576Y019706D01*
X011493Y019507D01*
X011493Y019293D01*
X011576Y019094D01*
X011727Y018942D01*
X011829Y018900D01*
X011727Y018858D01*
X011576Y018706D01*
X011493Y018507D01*
X011493Y018293D01*
X011576Y018094D01*
X011727Y017942D01*
X011829Y017900D01*
X011727Y017858D01*
X011576Y017706D01*
X011493Y017507D01*
X011493Y017293D01*
X011576Y017094D01*
X011727Y016942D01*
X011829Y016900D01*
X011727Y016858D01*
X011576Y016706D01*
X011493Y016507D01*
X011493Y016293D01*
X011576Y016094D01*
X011727Y015942D01*
X011829Y015900D01*
X011727Y015858D01*
X011576Y015706D01*
X011569Y015690D01*
X011476Y015690D01*
X011369Y015646D01*
X010987Y015264D01*
X010943Y015158D01*
X010943Y014566D01*
X010905Y014623D01*
X010856Y014672D01*
X010799Y014710D01*
X010735Y014737D01*
X010668Y014750D01*
X010633Y014750D01*
X010633Y014400D01*
X010633Y014400D01*
X010633Y014050D01*
X010668Y014050D01*
X010735Y014063D01*
X010799Y014090D01*
X010856Y014128D01*
X010905Y014177D01*
X010943Y014234D01*
X010943Y011942D01*
X010987Y011836D01*
X013769Y009054D01*
X013876Y009010D01*
X013991Y009010D01*
X015476Y009010D01*
X015591Y009010D01*
X015698Y009054D01*
X016298Y009654D01*
X016379Y009736D01*
X016423Y009842D01*
X016423Y013958D01*
X016379Y014064D01*
X015879Y014564D01*
X015798Y014646D01*
X015699Y014687D01*
X015691Y014706D01*
X015539Y014858D01*
X015437Y014900D01*
X015539Y014942D01*
X015691Y015094D01*
X015773Y015293D01*
X015773Y015507D01*
X015691Y015706D01*
X015539Y015858D01*
X015437Y015900D01*
X015539Y015942D01*
X015691Y016094D01*
X015773Y016293D01*
X015773Y016507D01*
X015691Y016706D01*
X015539Y016858D01*
X015437Y016900D01*
X015539Y016942D01*
X015691Y017094D01*
X015773Y017293D01*
X015773Y017507D01*
X015691Y017706D01*
X015539Y017858D01*
X015437Y017900D01*
X015539Y017942D01*
X015691Y018094D01*
X015773Y018293D01*
X015773Y018507D01*
X015691Y018706D01*
X015539Y018858D01*
X015437Y018900D01*
X015539Y018942D01*
X015691Y019094D01*
X015773Y019293D01*
X015773Y019507D01*
X015691Y019706D01*
X015539Y019858D01*
X015437Y019900D01*
X015539Y019942D01*
X015691Y020094D01*
X015773Y020293D01*
X015773Y020507D01*
X015691Y020706D01*
X015539Y020858D01*
X015437Y020900D01*
X015539Y020942D01*
X015691Y021094D01*
X015773Y021293D01*
X015773Y021507D01*
X015691Y021706D01*
X015539Y021858D01*
X015437Y021900D01*
X015539Y021942D01*
X015691Y022094D01*
X015773Y022293D01*
X015773Y022507D01*
X015691Y022706D01*
X015539Y022858D01*
X015411Y022911D01*
X015433Y022918D01*
X015506Y022955D01*
X015572Y023003D01*
X015630Y023061D01*
X015678Y023127D01*
X015715Y023200D01*
X015741Y023278D01*
X015752Y023350D01*
X015283Y023350D01*
X015283Y023450D01*
X015183Y023450D01*
X015183Y023350D01*
X014715Y023350D01*
X014726Y023278D01*
X014751Y023200D01*
X014789Y023127D01*
X014837Y023061D01*
X014895Y023003D01*
X014961Y022955D01*
X015034Y022918D01*
X015056Y022911D01*
X014927Y022858D01*
X014776Y022706D01*
X014693Y022507D01*
X014693Y022293D01*
X014776Y022094D01*
X014927Y021942D01*
X015029Y021900D01*
X014927Y021858D01*
X014776Y021706D01*
X014693Y021507D01*
X014693Y021293D01*
X014776Y021094D01*
X014927Y020942D01*
X015029Y020900D01*
X014927Y020858D01*
X014776Y020706D01*
X014693Y020507D01*
X014693Y020293D01*
X014776Y020094D01*
X014927Y019942D01*
X015029Y019900D01*
X014927Y019858D01*
X014776Y019706D01*
X014693Y019507D01*
X014693Y019293D01*
X014776Y019094D01*
X014927Y018942D01*
X015029Y018900D01*
X014927Y018858D01*
X014776Y018706D01*
X014693Y018507D01*
X014693Y018293D01*
X014776Y018094D01*
X014927Y017942D01*
X015029Y017900D01*
X014927Y017858D01*
X014776Y017706D01*
X014693Y017507D01*
X014693Y017293D01*
X014776Y017094D01*
X014927Y016942D01*
X015029Y016900D01*
X014927Y016858D01*
X014776Y016706D01*
X014693Y016507D01*
X014693Y016293D01*
X014776Y016094D01*
X014927Y015942D01*
X015029Y015900D01*
X014927Y015858D01*
X014776Y015706D01*
X014693Y015507D01*
X014693Y015293D01*
X014776Y015094D01*
X014927Y014942D01*
X015029Y014900D01*
X014927Y014858D01*
X014776Y014706D01*
X014769Y014690D01*
X014753Y014690D01*
X014523Y014920D01*
X014523Y016758D01*
X014479Y016864D01*
X014398Y016946D01*
X013698Y017646D01*
X013591Y017690D01*
X013498Y017690D01*
X013491Y017706D01*
X013339Y017858D01*
X013237Y017900D01*
X013339Y017942D01*
X013491Y018094D01*
X013573Y018293D01*
X013573Y018507D01*
X013491Y018706D01*
X013339Y018858D01*
X013237Y018900D01*
X013339Y018942D01*
X013491Y019094D01*
X013573Y019293D01*
X013573Y019507D01*
X013491Y019706D01*
X013339Y019858D01*
X013211Y019911D01*
X013233Y019918D01*
X013306Y019955D01*
X013372Y020003D01*
X013430Y020061D01*
X013478Y020127D01*
X013515Y020200D01*
X013541Y020278D01*
X013552Y020350D01*
X013083Y020350D01*
X013083Y020450D01*
X013552Y020450D01*
X013541Y020522D01*
X013515Y020600D01*
X013478Y020673D01*
X013430Y020739D01*
X013372Y020797D01*
X013306Y020845D01*
X013233Y020882D01*
X013211Y020889D01*
X013339Y020942D01*
X013491Y021094D01*
X013573Y021293D01*
X013573Y021507D01*
X013491Y021706D01*
X013339Y021858D01*
X013323Y021864D01*
X013323Y024480D01*
X013753Y024910D01*
X017043Y024910D01*
X017043Y017133D01*
X017020Y017110D01*
X016963Y016974D01*
X016963Y016826D01*
X017020Y016690D01*
X017043Y016667D01*
X017043Y013233D01*
X017020Y013210D01*
X016963Y013074D01*
X016963Y012926D01*
X017020Y012790D01*
X017124Y012686D01*
X017260Y012630D01*
X017407Y012630D01*
X017543Y012686D01*
X017647Y012790D01*
X017703Y012926D01*
X017703Y013074D01*
X017647Y013210D01*
X017623Y013233D01*
X017623Y016667D01*
X017647Y016690D01*
X017703Y016826D01*
X017703Y016974D01*
X017647Y017110D01*
X017623Y017133D01*
X017623Y024910D01*
X021513Y024910D01*
X021943Y024480D01*
X021943Y023864D01*
X021927Y023858D01*
X021776Y023706D01*
X021693Y023507D01*
X021693Y023293D01*
X021776Y023094D01*
X021927Y022942D01*
X022029Y022900D01*
X021927Y022858D01*
X021776Y022706D01*
X021693Y022507D01*
X021693Y022293D01*
X021776Y022094D01*
X021927Y021942D01*
X022029Y021900D01*
X021927Y021858D01*
X021776Y021706D01*
X021693Y021507D01*
X021693Y021293D01*
X021776Y021094D01*
X021927Y020942D01*
X022029Y020900D01*
X021927Y020858D01*
X021776Y020706D01*
X021693Y020507D01*
X021693Y020293D01*
X021776Y020094D01*
X021927Y019942D01*
X022029Y019900D01*
X021927Y019858D01*
X021776Y019706D01*
X021769Y019690D01*
X021015Y019690D01*
X021015Y019707D01*
X020916Y019806D01*
X020460Y019806D01*
X020360Y019707D01*
X020360Y019093D01*
X020460Y018994D01*
X020916Y018994D01*
X021015Y019093D01*
X021015Y019110D01*
X021769Y019110D01*
X021776Y019094D01*
X021927Y018942D01*
X022029Y018900D01*
X021927Y018858D01*
X021776Y018706D01*
X021769Y018690D01*
X021015Y018690D01*
X021015Y018707D01*
X020916Y018806D01*
X020460Y018806D01*
X020360Y018707D01*
X020360Y018093D01*
X020460Y017994D01*
X020916Y017994D01*
X021015Y018093D01*
X021015Y018110D01*
X021769Y018110D01*
X021776Y018094D01*
X021927Y017942D01*
X022029Y017900D01*
X021927Y017858D01*
X021776Y017706D01*
X021693Y017507D01*
X021693Y017293D01*
X021776Y017094D01*
X021927Y016942D01*
X022029Y016900D01*
X021927Y016858D01*
X021776Y016706D01*
X021693Y016507D01*
X021693Y016293D01*
X021776Y016094D01*
X021927Y015942D01*
X022029Y015900D01*
X021927Y015858D01*
X021776Y015706D01*
X021693Y015507D01*
X021693Y015293D01*
X021776Y015094D01*
X021927Y014942D01*
X022029Y014900D01*
X021927Y014858D01*
X021776Y014706D01*
X021693Y014507D01*
X021693Y014293D01*
X021776Y014094D01*
X021927Y013942D01*
X022029Y013900D01*
X021927Y013858D01*
X021776Y013706D01*
X021693Y013507D01*
X021693Y013293D01*
X021776Y013094D01*
X021927Y012942D01*
X022029Y012900D01*
X021927Y012858D01*
X021776Y012706D01*
X021693Y012507D01*
X021693Y012293D01*
X021776Y012094D01*
X021927Y011942D01*
X022029Y011900D01*
X021927Y011858D01*
X021776Y011706D01*
X021693Y011507D01*
X021693Y011293D01*
X021776Y011094D01*
X021927Y010942D01*
X022029Y010900D01*
X021927Y010858D01*
X021776Y010706D01*
X021693Y010507D01*
X021693Y010293D01*
X021776Y010094D01*
X021927Y009942D01*
X022126Y009860D01*
X022341Y009860D01*
X022539Y009942D01*
X022691Y010094D01*
X022773Y010293D01*
X022773Y010507D01*
X022691Y010706D01*
X022539Y010858D01*
X022437Y010900D01*
X022539Y010942D01*
X022691Y011094D01*
X022699Y011113D01*
X022798Y011154D01*
X023753Y012110D01*
X024069Y012110D01*
X024076Y012094D01*
X024227Y011942D01*
X024356Y011889D01*
X024334Y011882D01*
X024261Y011845D01*
X024195Y011797D01*
X024137Y011739D01*
X024089Y011673D01*
X024051Y011600D01*
X024026Y011522D01*
X024015Y011450D01*
X024483Y011450D01*
X024483Y011350D01*
X024015Y011350D01*
X024026Y011278D01*
X024051Y011200D01*
X024089Y011127D01*
X024137Y011061D01*
X024195Y011003D01*
X024261Y010955D01*
X024334Y010918D01*
X024356Y010911D01*
X024227Y010858D01*
X024076Y010706D01*
X023993Y010507D01*
X023993Y010293D01*
X024076Y010094D01*
X024227Y009942D01*
X024426Y009860D01*
X024641Y009860D01*
X024839Y009942D01*
X024943Y010046D01*
X024943Y007020D01*
X024613Y006690D01*
X024413Y006690D01*
X024539Y006742D01*
X024691Y006894D01*
X024773Y007093D01*
X024773Y007307D01*
X024691Y007506D01*
X024539Y007658D01*
X024341Y007740D01*
X024126Y007740D01*
X023927Y007658D01*
X023776Y007506D01*
X023733Y007404D01*
X023691Y007506D01*
X023539Y007658D01*
X023341Y007740D01*
X023126Y007740D01*
X022927Y007658D01*
X022776Y007506D01*
X022733Y007404D01*
X022691Y007506D01*
X022539Y007658D01*
X022341Y007740D01*
X022126Y007740D01*
X021927Y007658D01*
X021776Y007506D01*
X021733Y007404D01*
X021691Y007506D01*
X021539Y007658D01*
X021341Y007740D01*
X021126Y007740D01*
X020927Y007658D01*
X020776Y007506D01*
X020722Y007378D01*
X020715Y007400D01*
X020678Y007473D01*
X020630Y007539D01*
X020572Y007597D01*
X020506Y007645D01*
X020433Y007682D01*
X020355Y007707D01*
X020283Y007719D01*
X020283Y007250D01*
X020183Y007250D01*
X020183Y007719D01*
X020112Y007707D01*
X020034Y007682D01*
X019961Y007645D01*
X019895Y007597D01*
X019837Y007539D01*
X019789Y007473D01*
X019751Y007400D01*
X019744Y007378D01*
X019691Y007506D01*
X019539Y007658D01*
X019341Y007740D01*
X019126Y007740D01*
X018927Y007658D01*
X018776Y007506D01*
X018693Y007307D01*
X018693Y007093D01*
X018776Y006894D01*
X018927Y006742D01*
X018947Y006734D01*
X018973Y006670D01*
X018623Y007020D01*
X018623Y007467D01*
X018647Y007490D01*
X018703Y007626D01*
X018703Y007774D01*
X018647Y007910D01*
X018543Y008014D01*
X018407Y008070D01*
X018260Y008070D01*
X018124Y008014D01*
X018020Y007910D01*
X017963Y007774D01*
X017963Y007626D01*
X018020Y007490D01*
X018043Y007467D01*
X018043Y006842D01*
X018087Y006736D01*
X018987Y005836D01*
X019069Y005754D01*
X019176Y005710D01*
X024991Y005710D01*
X025098Y005754D01*
X025798Y006454D01*
X025879Y006536D01*
X025923Y006642D01*
X025923Y017280D01*
X026253Y017610D01*
X026499Y017610D01*
X026506Y017594D01*
X026657Y017442D01*
X026759Y017400D01*
X026657Y017358D01*
X026506Y017206D01*
X026423Y017007D01*
X026423Y016793D01*
X026506Y016594D01*
X026657Y016442D01*
X026759Y016400D01*
X026657Y016358D01*
X026506Y016206D01*
X026423Y016007D01*
X026423Y015793D01*
X026506Y015594D01*
X026657Y015442D01*
X026759Y015400D01*
X026657Y015358D01*
X026506Y015206D01*
X026423Y015007D01*
X026423Y014793D01*
X026506Y014594D01*
X026657Y014442D01*
X026759Y014400D01*
X026657Y014358D01*
X026506Y014206D01*
X026423Y014007D01*
X026423Y013793D01*
X026506Y013594D01*
X026657Y013442D01*
X026856Y013360D01*
X027811Y013360D01*
X028009Y013442D01*
X028161Y013594D01*
X028243Y013793D01*
X028243Y014007D01*
X028161Y014206D01*
X028009Y014358D01*
X027907Y014400D01*
X028009Y014442D01*
X028161Y014594D01*
X028243Y014793D01*
X028243Y015007D01*
X028161Y015206D01*
X028009Y015358D01*
X027907Y015400D01*
X028009Y015442D01*
X028161Y015594D01*
X028243Y015793D01*
X028243Y016007D01*
X028161Y016206D01*
X028009Y016358D01*
X027907Y016400D01*
X028009Y016442D01*
X028161Y016594D01*
X028243Y016793D01*
X028243Y017007D01*
X028161Y017206D01*
X028009Y017358D01*
X027907Y017400D01*
X028009Y017442D01*
X028161Y017594D01*
X028243Y017793D01*
X028243Y018007D01*
X028161Y018206D01*
X028009Y018358D01*
X027881Y018411D01*
X027903Y018418D01*
X027976Y018455D01*
X028042Y018503D01*
X028100Y018561D01*
X028148Y018627D01*
X028185Y018700D01*
X028211Y018778D01*
X028222Y018850D01*
X027703Y018850D01*
X027703Y018950D01*
X028222Y018950D01*
X028211Y019022D01*
X028185Y019100D01*
X028148Y019173D01*
X028100Y019239D01*
X028042Y019297D01*
X027976Y019345D01*
X027903Y019382D01*
X027881Y019389D01*
X028009Y019442D01*
X028161Y019594D01*
X028243Y019793D01*
X028243Y020007D01*
X028161Y020206D01*
X028009Y020358D01*
X027811Y020440D01*
X026856Y020440D01*
X026657Y020358D01*
X026522Y020222D01*
X023179Y023564D01*
X023098Y023646D01*
X022991Y023690D01*
X022698Y023690D01*
X022691Y023706D01*
X022539Y023858D01*
X022523Y023864D01*
X022523Y024658D01*
X022479Y024764D01*
X021879Y025364D01*
X021798Y025446D01*
X021691Y025490D01*
X013576Y025490D01*
X013469Y025446D01*
X013033Y025010D01*
X012023Y026020D01*
X012023Y026536D01*
X012039Y026542D01*
X012191Y026694D01*
X012273Y026893D01*
X012273Y027107D01*
X012191Y027306D01*
X012039Y027458D01*
X011841Y027540D01*
X011626Y027540D01*
X011427Y027458D01*
X011276Y027306D01*
X011222Y027178D01*
X011215Y027200D01*
X011178Y027273D01*
X011130Y027339D01*
X011072Y027397D01*
X011006Y027445D01*
X010933Y027482D01*
X010855Y027507D01*
X010783Y027519D01*
X010783Y027050D01*
X010683Y027050D01*
X010683Y027519D01*
X010612Y027507D01*
X010534Y027482D01*
X010461Y027445D01*
X010395Y027397D01*
X010337Y027339D01*
X010289Y027273D01*
X010251Y027200D01*
X010244Y027178D01*
X010191Y027306D01*
X010039Y027458D01*
X009841Y027540D01*
X009626Y027540D01*
X009427Y027458D01*
X009276Y027306D01*
X009273Y027301D01*
X009273Y027440D01*
X009174Y027540D01*
X008293Y027540D01*
X008193Y027440D01*
X008193Y026560D01*
X008293Y026460D01*
X009174Y026460D01*
X009273Y026560D01*
X009273Y026699D01*
X009276Y026694D01*
X009427Y026542D01*
X009626Y026460D01*
X009841Y026460D01*
X010039Y026542D01*
X010191Y026694D01*
X010244Y026822D01*
X010251Y026800D01*
X010289Y026727D01*
X010337Y026661D01*
X010395Y026603D01*
X010461Y026555D01*
X010534Y026518D01*
X010612Y026493D01*
X010683Y026481D01*
X010683Y026950D01*
X010783Y026950D01*
X010783Y026481D01*
X010855Y026493D01*
X010933Y026518D01*
X011006Y026555D01*
X011072Y026603D01*
X011130Y026661D01*
X011178Y026727D01*
X011215Y026800D01*
X011232Y026800D01*
X011215Y026800D02*
X011222Y026822D01*
X011276Y026694D01*
X011427Y026542D01*
X011443Y026536D01*
X011443Y025842D01*
X011443Y026300D02*
X006165Y026300D01*
X005933Y026158D02*
X005933Y007642D01*
X005433Y007683D02*
X005433Y026117D01*
X004833Y026800D02*
X004653Y026800D01*
X004653Y027300D02*
X004933Y027300D01*
X004933Y027589D01*
X005144Y027800D02*
X025422Y027800D01*
X025433Y027789D02*
X025433Y021310D01*
X025443Y021300D02*
X028313Y021300D01*
X028313Y020800D02*
X025943Y020800D01*
X025933Y020810D02*
X025933Y027289D01*
X025922Y027300D02*
X012194Y027300D01*
X011933Y027502D02*
X011933Y028280D01*
X011433Y028280D02*
X011433Y027460D01*
X011273Y027300D02*
X011158Y027300D01*
X010933Y027482D02*
X010933Y028280D01*
X010433Y028280D02*
X010433Y027425D01*
X010309Y027300D02*
X010194Y027300D01*
X009933Y027502D02*
X009933Y028280D01*
X009433Y028280D02*
X009433Y027460D01*
X008933Y027540D02*
X008933Y028280D01*
X008433Y028280D02*
X008433Y027540D01*
X008193Y027300D02*
X006333Y027300D01*
X005933Y027642D02*
X005933Y028280D01*
X005433Y028089D02*
X005433Y027683D01*
X006433Y028280D02*
X006433Y005520D01*
X006933Y005520D02*
X006933Y028280D01*
X007433Y028280D02*
X007433Y005520D01*
X007933Y005520D02*
X007933Y028280D01*
X008193Y026800D02*
X006433Y026800D01*
X008433Y026460D02*
X008433Y005520D01*
X008933Y005520D02*
X008933Y026460D01*
X009433Y026540D02*
X009433Y005520D01*
X009933Y005520D02*
X009933Y011290D01*
X009923Y011300D02*
X004653Y011300D01*
X004653Y010800D02*
X010423Y010800D01*
X010433Y010790D02*
X010433Y005520D01*
X010933Y005520D02*
X010933Y010290D01*
X010923Y010300D02*
X004653Y010300D01*
X004653Y009800D02*
X011423Y009800D01*
X011433Y009790D02*
X011433Y005520D01*
X011933Y005520D02*
X011933Y009290D01*
X011923Y009300D02*
X004653Y009300D01*
X004653Y008800D02*
X012423Y008800D01*
X012433Y008790D02*
X012433Y005520D01*
X012933Y005520D02*
X012933Y006740D01*
X012870Y006800D02*
X006433Y006800D01*
X006333Y007300D02*
X012693Y007300D01*
X012933Y007660D02*
X012933Y008290D01*
X012923Y008300D02*
X004653Y008300D01*
X004653Y007800D02*
X012943Y007800D01*
X013523Y007800D02*
X017974Y007800D01*
X018043Y007300D02*
X016773Y007300D01*
X016773Y006800D02*
X018061Y006800D01*
X018433Y006390D02*
X018433Y005520D01*
X018933Y005520D02*
X018933Y005890D01*
X019023Y005800D02*
X005344Y005800D01*
X005433Y005711D02*
X005433Y006117D01*
X005933Y006158D02*
X005933Y005520D01*
X006165Y006300D02*
X018523Y006300D01*
X018933Y006710D02*
X018933Y006740D01*
X018870Y006800D02*
X018843Y006800D01*
X018693Y007300D02*
X018623Y007300D01*
X018933Y007660D02*
X018933Y011030D01*
X018860Y011030D02*
X019007Y011030D01*
X019143Y011086D01*
X019247Y011190D01*
X019303Y011326D01*
X019303Y011474D01*
X019247Y011610D01*
X019223Y011633D01*
X019223Y014267D01*
X019247Y014290D01*
X019303Y014426D01*
X019303Y014574D01*
X019247Y014710D01*
X019143Y014814D01*
X019007Y014870D01*
X018860Y014870D01*
X018724Y014814D01*
X018620Y014710D01*
X018563Y014574D01*
X018563Y014426D01*
X018620Y014290D01*
X018643Y014267D01*
X018643Y011633D01*
X018620Y011610D01*
X018563Y011474D01*
X018563Y011326D01*
X018620Y011190D01*
X018724Y011086D01*
X018860Y011030D01*
X018574Y011300D02*
X016423Y011300D01*
X016423Y010800D02*
X021870Y010800D01*
X021933Y010860D02*
X021933Y010940D01*
X021693Y011300D02*
X019292Y011300D01*
X019223Y011800D02*
X021870Y011800D01*
X021933Y011860D02*
X021933Y011940D01*
X021693Y012300D02*
X019223Y012300D01*
X019223Y012800D02*
X021870Y012800D01*
X021933Y012860D02*
X021933Y012940D01*
X021693Y013300D02*
X019223Y013300D01*
X019223Y013800D02*
X021870Y013800D01*
X021933Y013860D02*
X021933Y013940D01*
X021693Y014300D02*
X019251Y014300D01*
X019157Y014800D02*
X021870Y014800D01*
X021933Y014860D02*
X021933Y014940D01*
X021693Y015300D02*
X017623Y015300D01*
X017043Y015300D02*
X015773Y015300D01*
X015597Y014800D02*
X017043Y014800D01*
X017623Y014800D02*
X018710Y014800D01*
X018933Y014870D02*
X018933Y024910D01*
X018433Y024910D02*
X018433Y008059D01*
X018692Y007800D02*
X024943Y007800D01*
X024943Y008300D02*
X013523Y008300D01*
X013433Y008610D02*
X013433Y009390D01*
X013523Y009300D02*
X012743Y009300D01*
X012933Y009110D02*
X012933Y009890D01*
X013023Y009800D02*
X012243Y009800D01*
X012433Y009610D02*
X012433Y010390D01*
X012523Y010300D02*
X011743Y010300D01*
X011933Y010110D02*
X011933Y010890D01*
X012023Y010800D02*
X011243Y010800D01*
X011433Y010610D02*
X011433Y011390D01*
X011523Y011300D02*
X010743Y011300D01*
X010933Y011110D02*
X010933Y014219D01*
X010633Y014300D02*
X010633Y014300D01*
X010433Y014113D02*
X010433Y011610D01*
X010323Y011800D02*
X011023Y011800D01*
X010943Y012300D02*
X010323Y012300D01*
X010323Y012800D02*
X010943Y012800D01*
X010943Y013300D02*
X010323Y013300D01*
X010323Y013800D02*
X010943Y013800D01*
X010933Y014581D02*
X010933Y020290D01*
X010943Y020300D02*
X011493Y020300D01*
X011670Y019800D02*
X010443Y019800D01*
X010433Y019790D02*
X010433Y014687D01*
X010323Y014800D02*
X010943Y014800D01*
X011023Y015300D02*
X010323Y015300D01*
X010323Y015800D02*
X011670Y015800D01*
X011433Y015672D02*
X011433Y020790D01*
X011443Y020800D02*
X011670Y020800D01*
X011933Y020940D02*
X011933Y021110D01*
X012433Y021110D02*
X012433Y020764D01*
X012397Y020800D02*
X012699Y020800D01*
X013367Y020800D02*
X014870Y020800D01*
X014933Y020860D02*
X014933Y020940D01*
X014693Y021300D02*
X013573Y021300D01*
X013433Y021036D02*
X013433Y020734D01*
X013433Y020450D02*
X013433Y020350D01*
X013544Y020300D02*
X014693Y020300D01*
X014933Y019940D02*
X014933Y019860D01*
X014870Y019800D02*
X013397Y019800D01*
X013433Y019764D02*
X013433Y020066D01*
X013573Y019300D02*
X014693Y019300D01*
X014933Y018940D02*
X014933Y018860D01*
X014870Y018800D02*
X013397Y018800D01*
X013433Y018764D02*
X013433Y019036D01*
X013573Y018300D02*
X014693Y018300D01*
X014933Y017940D02*
X014933Y017860D01*
X014870Y017800D02*
X013397Y017800D01*
X013433Y017764D02*
X013433Y018036D01*
X013933Y017410D02*
X013933Y024910D01*
X013643Y024800D02*
X017043Y024800D01*
X016933Y024910D02*
X016933Y005520D01*
X017433Y005520D02*
X017433Y012641D01*
X017651Y012800D02*
X018643Y012800D01*
X018643Y012300D02*
X016423Y012300D01*
X016423Y011800D02*
X018643Y011800D01*
X017016Y012800D02*
X016423Y012800D01*
X016423Y013300D02*
X017043Y013300D01*
X017623Y013300D02*
X018643Y013300D01*
X018643Y013800D02*
X017623Y013800D01*
X017623Y014300D02*
X018616Y014300D01*
X017043Y014300D02*
X016143Y014300D01*
X015933Y014510D02*
X015933Y024910D01*
X015433Y024910D02*
X015433Y023882D01*
X015355Y023907D01*
X015283Y023919D01*
X015283Y023450D01*
X015752Y023450D01*
X015741Y023522D01*
X015715Y023600D01*
X015678Y023673D01*
X015630Y023739D01*
X015572Y023797D01*
X015506Y023845D01*
X015433Y023882D01*
X015567Y023800D02*
X017043Y023800D01*
X017043Y024300D02*
X013323Y024300D01*
X013433Y024590D02*
X013433Y021764D01*
X013397Y021800D02*
X014870Y021800D01*
X014933Y021860D02*
X014933Y021940D01*
X014693Y022300D02*
X013323Y022300D01*
X013323Y022800D02*
X014870Y022800D01*
X014933Y022860D02*
X014933Y022975D01*
X014933Y023350D02*
X014933Y023450D01*
X014715Y023450D02*
X015183Y023450D01*
X015183Y023919D01*
X015112Y023907D01*
X015034Y023882D01*
X014961Y023845D01*
X014895Y023797D01*
X014837Y023739D01*
X014789Y023673D01*
X014751Y023600D01*
X014726Y023522D01*
X014715Y023450D01*
X014723Y023300D02*
X013323Y023300D01*
X013323Y023800D02*
X014899Y023800D01*
X014933Y023825D02*
X014933Y024910D01*
X014433Y024910D02*
X014433Y016910D01*
X014506Y016800D02*
X014870Y016800D01*
X014933Y016860D02*
X014933Y016940D01*
X014693Y017300D02*
X014043Y017300D01*
X014523Y016300D02*
X014693Y016300D01*
X014933Y015940D02*
X014933Y015860D01*
X014870Y015800D02*
X014523Y015800D01*
X014523Y015300D02*
X014693Y015300D01*
X014933Y014940D02*
X014933Y014860D01*
X014870Y014800D02*
X014643Y014800D01*
X015597Y015800D02*
X017043Y015800D01*
X017043Y016300D02*
X015773Y016300D01*
X015597Y016800D02*
X016974Y016800D01*
X017043Y017300D02*
X015773Y017300D01*
X015597Y017800D02*
X017043Y017800D01*
X017043Y018300D02*
X015773Y018300D01*
X015597Y018800D02*
X017043Y018800D01*
X017623Y018800D02*
X020454Y018800D01*
X020433Y018780D02*
X020433Y019020D01*
X020276Y019106D02*
X020286Y019144D01*
X020286Y019371D01*
X020008Y019371D01*
X020008Y019429D01*
X019950Y019429D01*
X019950Y019371D01*
X019672Y019371D01*
X019672Y019144D01*
X019682Y019106D01*
X019701Y019072D01*
X019729Y019044D01*
X019764Y019024D01*
X019802Y019014D01*
X019950Y019014D01*
X019950Y019371D01*
X020008Y019371D01*
X020008Y019014D01*
X020156Y019014D01*
X020194Y019024D01*
X020229Y019044D01*
X020257Y019072D01*
X020276Y019106D01*
X020286Y019300D02*
X020360Y019300D01*
X020286Y019429D02*
X020286Y019656D01*
X020276Y019694D01*
X020257Y019728D01*
X020229Y019756D01*
X020194Y019776D01*
X020156Y019786D01*
X020008Y019786D01*
X020008Y019429D01*
X020286Y019429D01*
X020008Y019300D02*
X019950Y019300D01*
X019933Y019371D02*
X019933Y019429D01*
X019950Y019429D02*
X019672Y019429D01*
X019672Y019656D01*
X019682Y019694D01*
X019701Y019728D01*
X019729Y019756D01*
X019764Y019776D01*
X019802Y019786D01*
X019950Y019786D01*
X019950Y019429D01*
X019672Y019300D02*
X017623Y019300D01*
X017043Y019300D02*
X015773Y019300D01*
X015597Y019800D02*
X017043Y019800D01*
X017043Y020300D02*
X015773Y020300D01*
X015597Y020800D02*
X017043Y020800D01*
X017623Y020800D02*
X021870Y020800D01*
X021933Y020860D02*
X021933Y020940D01*
X021693Y021300D02*
X017623Y021300D01*
X017043Y021300D02*
X015773Y021300D01*
X015597Y021800D02*
X017043Y021800D01*
X017043Y022300D02*
X015773Y022300D01*
X015597Y022800D02*
X017043Y022800D01*
X017623Y022800D02*
X021870Y022800D01*
X021933Y022860D02*
X021933Y022940D01*
X021693Y023300D02*
X017623Y023300D01*
X017043Y023300D02*
X015744Y023300D01*
X015433Y023350D02*
X015433Y023450D01*
X015283Y023800D02*
X015183Y023800D01*
X016433Y024910D02*
X016433Y007740D01*
X015933Y007740D02*
X015933Y009290D01*
X015943Y009300D02*
X024943Y009300D01*
X024943Y008800D02*
X013243Y008800D01*
X013933Y009010D02*
X013933Y007625D01*
X014183Y007300D02*
X014283Y007300D01*
X014433Y007682D02*
X014433Y009010D01*
X014933Y009010D02*
X014933Y007660D01*
X015433Y007702D02*
X015433Y009010D01*
X016298Y009654D02*
X016298Y009654D01*
X016406Y009800D02*
X024943Y009800D01*
X024933Y010036D02*
X024933Y007010D01*
X024943Y007300D02*
X024773Y007300D01*
X024433Y007702D02*
X024433Y009860D01*
X023993Y010300D02*
X022773Y010300D01*
X022433Y009898D02*
X022433Y007702D01*
X021933Y007660D02*
X021933Y009940D01*
X021693Y010300D02*
X016423Y010300D01*
X019433Y007702D02*
X019433Y024910D01*
X019933Y024910D02*
X019933Y019786D01*
X020433Y019780D02*
X020433Y024910D01*
X020933Y024910D02*
X020933Y019788D01*
X020922Y019800D02*
X021870Y019800D01*
X021933Y019860D02*
X021933Y019940D01*
X021693Y020300D02*
X017623Y020300D01*
X017623Y019800D02*
X020454Y019800D01*
X020933Y019012D02*
X020933Y018788D01*
X020922Y018800D02*
X021870Y018800D01*
X021933Y018860D02*
X021933Y018940D01*
X021433Y019110D02*
X021433Y018690D01*
X021433Y018110D02*
X021433Y007702D01*
X020933Y007660D02*
X020933Y018012D01*
X020433Y018020D02*
X020433Y007682D01*
X020283Y007300D02*
X020183Y007300D01*
X019933Y007625D02*
X019933Y018014D01*
X019950Y018014D02*
X019802Y018014D01*
X019764Y018024D01*
X019729Y018044D01*
X019701Y018072D01*
X019682Y018106D01*
X019672Y018144D01*
X019672Y018371D01*
X019950Y018371D01*
X019950Y018429D01*
X019672Y018429D01*
X019672Y018656D01*
X019682Y018694D01*
X019701Y018728D01*
X019729Y018756D01*
X019764Y018776D01*
X019802Y018786D01*
X019950Y018786D01*
X019950Y018429D01*
X020008Y018429D01*
X020008Y018786D01*
X020156Y018786D01*
X020194Y018776D01*
X020229Y018756D01*
X020257Y018728D01*
X020276Y018694D01*
X020286Y018656D01*
X020286Y018429D01*
X020008Y018429D01*
X020008Y018371D01*
X020286Y018371D01*
X020286Y018144D01*
X020276Y018106D01*
X020257Y018072D01*
X020229Y018044D01*
X020194Y018024D01*
X020156Y018014D01*
X020008Y018014D01*
X020008Y018371D01*
X019950Y018371D01*
X019950Y018014D01*
X019950Y018300D02*
X020008Y018300D01*
X019933Y018371D02*
X019933Y018429D01*
X019672Y018300D02*
X017623Y018300D01*
X017623Y017800D02*
X021870Y017800D01*
X021933Y017860D02*
X021933Y017940D01*
X021693Y017300D02*
X017623Y017300D01*
X017692Y016800D02*
X021870Y016800D01*
X021933Y016860D02*
X021933Y016940D01*
X021693Y016300D02*
X017623Y016300D01*
X017623Y015800D02*
X021870Y015800D01*
X021933Y015860D02*
X021933Y015940D01*
X020360Y018300D02*
X020286Y018300D01*
X019933Y018786D02*
X019933Y019014D01*
X021433Y019690D02*
X021433Y024910D01*
X021623Y024800D02*
X017623Y024800D01*
X017933Y024910D02*
X017933Y005520D01*
X016433Y005520D02*
X016433Y006660D01*
X015933Y006660D02*
X015933Y005520D01*
X015433Y005520D02*
X015433Y006698D01*
X015597Y006800D02*
X015693Y006800D01*
X014933Y006740D02*
X014933Y005520D01*
X014433Y005520D02*
X014433Y006718D01*
X014567Y006800D02*
X014870Y006800D01*
X014283Y006800D02*
X014183Y006800D01*
X013933Y006775D02*
X013933Y005520D01*
X013433Y005520D02*
X013433Y006698D01*
X013597Y006800D02*
X013899Y006800D01*
X019433Y005710D02*
X019433Y005520D01*
X019933Y005520D02*
X019933Y005710D01*
X020433Y005710D02*
X020433Y005520D01*
X020933Y005520D02*
X020933Y005710D01*
X021433Y005710D02*
X021433Y005520D01*
X021933Y005520D02*
X021933Y005710D01*
X022433Y005710D02*
X022433Y005520D01*
X022933Y005520D02*
X022933Y005710D01*
X023433Y005710D02*
X023433Y005520D01*
X023933Y005520D02*
X023933Y005710D01*
X024433Y005710D02*
X024433Y005520D01*
X024933Y005520D02*
X024933Y005710D01*
X025143Y005800D02*
X025222Y005800D01*
X025433Y006011D02*
X025433Y006090D01*
X025643Y006300D02*
X025722Y006300D01*
X025798Y006454D02*
X025798Y006454D01*
X025933Y006511D02*
X025933Y017290D01*
X025943Y017300D02*
X026600Y017300D01*
X026433Y017032D02*
X026433Y017610D01*
X026433Y018190D02*
X026433Y019490D01*
X026522Y019578D02*
X026657Y019442D01*
X026786Y019389D01*
X026764Y019382D01*
X026691Y019345D01*
X026625Y019297D01*
X026567Y019239D01*
X026519Y019173D01*
X026481Y019100D01*
X026456Y019022D01*
X026445Y018950D01*
X026963Y018950D01*
X026963Y018850D01*
X026445Y018850D01*
X026456Y018778D01*
X026481Y018700D01*
X026519Y018627D01*
X026567Y018561D01*
X026625Y018503D01*
X026691Y018455D01*
X026764Y018418D01*
X026786Y018411D01*
X026657Y018358D01*
X026506Y018206D01*
X026499Y018190D01*
X026076Y018190D01*
X025969Y018146D01*
X025523Y017700D01*
X025523Y018580D01*
X026522Y019578D01*
X026629Y019300D02*
X026243Y019300D01*
X025933Y018990D02*
X025933Y018110D01*
X025623Y017800D02*
X025523Y017800D01*
X025523Y018300D02*
X026600Y018300D01*
X026453Y018800D02*
X025743Y018800D01*
X026933Y018850D02*
X026933Y018950D01*
X027933Y018950D02*
X027933Y018850D01*
X028214Y018800D02*
X028313Y018800D01*
X027933Y018434D02*
X027933Y018389D01*
X028067Y018300D02*
X028313Y018300D01*
X028313Y017800D02*
X028243Y017800D01*
X027933Y017411D02*
X027933Y017389D01*
X028067Y017300D02*
X028313Y017300D01*
X028313Y016800D02*
X028243Y016800D01*
X027933Y016411D02*
X027933Y016389D01*
X028067Y016300D02*
X028313Y016300D01*
X028313Y015800D02*
X028243Y015800D01*
X027933Y015411D02*
X027933Y015389D01*
X028067Y015300D02*
X028313Y015300D01*
X028313Y014800D02*
X028243Y014800D01*
X027933Y014411D02*
X027933Y014389D01*
X028067Y014300D02*
X028313Y014300D01*
X028313Y013800D02*
X028243Y013800D01*
X027933Y013411D02*
X027933Y009831D01*
X027965Y009800D02*
X028313Y009800D01*
X028011Y009753D02*
X028133Y009459D01*
X028133Y009141D01*
X028011Y008847D01*
X027786Y008622D01*
X027492Y008500D01*
X027174Y008500D01*
X026880Y008622D01*
X026655Y008847D01*
X026533Y009141D01*
X026533Y009459D01*
X026655Y009753D01*
X026880Y009978D01*
X027174Y010100D01*
X027492Y010100D01*
X027786Y009978D01*
X028011Y009753D01*
X028313Y010300D02*
X025923Y010300D01*
X025923Y009800D02*
X026702Y009800D01*
X026933Y010000D02*
X026933Y013360D01*
X027433Y013360D02*
X027433Y010100D01*
X028313Y010800D02*
X025923Y010800D01*
X025923Y011300D02*
X028313Y011300D01*
X028313Y011800D02*
X025923Y011800D01*
X025923Y012300D02*
X028313Y012300D01*
X028313Y012800D02*
X025923Y012800D01*
X025923Y013300D02*
X028313Y013300D01*
X026433Y013768D02*
X026433Y007011D01*
X026222Y006800D02*
X025923Y006800D01*
X025923Y007300D02*
X026722Y007300D01*
X026933Y007511D02*
X026933Y008600D01*
X026702Y008800D02*
X025923Y008800D01*
X025923Y008300D02*
X027722Y008300D01*
X027933Y008511D02*
X027933Y008769D01*
X027965Y008800D02*
X028222Y008800D01*
X028133Y009300D02*
X028313Y009300D01*
X027433Y008500D02*
X027433Y008011D01*
X027222Y007800D02*
X025923Y007800D01*
X024723Y006800D02*
X024597Y006800D01*
X024433Y006698D02*
X024433Y006690D01*
X023933Y007660D02*
X023933Y012110D01*
X024199Y011800D02*
X023443Y011800D01*
X023433Y011790D02*
X023433Y007702D01*
X022933Y007660D02*
X022933Y011290D01*
X022943Y011300D02*
X024023Y011300D01*
X024433Y011350D02*
X024433Y011450D01*
X024170Y010800D02*
X022597Y010800D01*
X025923Y009300D02*
X026533Y009300D01*
X026423Y013800D02*
X025923Y013800D01*
X025923Y014300D02*
X026600Y014300D01*
X026433Y014032D02*
X026433Y014768D01*
X026423Y014800D02*
X025923Y014800D01*
X026433Y015032D02*
X026433Y015768D01*
X026423Y015800D02*
X025923Y015800D01*
X025923Y016300D02*
X026600Y016300D01*
X026433Y016032D02*
X026433Y016768D01*
X026423Y016800D02*
X025923Y016800D01*
X025923Y015300D02*
X026600Y015300D01*
X028037Y019300D02*
X028313Y019300D01*
X027933Y019366D02*
X027933Y019411D01*
X028243Y019800D02*
X028313Y019800D01*
X028313Y020300D02*
X028067Y020300D01*
X027933Y020389D02*
X027933Y023969D01*
X028011Y024047D02*
X028133Y024341D01*
X028133Y024659D01*
X028011Y024953D01*
X027786Y025178D01*
X027492Y025300D01*
X027174Y025300D01*
X026880Y025178D01*
X026655Y024953D01*
X026533Y024659D01*
X026533Y024341D01*
X026655Y024047D01*
X026880Y023822D01*
X027174Y023700D01*
X027492Y023700D01*
X027786Y023822D01*
X028011Y024047D01*
X028116Y024300D02*
X028313Y024300D01*
X028313Y023800D02*
X027734Y023800D01*
X027433Y023700D02*
X027433Y020440D01*
X026933Y020440D02*
X026933Y023800D01*
X022597Y023800D01*
X022933Y023690D02*
X022933Y028280D01*
X023433Y028280D02*
X023433Y023310D01*
X023443Y023300D02*
X028313Y023300D01*
X028313Y022800D02*
X023943Y022800D01*
X023933Y022810D02*
X023933Y028280D01*
X024433Y028280D02*
X024433Y022310D01*
X024443Y022300D02*
X028313Y022300D01*
X028313Y021800D02*
X024943Y021800D01*
X024933Y021810D02*
X024933Y028280D01*
X026422Y026800D02*
X012235Y026800D01*
X012023Y026300D02*
X026922Y026300D01*
X026933Y026289D02*
X026933Y025200D01*
X026592Y024800D02*
X022443Y024800D01*
X022433Y024810D02*
X022433Y028280D01*
X021933Y028280D02*
X021933Y025310D01*
X021943Y025300D02*
X027922Y025300D01*
X027933Y025289D02*
X027933Y025031D01*
X028075Y024800D02*
X028313Y024800D01*
X027433Y025300D02*
X027433Y025789D01*
X027422Y025800D02*
X012243Y025800D01*
X012433Y025610D02*
X012433Y028280D01*
X012933Y028280D02*
X012933Y025110D01*
X012743Y025300D02*
X013323Y025300D01*
X013433Y025410D02*
X013433Y028280D01*
X013933Y028280D02*
X013933Y025490D01*
X014433Y025490D02*
X014433Y028280D01*
X014933Y028280D02*
X014933Y025490D01*
X015433Y025490D02*
X015433Y028280D01*
X015933Y028280D02*
X015933Y025490D01*
X016433Y025490D02*
X016433Y028280D01*
X016933Y028280D02*
X016933Y025490D01*
X017433Y025490D02*
X017433Y028280D01*
X017933Y028280D02*
X017933Y025490D01*
X018433Y025490D02*
X018433Y028280D01*
X018933Y028280D02*
X018933Y025490D01*
X019433Y025490D02*
X019433Y028280D01*
X019933Y028280D02*
X019933Y025490D01*
X020433Y025490D02*
X020433Y028280D01*
X020933Y028280D02*
X020933Y025490D01*
X021433Y025490D02*
X021433Y028280D01*
X021933Y024490D02*
X021933Y023860D01*
X021870Y023800D02*
X017623Y023800D01*
X017623Y024300D02*
X021943Y024300D01*
X022523Y024300D02*
X026550Y024300D01*
X026433Y026789D02*
X026433Y020310D01*
X026443Y020300D02*
X026600Y020300D01*
X021933Y021860D02*
X021933Y021940D01*
X021870Y021800D02*
X017623Y021800D01*
X017623Y022300D02*
X021693Y022300D01*
X015433Y022902D02*
X015433Y022918D01*
X012743Y022800D02*
X004653Y022800D01*
X004653Y022300D02*
X012743Y022300D01*
X012670Y021800D02*
X004653Y021800D01*
X004653Y021300D02*
X011123Y021300D01*
X010933Y021110D02*
X010933Y026518D01*
X010783Y026800D02*
X010683Y026800D01*
X010433Y026575D02*
X010433Y020610D01*
X010623Y020800D02*
X004653Y020800D01*
X004653Y020300D02*
X010123Y020300D01*
X009933Y020110D02*
X009933Y026498D01*
X010235Y026800D02*
X010252Y026800D01*
X010683Y027300D02*
X010783Y027300D01*
X011433Y026540D02*
X011433Y021610D01*
X011933Y021690D02*
X011933Y025290D01*
X011923Y025300D02*
X004653Y025300D01*
X004653Y024800D02*
X012423Y024800D01*
X012433Y024790D02*
X012433Y021690D01*
X012743Y023300D02*
X004653Y023300D01*
X004653Y023800D02*
X012743Y023800D01*
X012743Y024300D02*
X004653Y024300D01*
X004653Y019800D02*
X009743Y019800D01*
X009743Y019300D02*
X004653Y019300D01*
X004653Y018800D02*
X009743Y018800D01*
X009743Y018300D02*
X004653Y018300D01*
X004653Y017800D02*
X009743Y017800D01*
X009743Y017300D02*
X004653Y017300D01*
X004653Y016800D02*
X009743Y016800D01*
X009743Y016300D02*
X004653Y016300D01*
X004653Y015800D02*
X009743Y015800D01*
X009743Y015300D02*
X004653Y015300D01*
X004653Y014800D02*
X009743Y014800D01*
X009743Y014300D02*
X004653Y014300D01*
X004653Y013800D02*
X009743Y013800D01*
X009743Y013300D02*
X004653Y013300D01*
X004653Y012800D02*
X009743Y012800D01*
X009743Y012300D02*
X004653Y012300D01*
X004653Y011800D02*
X009743Y011800D01*
X010323Y016300D02*
X011493Y016300D01*
X011670Y016800D02*
X010323Y016800D01*
X010323Y017300D02*
X011493Y017300D01*
X011670Y017800D02*
X010323Y017800D01*
X010323Y018300D02*
X011493Y018300D01*
X011670Y018800D02*
X010323Y018800D01*
X010323Y019300D02*
X011493Y019300D01*
X016423Y013800D02*
X017043Y013800D01*
D16*
X017333Y013000D02*
X017333Y016900D01*
X017333Y025200D01*
X013633Y025200D01*
X013033Y024600D01*
X011733Y025900D01*
X011733Y027000D01*
X013033Y024600D02*
X013033Y021400D01*
X011633Y021400D01*
X010033Y019800D01*
X010033Y011600D01*
X013233Y008400D01*
X013233Y007200D01*
X013933Y009300D02*
X011233Y012000D01*
X011233Y015100D01*
X011533Y015400D01*
X012033Y015400D01*
X012033Y016400D02*
X013033Y016400D01*
X013533Y016400D01*
X013833Y016100D01*
X013833Y014200D01*
X014633Y013400D01*
X015233Y013400D01*
X016133Y013900D02*
X015633Y014400D01*
X015233Y014400D01*
X014633Y014400D01*
X014233Y014800D01*
X014233Y016700D01*
X013533Y017400D01*
X013033Y017400D01*
X016133Y013900D02*
X016133Y009900D01*
X015533Y009300D01*
X013933Y009300D01*
X013633Y011400D02*
X013033Y011400D01*
X013633Y011400D02*
X014633Y012400D01*
X015233Y012400D01*
X018933Y011400D02*
X018933Y014500D01*
X022233Y014400D02*
X022633Y014400D01*
X023633Y015400D01*
X024533Y015400D01*
X024533Y014400D02*
X023633Y014400D01*
X022633Y013400D01*
X022233Y013400D01*
X022233Y012400D02*
X022633Y012400D01*
X023633Y013400D01*
X024533Y013400D01*
X024533Y012400D02*
X023633Y012400D01*
X022633Y011400D01*
X022233Y011400D01*
X024533Y010400D02*
X025233Y010400D01*
X025233Y006900D01*
X024733Y006400D01*
X019633Y006400D01*
X019233Y006800D01*
X019233Y007200D01*
X018333Y006900D02*
X019233Y006000D01*
X024933Y006000D01*
X025633Y006700D01*
X025633Y017400D01*
X026133Y017900D01*
X027333Y017900D01*
X026433Y019900D02*
X025233Y018700D01*
X025233Y010400D01*
X022633Y015400D02*
X022233Y015400D01*
X022633Y015400D02*
X023633Y016400D01*
X024533Y016400D01*
X024533Y017400D02*
X023633Y017400D01*
X022633Y016400D01*
X022233Y016400D01*
X022233Y017400D02*
X022633Y017400D01*
X023633Y018400D01*
X024533Y018400D01*
X026433Y019900D02*
X022933Y023400D01*
X022233Y023400D01*
X022233Y024600D01*
X021633Y025200D01*
X017333Y025200D01*
X020688Y019400D02*
X022233Y019400D01*
X022233Y018400D02*
X020688Y018400D01*
X026433Y019900D02*
X027333Y019900D01*
X018333Y007700D02*
X018333Y006900D01*
M02*
