G75*
G70*
%OFA0B0*%
%FSLAX24Y24*%
%IPPOS*%
%LPD*%
%AMOC8*
5,1,8,0,0,1.08239X$1,22.5*
%
%ADD10C,0.0060*%
%ADD11C,0.0059*%
D10*
X020215Y018164D02*
X020451Y018164D01*
X020451Y018636D02*
X020215Y018636D01*
X020215Y019164D02*
X020451Y019164D01*
X020451Y019636D02*
X020215Y019636D01*
D11*
X007020Y015977D02*
X007065Y015532D01*
X007401Y015532D01*
X007446Y015977D01*
X007547Y016006D01*
X007644Y016046D01*
X007735Y016097D01*
X008082Y015814D01*
X008319Y016052D01*
X008037Y016398D01*
X008087Y016490D01*
X008127Y016586D01*
X008156Y016687D01*
X008601Y016732D01*
X008601Y017068D01*
X008156Y017113D01*
X008127Y017214D01*
X007526Y017214D01*
X007511Y017229D02*
X007444Y017275D01*
X007371Y017308D01*
X007292Y017327D01*
X007211Y017330D01*
X007131Y017318D01*
X007055Y017292D01*
X006985Y017252D01*
X006924Y017199D01*
X006873Y017136D01*
X006835Y017065D01*
X006358Y017263D01*
X006391Y017334D01*
X006430Y017402D01*
X006148Y017748D01*
X006385Y017986D01*
X006731Y017703D01*
X006823Y017754D01*
X006920Y017794D01*
X007020Y017823D01*
X007065Y018268D01*
X007401Y018268D01*
X007446Y017823D01*
X007547Y017794D01*
X007644Y017754D01*
X007735Y017703D01*
X008082Y017986D01*
X008319Y017748D01*
X008037Y017402D01*
X008087Y017310D01*
X008127Y017214D01*
X008144Y017156D02*
X007578Y017156D01*
X007567Y017172D02*
X007511Y017229D01*
X007450Y017272D02*
X008103Y017272D01*
X008077Y017329D02*
X007234Y017329D01*
X007205Y017329D02*
X006389Y017329D01*
X006362Y017272D02*
X007019Y017272D01*
X006941Y017214D02*
X006475Y017214D01*
X006614Y017156D02*
X006889Y017156D01*
X006854Y017099D02*
X006753Y017099D01*
X006835Y016735D02*
X006869Y016671D01*
X006912Y016613D01*
X006965Y016563D01*
X007025Y016523D01*
X007091Y016494D01*
X007161Y016475D01*
X007233Y016469D01*
X007314Y016477D01*
X007391Y016499D01*
X007463Y016536D01*
X007527Y016585D01*
X007581Y016646D01*
X007622Y016715D01*
X007650Y016791D01*
X007663Y016871D01*
X007661Y016951D01*
X007644Y017030D01*
X007612Y017105D01*
X007567Y017172D01*
X007615Y017099D02*
X008297Y017099D01*
X008601Y017041D02*
X007639Y017041D01*
X007654Y016984D02*
X008601Y016984D01*
X008601Y016926D02*
X007662Y016926D01*
X007663Y016869D02*
X008601Y016869D01*
X008601Y016811D02*
X007653Y016811D01*
X007636Y016754D02*
X008601Y016754D01*
X008246Y016696D02*
X007611Y016696D01*
X007574Y016638D02*
X008142Y016638D01*
X008125Y016581D02*
X007522Y016581D01*
X007438Y016523D02*
X008101Y016523D01*
X008074Y016466D02*
X006391Y016466D01*
X006358Y016537D01*
X006835Y016735D01*
X006856Y016696D02*
X006741Y016696D01*
X006602Y016638D02*
X006893Y016638D01*
X006946Y016581D02*
X006463Y016581D01*
X006365Y016523D02*
X007025Y016523D01*
X006793Y016063D02*
X007674Y016063D01*
X007777Y016063D02*
X008310Y016063D01*
X008273Y016005D02*
X007847Y016005D01*
X007918Y015948D02*
X008215Y015948D01*
X008158Y015890D02*
X007988Y015890D01*
X008059Y015833D02*
X008100Y015833D01*
X008263Y016120D02*
X006204Y016120D01*
X006157Y016063D02*
X006690Y016063D01*
X006731Y016097D02*
X006385Y015814D01*
X006148Y016052D01*
X006430Y016398D01*
X006391Y016466D01*
X006424Y016408D02*
X008042Y016408D01*
X008075Y016351D02*
X006391Y016351D01*
X006344Y016293D02*
X008122Y016293D01*
X008169Y016236D02*
X006297Y016236D01*
X006250Y016178D02*
X008216Y016178D01*
X007544Y016005D02*
X006922Y016005D01*
X006920Y016006D02*
X006823Y016046D01*
X006731Y016097D01*
X006619Y016005D02*
X006194Y016005D01*
X006251Y015948D02*
X006549Y015948D01*
X006478Y015890D02*
X006309Y015890D01*
X006367Y015833D02*
X006408Y015833D01*
X006920Y016006D02*
X007020Y015977D01*
X007023Y015948D02*
X007443Y015948D01*
X007438Y015890D02*
X007029Y015890D01*
X007035Y015833D02*
X007432Y015833D01*
X007426Y015775D02*
X007041Y015775D01*
X007047Y015718D02*
X007420Y015718D01*
X007414Y015660D02*
X007052Y015660D01*
X007058Y015602D02*
X007408Y015602D01*
X007403Y015545D02*
X007064Y015545D01*
X006421Y017387D02*
X008045Y017387D01*
X008071Y017444D02*
X006396Y017444D01*
X006349Y017502D02*
X008118Y017502D01*
X008165Y017559D02*
X006302Y017559D01*
X006255Y017617D02*
X008212Y017617D01*
X008259Y017674D02*
X006208Y017674D01*
X006161Y017732D02*
X006696Y017732D01*
X006783Y017732D02*
X007684Y017732D01*
X007770Y017732D02*
X008306Y017732D01*
X008278Y017790D02*
X007841Y017790D01*
X007912Y017847D02*
X008220Y017847D01*
X008163Y017905D02*
X007982Y017905D01*
X008053Y017962D02*
X008105Y017962D01*
X007558Y017790D02*
X006909Y017790D01*
X007023Y017847D02*
X007444Y017847D01*
X007438Y017905D02*
X007029Y017905D01*
X007034Y017962D02*
X007432Y017962D01*
X007426Y018020D02*
X007040Y018020D01*
X007046Y018077D02*
X007421Y018077D01*
X007415Y018135D02*
X007052Y018135D01*
X007058Y018192D02*
X007409Y018192D01*
X007403Y018250D02*
X007064Y018250D01*
X006626Y017790D02*
X006189Y017790D01*
X006246Y017847D02*
X006555Y017847D01*
X006485Y017905D02*
X006304Y017905D01*
X006361Y017962D02*
X006414Y017962D01*
M02*
