G75*
G70*
%OFA0B0*%
%FSLAX24Y24*%
%IPPOS*%
%LPD*%
%AMOC8*
5,1,8,0,0,1.08239X$1,22.5*
%
%ADD10C,0.1340*%
%ADD11C,0.0820*%
%ADD12C,0.0480*%
%ADD13C,0.0820*%
%ADD14R,0.0820X0.0820*%
%ADD15R,0.0395X0.0552*%
D10*
X005633Y006900D03*
X027333Y009300D03*
X027333Y024500D03*
X005633Y026900D03*
D11*
X026963Y019900D02*
X027703Y019900D01*
X027703Y018900D02*
X026963Y018900D01*
X026963Y017900D02*
X027703Y017900D01*
X027703Y016900D02*
X026963Y016900D01*
X026963Y015900D02*
X027703Y015900D01*
X027703Y014900D02*
X026963Y014900D01*
X026963Y013900D02*
X027703Y013900D01*
D12*
X027333Y013900D03*
X027333Y014900D03*
X027333Y015900D03*
X027333Y016900D03*
X027333Y017900D03*
X027333Y018900D03*
X027333Y019900D03*
D13*
X024533Y018400D03*
X024533Y017400D03*
X024533Y016400D03*
X024533Y015400D03*
X024533Y014400D03*
X024533Y013400D03*
X024533Y012400D03*
X024533Y011400D03*
X024533Y010400D03*
X022233Y010400D03*
X022233Y011400D03*
X022233Y012400D03*
X022233Y013400D03*
X022233Y014400D03*
X022233Y015400D03*
X022233Y016400D03*
X022233Y017400D03*
X022233Y018400D03*
X022233Y019400D03*
X022233Y020400D03*
X022233Y021400D03*
X022233Y022400D03*
X022233Y023400D03*
X015233Y023400D03*
X015233Y022400D03*
X015233Y021400D03*
X015233Y020400D03*
X015233Y019400D03*
X015233Y018400D03*
X015233Y017400D03*
X015233Y016400D03*
X015233Y015400D03*
X015233Y014400D03*
X015233Y013400D03*
X015233Y012400D03*
X015233Y011400D03*
X015233Y010400D03*
X013033Y012400D03*
X013033Y013400D03*
X013033Y014400D03*
X012033Y014400D03*
X012033Y015400D03*
X013033Y015400D03*
X013033Y016400D03*
X012033Y016400D03*
X012033Y017400D03*
X013033Y017400D03*
X013033Y018400D03*
X012033Y018400D03*
X012033Y019400D03*
X013033Y019400D03*
X013033Y020400D03*
X012033Y020400D03*
X013033Y021400D03*
X011733Y027000D03*
X010733Y027000D03*
X009733Y027000D03*
X013233Y007200D03*
X014233Y007200D03*
X015233Y007200D03*
X019233Y007200D03*
X020233Y007200D03*
X021233Y007200D03*
X022233Y007200D03*
X023233Y007200D03*
X024233Y007200D03*
D14*
X016233Y007200D03*
X012033Y013400D03*
X008733Y027000D03*
D15*
X019979Y019400D03*
X020688Y019400D03*
X020688Y018400D03*
X019979Y018400D03*
M02*
