G75*
G70*
%OFA0B0*%
%FSLAX24Y24*%
%IPPOS*%
%LPD*%
%AMOC8*
5,1,8,0,0,1.08239X$1,22.5*
%
%ADD10C,0.0080*%
%ADD11C,0.0060*%
%ADD12C,0.0220*%
%ADD13R,0.0300X0.0180*%
%ADD14C,0.0143*%
D10*
X013233Y005240D02*
X013233Y005740D01*
X013483Y005990D01*
X013983Y005990D01*
X014233Y005740D01*
X014483Y005990D01*
X014983Y005990D01*
X015233Y005740D01*
X015483Y005990D01*
X015983Y005990D01*
X016233Y005740D01*
X016483Y005990D01*
X016983Y005990D01*
X017233Y005740D01*
X017483Y005990D01*
X017983Y005990D01*
X018233Y005740D01*
X018483Y005990D01*
X018983Y005990D01*
X019233Y005740D01*
X019483Y005990D01*
X019983Y005990D01*
X020233Y005740D01*
X020483Y005990D01*
X020983Y005990D01*
X021233Y005740D01*
X021483Y005990D01*
X021983Y005990D01*
X022233Y005740D01*
X022483Y005990D01*
X022983Y005990D01*
X023233Y005740D01*
X023483Y005990D01*
X023983Y005990D01*
X024233Y006240D01*
X024233Y006740D01*
X023983Y006990D01*
X023483Y006990D01*
X023233Y006740D01*
X023233Y006240D01*
X023483Y005990D01*
X023983Y005990D01*
X024233Y005740D01*
X024483Y005990D01*
X024983Y005990D01*
X025233Y005740D01*
X025483Y005990D01*
X025983Y005990D01*
X026233Y005740D01*
X026483Y005990D01*
X026983Y005990D01*
X027233Y005740D01*
X027233Y005240D01*
X026983Y004990D01*
X026483Y004990D01*
X026233Y005240D01*
X025983Y004990D01*
X025483Y004990D01*
X025233Y005240D01*
X024983Y004990D01*
X024483Y004990D01*
X024233Y005240D01*
X023983Y004990D01*
X023483Y004990D01*
X023233Y005240D01*
X022983Y004990D01*
X022483Y004990D01*
X022233Y005240D01*
X021983Y004990D01*
X021483Y004990D01*
X021233Y005240D01*
X020983Y004990D01*
X020483Y004990D01*
X020233Y005240D01*
X019983Y004990D01*
X019483Y004990D01*
X019233Y005240D01*
X018983Y004990D01*
X018483Y004990D01*
X018233Y005240D01*
X017983Y004990D01*
X017483Y004990D01*
X017233Y005240D01*
X016983Y004990D01*
X016483Y004990D01*
X016233Y005240D01*
X015983Y004990D01*
X015483Y004990D01*
X015233Y005240D01*
X014983Y004990D01*
X014483Y004990D01*
X014233Y005240D01*
X013983Y004990D01*
X013483Y004990D01*
X013233Y005240D01*
X013827Y006640D02*
X015040Y006640D01*
X015433Y007140D02*
X015433Y008128D01*
X013933Y007640D02*
X013935Y007684D01*
X013941Y007728D01*
X013951Y007771D01*
X013964Y007813D01*
X013981Y007854D01*
X014002Y007893D01*
X014026Y007930D01*
X014053Y007965D01*
X014083Y007997D01*
X014116Y008027D01*
X014152Y008053D01*
X014189Y008077D01*
X014229Y008096D01*
X014270Y008113D01*
X014313Y008125D01*
X014356Y008134D01*
X014400Y008139D01*
X014444Y008140D01*
X014488Y008137D01*
X014532Y008130D01*
X014575Y008119D01*
X014617Y008105D01*
X014657Y008087D01*
X014696Y008065D01*
X014732Y008041D01*
X014766Y008013D01*
X014798Y007982D01*
X014827Y007948D01*
X014853Y007912D01*
X014875Y007874D01*
X014894Y007834D01*
X014909Y007792D01*
X014921Y007750D01*
X014929Y007706D01*
X014933Y007662D01*
X014933Y007618D01*
X014929Y007574D01*
X014921Y007530D01*
X014909Y007488D01*
X014894Y007446D01*
X014875Y007406D01*
X014853Y007368D01*
X014827Y007332D01*
X014798Y007298D01*
X014766Y007267D01*
X014732Y007239D01*
X014696Y007215D01*
X014657Y007193D01*
X014617Y007175D01*
X014575Y007161D01*
X014532Y007150D01*
X014488Y007143D01*
X014444Y007140D01*
X014400Y007141D01*
X014356Y007146D01*
X014313Y007155D01*
X014270Y007167D01*
X014229Y007184D01*
X014189Y007203D01*
X014152Y007227D01*
X014116Y007253D01*
X014083Y007283D01*
X014053Y007315D01*
X014026Y007350D01*
X014002Y007387D01*
X013981Y007426D01*
X013964Y007467D01*
X013951Y007509D01*
X013941Y007552D01*
X013935Y007596D01*
X013933Y007640D01*
X013433Y007152D02*
X013433Y008128D01*
X013827Y008640D02*
X015040Y008640D01*
X016084Y008577D02*
X016084Y009403D01*
X015433Y009840D02*
X015433Y010828D01*
X015943Y011010D02*
X015943Y011220D01*
X015943Y011010D02*
X016013Y010940D01*
X016224Y010940D01*
X016224Y011220D01*
X016404Y011150D02*
X016474Y011220D01*
X016684Y011220D01*
X016614Y011080D02*
X016474Y011080D01*
X016404Y011150D01*
X016404Y010940D02*
X016614Y010940D01*
X016684Y011010D01*
X016614Y011080D01*
X016864Y011080D02*
X017144Y011080D01*
X017144Y011150D01*
X017074Y011220D01*
X016934Y011220D01*
X016864Y011150D01*
X016864Y011010D01*
X016934Y010940D01*
X017074Y010940D01*
X017325Y010940D02*
X017325Y011220D01*
X017465Y011220D02*
X017535Y011220D01*
X017465Y011220D02*
X017325Y011080D01*
X017483Y011990D02*
X017233Y012240D01*
X016983Y011990D01*
X016483Y011990D01*
X016233Y012240D01*
X015983Y011990D01*
X015483Y011990D01*
X015233Y012240D01*
X014983Y011990D01*
X014483Y011990D01*
X014233Y012240D01*
X013983Y011990D01*
X013483Y011990D01*
X013233Y012240D01*
X013233Y012740D01*
X013483Y012990D01*
X013983Y012990D01*
X014233Y012740D01*
X014483Y012990D01*
X014983Y012990D01*
X015233Y012740D01*
X015483Y012990D01*
X015983Y012990D01*
X016233Y012740D01*
X016483Y012990D01*
X016983Y012990D01*
X017233Y012740D01*
X017483Y012990D01*
X017983Y012990D01*
X018233Y012740D01*
X018483Y012990D01*
X018983Y012990D01*
X019233Y012740D01*
X019483Y012990D01*
X019983Y012990D01*
X020233Y012740D01*
X020483Y012990D01*
X020983Y012990D01*
X021233Y012740D01*
X021483Y012990D01*
X021983Y012990D01*
X022233Y012740D01*
X022483Y012990D01*
X022983Y012990D01*
X023233Y012740D01*
X023483Y012990D01*
X023983Y012990D01*
X024233Y012740D01*
X024483Y012990D01*
X024983Y012990D01*
X025233Y012740D01*
X025483Y012990D01*
X025983Y012990D01*
X026233Y012740D01*
X026483Y012990D01*
X026983Y012990D01*
X027233Y012740D01*
X027233Y012240D01*
X026983Y011990D01*
X026483Y011990D01*
X026233Y012240D01*
X025983Y011990D01*
X025483Y011990D01*
X025233Y012240D01*
X024983Y011990D01*
X024483Y011990D01*
X024233Y012240D01*
X023983Y011990D01*
X023483Y011990D01*
X023233Y012240D01*
X022983Y011990D01*
X022483Y011990D01*
X022233Y012240D01*
X021983Y011990D01*
X021483Y011990D01*
X021233Y012240D01*
X020983Y011990D01*
X020483Y011990D01*
X020233Y012240D01*
X019983Y011990D01*
X019483Y011990D01*
X019233Y012240D01*
X018983Y011990D01*
X018483Y011990D01*
X018233Y012240D01*
X017983Y011990D01*
X017483Y011990D01*
X015040Y011340D02*
X013827Y011340D01*
X013433Y010828D02*
X013433Y009852D01*
X013827Y009340D02*
X015040Y009340D01*
X016615Y010132D02*
X016851Y010132D01*
X017383Y009403D02*
X017383Y008577D01*
X016851Y007848D02*
X016615Y007848D01*
X016467Y007040D02*
X016327Y007040D01*
X016257Y006970D01*
X016257Y006830D01*
X016327Y006760D01*
X016467Y006760D01*
X016537Y006900D02*
X016257Y006900D01*
X016084Y007040D02*
X016013Y007040D01*
X015873Y006900D01*
X015873Y006760D02*
X015873Y007040D01*
X016467Y007040D02*
X016537Y006970D01*
X016537Y006900D01*
X016717Y006970D02*
X016787Y007040D01*
X016998Y007040D01*
X016928Y006900D02*
X016787Y006900D01*
X016717Y006970D01*
X016717Y006760D02*
X016928Y006760D01*
X016998Y006830D01*
X016928Y006900D01*
X017178Y006900D02*
X017458Y006900D01*
X017458Y006970D01*
X017388Y007040D01*
X017248Y007040D01*
X017178Y006970D01*
X017178Y006830D01*
X017248Y006760D01*
X017388Y006760D01*
X017708Y006830D02*
X017778Y006760D01*
X017708Y006830D02*
X017708Y007110D01*
X017638Y007040D02*
X017778Y007040D01*
X018652Y006757D02*
X018833Y006757D01*
X018925Y006635D01*
X019014Y006757D02*
X018833Y006757D01*
X018823Y006751D02*
X018747Y006635D01*
X019255Y007662D02*
X019255Y009921D01*
X019552Y010218D01*
X021811Y010218D01*
X021811Y007662D01*
X019255Y007662D01*
X022052Y006757D02*
X022233Y006757D01*
X022325Y006635D01*
X022414Y006757D02*
X022233Y006757D01*
X022223Y006751D02*
X022147Y006635D01*
X024334Y007770D02*
X024334Y008124D01*
X025318Y007494D02*
X026145Y007494D01*
X024334Y009856D02*
X024334Y010210D01*
X025318Y010486D02*
X026145Y010486D01*
X019553Y009823D02*
X019555Y009842D01*
X019560Y009861D01*
X019570Y009877D01*
X019582Y009892D01*
X019597Y009904D01*
X019613Y009914D01*
X019632Y009919D01*
X019651Y009921D01*
X019670Y009919D01*
X019689Y009914D01*
X019705Y009904D01*
X019720Y009892D01*
X019732Y009877D01*
X019742Y009861D01*
X019747Y009842D01*
X019749Y009823D01*
X019747Y009804D01*
X019742Y009785D01*
X019732Y009769D01*
X019720Y009754D01*
X019705Y009742D01*
X019689Y009732D01*
X019670Y009727D01*
X019651Y009725D01*
X019632Y009727D01*
X019613Y009732D01*
X019597Y009742D01*
X019582Y009754D01*
X019570Y009769D01*
X019560Y009785D01*
X019555Y009804D01*
X019553Y009823D01*
X013933Y010340D02*
X013935Y010384D01*
X013941Y010428D01*
X013951Y010471D01*
X013964Y010513D01*
X013981Y010554D01*
X014002Y010593D01*
X014026Y010630D01*
X014053Y010665D01*
X014083Y010697D01*
X014116Y010727D01*
X014152Y010753D01*
X014189Y010777D01*
X014229Y010796D01*
X014270Y010813D01*
X014313Y010825D01*
X014356Y010834D01*
X014400Y010839D01*
X014444Y010840D01*
X014488Y010837D01*
X014532Y010830D01*
X014575Y010819D01*
X014617Y010805D01*
X014657Y010787D01*
X014696Y010765D01*
X014732Y010741D01*
X014766Y010713D01*
X014798Y010682D01*
X014827Y010648D01*
X014853Y010612D01*
X014875Y010574D01*
X014894Y010534D01*
X014909Y010492D01*
X014921Y010450D01*
X014929Y010406D01*
X014933Y010362D01*
X014933Y010318D01*
X014929Y010274D01*
X014921Y010230D01*
X014909Y010188D01*
X014894Y010146D01*
X014875Y010106D01*
X014853Y010068D01*
X014827Y010032D01*
X014798Y009998D01*
X014766Y009967D01*
X014732Y009939D01*
X014696Y009915D01*
X014657Y009893D01*
X014617Y009875D01*
X014575Y009861D01*
X014532Y009850D01*
X014488Y009843D01*
X014444Y009840D01*
X014400Y009841D01*
X014356Y009846D01*
X014313Y009855D01*
X014270Y009867D01*
X014229Y009884D01*
X014189Y009903D01*
X014152Y009927D01*
X014116Y009953D01*
X014083Y009983D01*
X014053Y010015D01*
X014026Y010050D01*
X014002Y010087D01*
X013981Y010126D01*
X013964Y010167D01*
X013951Y010209D01*
X013941Y010252D01*
X013935Y010296D01*
X013933Y010340D01*
D11*
X013873Y011357D02*
X014033Y011518D01*
X014033Y011598D01*
X013953Y011678D01*
X013873Y011678D01*
X013833Y011638D01*
X013833Y011558D01*
X013953Y011437D01*
X013873Y011357D02*
X013793Y011357D01*
X013713Y011437D01*
X013713Y011518D01*
X013613Y011618D02*
X013532Y011618D01*
X013412Y011738D01*
X013653Y011979D01*
X013773Y011858D01*
X013773Y011778D01*
X013733Y011738D01*
X013653Y011738D01*
X013532Y011858D01*
X013653Y011738D02*
X013653Y011658D01*
X013613Y011618D01*
X014402Y011738D02*
X014522Y011618D01*
X014603Y011618D01*
X014643Y011658D01*
X014643Y011738D01*
X014522Y011858D01*
X014402Y011738D02*
X014643Y011979D01*
X014763Y011858D01*
X014763Y011778D01*
X014723Y011738D01*
X014643Y011738D01*
X014823Y011638D02*
X014863Y011678D01*
X014943Y011678D01*
X015023Y011598D01*
X015023Y011518D01*
X014983Y011478D01*
X014903Y011478D01*
X014823Y011558D01*
X014823Y011638D01*
X014823Y011558D02*
X014743Y011558D01*
X014703Y011518D01*
X014703Y011437D01*
X014783Y011357D01*
X014863Y011357D01*
X014903Y011397D01*
X014903Y011478D01*
X015130Y011550D02*
X015300Y011550D01*
X015357Y011607D01*
X015357Y011663D01*
X015300Y011720D01*
X015130Y011720D01*
X015130Y011550D02*
X015130Y011890D01*
X015300Y011890D01*
X015357Y011834D01*
X015357Y011777D01*
X015300Y011720D01*
X015498Y011607D02*
X015555Y011550D01*
X015669Y011550D01*
X015725Y011607D01*
X015725Y011834D01*
X015669Y011890D01*
X015555Y011890D01*
X015498Y011834D01*
X015498Y011607D01*
X015867Y011607D02*
X015923Y011550D01*
X016037Y011550D01*
X016094Y011607D01*
X016094Y011834D01*
X016037Y011890D01*
X015923Y011890D01*
X015867Y011834D01*
X015867Y011607D01*
X016235Y011890D02*
X016462Y011890D01*
X016348Y011890D02*
X016348Y011550D01*
X016522Y011678D02*
X016642Y011558D01*
X016723Y011558D01*
X016763Y011598D01*
X016763Y011678D01*
X016642Y011798D01*
X016522Y011678D02*
X016763Y011919D01*
X016883Y011798D01*
X016883Y011718D01*
X016843Y011678D01*
X016763Y011678D01*
X016823Y011458D02*
X016782Y011418D01*
X016823Y011458D02*
X017143Y011458D01*
X017184Y011498D01*
X017023Y011658D01*
X017542Y011688D02*
X017662Y011568D01*
X017743Y011568D01*
X017783Y011608D01*
X017783Y011688D01*
X017662Y011808D01*
X017542Y011688D02*
X017783Y011929D01*
X017903Y011808D01*
X017903Y011728D01*
X017863Y011688D01*
X017783Y011688D01*
X017923Y011548D02*
X018043Y011428D01*
X018043Y011347D01*
X018003Y011307D01*
X017923Y011307D01*
X017843Y011387D01*
X017843Y011468D01*
X017923Y011548D01*
X018083Y011548D01*
X018204Y011508D01*
X018492Y011688D02*
X018612Y011568D01*
X018693Y011568D01*
X018733Y011608D01*
X018733Y011688D01*
X018612Y011808D01*
X018492Y011688D02*
X018733Y011929D01*
X018853Y011808D01*
X018853Y011728D01*
X018813Y011688D01*
X018733Y011688D01*
X018873Y011548D02*
X018993Y011508D01*
X019033Y011468D01*
X019033Y011387D01*
X018953Y011307D01*
X018873Y011307D01*
X018793Y011387D01*
X018793Y011468D01*
X018873Y011548D02*
X018993Y011668D01*
X019154Y011508D01*
X019522Y011738D02*
X019682Y011899D01*
X019842Y011899D01*
X019842Y011738D01*
X019682Y011578D01*
X019782Y011478D02*
X019942Y011318D01*
X019862Y011398D02*
X020103Y011638D01*
X019942Y011638D01*
X019802Y011698D02*
X019642Y011859D01*
X020163Y011338D02*
X020283Y011458D01*
X020444Y011298D01*
X020323Y011258D02*
X020323Y011177D01*
X020243Y011097D01*
X020163Y011097D01*
X020083Y011177D01*
X020083Y011258D01*
X020163Y011338D02*
X020283Y011298D01*
X020323Y011258D01*
X020822Y011468D02*
X020982Y011308D01*
X020902Y011388D02*
X021143Y011628D01*
X020982Y011628D01*
X020882Y011728D02*
X020722Y011568D01*
X020842Y011688D02*
X020682Y011849D01*
X020722Y011889D02*
X020882Y011889D01*
X020882Y011728D01*
X020722Y011889D02*
X020562Y011728D01*
X021203Y011328D02*
X021363Y011167D01*
X021203Y011087D02*
X021443Y011328D01*
X021203Y011328D01*
X021772Y011478D02*
X021932Y011318D01*
X021852Y011398D02*
X022093Y011638D01*
X021932Y011638D01*
X021832Y011738D02*
X021832Y011899D01*
X021672Y011899D01*
X021512Y011738D01*
X021632Y011859D02*
X021792Y011698D01*
X021832Y011738D02*
X021672Y011578D01*
X022233Y011418D02*
X022313Y011418D01*
X022393Y011338D01*
X022393Y011258D01*
X022353Y011218D01*
X022273Y011218D01*
X022273Y011137D01*
X022233Y011097D01*
X022153Y011097D01*
X022073Y011177D01*
X022073Y011258D01*
X022233Y011258D02*
X022273Y011218D01*
X022772Y011558D02*
X022932Y011718D01*
X022932Y011879D01*
X022772Y011879D01*
X022612Y011718D01*
X022732Y011839D02*
X022892Y011678D01*
X023032Y011618D02*
X023193Y011618D01*
X022952Y011378D01*
X022872Y011458D02*
X023032Y011298D01*
X023173Y011238D02*
X023493Y011238D01*
X023333Y011077D01*
X023253Y011077D01*
X023173Y011157D01*
X023173Y011238D01*
X023333Y011398D01*
X023413Y011398D01*
X023493Y011318D01*
X023493Y011238D01*
X023823Y011427D02*
X023903Y011347D01*
X023983Y011347D01*
X024143Y011508D01*
X024143Y011588D01*
X024063Y011668D01*
X023983Y011668D01*
X023943Y011628D01*
X023943Y011548D01*
X024063Y011427D01*
X023823Y011427D02*
X023823Y011508D01*
X023682Y011568D02*
X023843Y011728D01*
X023843Y011888D01*
X023682Y011888D01*
X023522Y011728D01*
X023642Y011848D02*
X023803Y011688D01*
X024512Y011728D02*
X024672Y011888D01*
X024833Y011888D01*
X024833Y011728D01*
X024672Y011568D01*
X024813Y011508D02*
X024853Y011548D01*
X024933Y011548D01*
X025013Y011468D01*
X025013Y011387D01*
X024973Y011347D01*
X024893Y011347D01*
X024813Y011427D01*
X024813Y011508D01*
X024933Y011548D02*
X024933Y011628D01*
X024973Y011668D01*
X025053Y011668D01*
X025133Y011588D01*
X025133Y011508D01*
X025093Y011468D01*
X025013Y011468D01*
X024793Y011688D02*
X024632Y011848D01*
X025452Y011718D02*
X025572Y011598D01*
X025652Y011598D01*
X025692Y011638D01*
X025692Y011718D01*
X025572Y011839D01*
X025692Y011959D02*
X025452Y011718D01*
X025692Y011718D02*
X025772Y011718D01*
X025813Y011759D01*
X025813Y011839D01*
X025692Y011959D01*
X025872Y011618D02*
X026033Y011618D01*
X025792Y011378D01*
X025712Y011458D02*
X025872Y011298D01*
X026013Y011238D02*
X026013Y011157D01*
X026093Y011077D01*
X026173Y011077D01*
X026253Y011157D01*
X026253Y011238D01*
X026213Y011278D01*
X026093Y011318D01*
X026213Y011438D01*
X026374Y011278D01*
X026712Y011518D02*
X026953Y011759D01*
X026872Y011358D01*
X027113Y011598D01*
X027213Y011498D02*
X027333Y011378D01*
X027333Y011298D01*
X027173Y011137D01*
X027093Y011137D01*
X026972Y011258D01*
X027213Y011498D01*
X026732Y011738D02*
X026652Y011819D01*
X026732Y011738D02*
X026652Y011658D01*
X026572Y011658D01*
X026492Y011738D01*
X026492Y011819D01*
X026652Y011979D01*
X026732Y011979D01*
X026813Y011899D01*
X026813Y011819D01*
X017690Y009687D02*
X017664Y009716D01*
X017640Y009748D01*
X017620Y009781D01*
X017603Y009817D01*
X017590Y009854D01*
X017581Y009892D01*
X017575Y009931D01*
X017573Y009970D01*
X018256Y010253D02*
X018282Y010224D01*
X018306Y010192D01*
X018326Y010159D01*
X018343Y010123D01*
X018356Y010086D01*
X018365Y010048D01*
X018371Y010009D01*
X018373Y009970D01*
X017690Y010253D02*
X017664Y010224D01*
X017640Y010192D01*
X017620Y010159D01*
X017603Y010123D01*
X017590Y010086D01*
X017581Y010048D01*
X017575Y010009D01*
X017573Y009970D01*
X018256Y009687D02*
X018282Y009716D01*
X018306Y009748D01*
X018326Y009781D01*
X018343Y009817D01*
X018356Y009854D01*
X018365Y009892D01*
X018371Y009931D01*
X018373Y009970D01*
X022659Y007482D02*
X022819Y007642D01*
X022659Y007482D02*
X022659Y007321D01*
X022819Y007321D01*
X022979Y007482D01*
X023079Y007382D02*
X023160Y007302D01*
X023120Y007342D02*
X022879Y007101D01*
X022839Y007141D02*
X022919Y007061D01*
X023012Y006968D02*
X023253Y007208D01*
X023173Y006807D01*
X023414Y007048D01*
X022733Y006819D02*
X022733Y006739D01*
X022692Y006698D01*
X022612Y006698D01*
X022492Y006819D01*
X022612Y006939D02*
X022733Y006819D01*
X022612Y006939D02*
X022372Y006698D01*
X022492Y006578D01*
X022572Y006578D01*
X022612Y006618D01*
X022612Y006698D01*
X022792Y006598D02*
X022953Y006598D01*
X022712Y006358D01*
X022632Y006438D02*
X022792Y006278D01*
X022892Y006178D02*
X023053Y006017D01*
X022973Y006097D02*
X023213Y006338D01*
X023053Y006338D01*
X021923Y006268D02*
X021923Y006188D01*
X021603Y006188D01*
X021603Y006107D01*
X021683Y006027D01*
X021763Y006027D01*
X021923Y006188D01*
X021923Y006268D02*
X021843Y006348D01*
X021763Y006348D01*
X021603Y006188D01*
X021462Y006248D02*
X021302Y006408D01*
X021382Y006328D02*
X021623Y006568D01*
X021462Y006568D01*
X021362Y006668D02*
X021282Y006668D01*
X021162Y006789D01*
X021282Y006909D02*
X021403Y006789D01*
X021403Y006709D01*
X021362Y006668D01*
X021282Y006668D02*
X021282Y006588D01*
X021242Y006548D01*
X021162Y006548D01*
X021042Y006668D01*
X021282Y006909D01*
X020743Y006458D02*
X020904Y006298D01*
X020863Y006258D01*
X020543Y006258D01*
X020502Y006218D01*
X020402Y006318D02*
X020563Y006478D01*
X020563Y006638D01*
X020402Y006638D01*
X020242Y006478D01*
X020362Y006598D02*
X020523Y006438D01*
X019814Y006298D02*
X019693Y006338D01*
X019533Y006338D01*
X019653Y006218D01*
X019653Y006137D01*
X019613Y006097D01*
X019533Y006097D01*
X019453Y006177D01*
X019453Y006258D01*
X019533Y006338D01*
X019433Y006438D02*
X019272Y006598D01*
X019312Y006638D02*
X019152Y006478D01*
X019312Y006318D02*
X019473Y006478D01*
X019473Y006638D01*
X019312Y006638D01*
X018734Y006298D02*
X018573Y006458D01*
X018453Y006338D01*
X018573Y006298D01*
X018613Y006258D01*
X018613Y006177D01*
X018533Y006097D01*
X018453Y006097D01*
X018373Y006177D01*
X018373Y006258D01*
X018232Y006318D02*
X018393Y006478D01*
X018393Y006638D01*
X018232Y006638D01*
X018072Y006478D01*
X018192Y006598D02*
X018353Y006438D01*
X017893Y006338D02*
X017653Y006097D01*
X017813Y006177D02*
X017653Y006338D01*
X017893Y006338D01*
X017593Y006478D02*
X017432Y006318D01*
X017553Y006438D02*
X017392Y006598D01*
X017432Y006638D02*
X017272Y006478D01*
X017432Y006638D02*
X017593Y006638D01*
X017593Y006478D01*
X016923Y006338D02*
X016923Y006258D01*
X016883Y006218D01*
X016803Y006218D01*
X016803Y006137D01*
X016763Y006097D01*
X016683Y006097D01*
X016603Y006177D01*
X016603Y006258D01*
X016462Y006318D02*
X016623Y006478D01*
X016623Y006638D01*
X016462Y006638D01*
X016302Y006478D01*
X016422Y006598D02*
X016583Y006438D01*
X016763Y006418D02*
X016843Y006418D01*
X016923Y006338D01*
X016803Y006218D02*
X016763Y006258D01*
X015953Y006258D02*
X015913Y006218D01*
X015592Y006218D01*
X015753Y006057D01*
X015953Y006258D02*
X015953Y006338D01*
X015873Y006418D01*
X015793Y006418D01*
X015653Y006478D02*
X015492Y006318D01*
X015613Y006438D02*
X015452Y006598D01*
X015492Y006638D02*
X015332Y006478D01*
X015492Y006638D02*
X015653Y006638D01*
X015653Y006478D01*
X014903Y006308D02*
X014663Y006067D01*
X014743Y005987D02*
X014582Y006148D01*
X014482Y006248D02*
X014643Y006408D01*
X014643Y006568D01*
X014482Y006568D01*
X014322Y006408D01*
X014442Y006528D02*
X014603Y006368D01*
X014743Y006308D02*
X014903Y006308D01*
X013923Y006338D02*
X013923Y006258D01*
X013603Y006258D01*
X013603Y006177D01*
X013683Y006097D01*
X013763Y006097D01*
X013923Y006258D01*
X013923Y006338D02*
X013843Y006418D01*
X013763Y006418D01*
X013603Y006258D01*
X013462Y006318D02*
X013623Y006478D01*
X013623Y006638D01*
X013462Y006638D01*
X013302Y006478D01*
X013422Y006598D02*
X013583Y006438D01*
X024272Y006658D02*
X024392Y006538D01*
X024472Y006538D01*
X024512Y006578D01*
X024512Y006658D01*
X024392Y006779D01*
X024512Y006899D02*
X024272Y006658D01*
X024512Y006658D02*
X024592Y006658D01*
X024633Y006699D01*
X024633Y006779D01*
X024512Y006899D01*
X025152Y006708D02*
X025272Y006588D01*
X025352Y006588D01*
X025392Y006628D01*
X025392Y006708D01*
X025272Y006829D01*
X025392Y006949D02*
X025152Y006708D01*
X025392Y006708D02*
X025472Y006708D01*
X025513Y006749D01*
X025513Y006829D01*
X025392Y006949D01*
X026042Y006709D02*
X026042Y006628D01*
X026122Y006548D01*
X026202Y006548D01*
X026242Y006588D01*
X026242Y006668D01*
X026202Y006709D01*
X026242Y006668D02*
X026322Y006668D01*
X026363Y006709D01*
X026363Y006789D01*
X026282Y006869D01*
X026202Y006869D01*
X026503Y006649D02*
X026342Y006488D01*
X026342Y006328D01*
X026503Y006328D01*
X026663Y006488D01*
X026723Y006348D02*
X026803Y006348D01*
X026883Y006268D01*
X026883Y006188D01*
X026843Y006148D01*
X026763Y006148D01*
X026763Y006067D01*
X026723Y006027D01*
X026643Y006027D01*
X026563Y006107D01*
X026563Y006188D01*
X026723Y006188D02*
X026763Y006148D01*
X026033Y006308D02*
X025793Y006308D01*
X025953Y006147D01*
X025793Y006067D02*
X026033Y006308D01*
X025733Y006608D02*
X025492Y006368D01*
X025412Y006448D02*
X025572Y006288D01*
X025572Y006608D02*
X025733Y006608D01*
X025153Y006258D02*
X025153Y006178D01*
X025113Y006138D01*
X025033Y006138D01*
X025033Y006057D01*
X024993Y006017D01*
X024913Y006017D01*
X024833Y006097D01*
X024833Y006178D01*
X024692Y006238D02*
X024532Y006398D01*
X024612Y006318D02*
X024853Y006558D01*
X024692Y006558D01*
X024993Y006338D02*
X025073Y006338D01*
X025153Y006258D01*
X025033Y006138D02*
X024993Y006178D01*
D12*
X016733Y007328D02*
X016733Y007352D01*
X016733Y010628D02*
X016733Y010652D01*
D13*
X023573Y010290D03*
X023573Y008990D03*
X023573Y007690D03*
D14*
X016655Y009797D03*
M02*
