G75*
G70*
%OFA0B0*%
%FSLAX24Y24*%
%IPPOS*%
%LPD*%
%AMOC8*
5,1,8,0,0,1.08239X$1,22.5*
%
%ADD10C,0.0140*%
%ADD11C,0.0090*%
%ADD12C,0.0080*%
%ADD13C,0.0050*%
%ADD14C,0.0220*%
%ADD15R,0.0300X0.0180*%
%ADD16R,0.0180X0.0300*%
%ADD17C,0.0059*%
D10*
X016997Y010830D02*
X016997Y011451D01*
X017204Y011244D01*
X017411Y011451D01*
X017411Y010830D01*
X017697Y010830D02*
X017904Y011037D01*
X017800Y011037D02*
X018111Y011037D01*
X018111Y010830D02*
X018111Y011451D01*
X017800Y011451D01*
X017697Y011347D01*
X017697Y011140D01*
X017800Y011037D01*
X018397Y011140D02*
X018810Y011140D01*
X018810Y011244D02*
X018810Y010830D01*
X019097Y010830D02*
X019510Y011244D01*
X019796Y011140D02*
X019900Y011244D01*
X020107Y011244D01*
X020210Y011140D01*
X020210Y010933D01*
X020107Y010830D01*
X019900Y010830D01*
X019796Y010933D01*
X019796Y011140D01*
X019510Y010830D02*
X019097Y011244D01*
X018810Y011244D02*
X018604Y011451D01*
X018397Y011244D01*
X018397Y010830D01*
X020496Y010933D02*
X020496Y011140D01*
X020600Y011244D01*
X020910Y011244D01*
X020910Y011451D02*
X020910Y010830D01*
X020600Y010830D01*
X020496Y010933D01*
X021196Y010830D02*
X021196Y011140D01*
X021299Y011244D01*
X021506Y011244D01*
X021610Y011140D01*
X021896Y011244D02*
X022206Y011244D01*
X022309Y011140D01*
X022309Y010933D01*
X022206Y010830D01*
X021896Y010830D01*
X021610Y010830D02*
X021610Y011451D01*
X022569Y011244D02*
X022776Y011244D01*
X022673Y011347D02*
X022673Y010933D01*
X022569Y010830D01*
X023062Y010830D02*
X023062Y011140D01*
X023166Y011244D01*
X023372Y011244D01*
X023372Y011037D02*
X023062Y011037D01*
X023062Y010830D02*
X023372Y010830D01*
X023476Y010933D01*
X023372Y011037D01*
X023762Y010830D02*
X023762Y011451D01*
X023969Y011244D01*
X024176Y011451D01*
X024176Y010830D01*
D11*
X019334Y010049D02*
X019197Y009775D01*
X019060Y010049D01*
X018874Y010049D02*
X018737Y010185D01*
X018737Y009775D01*
X018874Y009775D02*
X018600Y009775D01*
X018413Y009775D02*
X018345Y009775D01*
X018345Y009843D01*
X018413Y009843D01*
X018413Y009775D01*
X018183Y009843D02*
X017909Y010117D01*
X017909Y009843D01*
X017978Y009775D01*
X018115Y009775D01*
X018183Y009843D01*
X018183Y010117D01*
X018115Y010185D01*
X017978Y010185D01*
X017909Y010117D01*
D12*
X016011Y006863D02*
X016168Y006706D01*
X016798Y006706D01*
X016956Y006863D01*
X016956Y007296D01*
X016011Y007296D02*
X016011Y006863D01*
X016011Y008084D02*
X016011Y008674D01*
X016956Y008674D01*
X016956Y008084D01*
X024649Y007775D02*
X024807Y007618D01*
X025240Y007618D01*
X025240Y007462D02*
X024807Y007462D01*
X024649Y007305D01*
X024649Y006675D01*
X024807Y006518D01*
X025240Y006518D01*
X026027Y006518D02*
X026618Y006518D01*
X026618Y007462D01*
X026027Y007462D01*
X026027Y007618D02*
X026618Y007618D01*
X026618Y008562D01*
X026027Y008562D01*
X026333Y008700D02*
X026333Y011280D01*
X025033Y011280D01*
X025033Y008700D01*
X026333Y008700D01*
X025240Y008562D02*
X024807Y008562D01*
X024649Y008405D01*
X024649Y007775D01*
D13*
X025483Y007690D02*
X025483Y008490D01*
X025483Y007390D02*
X025483Y006590D01*
X016883Y007540D02*
X016083Y007540D01*
D14*
X017301Y007690D02*
X017325Y007690D01*
X014465Y007540D02*
X014441Y007540D01*
X016873Y009508D02*
X016873Y009532D01*
X016873Y010508D02*
X016873Y010532D01*
X020683Y009102D02*
X020683Y009078D01*
X020683Y008492D02*
X020683Y008468D01*
X027071Y007390D02*
X027095Y007390D01*
D15*
X015733Y010890D03*
X014466Y010896D03*
D16*
X019703Y006690D03*
X021323Y006690D03*
D17*
X019089Y008346D02*
X018987Y008245D01*
X018838Y008366D01*
X018779Y008335D01*
X018694Y008539D01*
X018732Y008561D01*
X018764Y008590D01*
X018788Y008626D01*
X018803Y008667D01*
X018808Y008710D01*
X018803Y008754D01*
X018787Y008795D01*
X018762Y008832D01*
X018729Y008861D01*
X018690Y008882D01*
X018647Y008893D01*
X018603Y008893D01*
X018560Y008883D01*
X018521Y008863D01*
X018487Y008835D01*
X018462Y008799D01*
X018445Y008758D01*
X018439Y008714D01*
X018443Y008670D01*
X018458Y008628D01*
X018482Y008591D01*
X018514Y008561D01*
X018553Y008539D01*
X018468Y008335D01*
X018408Y008366D01*
X018260Y008245D01*
X018158Y008346D01*
X018279Y008495D01*
X018248Y008555D01*
X018228Y008619D01*
X018037Y008638D01*
X018037Y008782D01*
X018228Y008801D01*
X018248Y008865D01*
X018279Y008925D01*
X018158Y009074D01*
X018260Y009175D01*
X018408Y009054D01*
X018468Y009085D01*
X018532Y009106D01*
X018551Y009296D01*
X018695Y009296D01*
X018715Y009106D01*
X018779Y009085D01*
X018838Y009054D01*
X018987Y009175D01*
X019089Y009074D01*
X018968Y008925D01*
X018998Y008865D01*
X019019Y008801D01*
X019209Y008782D01*
X019209Y008638D01*
X019019Y008619D01*
X018998Y008555D01*
X018968Y008495D01*
X019089Y008346D01*
X019079Y008358D02*
X018847Y008358D01*
X018824Y008358D02*
X018769Y008358D01*
X018745Y008416D02*
X019032Y008416D01*
X018985Y008474D02*
X018721Y008474D01*
X018697Y008531D02*
X018986Y008531D01*
X019009Y008589D02*
X018762Y008589D01*
X018795Y008646D02*
X019209Y008646D01*
X019209Y008704D02*
X018807Y008704D01*
X018800Y008761D02*
X019209Y008761D01*
X019013Y008819D02*
X018771Y008819D01*
X018701Y008876D02*
X018993Y008876D01*
X018975Y008934D02*
X018272Y008934D01*
X018254Y008876D02*
X018547Y008876D01*
X018476Y008819D02*
X018233Y008819D01*
X018225Y008992D02*
X019022Y008992D01*
X019069Y009049D02*
X018178Y009049D01*
X018191Y009107D02*
X018344Y009107D01*
X018273Y009164D02*
X018249Y009164D01*
X018532Y009107D02*
X018715Y009107D01*
X018709Y009164D02*
X018538Y009164D01*
X018544Y009222D02*
X018703Y009222D01*
X018697Y009279D02*
X018550Y009279D01*
X018903Y009107D02*
X019056Y009107D01*
X018998Y009164D02*
X018973Y009164D01*
X018447Y008761D02*
X018037Y008761D01*
X018037Y008704D02*
X018440Y008704D01*
X018452Y008646D02*
X018037Y008646D01*
X018237Y008589D02*
X018485Y008589D01*
X018549Y008531D02*
X018260Y008531D01*
X018262Y008474D02*
X018525Y008474D01*
X018502Y008416D02*
X018215Y008416D01*
X018168Y008358D02*
X018399Y008358D01*
X018422Y008358D02*
X018478Y008358D01*
X018329Y008301D02*
X018204Y008301D01*
X018918Y008301D02*
X019043Y008301D01*
M02*
