%
M48
M72
T01C0.0120
T02C0.0320
T03C0.0354
T04C0.0400
%
T01
X13433Y7380
X13433Y7880
X15103Y7410
X17873Y7930
X18673Y7480
X19603Y7740
X20063Y7980
X20563Y7980
X21073Y7800
X21673Y8290
X21713Y8840
X22823Y8510
X24303Y7930
X25643Y7530
X27093Y8480
X25873Y9160
X23053Y9530
X22873Y10020
X21743Y9600
X21073Y9970
X20693Y9630
X19823Y9320
X19333Y9520
X19433Y8950
X19633Y8250
X17873Y8430
X14803Y9560
X15443Y10070
X16323Y11160
X17573Y11440
X17093Y11780
X19343Y11570
X20883Y11570
X21513Y11570
X22263Y11570
X22933Y11570
X23413Y11790
X20583Y10130
X20083Y10130
X19033Y10490
X14323Y8810
X18093Y6130
X19963Y6180
X20783Y6180
X21733Y6170
X22903Y6360
X22533Y7490
X21953Y7490
T02
X17973Y9470
X17973Y10470
T03
X25633Y9856
X25633Y8124
T04
X13733Y5490
X14733Y5490
X15733Y5490
X16733Y5490
X17733Y5490
X18733Y5490
X19733Y5490
X20733Y5490
X21733Y5490
X22733Y5490
X23733Y5490
X24733Y5490
X25733Y5490
X26733Y5490
X23733Y6490
X23733Y12490
X24733Y12490
X25733Y12490
X26733Y12490
X22733Y12490
X21733Y12490
X20733Y12490
X19733Y12490
X18733Y12490
X17733Y12490
X16733Y12490
X15733Y12490
X14733Y12490
X13733Y12490
M30
