G75*
G70*
%OFA0B0*%
%FSLAX24Y24*%
%IPPOS*%
%LPD*%
%AMOC8*
5,1,8,0,0,1.08239X$1,22.5*
%
%ADD10C,0.0068*%
%ADD11C,0.0067*%
%ADD12C,0.0077*%
%ADD13C,0.0068*%
%ADD14C,0.0414*%
%ADD15C,0.0071*%
%ADD16C,0.0072*%
%ADD17C,0.0093*%
%ADD18C,0.0800*%
%ADD19C,0.0540*%
%ADD20C,0.0380*%
D10*
X016187Y007533D02*
X016611Y007533D01*
X016611Y007147D01*
X016187Y007147D01*
X016187Y007533D01*
X016187Y007214D02*
X016611Y007214D01*
X016611Y007281D02*
X016187Y007281D01*
X016187Y007348D02*
X016611Y007348D01*
X016611Y007415D02*
X016187Y007415D01*
X016187Y007482D02*
X016611Y007482D01*
X016856Y007533D02*
X017280Y007533D01*
X017280Y007147D01*
X016856Y007147D01*
X016856Y007533D01*
X016856Y007214D02*
X017280Y007214D01*
X017280Y007281D02*
X016856Y007281D01*
X016856Y007348D02*
X017280Y007348D01*
X017280Y007415D02*
X016856Y007415D01*
X016856Y007482D02*
X017280Y007482D01*
X023380Y007567D02*
X023380Y007143D01*
X023380Y007567D02*
X023766Y007567D01*
X023766Y007143D01*
X023380Y007143D01*
X023380Y007210D02*
X023766Y007210D01*
X023766Y007277D02*
X023380Y007277D01*
X023380Y007344D02*
X023766Y007344D01*
X023766Y007411D02*
X023380Y007411D01*
X023380Y007478D02*
X023766Y007478D01*
X023766Y007545D02*
X023380Y007545D01*
X023380Y007813D02*
X023380Y008237D01*
X023766Y008237D01*
X023766Y007813D01*
X023380Y007813D01*
X023380Y007880D02*
X023766Y007880D01*
X023766Y007947D02*
X023380Y007947D01*
X023380Y008014D02*
X023766Y008014D01*
X023766Y008081D02*
X023380Y008081D01*
X023380Y008148D02*
X023766Y008148D01*
X023766Y008215D02*
X023380Y008215D01*
X023766Y008443D02*
X023766Y008867D01*
X023766Y008443D02*
X023380Y008443D01*
X023380Y008867D01*
X023766Y008867D01*
X023766Y008510D02*
X023380Y008510D01*
X023380Y008577D02*
X023766Y008577D01*
X023766Y008644D02*
X023380Y008644D01*
X023380Y008711D02*
X023766Y008711D01*
X023766Y008778D02*
X023380Y008778D01*
X023380Y008845D02*
X023766Y008845D01*
X023766Y009113D02*
X023766Y009537D01*
X023766Y009113D02*
X023380Y009113D01*
X023380Y009537D01*
X023766Y009537D01*
X023766Y009180D02*
X023380Y009180D01*
X023380Y009247D02*
X023766Y009247D01*
X023766Y009314D02*
X023380Y009314D01*
X023380Y009381D02*
X023766Y009381D01*
X023766Y009448D02*
X023380Y009448D01*
X023380Y009515D02*
X023766Y009515D01*
X023380Y009743D02*
X023380Y010167D01*
X023766Y010167D01*
X023766Y009743D01*
X023380Y009743D01*
X023380Y009810D02*
X023766Y009810D01*
X023766Y009877D02*
X023380Y009877D01*
X023380Y009944D02*
X023766Y009944D01*
X023766Y010011D02*
X023380Y010011D01*
X023380Y010078D02*
X023766Y010078D01*
X023766Y010145D02*
X023380Y010145D01*
X023380Y010413D02*
X023380Y010837D01*
X023766Y010837D01*
X023766Y010413D01*
X023380Y010413D01*
X023380Y010480D02*
X023766Y010480D01*
X023766Y010547D02*
X023380Y010547D01*
X023380Y010614D02*
X023766Y010614D01*
X023766Y010681D02*
X023380Y010681D01*
X023380Y010748D02*
X023766Y010748D01*
X023766Y010815D02*
X023380Y010815D01*
X017280Y010447D02*
X016856Y010447D01*
X016856Y010833D01*
X017280Y010833D01*
X017280Y010447D01*
X017280Y010514D02*
X016856Y010514D01*
X016856Y010581D02*
X017280Y010581D01*
X017280Y010648D02*
X016856Y010648D01*
X016856Y010715D02*
X017280Y010715D01*
X017280Y010782D02*
X016856Y010782D01*
X016611Y010447D02*
X016187Y010447D01*
X016187Y010833D01*
X016611Y010833D01*
X016611Y010447D01*
X016611Y010514D02*
X016187Y010514D01*
X016187Y010581D02*
X016611Y010581D01*
X016611Y010648D02*
X016187Y010648D01*
X016187Y010715D02*
X016611Y010715D01*
X016611Y010782D02*
X016187Y010782D01*
D11*
X015989Y010227D02*
X015989Y009485D01*
X015989Y010227D02*
X016533Y010227D01*
X016533Y009485D01*
X015989Y009485D01*
X015989Y009551D02*
X016533Y009551D01*
X016533Y009617D02*
X015989Y009617D01*
X015989Y009683D02*
X016533Y009683D01*
X016533Y009749D02*
X015989Y009749D01*
X015989Y009815D02*
X016533Y009815D01*
X016533Y009881D02*
X015989Y009881D01*
X015989Y009947D02*
X016533Y009947D01*
X016533Y010013D02*
X015989Y010013D01*
X015989Y010079D02*
X016533Y010079D01*
X016533Y010145D02*
X015989Y010145D01*
X015989Y010211D02*
X016533Y010211D01*
X016934Y010227D02*
X016934Y009485D01*
X016934Y010227D02*
X017478Y010227D01*
X017478Y009485D01*
X016934Y009485D01*
X016934Y009551D02*
X017478Y009551D01*
X017478Y009617D02*
X016934Y009617D01*
X016934Y009683D02*
X017478Y009683D01*
X017478Y009749D02*
X016934Y009749D01*
X016934Y009815D02*
X017478Y009815D01*
X017478Y009881D02*
X016934Y009881D01*
X016934Y009947D02*
X017478Y009947D01*
X017478Y010013D02*
X016934Y010013D01*
X016934Y010079D02*
X017478Y010079D01*
X017478Y010145D02*
X016934Y010145D01*
X016934Y010211D02*
X017478Y010211D01*
X016934Y008495D02*
X016934Y007753D01*
X016934Y008495D02*
X017478Y008495D01*
X017478Y007753D01*
X016934Y007753D01*
X016934Y007819D02*
X017478Y007819D01*
X017478Y007885D02*
X016934Y007885D01*
X016934Y007951D02*
X017478Y007951D01*
X017478Y008017D02*
X016934Y008017D01*
X016934Y008083D02*
X017478Y008083D01*
X017478Y008149D02*
X016934Y008149D01*
X016934Y008215D02*
X017478Y008215D01*
X017478Y008281D02*
X016934Y008281D01*
X016934Y008347D02*
X017478Y008347D01*
X017478Y008413D02*
X016934Y008413D01*
X016934Y008479D02*
X017478Y008479D01*
X015989Y008495D02*
X015989Y007753D01*
X015989Y008495D02*
X016533Y008495D01*
X016533Y007753D01*
X015989Y007753D01*
X015989Y007819D02*
X016533Y007819D01*
X016533Y007885D02*
X015989Y007885D01*
X015989Y007951D02*
X016533Y007951D01*
X016533Y008017D02*
X015989Y008017D01*
X015989Y008083D02*
X016533Y008083D01*
X016533Y008149D02*
X015989Y008149D01*
X015989Y008215D02*
X016533Y008215D01*
X016533Y008281D02*
X015989Y008281D01*
X015989Y008347D02*
X016533Y008347D01*
X016533Y008413D02*
X015989Y008413D01*
X015989Y008479D02*
X016533Y008479D01*
D12*
X024165Y008450D02*
X025133Y008450D01*
X025133Y008270D01*
X024165Y008270D01*
X024165Y008450D01*
X024165Y008346D02*
X025133Y008346D01*
X025133Y008422D02*
X024165Y008422D01*
X024165Y008765D02*
X025133Y008765D01*
X025133Y008585D01*
X024165Y008585D01*
X024165Y008765D01*
X024165Y008661D02*
X025133Y008661D01*
X025133Y008737D02*
X024165Y008737D01*
X024165Y009080D02*
X025133Y009080D01*
X025133Y008900D01*
X024165Y008900D01*
X024165Y009080D01*
X024165Y008976D02*
X025133Y008976D01*
X025133Y009052D02*
X024165Y009052D01*
X024165Y009395D02*
X025133Y009395D01*
X025133Y009215D01*
X024165Y009215D01*
X024165Y009395D01*
X024165Y009291D02*
X025133Y009291D01*
X025133Y009367D02*
X024165Y009367D01*
X024165Y009710D02*
X025133Y009710D01*
X025133Y009530D01*
X024165Y009530D01*
X024165Y009710D01*
X024165Y009606D02*
X025133Y009606D01*
X025133Y009682D02*
X024165Y009682D01*
D13*
X024161Y011151D02*
X025137Y011151D01*
X025137Y010373D01*
X024161Y010373D01*
X024161Y011151D01*
X024161Y010440D02*
X025137Y010440D01*
X025137Y010507D02*
X024161Y010507D01*
X024161Y010574D02*
X025137Y010574D01*
X025137Y010641D02*
X024161Y010641D01*
X024161Y010708D02*
X025137Y010708D01*
X025137Y010775D02*
X024161Y010775D01*
X024161Y010842D02*
X025137Y010842D01*
X025137Y010909D02*
X024161Y010909D01*
X024161Y010976D02*
X025137Y010976D01*
X025137Y011043D02*
X024161Y011043D01*
X024161Y011110D02*
X025137Y011110D01*
X026326Y011151D02*
X027302Y011151D01*
X027302Y010373D01*
X026326Y010373D01*
X026326Y011151D01*
X026326Y010440D02*
X027302Y010440D01*
X027302Y010507D02*
X026326Y010507D01*
X026326Y010574D02*
X027302Y010574D01*
X027302Y010641D02*
X026326Y010641D01*
X026326Y010708D02*
X027302Y010708D01*
X027302Y010775D02*
X026326Y010775D01*
X026326Y010842D02*
X027302Y010842D01*
X027302Y010909D02*
X026326Y010909D01*
X026326Y010976D02*
X027302Y010976D01*
X027302Y011043D02*
X026326Y011043D01*
X026326Y011110D02*
X027302Y011110D01*
X027302Y007607D02*
X026326Y007607D01*
X027302Y007607D02*
X027302Y006829D01*
X026326Y006829D01*
X026326Y007607D01*
X026326Y006896D02*
X027302Y006896D01*
X027302Y006963D02*
X026326Y006963D01*
X026326Y007030D02*
X027302Y007030D01*
X027302Y007097D02*
X026326Y007097D01*
X026326Y007164D02*
X027302Y007164D01*
X027302Y007231D02*
X026326Y007231D01*
X026326Y007298D02*
X027302Y007298D01*
X027302Y007365D02*
X026326Y007365D01*
X026326Y007432D02*
X027302Y007432D01*
X027302Y007499D02*
X026326Y007499D01*
X026326Y007566D02*
X027302Y007566D01*
X025137Y007607D02*
X024161Y007607D01*
X025137Y007607D02*
X025137Y006829D01*
X024161Y006829D01*
X024161Y007607D01*
X024161Y006896D02*
X025137Y006896D01*
X025137Y006963D02*
X024161Y006963D01*
X024161Y007030D02*
X025137Y007030D01*
X025137Y007097D02*
X024161Y007097D01*
X024161Y007164D02*
X025137Y007164D01*
X025137Y007231D02*
X024161Y007231D01*
X024161Y007298D02*
X025137Y007298D01*
X025137Y007365D02*
X024161Y007365D01*
X024161Y007432D02*
X025137Y007432D01*
X025137Y007499D02*
X024161Y007499D01*
X024161Y007566D02*
X025137Y007566D01*
D14*
X025633Y008124D03*
X025633Y009856D03*
D15*
X022385Y006833D02*
X022081Y006833D01*
X022081Y007137D01*
X022385Y007137D01*
X022385Y006833D01*
X022385Y006903D02*
X022081Y006903D01*
X022081Y006973D02*
X022385Y006973D01*
X022385Y007043D02*
X022081Y007043D01*
X022081Y007113D02*
X022385Y007113D01*
X022385Y006243D02*
X022081Y006243D01*
X022081Y006547D01*
X022385Y006547D01*
X022385Y006243D01*
X022385Y006313D02*
X022081Y006313D01*
X022081Y006383D02*
X022385Y006383D01*
X022385Y006453D02*
X022081Y006453D01*
X022081Y006523D02*
X022385Y006523D01*
X018985Y006243D02*
X018681Y006243D01*
X018681Y006547D01*
X018985Y006547D01*
X018985Y006243D01*
X018985Y006313D02*
X018681Y006313D01*
X018681Y006383D02*
X018985Y006383D01*
X018985Y006453D02*
X018681Y006453D01*
X018681Y006523D02*
X018985Y006523D01*
X018985Y006833D02*
X018681Y006833D01*
X018681Y007137D01*
X018985Y007137D01*
X018985Y006833D01*
X018985Y006903D02*
X018681Y006903D01*
X018681Y006973D02*
X018985Y006973D01*
X018985Y007043D02*
X018681Y007043D01*
X018681Y007113D02*
X018985Y007113D01*
D16*
X015139Y007034D02*
X015139Y006746D01*
X015139Y007034D02*
X015727Y007034D01*
X015727Y006746D01*
X015139Y006746D01*
X015139Y006817D02*
X015727Y006817D01*
X015727Y006888D02*
X015139Y006888D01*
X015139Y006959D02*
X015727Y006959D01*
X015727Y007030D02*
X015139Y007030D01*
X013139Y007034D02*
X013139Y006746D01*
X013139Y007034D02*
X013727Y007034D01*
X013727Y006746D01*
X013139Y006746D01*
X013139Y006817D02*
X013727Y006817D01*
X013727Y006888D02*
X013139Y006888D01*
X013139Y006959D02*
X013727Y006959D01*
X013727Y007030D02*
X013139Y007030D01*
X013139Y008246D02*
X013139Y008534D01*
X013727Y008534D01*
X013727Y008246D01*
X013139Y008246D01*
X013139Y008317D02*
X013727Y008317D01*
X013727Y008388D02*
X013139Y008388D01*
X013139Y008459D02*
X013727Y008459D01*
X013727Y008530D02*
X013139Y008530D01*
X013139Y009446D02*
X013139Y009734D01*
X013727Y009734D01*
X013727Y009446D01*
X013139Y009446D01*
X013139Y009517D02*
X013727Y009517D01*
X013727Y009588D02*
X013139Y009588D01*
X013139Y009659D02*
X013727Y009659D01*
X013727Y009730D02*
X013139Y009730D01*
X015139Y009734D02*
X015139Y009446D01*
X015139Y009734D02*
X015727Y009734D01*
X015727Y009446D01*
X015139Y009446D01*
X015139Y009517D02*
X015727Y009517D01*
X015727Y009588D02*
X015139Y009588D01*
X015139Y009659D02*
X015727Y009659D01*
X015727Y009730D02*
X015139Y009730D01*
X015139Y008534D02*
X015139Y008246D01*
X015139Y008534D02*
X015727Y008534D01*
X015727Y008246D01*
X015139Y008246D01*
X015139Y008317D02*
X015727Y008317D01*
X015727Y008388D02*
X015139Y008388D01*
X015139Y008459D02*
X015727Y008459D01*
X015727Y008530D02*
X015139Y008530D01*
X015139Y010946D02*
X015139Y011234D01*
X015727Y011234D01*
X015727Y010946D01*
X015139Y010946D01*
X015139Y011017D02*
X015727Y011017D01*
X015727Y011088D02*
X015139Y011088D01*
X015139Y011159D02*
X015727Y011159D01*
X015727Y011230D02*
X015139Y011230D01*
X013139Y011234D02*
X013139Y010946D01*
X013139Y011234D02*
X013727Y011234D01*
X013727Y010946D01*
X013139Y010946D01*
X013139Y011017D02*
X013727Y011017D01*
X013727Y011088D02*
X013139Y011088D01*
X013139Y011159D02*
X013727Y011159D01*
X013727Y011230D02*
X013139Y011230D01*
D17*
X018542Y010060D02*
X018982Y010060D01*
X018982Y009986D01*
X018542Y009986D01*
X018542Y010060D01*
X018542Y009863D02*
X018982Y009863D01*
X018982Y009789D01*
X018542Y009789D01*
X018542Y009863D01*
X018542Y009666D02*
X018982Y009666D01*
X018982Y009592D01*
X018542Y009592D01*
X018542Y009666D01*
X018542Y009469D02*
X018982Y009469D01*
X018982Y009395D01*
X018542Y009395D01*
X018542Y009469D01*
X018542Y009198D02*
X018982Y009198D01*
X018542Y009198D02*
X018542Y009272D01*
X018982Y009272D01*
X018982Y009198D01*
X018982Y009075D02*
X018542Y009075D01*
X018982Y009075D02*
X018982Y009001D01*
X018542Y009001D01*
X018542Y009075D01*
X018542Y008879D02*
X018982Y008879D01*
X018982Y008805D01*
X018542Y008805D01*
X018542Y008879D01*
X018542Y008682D02*
X018982Y008682D01*
X018982Y008608D01*
X018542Y008608D01*
X018542Y008682D01*
X018542Y008485D02*
X018982Y008485D01*
X018982Y008411D01*
X018542Y008411D01*
X018542Y008485D01*
X018542Y008288D02*
X018982Y008288D01*
X018982Y008214D01*
X018542Y008214D01*
X018542Y008288D01*
X018542Y008091D02*
X018982Y008091D01*
X018982Y008017D01*
X018542Y008017D01*
X018542Y008091D01*
X018542Y007894D02*
X018982Y007894D01*
X018982Y007820D01*
X018542Y007820D01*
X018542Y007894D01*
X019414Y007388D02*
X019414Y006948D01*
X019414Y007388D02*
X019488Y007388D01*
X019488Y006948D01*
X019414Y006948D01*
X019414Y007040D02*
X019488Y007040D01*
X019488Y007132D02*
X019414Y007132D01*
X019414Y007224D02*
X019488Y007224D01*
X019488Y007316D02*
X019414Y007316D01*
X019611Y007388D02*
X019611Y006948D01*
X019611Y007388D02*
X019685Y007388D01*
X019685Y006948D01*
X019611Y006948D01*
X019611Y007040D02*
X019685Y007040D01*
X019685Y007132D02*
X019611Y007132D01*
X019611Y007224D02*
X019685Y007224D01*
X019685Y007316D02*
X019611Y007316D01*
X019807Y007388D02*
X019807Y006948D01*
X019807Y007388D02*
X019881Y007388D01*
X019881Y006948D01*
X019807Y006948D01*
X019807Y007040D02*
X019881Y007040D01*
X019881Y007132D02*
X019807Y007132D01*
X019807Y007224D02*
X019881Y007224D01*
X019881Y007316D02*
X019807Y007316D01*
X020004Y007388D02*
X020004Y006948D01*
X020004Y007388D02*
X020078Y007388D01*
X020078Y006948D01*
X020004Y006948D01*
X020004Y007040D02*
X020078Y007040D01*
X020078Y007132D02*
X020004Y007132D01*
X020004Y007224D02*
X020078Y007224D01*
X020078Y007316D02*
X020004Y007316D01*
X020201Y007388D02*
X020201Y006948D01*
X020201Y007388D02*
X020275Y007388D01*
X020275Y006948D01*
X020201Y006948D01*
X020201Y007040D02*
X020275Y007040D01*
X020275Y007132D02*
X020201Y007132D01*
X020201Y007224D02*
X020275Y007224D01*
X020275Y007316D02*
X020201Y007316D01*
X020398Y007388D02*
X020398Y006948D01*
X020398Y007388D02*
X020472Y007388D01*
X020472Y006948D01*
X020398Y006948D01*
X020398Y007040D02*
X020472Y007040D01*
X020472Y007132D02*
X020398Y007132D01*
X020398Y007224D02*
X020472Y007224D01*
X020472Y007316D02*
X020398Y007316D01*
X020595Y007388D02*
X020595Y006948D01*
X020595Y007388D02*
X020669Y007388D01*
X020669Y006948D01*
X020595Y006948D01*
X020595Y007040D02*
X020669Y007040D01*
X020669Y007132D02*
X020595Y007132D01*
X020595Y007224D02*
X020669Y007224D01*
X020669Y007316D02*
X020595Y007316D01*
X020792Y007388D02*
X020792Y006948D01*
X020792Y007388D02*
X020866Y007388D01*
X020866Y006948D01*
X020792Y006948D01*
X020792Y007040D02*
X020866Y007040D01*
X020866Y007132D02*
X020792Y007132D01*
X020792Y007224D02*
X020866Y007224D01*
X020866Y007316D02*
X020792Y007316D01*
X020988Y007388D02*
X020988Y006948D01*
X020988Y007388D02*
X021062Y007388D01*
X021062Y006948D01*
X020988Y006948D01*
X020988Y007040D02*
X021062Y007040D01*
X021062Y007132D02*
X020988Y007132D01*
X020988Y007224D02*
X021062Y007224D01*
X021062Y007316D02*
X020988Y007316D01*
X021185Y007388D02*
X021185Y006948D01*
X021185Y007388D02*
X021259Y007388D01*
X021259Y006948D01*
X021185Y006948D01*
X021185Y007040D02*
X021259Y007040D01*
X021259Y007132D02*
X021185Y007132D01*
X021185Y007224D02*
X021259Y007224D01*
X021259Y007316D02*
X021185Y007316D01*
X021382Y007388D02*
X021382Y006948D01*
X021382Y007388D02*
X021456Y007388D01*
X021456Y006948D01*
X021382Y006948D01*
X021382Y007040D02*
X021456Y007040D01*
X021456Y007132D02*
X021382Y007132D01*
X021382Y007224D02*
X021456Y007224D01*
X021456Y007316D02*
X021382Y007316D01*
X021579Y007388D02*
X021579Y006948D01*
X021579Y007388D02*
X021653Y007388D01*
X021653Y006948D01*
X021579Y006948D01*
X021579Y007040D02*
X021653Y007040D01*
X021653Y007132D02*
X021579Y007132D01*
X021579Y007224D02*
X021653Y007224D01*
X021653Y007316D02*
X021579Y007316D01*
X022085Y007894D02*
X022525Y007894D01*
X022525Y007820D01*
X022085Y007820D01*
X022085Y007894D01*
X022085Y008091D02*
X022525Y008091D01*
X022525Y008017D01*
X022085Y008017D01*
X022085Y008091D01*
X022085Y008288D02*
X022525Y008288D01*
X022525Y008214D01*
X022085Y008214D01*
X022085Y008288D01*
X022085Y008485D02*
X022525Y008485D01*
X022525Y008411D01*
X022085Y008411D01*
X022085Y008485D01*
X022085Y008682D02*
X022525Y008682D01*
X022525Y008608D01*
X022085Y008608D01*
X022085Y008682D01*
X022085Y008879D02*
X022525Y008879D01*
X022525Y008805D01*
X022085Y008805D01*
X022085Y008879D01*
X022085Y009075D02*
X022525Y009075D01*
X022525Y009001D01*
X022085Y009001D01*
X022085Y009075D01*
X022085Y009198D02*
X022525Y009198D01*
X022085Y009198D02*
X022085Y009272D01*
X022525Y009272D01*
X022525Y009198D01*
X022525Y009469D02*
X022085Y009469D01*
X022525Y009469D02*
X022525Y009395D01*
X022085Y009395D01*
X022085Y009469D01*
X022085Y009666D02*
X022525Y009666D01*
X022525Y009592D01*
X022085Y009592D01*
X022085Y009666D01*
X022085Y009863D02*
X022525Y009863D01*
X022525Y009789D01*
X022085Y009789D01*
X022085Y009863D01*
X022085Y010060D02*
X022525Y010060D01*
X022525Y009986D01*
X022085Y009986D01*
X022085Y010060D01*
X021579Y010492D02*
X021579Y010932D01*
X021653Y010932D01*
X021653Y010492D01*
X021579Y010492D01*
X021579Y010584D02*
X021653Y010584D01*
X021653Y010676D02*
X021579Y010676D01*
X021579Y010768D02*
X021653Y010768D01*
X021653Y010860D02*
X021579Y010860D01*
X021382Y010932D02*
X021382Y010492D01*
X021382Y010932D02*
X021456Y010932D01*
X021456Y010492D01*
X021382Y010492D01*
X021382Y010584D02*
X021456Y010584D01*
X021456Y010676D02*
X021382Y010676D01*
X021382Y010768D02*
X021456Y010768D01*
X021456Y010860D02*
X021382Y010860D01*
X021185Y010932D02*
X021185Y010492D01*
X021185Y010932D02*
X021259Y010932D01*
X021259Y010492D01*
X021185Y010492D01*
X021185Y010584D02*
X021259Y010584D01*
X021259Y010676D02*
X021185Y010676D01*
X021185Y010768D02*
X021259Y010768D01*
X021259Y010860D02*
X021185Y010860D01*
X020988Y010932D02*
X020988Y010492D01*
X020988Y010932D02*
X021062Y010932D01*
X021062Y010492D01*
X020988Y010492D01*
X020988Y010584D02*
X021062Y010584D01*
X021062Y010676D02*
X020988Y010676D01*
X020988Y010768D02*
X021062Y010768D01*
X021062Y010860D02*
X020988Y010860D01*
X020792Y010932D02*
X020792Y010492D01*
X020792Y010932D02*
X020866Y010932D01*
X020866Y010492D01*
X020792Y010492D01*
X020792Y010584D02*
X020866Y010584D01*
X020866Y010676D02*
X020792Y010676D01*
X020792Y010768D02*
X020866Y010768D01*
X020866Y010860D02*
X020792Y010860D01*
X020595Y010932D02*
X020595Y010492D01*
X020595Y010932D02*
X020669Y010932D01*
X020669Y010492D01*
X020595Y010492D01*
X020595Y010584D02*
X020669Y010584D01*
X020669Y010676D02*
X020595Y010676D01*
X020595Y010768D02*
X020669Y010768D01*
X020669Y010860D02*
X020595Y010860D01*
X020398Y010932D02*
X020398Y010492D01*
X020398Y010932D02*
X020472Y010932D01*
X020472Y010492D01*
X020398Y010492D01*
X020398Y010584D02*
X020472Y010584D01*
X020472Y010676D02*
X020398Y010676D01*
X020398Y010768D02*
X020472Y010768D01*
X020472Y010860D02*
X020398Y010860D01*
X020275Y010932D02*
X020275Y010492D01*
X020201Y010492D01*
X020201Y010932D01*
X020275Y010932D01*
X020275Y010584D02*
X020201Y010584D01*
X020201Y010676D02*
X020275Y010676D01*
X020275Y010768D02*
X020201Y010768D01*
X020201Y010860D02*
X020275Y010860D01*
X020004Y010932D02*
X020004Y010492D01*
X020004Y010932D02*
X020078Y010932D01*
X020078Y010492D01*
X020004Y010492D01*
X020004Y010584D02*
X020078Y010584D01*
X020078Y010676D02*
X020004Y010676D01*
X020004Y010768D02*
X020078Y010768D01*
X020078Y010860D02*
X020004Y010860D01*
X019807Y010932D02*
X019807Y010492D01*
X019807Y010932D02*
X019881Y010932D01*
X019881Y010492D01*
X019807Y010492D01*
X019807Y010584D02*
X019881Y010584D01*
X019881Y010676D02*
X019807Y010676D01*
X019807Y010768D02*
X019881Y010768D01*
X019881Y010860D02*
X019807Y010860D01*
X019611Y010932D02*
X019611Y010492D01*
X019611Y010932D02*
X019685Y010932D01*
X019685Y010492D01*
X019611Y010492D01*
X019611Y010584D02*
X019685Y010584D01*
X019685Y010676D02*
X019611Y010676D01*
X019611Y010768D02*
X019685Y010768D01*
X019685Y010860D02*
X019611Y010860D01*
X019414Y010932D02*
X019414Y010492D01*
X019414Y010932D02*
X019488Y010932D01*
X019488Y010492D01*
X019414Y010492D01*
X019414Y010584D02*
X019488Y010584D01*
X019488Y010676D02*
X019414Y010676D01*
X019414Y010768D02*
X019488Y010768D01*
X019488Y010860D02*
X019414Y010860D01*
D18*
X013733Y005490D03*
X014733Y005490D03*
X015733Y005490D03*
X016733Y005490D03*
X017733Y005490D03*
X018733Y005490D03*
X019733Y005490D03*
X020733Y005490D03*
X021733Y005490D03*
X022733Y005490D03*
X023733Y005490D03*
X024733Y005490D03*
X025733Y005490D03*
X026733Y005490D03*
X023733Y006490D03*
X023733Y012490D03*
X024733Y012490D03*
X025733Y012490D03*
X026733Y012490D03*
X022733Y012490D03*
X021733Y012490D03*
X020733Y012490D03*
X019733Y012490D03*
X018733Y012490D03*
X017733Y012490D03*
X016733Y012490D03*
X015733Y012490D03*
X014733Y012490D03*
X013733Y012490D03*
D19*
X017973Y010470D03*
X017973Y009470D03*
D20*
X019333Y009520D03*
X019823Y009320D03*
X019433Y008950D03*
X020693Y009630D03*
X021073Y009970D03*
X020583Y010130D03*
X020083Y010130D03*
X019033Y010490D03*
X017573Y011440D03*
X017093Y011780D03*
X016323Y011160D03*
X015443Y010070D03*
X014803Y009560D03*
X014323Y008810D03*
X013433Y007880D03*
X013433Y007380D03*
X015103Y007410D03*
X017873Y007930D03*
X018673Y007480D03*
X019603Y007740D03*
X020063Y007980D03*
X020563Y007980D03*
X021073Y007800D03*
X021673Y008290D03*
X021713Y008840D03*
X022823Y008510D03*
X024303Y007930D03*
X025643Y007530D03*
X027093Y008480D03*
X025873Y009160D03*
X023053Y009530D03*
X022873Y010020D03*
X021743Y009600D03*
X019633Y008250D03*
X017873Y008430D03*
X021953Y007490D03*
X022533Y007490D03*
X022903Y006360D03*
X021733Y006170D03*
X020783Y006180D03*
X019963Y006180D03*
X018093Y006130D03*
X019343Y011570D03*
X020883Y011570D03*
X021513Y011570D03*
X022263Y011570D03*
X022933Y011570D03*
X023413Y011790D03*
M02*
