  0
SECTION
  2
HEADER
  9
$ACADVER
  1
AC1009
  9
$FILLMODE
 70
0
  9
$EXTMIN
 10
-0.0127
 20
-0.0127
 30
0.0000
  9
$EXTMAX
 10
61.2267
 20
58.9407
 30
0.0000
  0
ENDSEC
  0
SECTION
  2
TABLES
  0
TABLE
  2
LTYPE
 70
1
  0
LTYPE
  2
CONTINUOUS
 70
64
  3
Solid line
 72
65
 73
0
 40
0
  0
ENDTAB
  0
TABLE
  2
LAYER
 70
255
  0
LAYER
  2
20
 70
64
 62
7
  6
CONTINUOUS
  0
LAYER
  2
21
 70
64
 62
253
  6
CONTINUOUS
  0
LAYER
  2
29
 70
64
 62
253
  6
CONTINUOUS
  0
LAYER
  2
30
 70
64
 62
253
  6
CONTINUOUS
  0
LAYER
  2
45
 70
64
 62
253
  6
CONTINUOUS
  0
ENDTAB
  0
ENDSEC
  0
SECTION
  2
BLOCKS
  0
BLOCK
  8
0
  2
RECT
 70
64
 10
0.0000
 20
0.0000
 30
0.0000
  3
RECT
  0
SOLID
  8
0
 10
-0.5000
 20
-0.5000
 30
0.0000
 11
0.5000
 21
-0.5000
 31
0.0000
 12
-0.5000
 22
0.5000
 32
0.0000
 13
0.5000
 23
0.5000
 33
0.0000
  0
ENDBLK
  8
0
  0
BLOCK
  8
0
  2
PIE
 70
64
 10
0.0000
 20
0.0000
 30
0.0000
  3
PIE
  0
CIRCLE
  8
0
 10
0.0000
 20
0.0000
 30
0.0000
 40
0.5000
  0
ENDBLK
  8
0
  0
BLOCK
  8
0
  2
OCTAGONP
 70
64
 10
0.0000
 20
0.0000
 30
0.0000
  3
OCTAGONP
  0
POLYLINE
  8
0
 66
1
 10
0.0000
 20
0.0000
 30
0.0000
 40
0.0000
 41
0.0000
 70
1
  0
VERTEX
  8
0
 10
-0.5000
 20
-0.2071
 30
0.0000
  0
VERTEX
  8
0
 10
-0.5000
 20
0.2071
 30
0.0000
  0
VERTEX
  8
0
 10
-0.2071
 20
0.5000
 30
0.0000
  0
VERTEX
  8
0
 10
0.2071
 20
0.5000
 30
0.0000
  0
VERTEX
  8
0
 10
0.5000
 20
0.2071
 30
0.0000
  0
VERTEX
  8
0
 10
0.5000
 20
-0.2071
 30
0.0000
  0
VERTEX
  8
0
 10
0.2071
 20
-0.5000
 30
0.0000
  0
VERTEX
  8
0
 10
-0.2071
 20
-0.5000
 30
0.0000
  0
SEQEND
  8
0
  0
ENDBLK
  8
0
  0
BLOCK
  8
0
  2
SQUAREP
 70
64
 10
0.0000
 20
0.0000
 30
0.0000
  3
SQUAREP
  0
SOLID
  8
0
 10
-0.5000
 20
-0.5000
 30
0.0000
 11
0.5000
 21
-0.5000
 31
0.0000
 12
-0.5000
 22
0.5000
 32
0.0000
 13
0.5000
 23
0.5000
 33
0.0000
  0
ENDBLK
  8
0
  0
BLOCK
  8
0
  2
ROUNDP
 70
64
 10
0.0000
 20
0.0000
 30
0.0000
  3
ROUNDP
  0
CIRCLE
  8
0
 10
0.0000
 20
0.0000
 30
0.0000
 40
0.5000
  0
ENDBLK
  8
0
  0
BLOCK
  8
0
  2
ANNULUSP
 70
64
 10
0.0000
 20
0.0000
 30
0.0000
  3
ANNULUSP
  0
CIRCLE
  8
0
 10
0.0000
 20
0.0000
 30
0.0000
 40
0.5000
  0
ENDBLK
  8
0
  0
BLOCK
  8
0
  2
THERMALP
 70
64
 10
0.0000
 20
0.0000
 30
0.0000
  3
THERMALP
  0
POLYLINE
  8
0
 66
1
 10
0.0000
 20
0.0000
 30
0.0000
 40
0.0000
 41
0.0000
 70
1
  0
VERTEX
  8
0
 10
-0.2379
 20
0.4000
 30
0.0000
  0
VERTEX
  8
0
 10
0.2379
 20
0.4000
 30
0.0000
 42
1.0000
  0
VERTEX
  8
0
 10
0.2379
 20
0.5000
 30
0.0000
  0
VERTEX
  8
0
 10
-0.2379
 20
0.5000
 30
0.0000
 42
1.0000
  0
SEQEND
  8
0
  0
POLYLINE
  8
0
 66
1
 10
0.0000
 20
0.0000
 30
0.0000
 40
0.0000
 41
0.0000
 70
1
  0
VERTEX
  8
0
 10
0.4000
 20
0.2379
 30
0.0000
  0
VERTEX
  8
0
 10
0.4000
 20
-0.2379
 30
0.0000
 42
1.0000
  0
VERTEX
  8
0
 10
0.5000
 20
-0.2379
 30
0.0000
  0
VERTEX
  8
0
 10
0.5000
 20
0.2379
 30
0.0000
 42
1.0000
  0
SEQEND
  8
0
  0
POLYLINE
  8
0
 66
1
 10
0.0000
 20
0.0000
 30
0.0000
 40
0.0000
 41
0.0000
 70
1
  0
VERTEX
  8
0
 10
0.2379
 20
-0.4000
 30
0.0000
  0
VERTEX
  8
0
 10
-0.2379
 20
-0.4000
 30
0.0000
 42
1.0000
  0
VERTEX
  8
0
 10
-0.2379
 20
-0.5000
 30
0.0000
  0
VERTEX
  8
0
 10
0.2379
 20
-0.5000
 30
0.0000
 42
1.0000
  0
SEQEND
  8
0
  0
POLYLINE
  8
0
 66
1
 10
0.0000
 20
0.0000
 30
0.0000
 40
0.0000
 41
0.0000
 70
1
  0
VERTEX
  8
0
 10
-0.4000
 20
-0.2379
 30
0.0000
  0
VERTEX
  8
0
 10
-0.4000
 20
0.2379
 30
0.0000
 42
1.0000
  0
VERTEX
  8
0
 10
-0.5000
 20
0.2379
 30
0.0000
  0
VERTEX
  8
0
 10
-0.5000
 20
-0.2379
 30
0.0000
 42
1.0000
  0
SEQEND
  8
0
  0
ENDBLK
  8
0
  0
BLOCK
  8
0
  2
OCTAGONV
 70
64
 10
0.0000
 20
0.0000
 30
0.0000
  3
OCTAGONV
  0
POLYLINE
  8
0
 66
1
 10
0.0000
 20
0.0000
 30
0.0000
 40
0.0000
 41
0.0000
 70
1
  0
VERTEX
  8
0
 10
-0.5000
 20
-0.2071
 30
0.0000
  0
VERTEX
  8
0
 10
-0.5000
 20
0.2071
 30
0.0000
  0
VERTEX
  8
0
 10
-0.2071
 20
0.5000
 30
0.0000
  0
VERTEX
  8
0
 10
0.2071
 20
0.5000
 30
0.0000
  0
VERTEX
  8
0
 10
0.5000
 20
0.2071
 30
0.0000
  0
VERTEX
  8
0
 10
0.5000
 20
-0.2071
 30
0.0000
  0
VERTEX
  8
0
 10
0.2071
 20
-0.5000
 30
0.0000
  0
VERTEX
  8
0
 10
-0.2071
 20
-0.5000
 30
0.0000
  0
SEQEND
  8
0
  0
ENDBLK
  8
0
  0
BLOCK
  8
0
  2
SQUAREV
 70
64
 10
0.0000
 20
0.0000
 30
0.0000
  3
SQUAREV
  0
SOLID
  8
0
 10
-0.5000
 20
-0.5000
 30
0.0000
 11
0.5000
 21
-0.5000
 31
0.0000
 12
-0.5000
 22
0.5000
 32
0.0000
 13
0.5000
 23
0.5000
 33
0.0000
  0
ENDBLK
  8
0
  0
BLOCK
  8
0
  2
ROUNDV
 70
64
 10
0.0000
 20
0.0000
 30
0.0000
  3
ROUNDV
  0
CIRCLE
  8
0
 10
0.0000
 20
0.0000
 30
0.0000
 40
0.5000
  0
ENDBLK
  8
0
  0
BLOCK
  8
0
  2
ANNULUSV
 70
64
 10
0.0000
 20
0.0000
 30
0.0000
  3
ANNULUSV
  0
CIRCLE
  8
0
 10
0.0000
 20
0.0000
 30
0.0000
 40
0.5000
  0
ENDBLK
  8
0
  0
BLOCK
  8
0
  2
THERMALV
 70
64
 10
0.0000
 20
0.0000
 30
0.0000
  3
THERMALV
  0
POLYLINE
  8
0
 66
1
 10
0.0000
 20
0.0000
 30
0.0000
 40
0.0000
 41
0.0000
 70
1
  0
VERTEX
  8
0
 10
-0.2379
 20
0.4000
 30
0.0000
  0
VERTEX
  8
0
 10
0.2379
 20
0.4000
 30
0.0000
 42
1.0000
  0
VERTEX
  8
0
 10
0.2379
 20
0.5000
 30
0.0000
  0
VERTEX
  8
0
 10
-0.2379
 20
0.5000
 30
0.0000
 42
1.0000
  0
SEQEND
  8
0
  0
POLYLINE
  8
0
 66
1
 10
0.0000
 20
0.0000
 30
0.0000
 40
0.0000
 41
0.0000
 70
1
  0
VERTEX
  8
0
 10
0.4000
 20
0.2379
 30
0.0000
  0
VERTEX
  8
0
 10
0.4000
 20
-0.2379
 30
0.0000
 42
1.0000
  0
VERTEX
  8
0
 10
0.5000
 20
-0.2379
 30
0.0000
  0
VERTEX
  8
0
 10
0.5000
 20
0.2379
 30
0.0000
 42
1.0000
  0
SEQEND
  8
0
  0
POLYLINE
  8
0
 66
1
 10
0.0000
 20
0.0000
 30
0.0000
 40
0.0000
 41
0.0000
 70
1
  0
VERTEX
  8
0
 10
0.2379
 20
-0.4000
 30
0.0000
  0
VERTEX
  8
0
 10
-0.2379
 20
-0.4000
 30
0.0000
 42
1.0000
  0
VERTEX
  8
0
 10
-0.2379
 20
-0.5000
 30
0.0000
  0
VERTEX
  8
0
 10
0.2379
 20
-0.5000
 30
0.0000
 42
1.0000
  0
SEQEND
  8
0
  0
POLYLINE
  8
0
 66
1
 10
0.0000
 20
0.0000
 30
0.0000
 40
0.0000
 41
0.0000
 70
1
  0
VERTEX
  8
0
 10
-0.4000
 20
-0.2379
 30
0.0000
  0
VERTEX
  8
0
 10
-0.4000
 20
0.2379
 30
0.0000
 42
1.0000
  0
VERTEX
  8
0
 10
-0.5000
 20
0.2379
 30
0.0000
  0
VERTEX
  8
0
 10
-0.5000
 20
-0.2379
 30
0.0000
 42
1.0000
  0
SEQEND
  8
0
  0
ENDBLK
  8
0
  0
ENDSEC
  0
SECTION
  2
ENTITIES
  0
POLYLINE
  8
21
 66
1
 10
0.0000
 20
0.0000
 30
0.0000
 40
0.0000
 41
0.0000
 70
1
  0
VERTEX
  8
21
 10
8.1407
 20
51.3080
 30
0.0000
  0
VERTEX
  8
21
 10
8.1407
 20
58.9280
 30
0.0000
 42
1.0000
  0
VERTEX
  8
21
 10
8.1153
 20
58.9280
 30
0.0000
  0
VERTEX
  8
21
 10
8.1153
 20
51.3080
 30
0.0000
 42
1.0000
  0
SEQEND
  8
0
  0
POLYLINE
  8
21
 66
1
 10
0.0000
 20
0.0000
 30
0.0000
 40
0.0000
 41
0.0000
 70
1
  0
VERTEX
  8
21
 10
8.1280
 20
51.2953
 30
0.0000
  0
VERTEX
  8
21
 10
21.3360
 20
51.2953
 30
0.0000
 42
1.0000
  0
VERTEX
  8
21
 10
21.3360
 20
51.3207
 30
0.0000
  0
VERTEX
  8
21
 10
8.1280
 20
51.3207
 30
0.0000
 42
1.0000
  0
SEQEND
  8
0
  0
POLYLINE
  8
21
 66
1
 10
0.0000
 20
0.0000
 30
0.0000
 40
0.0000
 41
0.0000
 70
1
  0
VERTEX
  8
21
 10
21.3487
 20
51.3080
 30
0.0000
  0
VERTEX
  8
21
 10
21.3487
 20
58.9280
 30
0.0000
 42
1.0000
  0
VERTEX
  8
21
 10
21.3233
 20
58.9280
 30
0.0000
  0
VERTEX
  8
21
 10
21.3233
 20
51.3080
 30
0.0000
 42
1.0000
  0
SEQEND
  8
0
  0
POLYLINE
  8
21
 66
1
 10
0.0000
 20
0.0000
 30
0.0000
 40
0.0000
 41
0.0000
 70
1
  0
VERTEX
  8
21
 10
2.7940
 20
58.9153
 30
0.0000
  0
VERTEX
  8
21
 10
8.1280
 20
58.9153
 30
0.0000
 42
1.0000
  0
VERTEX
  8
21
 10
8.1280
 20
58.9407
 30
0.0000
  0
VERTEX
  8
21
 10
2.7940
 20
58.9407
 30
0.0000
 42
1.0000
  0
SEQEND
  8
0
  0
POLYLINE
  8
21
 66
1
 10
0.0000
 20
0.0000
 30
0.0000
 40
0.0000
 41
0.0000
 70
1
  0
VERTEX
  8
21
 10
21.3360
 20
58.9153
 30
0.0000
  0
VERTEX
  8
21
 10
30.2260
 20
58.9153
 30
0.0000
 42
1.0000
  0
VERTEX
  8
21
 10
30.2260
 20
58.9407
 30
0.0000
  0
VERTEX
  8
21
 10
21.3360
 20
58.9407
 30
0.0000
 42
1.0000
  0
SEQEND
  8
0
  0
POLYLINE
  8
21
 66
1
 10
0.0000
 20
0.0000
 30
0.0000
 40
0.0000
 41
0.0000
 70
1
  0
VERTEX
  8
21
 10
2.7850
 20
58.9370
 30
0.0000
  0
VERTEX
  8
21
 10
-0.0090
 20
56.1430
 30
0.0000
 42
1.0000
  0
VERTEX
  8
21
 10
0.0090
 20
56.1250
 30
0.0000
  0
VERTEX
  8
21
 10
2.8030
 20
58.9190
 30
0.0000
 42
1.0000
  0
SEQEND
  8
0
  0
POLYLINE
  8
21
 66
1
 10
0.0000
 20
0.0000
 30
0.0000
 40
0.0000
 41
0.0000
 70
1
  0
VERTEX
  8
21
 10
-0.0127
 20
56.1340
 30
0.0000
  0
VERTEX
  8
21
 10
-0.0127
 20
2.7940
 30
0.0000
 42
1.0000
  0
VERTEX
  8
21
 10
0.0127
 20
2.7940
 30
0.0000
  0
VERTEX
  8
21
 10
0.0127
 20
56.1340
 30
0.0000
 42
1.0000
  0
SEQEND
  8
0
  0
POLYLINE
  8
21
 66
1
 10
0.0000
 20
0.0000
 30
0.0000
 40
0.0000
 41
0.0000
 70
1
  0
VERTEX
  8
21
 10
-0.0090
 20
2.7850
 30
0.0000
  0
VERTEX
  8
21
 10
2.7850
 20
-0.0090
 30
0.0000
 42
1.0000
  0
VERTEX
  8
21
 10
2.8030
 20
0.0090
 30
0.0000
  0
VERTEX
  8
21
 10
0.0090
 20
2.8030
 30
0.0000
 42
1.0000
  0
SEQEND
  8
0
  0
POLYLINE
  8
21
 66
1
 10
0.0000
 20
0.0000
 30
0.0000
 40
0.0000
 41
0.0000
 70
1
  0
VERTEX
  8
21
 10
2.7940
 20
-0.0127
 30
0.0000
  0
VERTEX
  8
21
 10
8.1280
 20
-0.0127
 30
0.0000
 42
1.0000
  0
VERTEX
  8
21
 10
8.1280
 20
0.0127
 30
0.0000
  0
VERTEX
  8
21
 10
2.7940
 20
0.0127
 30
0.0000
 42
1.0000
  0
SEQEND
  8
0
  0
POLYLINE
  8
21
 66
1
 10
0.0000
 20
0.0000
 30
0.0000
 40
0.0000
 41
0.0000
 70
1
  0
VERTEX
  8
21
 10
8.1407
 20
0.0000
 30
0.0000
  0
VERTEX
  8
21
 10
8.1407
 20
12.1920
 30
0.0000
 42
1.0000
  0
VERTEX
  8
21
 10
8.1153
 20
12.1920
 30
0.0000
  0
VERTEX
  8
21
 10
8.1153
 20
0.0000
 30
0.0000
 42
1.0000
  0
SEQEND
  8
0
  0
POLYLINE
  8
21
 66
1
 10
0.0000
 20
0.0000
 30
0.0000
 40
0.0000
 41
0.0000
 70
1
  0
VERTEX
  8
21
 10
8.1280
 20
12.1793
 30
0.0000
  0
VERTEX
  8
21
 10
24.1300
 20
12.1793
 30
0.0000
 42
1.0000
  0
VERTEX
  8
21
 10
24.1300
 20
12.2047
 30
0.0000
  0
VERTEX
  8
21
 10
8.1280
 20
12.2047
 30
0.0000
 42
1.0000
  0
SEQEND
  8
0
  0
POLYLINE
  8
21
 66
1
 10
0.0000
 20
0.0000
 30
0.0000
 40
0.0000
 41
0.0000
 70
1
  0
VERTEX
  8
21
 10
24.1427
 20
12.1920
 30
0.0000
  0
VERTEX
  8
21
 10
24.1427
 20
19.3040
 30
0.0000
 42
1.0000
  0
VERTEX
  8
21
 10
24.1173
 20
19.3040
 30
0.0000
  0
VERTEX
  8
21
 10
24.1173
 20
12.1920
 30
0.0000
 42
1.0000
  0
SEQEND
  8
0
  0
POLYLINE
  8
21
 66
1
 10
0.0000
 20
0.0000
 30
0.0000
 40
0.0000
 41
0.0000
 70
1
  0
VERTEX
  8
21
 10
24.1300
 20
19.2913
 30
0.0000
  0
VERTEX
  8
21
 10
48.7680
 20
19.2913
 30
0.0000
 42
1.0000
  0
VERTEX
  8
21
 10
48.7680
 20
19.3167
 30
0.0000
  0
VERTEX
  8
21
 10
24.1300
 20
19.3167
 30
0.0000
 42
1.0000
  0
SEQEND
  8
0
  0
POLYLINE
  8
21
 66
1
 10
0.0000
 20
0.0000
 30
0.0000
 40
0.0000
 41
0.0000
 70
1
  0
VERTEX
  8
21
 10
48.7553
 20
19.3040
 30
0.0000
  0
VERTEX
  8
21
 10
48.7553
 20
8.6360
 30
0.0000
 42
1.0000
  0
VERTEX
  8
21
 10
48.7807
 20
8.6360
 30
0.0000
  0
VERTEX
  8
21
 10
48.7807
 20
19.3040
 30
0.0000
 42
1.0000
  0
SEQEND
  8
0
  0
POLYLINE
  8
21
 66
1
 10
0.0000
 20
0.0000
 30
0.0000
 40
0.0000
 41
0.0000
 70
1
  0
VERTEX
  8
21
 10
48.7680
 20
8.6233
 30
0.0000
  0
VERTEX
  8
21
 10
53.0860
 20
8.6233
 30
0.0000
 42
1.0000
  0
VERTEX
  8
21
 10
53.0860
 20
8.6487
 30
0.0000
  0
VERTEX
  8
21
 10
48.7680
 20
8.6487
 30
0.0000
 42
1.0000
  0
SEQEND
  8
0
  0
POLYLINE
  8
21
 66
1
 10
0.0000
 20
0.0000
 30
0.0000
 40
0.0000
 41
0.0000
 70
1
  0
VERTEX
  8
21
 10
53.0733
 20
8.6360
 30
0.0000
  0
VERTEX
  8
21
 10
53.0733
 20
0.7620
 30
0.0000
 42
1.0000
  0
VERTEX
  8
21
 10
53.0987
 20
0.7620
 30
0.0000
  0
VERTEX
  8
21
 10
53.0987
 20
8.6360
 30
0.0000
 42
1.0000
  0
SEQEND
  8
0
  0
POLYLINE
  8
21
 66
1
 10
0.0000
 20
0.0000
 30
0.0000
 40
0.0000
 41
0.0000
 70
1
  0
VERTEX
  8
21
 10
53.0950
 20
0.7530
 30
0.0000
  0
VERTEX
  8
21
 10
61.2230
 20
8.8810
 30
0.0000
 42
1.0000
  0
VERTEX
  8
21
 10
61.2050
 20
8.8990
 30
0.0000
  0
VERTEX
  8
21
 10
53.0770
 20
0.7710
 30
0.0000
 42
1.0000
  0
SEQEND
  8
0
  0
POLYLINE
  8
21
 66
1
 10
0.0000
 20
0.0000
 30
0.0000
 40
0.0000
 41
0.0000
 70
1
  0
VERTEX
  8
21
 10
61.2267
 20
8.8900
 30
0.0000
  0
VERTEX
  8
21
 10
61.2267
 20
50.0380
 30
0.0000
 42
1.0000
  0
VERTEX
  8
21
 10
61.2013
 20
50.0380
 30
0.0000
  0
VERTEX
  8
21
 10
61.2013
 20
8.8900
 30
0.0000
 42
1.0000
  0
SEQEND
  8
0
  0
POLYLINE
  8
21
 66
1
 10
0.0000
 20
0.0000
 30
0.0000
 40
0.0000
 41
0.0000
 70
1
  0
VERTEX
  8
21
 10
61.2230
 20
50.0470
 30
0.0000
  0
VERTEX
  8
21
 10
52.3330
 20
58.9370
 30
0.0000
 42
1.0000
  0
VERTEX
  8
21
 10
52.3150
 20
58.9190
 30
0.0000
  0
VERTEX
  8
21
 10
61.2050
 20
50.0290
 30
0.0000
 42
1.0000
  0
SEQEND
  8
0
  0
POLYLINE
  8
21
 66
1
 10
0.0000
 20
0.0000
 30
0.0000
 40
0.0000
 41
0.0000
 70
1
  0
VERTEX
  8
21
 10
52.3240
 20
58.9407
 30
0.0000
  0
VERTEX
  8
21
 10
42.4180
 20
58.9407
 30
0.0000
 42
1.0000
  0
VERTEX
  8
21
 10
42.4180
 20
58.9153
 30
0.0000
  0
VERTEX
  8
21
 10
52.3240
 20
58.9153
 30
0.0000
 42
1.0000
  0
SEQEND
  8
0
  0
POLYLINE
  8
21
 66
1
 10
0.0000
 20
0.0000
 30
0.0000
 40
0.0000
 41
0.0000
 70
1
  0
VERTEX
  8
21
 10
42.4053
 20
58.9280
 30
0.0000
  0
VERTEX
  8
21
 10
42.4053
 20
39.6240
 30
0.0000
 42
1.0000
  0
VERTEX
  8
21
 10
42.4307
 20
39.6240
 30
0.0000
  0
VERTEX
  8
21
 10
42.4307
 20
58.9280
 30
0.0000
 42
1.0000
  0
SEQEND
  8
0
  0
POLYLINE
  8
21
 66
1
 10
0.0000
 20
0.0000
 30
0.0000
 40
0.0000
 41
0.0000
 70
1
  0
VERTEX
  8
21
 10
42.4180
 20
39.6367
 30
0.0000
  0
VERTEX
  8
21
 10
30.2260
 20
39.6367
 30
0.0000
 42
1.0000
  0
VERTEX
  8
21
 10
30.2260
 20
39.6113
 30
0.0000
  0
VERTEX
  8
21
 10
42.4180
 20
39.6113
 30
0.0000
 42
1.0000
  0
SEQEND
  8
0
  0
POLYLINE
  8
21
 66
1
 10
0.0000
 20
0.0000
 30
0.0000
 40
0.0000
 41
0.0000
 70
1
  0
VERTEX
  8
21
 10
30.2387
 20
39.6240
 30
0.0000
  0
VERTEX
  8
21
 10
30.2387
 20
58.9280
 30
0.0000
 42
1.0000
  0
VERTEX
  8
21
 10
30.2133
 20
58.9280
 30
0.0000
  0
VERTEX
  8
21
 10
30.2133
 20
39.6240
 30
0.0000
 42
1.0000
  0
SEQEND
  8
0
  0
CIRCLE
  8
20
 10
3.0480
 20
54.8640
 30
0.0000
 40
1.6000
  0
CIRCLE
  8
29
 10
3.0480
 20
54.8640
 30
0.0000
 40
1.7016
  0
CIRCLE
  8
30
 10
3.0480
 20
54.8640
 30
0.0000
 40
1.7016
  0
CIRCLE
  8
20
 10
58.1660
 20
10.1600
 30
0.0000
 40
1.6000
  0
CIRCLE
  8
29
 10
58.1660
 20
10.1600
 30
0.0000
 40
1.7016
  0
CIRCLE
  8
30
 10
58.1660
 20
10.1600
 30
0.0000
 40
1.7016
  0
CIRCLE
  8
20
 10
58.1660
 20
48.7680
 30
0.0000
 40
1.6000
  0
CIRCLE
  8
29
 10
58.1660
 20
48.7680
 30
0.0000
 40
1.7016
  0
CIRCLE
  8
30
 10
58.1660
 20
48.7680
 30
0.0000
 40
1.7016
  0
CIRCLE
  8
20
 10
3.0480
 20
4.0640
 30
0.0000
 40
1.6000
  0
CIRCLE
  8
29
 10
3.0480
 20
4.0640
 30
0.0000
 40
1.7016
  0
CIRCLE
  8
30
 10
3.0480
 20
4.0640
 30
0.0000
 40
1.7016
  0
CIRCLE
  8
20
 10
3.0480
 20
54.8640
 30
0.0000
 40
1.6000
  0
CIRCLE
  8
29
 10
3.0480
 20
54.8640
 30
0.0000
 40
1.7016
  0
CIRCLE
  8
30
 10
3.0480
 20
54.8640
 30
0.0000
 40
1.7016
  0
CIRCLE
  8
20
 10
58.1660
 20
10.1600
 30
0.0000
 40
1.6000
  0
CIRCLE
  8
29
 10
58.1660
 20
10.1600
 30
0.0000
 40
1.7016
  0
CIRCLE
  8
30
 10
58.1660
 20
10.1600
 30
0.0000
 40
1.7016
  0
CIRCLE
  8
20
 10
58.1660
 20
48.7680
 30
0.0000
 40
1.6000
  0
CIRCLE
  8
29
 10
58.1660
 20
48.7680
 30
0.0000
 40
1.7016
  0
CIRCLE
  8
30
 10
58.1660
 20
48.7680
 30
0.0000
 40
1.7016
  0
CIRCLE
  8
20
 10
3.0480
 20
4.0640
 30
0.0000
 40
1.6000
  0
CIRCLE
  8
29
 10
3.0480
 20
4.0640
 30
0.0000
 40
1.7016
  0
CIRCLE
  8
30
 10
3.0480
 20
4.0640
 30
0.0000
 40
1.7016
  0
ENDSEC
  0
EOF
