  0
SECTION
  2
HEADER
  9
$ACADVER
  1
AC1009
  9
$FILLMODE
 70
0
  9
$EXTMIN
 10
0.4953
 20
12.6873
 30
0.0000
  9
$EXTMAX
 10
68.3387
 20
29.4767
 30
0.0000
  0
ENDSEC
  0
SECTION
  2
TABLES
  0
TABLE
  2
LTYPE
 70
1
  0
LTYPE
  2
CONTINUOUS
 70
64
  3
Solid line
 72
65
 73
0
 40
0
  0
ENDTAB
  0
TABLE
  2
LAYER
 70
255
  0
LAYER
  2
1
 70
64
 62
22
  6
CONTINUOUS
  0
LAYER
  2
16
 70
64
 62
175
  6
CONTINUOUS
  0
LAYER
  2
17
 70
64
 62
82
  6
CONTINUOUS
  0
LAYER
  2
18
 70
64
 62
82
  6
CONTINUOUS
  0
LAYER
  2
19
 70
64
 62
53
  6
CONTINUOUS
  0
LAYER
  2
20
 70
64
 62
7
  6
CONTINUOUS
  0
LAYER
  2
21
 70
64
 62
253
  6
CONTINUOUS
  0
LAYER
  2
22
 70
64
 62
253
  6
CONTINUOUS
  0
LAYER
  2
23
 70
64
 62
7
  6
CONTINUOUS
  0
LAYER
  2
24
 70
64
 62
7
  6
CONTINUOUS
  0
LAYER
  2
25
 70
64
 62
253
  6
CONTINUOUS
  0
LAYER
  2
26
 70
64
 62
253
  6
CONTINUOUS
  0
LAYER
  2
27
 70
64
 62
253
  6
CONTINUOUS
  0
LAYER
  2
28
 70
64
 62
253
  6
CONTINUOUS
  0
LAYER
  2
29
 70
64
 62
253
  6
CONTINUOUS
  0
LAYER
  2
30
 70
64
 62
253
  6
CONTINUOUS
  0
LAYER
  2
31
 70
64
 62
253
  6
CONTINUOUS
  0
LAYER
  2
32
 70
64
 62
253
  6
CONTINUOUS
  0
LAYER
  2
33
 70
64
 62
53
  6
CONTINUOUS
  0
LAYER
  2
34
 70
64
 62
53
  6
CONTINUOUS
  0
LAYER
  2
35
 70
64
 62
253
  6
CONTINUOUS
  0
LAYER
  2
36
 70
64
 62
253
  6
CONTINUOUS
  0
LAYER
  2
37
 70
64
 62
253
  6
CONTINUOUS
  0
LAYER
  2
38
 70
64
 62
253
  6
CONTINUOUS
  0
LAYER
  2
39
 70
64
 62
22
  6
CONTINUOUS
  0
LAYER
  2
40
 70
64
 62
175
  6
CONTINUOUS
  0
LAYER
  2
41
 70
64
 62
22
  6
CONTINUOUS
  0
LAYER
  2
42
 70
64
 62
175
  6
CONTINUOUS
  0
LAYER
  2
43
 70
64
 62
82
  6
CONTINUOUS
  0
LAYER
  2
44
 70
64
 62
253
  6
CONTINUOUS
  0
LAYER
  2
45
 70
64
 62
253
  6
CONTINUOUS
  0
LAYER
  2
46
 70
64
 62
140
  6
CONTINUOUS
  0
LAYER
  2
47
 70
64
 62
253
  6
CONTINUOUS
  0
LAYER
  2
48
 70
64
 62
253
  6
CONTINUOUS
  0
LAYER
  2
49
 70
64
 62
253
  6
CONTINUOUS
  0
LAYER
  2
51
 70
64
 62
253
  6
CONTINUOUS
  0
LAYER
  2
52
 70
64
 62
253
  6
CONTINUOUS
  0
LAYER
  2
101
 70
64
 62
1
  6
CONTINUOUS
  0
LAYER
  2
102
 70
64
 62
253
  6
CONTINUOUS
  0
LAYER
  2
103
 70
64
 62
253
  6
CONTINUOUS
  0
LAYER
  2
104
 70
64
 62
251
  6
CONTINUOUS
  0
LAYER
  2
105
 70
64
 62
253
  6
CONTINUOUS
  0
LAYER
  2
106
 70
64
 62
253
  6
CONTINUOUS
  0
LAYER
  2
107
 70
64
 62
253
  6
CONTINUOUS
  0
LAYER
  2
116
 70
64
 62
5
  6
CONTINUOUS
  0
LAYER
  2
121
 70
64
 62
253
  6
CONTINUOUS
  0
LAYER
  2
122
 70
64
 62
253
  6
CONTINUOUS
  0
LAYER
  2
125
 70
64
 62
253
  6
CONTINUOUS
  0
LAYER
  2
144
 70
64
 62
253
  6
CONTINUOUS
  0
LAYER
  2
151
 70
64
 62
253
  6
CONTINUOUS
  0
LAYER
  2
199
 70
64
 62
253
  6
CONTINUOUS
  0
LAYER
  2
200
 70
64
 62
175
  6
CONTINUOUS
  0
LAYER
  2
201
 70
64
 62
82
  6
CONTINUOUS
  0
LAYER
  2
202
 70
64
 62
140
  6
CONTINUOUS
  0
LAYER
  2
203
 70
64
 62
22
  6
CONTINUOUS
  0
LAYER
  2
204
 70
64
 62
213
  6
CONTINUOUS
  0
LAYER
  2
205
 70
64
 62
53
  6
CONTINUOUS
  0
LAYER
  2
206
 70
64
 62
253
  6
CONTINUOUS
  0
LAYER
  2
207
 70
64
 62
250
  6
CONTINUOUS
  0
LAYER
  2
208
 70
64
 62
5
  6
CONTINUOUS
  0
LAYER
  2
209
 70
64
 62
253
  6
CONTINUOUS
  0
LAYER
  2
210
 70
64
 62
253
  6
CONTINUOUS
  0
LAYER
  2
211
 70
64
 62
253
  6
CONTINUOUS
  0
LAYER
  2
212
 70
64
 62
253
  6
CONTINUOUS
  0
LAYER
  2
213
 70
64
 62
253
  6
CONTINUOUS
  0
LAYER
  2
214
 70
64
 62
253
  6
CONTINUOUS
  0
LAYER
  2
215
 70
64
 62
253
  6
CONTINUOUS
  0
LAYER
  2
216
 70
64
 62
253
  6
CONTINUOUS
  0
LAYER
  2
254
 70
64
 62
253
  6
CONTINUOUS
  0
ENDTAB
  0
ENDSEC
  0
SECTION
  2
BLOCKS
  0
BLOCK
  8
0
  2
RECT
 70
64
 10
0.0000
 20
0.0000
 30
0.0000
  3
RECT
  0
SOLID
  8
0
 10
-0.5000
 20
-0.5000
 30
0.0000
 11
0.5000
 21
-0.5000
 31
0.0000
 12
-0.5000
 22
0.5000
 32
0.0000
 13
0.5000
 23
0.5000
 33
0.0000
  0
ENDBLK
  8
0
  0
BLOCK
  8
0
  2
PIE
 70
64
 10
0.0000
 20
0.0000
 30
0.0000
  3
PIE
  0
CIRCLE
  8
0
 10
0.0000
 20
0.0000
 30
0.0000
 40
0.5000
  0
ENDBLK
  8
0
  0
BLOCK
  8
0
  2
OCTAGONP
 70
64
 10
0.0000
 20
0.0000
 30
0.0000
  3
OCTAGONP
  0
POLYLINE
  8
0
 66
1
 10
0.0000
 20
0.0000
 30
0.0000
 40
0.0000
 41
0.0000
 70
1
  0
VERTEX
  8
0
 10
-0.5000
 20
-0.2071
 30
0.0000
  0
VERTEX
  8
0
 10
-0.5000
 20
0.2071
 30
0.0000
  0
VERTEX
  8
0
 10
-0.2071
 20
0.5000
 30
0.0000
  0
VERTEX
  8
0
 10
0.2071
 20
0.5000
 30
0.0000
  0
VERTEX
  8
0
 10
0.5000
 20
0.2071
 30
0.0000
  0
VERTEX
  8
0
 10
0.5000
 20
-0.2071
 30
0.0000
  0
VERTEX
  8
0
 10
0.2071
 20
-0.5000
 30
0.0000
  0
VERTEX
  8
0
 10
-0.2071
 20
-0.5000
 30
0.0000
  0
SEQEND
  8
0
  0
ENDBLK
  8
0
  0
BLOCK
  8
0
  2
SQUAREP
 70
64
 10
0.0000
 20
0.0000
 30
0.0000
  3
SQUAREP
  0
SOLID
  8
0
 10
-0.5000
 20
-0.5000
 30
0.0000
 11
0.5000
 21
-0.5000
 31
0.0000
 12
-0.5000
 22
0.5000
 32
0.0000
 13
0.5000
 23
0.5000
 33
0.0000
  0
ENDBLK
  8
0
  0
BLOCK
  8
0
  2
ROUNDP
 70
64
 10
0.0000
 20
0.0000
 30
0.0000
  3
ROUNDP
  0
CIRCLE
  8
0
 10
0.0000
 20
0.0000
 30
0.0000
 40
0.5000
  0
ENDBLK
  8
0
  0
BLOCK
  8
0
  2
ANNULUSP
 70
64
 10
0.0000
 20
0.0000
 30
0.0000
  3
ANNULUSP
  0
CIRCLE
  8
0
 10
0.0000
 20
0.0000
 30
0.0000
 40
0.5000
  0
ENDBLK
  8
0
  0
BLOCK
  8
0
  2
THERMALP
 70
64
 10
0.0000
 20
0.0000
 30
0.0000
  3
THERMALP
  0
POLYLINE
  8
0
 66
1
 10
0.0000
 20
0.0000
 30
0.0000
 40
0.0000
 41
0.0000
 70
1
  0
VERTEX
  8
0
 10
-0.2379
 20
0.4000
 30
0.0000
  0
VERTEX
  8
0
 10
0.2379
 20
0.4000
 30
0.0000
 42
1.0000
  0
VERTEX
  8
0
 10
0.2379
 20
0.5000
 30
0.0000
  0
VERTEX
  8
0
 10
-0.2379
 20
0.5000
 30
0.0000
 42
1.0000
  0
SEQEND
  8
0
  0
POLYLINE
  8
0
 66
1
 10
0.0000
 20
0.0000
 30
0.0000
 40
0.0000
 41
0.0000
 70
1
  0
VERTEX
  8
0
 10
0.4000
 20
0.2379
 30
0.0000
  0
VERTEX
  8
0
 10
0.4000
 20
-0.2379
 30
0.0000
 42
1.0000
  0
VERTEX
  8
0
 10
0.5000
 20
-0.2379
 30
0.0000
  0
VERTEX
  8
0
 10
0.5000
 20
0.2379
 30
0.0000
 42
1.0000
  0
SEQEND
  8
0
  0
POLYLINE
  8
0
 66
1
 10
0.0000
 20
0.0000
 30
0.0000
 40
0.0000
 41
0.0000
 70
1
  0
VERTEX
  8
0
 10
0.2379
 20
-0.4000
 30
0.0000
  0
VERTEX
  8
0
 10
-0.2379
 20
-0.4000
 30
0.0000
 42
1.0000
  0
VERTEX
  8
0
 10
-0.2379
 20
-0.5000
 30
0.0000
  0
VERTEX
  8
0
 10
0.2379
 20
-0.5000
 30
0.0000
 42
1.0000
  0
SEQEND
  8
0
  0
POLYLINE
  8
0
 66
1
 10
0.0000
 20
0.0000
 30
0.0000
 40
0.0000
 41
0.0000
 70
1
  0
VERTEX
  8
0
 10
-0.4000
 20
-0.2379
 30
0.0000
  0
VERTEX
  8
0
 10
-0.4000
 20
0.2379
 30
0.0000
 42
1.0000
  0
VERTEX
  8
0
 10
-0.5000
 20
0.2379
 30
0.0000
  0
VERTEX
  8
0
 10
-0.5000
 20
-0.2379
 30
0.0000
 42
1.0000
  0
SEQEND
  8
0
  0
ENDBLK
  8
0
  0
BLOCK
  8
0
  2
OCTAGONV
 70
64
 10
0.0000
 20
0.0000
 30
0.0000
  3
OCTAGONV
  0
POLYLINE
  8
0
 66
1
 10
0.0000
 20
0.0000
 30
0.0000
 40
0.0000
 41
0.0000
 70
1
  0
VERTEX
  8
0
 10
-0.5000
 20
-0.2071
 30
0.0000
  0
VERTEX
  8
0
 10
-0.5000
 20
0.2071
 30
0.0000
  0
VERTEX
  8
0
 10
-0.2071
 20
0.5000
 30
0.0000
  0
VERTEX
  8
0
 10
0.2071
 20
0.5000
 30
0.0000
  0
VERTEX
  8
0
 10
0.5000
 20
0.2071
 30
0.0000
  0
VERTEX
  8
0
 10
0.5000
 20
-0.2071
 30
0.0000
  0
VERTEX
  8
0
 10
0.2071
 20
-0.5000
 30
0.0000
  0
VERTEX
  8
0
 10
-0.2071
 20
-0.5000
 30
0.0000
  0
SEQEND
  8
0
  0
ENDBLK
  8
0
  0
BLOCK
  8
0
  2
SQUAREV
 70
64
 10
0.0000
 20
0.0000
 30
0.0000
  3
SQUAREV
  0
SOLID
  8
0
 10
-0.5000
 20
-0.5000
 30
0.0000
 11
0.5000
 21
-0.5000
 31
0.0000
 12
-0.5000
 22
0.5000
 32
0.0000
 13
0.5000
 23
0.5000
 33
0.0000
  0
ENDBLK
  8
0
  0
BLOCK
  8
0
  2
ROUNDV
 70
64
 10
0.0000
 20
0.0000
 30
0.0000
  3
ROUNDV
  0
CIRCLE
  8
0
 10
0.0000
 20
0.0000
 30
0.0000
 40
0.5000
  0
ENDBLK
  8
0
  0
BLOCK
  8
0
  2
ANNULUSV
 70
64
 10
0.0000
 20
0.0000
 30
0.0000
  3
ANNULUSV
  0
CIRCLE
  8
0
 10
0.0000
 20
0.0000
 30
0.0000
 40
0.5000
  0
ENDBLK
  8
0
  0
BLOCK
  8
0
  2
THERMALV
 70
64
 10
0.0000
 20
0.0000
 30
0.0000
  3
THERMALV
  0
POLYLINE
  8
0
 66
1
 10
0.0000
 20
0.0000
 30
0.0000
 40
0.0000
 41
0.0000
 70
1
  0
VERTEX
  8
0
 10
-0.2379
 20
0.4000
 30
0.0000
  0
VERTEX
  8
0
 10
0.2379
 20
0.4000
 30
0.0000
 42
1.0000
  0
VERTEX
  8
0
 10
0.2379
 20
0.5000
 30
0.0000
  0
VERTEX
  8
0
 10
-0.2379
 20
0.5000
 30
0.0000
 42
1.0000
  0
SEQEND
  8
0
  0
POLYLINE
  8
0
 66
1
 10
0.0000
 20
0.0000
 30
0.0000
 40
0.0000
 41
0.0000
 70
1
  0
VERTEX
  8
0
 10
0.4000
 20
0.2379
 30
0.0000
  0
VERTEX
  8
0
 10
0.4000
 20
-0.2379
 30
0.0000
 42
1.0000
  0
VERTEX
  8
0
 10
0.5000
 20
-0.2379
 30
0.0000
  0
VERTEX
  8
0
 10
0.5000
 20
0.2379
 30
0.0000
 42
1.0000
  0
SEQEND
  8
0
  0
POLYLINE
  8
0
 66
1
 10
0.0000
 20
0.0000
 30
0.0000
 40
0.0000
 41
0.0000
 70
1
  0
VERTEX
  8
0
 10
0.2379
 20
-0.4000
 30
0.0000
  0
VERTEX
  8
0
 10
-0.2379
 20
-0.4000
 30
0.0000
 42
1.0000
  0
VERTEX
  8
0
 10
-0.2379
 20
-0.5000
 30
0.0000
  0
VERTEX
  8
0
 10
0.2379
 20
-0.5000
 30
0.0000
 42
1.0000
  0
SEQEND
  8
0
  0
POLYLINE
  8
0
 66
1
 10
0.0000
 20
0.0000
 30
0.0000
 40
0.0000
 41
0.0000
 70
1
  0
VERTEX
  8
0
 10
-0.4000
 20
-0.2379
 30
0.0000
  0
VERTEX
  8
0
 10
-0.4000
 20
0.2379
 30
0.0000
 42
1.0000
  0
VERTEX
  8
0
 10
-0.5000
 20
0.2379
 30
0.0000
  0
VERTEX
  8
0
 10
-0.5000
 20
-0.2379
 30
0.0000
 42
1.0000
  0
SEQEND
  8
0
  0
ENDBLK
  8
0
  0
ENDSEC
  0
SECTION
  2
ENTITIES
  0
POLYLINE
  8
20
 66
1
 10
0.0000
 20
0.0000
 30
0.0000
 40
0.0000
 41
0.0000
 70
1
  0
VERTEX
  8
20
 10
0.4953
 20
20.0660
 30
0.0000
  0
VERTEX
  8
20
 10
0.4953
 20
14.9860
 30
0.0000
 42
1.0000
  0
VERTEX
  8
20
 10
0.5207
 20
14.9860
 30
0.0000
  0
VERTEX
  8
20
 10
0.5207
 20
20.0660
 30
0.0000
 42
1.0000
  0
SEQEND
  8
0
  0
POLYLINE
  8
20
 66
1
 10
0.0000
 20
0.0000
 30
0.0000
 40
0.0000
 41
0.0000
 70
1
  0
VERTEX
  8
20
 10
68.3387
 20
14.9860
 30
0.0000
  0
VERTEX
  8
20
 10
68.3387
 20
20.0660
 30
0.0000
 42
1.0000
  0
VERTEX
  8
20
 10
68.3133
 20
20.0660
 30
0.0000
  0
VERTEX
  8
20
 10
68.3133
 20
14.9860
 30
0.0000
 42
1.0000
  0
SEQEND
  8
0
  0
POLYLINE
  8
20
 66
1
 10
0.0000
 20
0.0000
 30
0.0000
 40
0.0000
 41
0.0000
 70
1
  0
VERTEX
  8
20
 10
68.3307
 20
20.0778
 30
0.0000
  0
VERTEX
  8
20
 10
44.7087
 20
29.4758
 30
0.0000
 42
1.0000
  0
VERTEX
  8
20
 10
44.6993
 20
29.4522
 30
0.0000
  0
VERTEX
  8
20
 10
68.3213
 20
20.0542
 30
0.0000
 42
1.0000
  0
SEQEND
  8
0
  0
POLYLINE
  8
20
 66
1
 10
0.0000
 20
0.0000
 30
0.0000
 40
0.0000
 41
0.0000
 70
1
  0
VERTEX
  8
20
 10
44.7040
 20
29.4767
 30
0.0000
  0
VERTEX
  8
20
 10
23.8760
 20
29.4767
 30
0.0000
 42
1.0000
  0
VERTEX
  8
20
 10
23.8760
 20
29.4513
 30
0.0000
  0
VERTEX
  8
20
 10
44.7040
 20
29.4513
 30
0.0000
 42
1.0000
  0
SEQEND
  8
0
  0
POLYLINE
  8
20
 66
1
 10
0.0000
 20
0.0000
 30
0.0000
 40
0.0000
 41
0.0000
 70
1
  0
VERTEX
  8
20
 10
23.8713
 20
29.4758
 30
0.0000
  0
VERTEX
  8
20
 10
0.5033
 20
20.0778
 30
0.0000
 42
1.0000
  0
VERTEX
  8
20
 10
0.5127
 20
20.0542
 30
0.0000
  0
VERTEX
  8
20
 10
23.8807
 20
29.4522
 30
0.0000
 42
1.0000
  0
SEQEND
  8
0
  0
POLYLINE
  8
20
 66
1
 10
0.0000
 20
0.0000
 30
0.0000
 40
0.0000
 41
0.0000
 70
1
  0
VERTEX
  8
20
 10
30.9833
 20
22.1098
 30
0.0000
  0
VERTEX
  8
20
 10
7.6153
 20
12.7118
 30
0.0000
 42
1.0000
  0
VERTEX
  8
20
 10
7.6247
 20
12.6882
 30
0.0000
  0
VERTEX
  8
20
 10
30.9927
 20
22.0862
 30
0.0000
 42
1.0000
  0
SEQEND
  8
0
  0
POLYLINE
  8
21
 66
1
 10
0.0000
 20
0.0000
 30
0.0000
 40
0.0000
 41
0.0000
 70
1
  0
VERTEX
  8
21
 10
7.6200
 20
12.7127
 30
0.0000
  0
VERTEX
  8
21
 10
2.7940
 20
12.7127
 30
0.0000
 42
1.0000
  0
VERTEX
  8
21
 10
2.7940
 20
12.6873
 30
0.0000
  0
VERTEX
  8
21
 10
7.6200
 20
12.6873
 30
0.0000
 42
1.0000
  0
SEQEND
  8
0
  0
POLYLINE
  8
21
 66
1
 10
0.0000
 20
0.0000
 30
0.0000
 40
0.0000
 41
0.0000
 70
1
  0
VERTEX
  8
21
 10
2.8030
 20
12.7090
 30
0.0000
  0
VERTEX
  8
21
 10
0.5170
 20
14.9950
 30
0.0000
 42
1.0000
  0
VERTEX
  8
21
 10
0.4990
 20
14.9770
 30
0.0000
  0
VERTEX
  8
21
 10
2.7850
 20
12.6910
 30
0.0000
 42
1.0000
  0
SEQEND
  8
0
  0
POLYLINE
  8
20
 66
1
 10
0.0000
 20
0.0000
 30
0.0000
 40
0.0000
 41
0.0000
 70
1
  0
VERTEX
  8
20
 10
61.2187
 20
12.7118
 30
0.0000
  0
VERTEX
  8
20
 10
37.5967
 20
22.1098
 30
0.0000
 42
1.0000
  0
VERTEX
  8
20
 10
37.5873
 20
22.0862
 30
0.0000
  0
VERTEX
  8
20
 10
61.2093
 20
12.6882
 30
0.0000
 42
1.0000
  0
SEQEND
  8
0
  0
POLYLINE
  8
21
 66
1
 10
0.0000
 20
0.0000
 30
0.0000
 40
0.0000
 41
0.0000
 70
1
  0
VERTEX
  8
21
 10
30.9880
 20
22.0853
 30
0.0000
  0
VERTEX
  8
21
 10
37.5920
 20
22.0853
 30
0.0000
 42
1.0000
  0
VERTEX
  8
21
 10
37.5920
 20
22.1107
 30
0.0000
  0
VERTEX
  8
21
 10
30.9880
 20
22.1107
 30
0.0000
 42
1.0000
  0
SEQEND
  8
0
  0
POLYLINE
  8
21
 66
1
 10
0.0000
 20
0.0000
 30
0.0000
 40
0.0000
 41
0.0000
 70
1
  0
VERTEX
  8
21
 10
68.3170
 20
14.9950
 30
0.0000
  0
VERTEX
  8
21
 10
66.0310
 20
12.7090
 30
0.0000
 42
1.0000
  0
VERTEX
  8
21
 10
66.0490
 20
12.6910
 30
0.0000
  0
VERTEX
  8
21
 10
68.3350
 20
14.9770
 30
0.0000
 42
1.0000
  0
SEQEND
  8
0
  0
POLYLINE
  8
21
 66
1
 10
0.0000
 20
0.0000
 30
0.0000
 40
0.0000
 41
0.0000
 70
1
  0
VERTEX
  8
21
 10
66.0400
 20
12.7127
 30
0.0000
  0
VERTEX
  8
21
 10
61.2140
 20
12.7127
 30
0.0000
 42
1.0000
  0
VERTEX
  8
21
 10
61.2140
 20
12.6873
 30
0.0000
  0
VERTEX
  8
21
 10
66.0400
 20
12.6873
 30
0.0000
 42
1.0000
  0
SEQEND
  8
0
  0
CIRCLE
  8
21
 10
5.0800
 20
15.1130
 30
0.0000
 40
0.4543
  0
CIRCLE
  8
21
 10
5.0800
 20
15.1130
 30
0.0000
 40
0.4797
  0
CIRCLE
  8
21
 10
5.0800
 20
17.2466
 30
0.0000
 40
0.4543
  0
CIRCLE
  8
21
 10
5.0800
 20
17.2466
 30
0.0000
 40
0.4797
  0
CIRCLE
  8
21
 10
7.6454
 20
17.2466
 30
0.0000
 40
0.4543
  0
CIRCLE
  8
21
 10
7.6454
 20
17.2466
 30
0.0000
 40
0.4797
  0
CIRCLE
  8
21
 10
7.6454
 20
15.1384
 30
0.0000
 40
0.4543
  0
CIRCLE
  8
21
 10
7.6454
 20
15.1384
 30
0.0000
 40
0.4797
  0
CIRCLE
  8
21
 10
16.2560
 20
22.2504
 30
0.0000
 40
0.4543
  0
CIRCLE
  8
21
 10
16.2560
 20
22.2504
 30
0.0000
 40
0.4797
  0
CIRCLE
  8
21
 10
18.7960
 20
22.2250
 30
0.0000
 40
0.4543
  0
CIRCLE
  8
21
 10
18.7960
 20
22.2250
 30
0.0000
 40
0.4797
  0
CIRCLE
  8
21
 10
16.2560
 20
20.1422
 30
0.0000
 40
0.4543
  0
CIRCLE
  8
21
 10
16.2560
 20
20.1422
 30
0.0000
 40
0.4797
  0
CIRCLE
  8
21
 10
18.7960
 20
20.1422
 30
0.0000
 40
0.4543
  0
CIRCLE
  8
21
 10
18.7960
 20
20.1422
 30
0.0000
 40
0.4797
  0
CIRCLE
  8
21
 10
60.9854
 20
17.2212
 30
0.0000
 40
0.4543
  0
CIRCLE
  8
21
 10
60.9854
 20
17.2212
 30
0.0000
 40
0.4797
  0
CIRCLE
  8
21
 10
63.5000
 20
17.2466
 30
0.0000
 40
0.4543
  0
CIRCLE
  8
21
 10
63.5000
 20
17.2466
 30
0.0000
 40
0.4797
  0
CIRCLE
  8
21
 10
60.9600
 20
15.1384
 30
0.0000
 40
0.4543
  0
CIRCLE
  8
21
 10
60.9600
 20
15.1384
 30
0.0000
 40
0.4797
  0
CIRCLE
  8
21
 10
63.5254
 20
15.1384
 30
0.0000
 40
0.4543
  0
CIRCLE
  8
21
 10
63.5254
 20
15.1384
 30
0.0000
 40
0.4797
  0
CIRCLE
  8
21
 10
52.3240
 20
22.2250
 30
0.0000
 40
0.4543
  0
CIRCLE
  8
21
 10
52.3240
 20
22.2250
 30
0.0000
 40
0.4797
  0
CIRCLE
  8
21
 10
49.7840
 20
22.2250
 30
0.0000
 40
0.4543
  0
CIRCLE
  8
21
 10
49.7840
 20
22.2250
 30
0.0000
 40
0.4797
  0
CIRCLE
  8
21
 10
49.7840
 20
20.1168
 30
0.0000
 40
0.4543
  0
CIRCLE
  8
21
 10
49.7840
 20
20.1168
 30
0.0000
 40
0.4797
  0
CIRCLE
  8
21
 10
52.3240
 20
20.1168
 30
0.0000
 40
0.4543
  0
CIRCLE
  8
21
 10
52.3240
 20
20.1168
 30
0.0000
 40
0.4797
  0
CIRCLE
  8
21
 10
27.4066
 20
26.5430
 30
0.0000
 40
0.4543
  0
CIRCLE
  8
21
 10
27.4066
 20
26.5430
 30
0.0000
 40
0.4797
  0
CIRCLE
  8
21
 10
29.9720
 20
26.5430
 30
0.0000
 40
0.4543
  0
CIRCLE
  8
21
 10
29.9720
 20
26.5430
 30
0.0000
 40
0.4797
  0
CIRCLE
  8
21
 10
27.4320
 20
23.7744
 30
0.0000
 40
0.4543
  0
CIRCLE
  8
21
 10
27.4320
 20
23.7744
 30
0.0000
 40
0.4797
  0
CIRCLE
  8
21
 10
29.9720
 20
23.7744
 30
0.0000
 40
0.4543
  0
CIRCLE
  8
21
 10
29.9720
 20
23.7744
 30
0.0000
 40
0.4797
  0
CIRCLE
  8
21
 10
38.6080
 20
26.4922
 30
0.0000
 40
0.4543
  0
CIRCLE
  8
21
 10
38.6080
 20
26.4922
 30
0.0000
 40
0.4797
  0
CIRCLE
  8
21
 10
41.1480
 20
26.4922
 30
0.0000
 40
0.4543
  0
CIRCLE
  8
21
 10
41.1480
 20
26.4922
 30
0.0000
 40
0.4797
  0
CIRCLE
  8
21
 10
41.1480
 20
23.7998
 30
0.0000
 40
0.4543
  0
CIRCLE
  8
21
 10
41.1480
 20
23.7998
 30
0.0000
 40
0.4797
  0
CIRCLE
  8
21
 10
38.6080
 20
23.8252
 30
0.0000
 40
0.4543
  0
CIRCLE
  8
21
 10
38.6080
 20
23.8252
 30
0.0000
 40
0.4797
  0
CIRCLE
  8
20
 10
27.5590
 20
15.4940
 30
0.0000
 40
1.1430
  0
CIRCLE
  8
29
 10
27.5590
 20
15.4940
 30
0.0000
 40
1.2446
  0
CIRCLE
  8
30
 10
27.5590
 20
15.4940
 30
0.0000
 40
1.2446
  0
CIRCLE
  8
20
 10
41.0210
 20
15.4940
 30
0.0000
 40
1.1430
  0
CIRCLE
  8
29
 10
41.0210
 20
15.4940
 30
0.0000
 40
1.2446
  0
CIRCLE
  8
30
 10
41.0210
 20
15.4940
 30
0.0000
 40
1.2446
  0
ENDSEC
  0
EOF
