G75*
G70*
%OFA0B0*%
%FSLAX24Y24*%
%IPPOS*%
%LPD*%
%AMOC8*
5,1,8,0,0,1.08239X$1,22.5*
%
%ADD10C,0.0130*%
%ADD11R,0.5906X0.7087*%
%ADD12R,1.0630X0.3937*%
%ADD13C,0.0050*%
%ADD14C,0.0060*%
%ADD15C,0.0020*%
%ADD16R,0.0350X0.0500*%
%ADD17C,0.0080*%
%ADD18C,0.0040*%
%ADD19R,0.0659X0.7461*%
%ADD20R,0.0200X0.0736*%
%ADD21R,0.0250X0.0335*%
%ADD22R,0.0736X0.0200*%
%ADD23R,0.0335X0.0250*%
D10*
X027698Y021309D02*
X027942Y021065D01*
X028185Y021309D01*
X028185Y021796D01*
X028490Y021796D02*
X028734Y021796D01*
X028612Y021796D02*
X028612Y021065D01*
X028490Y021065D02*
X028734Y021065D01*
X029018Y021065D02*
X029018Y021796D01*
X029505Y021065D01*
X029505Y021796D01*
X029447Y022265D02*
X029082Y022265D01*
X029082Y022996D01*
X029447Y022996D01*
X029569Y022874D01*
X029569Y022387D01*
X029447Y022265D01*
X028777Y022265D02*
X028777Y022996D01*
X028290Y022996D02*
X028777Y022265D01*
X028290Y022265D02*
X028290Y022996D01*
X027985Y022874D02*
X027864Y022996D01*
X027620Y022996D01*
X027498Y022874D01*
X027498Y022387D01*
X027620Y022265D01*
X027864Y022265D01*
X027985Y022387D01*
X027985Y022630D01*
X027742Y022630D01*
X027698Y021796D02*
X027698Y021309D01*
D11*
X011381Y008843D03*
X011386Y024957D03*
D12*
X011386Y023382D03*
X011381Y010418D03*
D13*
X015324Y007868D02*
X015435Y007757D01*
X015091Y007323D02*
X016257Y006157D01*
X016690Y006502D02*
X016802Y006390D01*
X016142Y007050D02*
X015983Y007209D01*
X015090Y007324D02*
X015099Y007383D01*
X015111Y007442D01*
X015127Y007500D01*
X015145Y007557D01*
X015168Y007613D01*
X015193Y007667D01*
X015221Y007720D01*
X015252Y007772D01*
X015286Y007821D01*
X015323Y007868D01*
X015364Y007915D01*
X015408Y007960D01*
X015455Y008001D01*
X015503Y008040D01*
X015554Y008076D01*
X015607Y008109D01*
X015662Y008139D01*
X015719Y008165D01*
X015777Y008188D01*
X015836Y008207D01*
X015897Y008223D01*
X015958Y008235D01*
X016020Y008244D01*
X016082Y008249D01*
X016144Y008250D01*
X016207Y008247D01*
X016269Y008241D01*
X016330Y008231D01*
X016391Y008218D01*
X016451Y008201D01*
X016510Y008180D01*
X016568Y008156D01*
X016624Y008128D01*
X017061Y007691D02*
X017089Y007633D01*
X017114Y007575D01*
X017135Y007515D01*
X017152Y007453D01*
X017165Y007391D01*
X017175Y007328D01*
X017181Y007265D01*
X017183Y007201D01*
X017181Y007138D01*
X017175Y007074D01*
X017166Y007012D01*
X017153Y006949D01*
X017136Y006888D01*
X017115Y006828D01*
X017091Y006769D01*
X017063Y006712D01*
X017031Y006657D01*
X016997Y006603D01*
X016959Y006552D01*
X016918Y006503D01*
X016875Y006457D01*
X016828Y006413D01*
X016779Y006373D01*
X016728Y006335D01*
X016675Y006301D01*
X016619Y006269D01*
X016562Y006242D01*
X016503Y006217D01*
X016443Y006197D01*
X016382Y006180D01*
X016319Y006167D01*
X016256Y006157D01*
X018091Y007323D02*
X019257Y006157D01*
X019690Y006502D02*
X019802Y006390D01*
X019142Y007050D02*
X018983Y007209D01*
X018090Y007324D02*
X018099Y007383D01*
X018111Y007442D01*
X018127Y007500D01*
X018145Y007557D01*
X018168Y007613D01*
X018193Y007667D01*
X018221Y007720D01*
X018252Y007772D01*
X018286Y007821D01*
X018323Y007868D01*
X018324Y007868D02*
X018435Y007757D01*
X018323Y007868D02*
X018364Y007915D01*
X018408Y007960D01*
X018455Y008001D01*
X018503Y008040D01*
X018554Y008076D01*
X018607Y008109D01*
X018662Y008139D01*
X018719Y008165D01*
X018777Y008188D01*
X018836Y008207D01*
X018897Y008223D01*
X018958Y008235D01*
X019020Y008244D01*
X019082Y008249D01*
X019144Y008250D01*
X019207Y008247D01*
X019269Y008241D01*
X019330Y008231D01*
X019391Y008218D01*
X019451Y008201D01*
X019510Y008180D01*
X019568Y008156D01*
X019624Y008128D01*
X020061Y007691D02*
X020089Y007633D01*
X020114Y007575D01*
X020135Y007515D01*
X020152Y007453D01*
X020165Y007391D01*
X020175Y007328D01*
X020181Y007265D01*
X020183Y007201D01*
X020181Y007138D01*
X020175Y007074D01*
X020166Y007012D01*
X020153Y006949D01*
X020136Y006888D01*
X020115Y006828D01*
X020091Y006769D01*
X020063Y006712D01*
X020031Y006657D01*
X019997Y006603D01*
X019959Y006552D01*
X019918Y006503D01*
X019875Y006457D01*
X019828Y006413D01*
X019779Y006373D01*
X019728Y006335D01*
X019675Y006301D01*
X019619Y006269D01*
X019562Y006242D01*
X019503Y006217D01*
X019443Y006197D01*
X019382Y006180D01*
X019319Y006167D01*
X019256Y006157D01*
D14*
X022014Y006138D02*
X023653Y006138D01*
X023653Y006862D01*
X022014Y006862D01*
X022014Y006138D01*
X022233Y006500D02*
X022833Y006500D01*
X022833Y006750D01*
X022833Y006500D02*
X022833Y006250D01*
X022833Y006500D02*
X022433Y006250D01*
X022433Y006750D01*
X022833Y006500D01*
X023083Y006500D01*
X023653Y007538D02*
X022014Y007538D01*
X022014Y008262D01*
X023653Y008262D01*
X023653Y007538D01*
X023083Y007900D02*
X022833Y007900D01*
X022833Y008150D01*
X022833Y007900D02*
X022233Y007900D01*
X022433Y007650D02*
X022833Y007900D01*
X022833Y007650D01*
X022833Y007900D02*
X022433Y008150D01*
X022433Y007650D01*
X022014Y009238D02*
X023653Y009238D01*
X023653Y009962D01*
X022014Y009962D01*
X022014Y009238D01*
X022433Y009350D02*
X022833Y009600D01*
X022833Y009850D01*
X022833Y009600D02*
X022833Y009350D01*
X022833Y009600D02*
X022233Y009600D01*
X022433Y009850D02*
X022833Y009600D01*
X023083Y009600D01*
X022433Y009350D02*
X022433Y009850D01*
X022014Y010638D02*
X022014Y011362D01*
X023653Y011362D01*
X023653Y010638D01*
X022014Y010638D01*
X022583Y011000D02*
X022833Y011000D01*
X022833Y010750D01*
X022833Y011000D02*
X022833Y011250D01*
X022833Y011000D02*
X023233Y011250D01*
X023233Y010750D01*
X022833Y011000D01*
X023433Y011000D01*
X019733Y010850D02*
X019633Y010850D01*
X019633Y010750D01*
X019633Y010850D02*
X019533Y010850D01*
X019633Y010850D02*
X019633Y010950D01*
X018133Y010300D02*
X018135Y010363D01*
X018141Y010425D01*
X018151Y010487D01*
X018164Y010549D01*
X018182Y010609D01*
X018203Y010668D01*
X018228Y010726D01*
X018257Y010782D01*
X018289Y010836D01*
X018324Y010888D01*
X018362Y010937D01*
X018404Y010985D01*
X018448Y011029D01*
X018496Y011071D01*
X018545Y011109D01*
X018597Y011144D01*
X018651Y011176D01*
X018707Y011205D01*
X018765Y011230D01*
X018824Y011251D01*
X018884Y011269D01*
X018946Y011282D01*
X019008Y011292D01*
X019070Y011298D01*
X019133Y011300D01*
X019196Y011298D01*
X019258Y011292D01*
X019320Y011282D01*
X019382Y011269D01*
X019442Y011251D01*
X019501Y011230D01*
X019559Y011205D01*
X019615Y011176D01*
X019669Y011144D01*
X019721Y011109D01*
X019770Y011071D01*
X019818Y011029D01*
X019862Y010985D01*
X019904Y010937D01*
X019942Y010888D01*
X019977Y010836D01*
X020009Y010782D01*
X020038Y010726D01*
X020063Y010668D01*
X020084Y010609D01*
X020102Y010549D01*
X020115Y010487D01*
X020125Y010425D01*
X020131Y010363D01*
X020133Y010300D01*
X020131Y010237D01*
X020125Y010175D01*
X020115Y010113D01*
X020102Y010051D01*
X020084Y009991D01*
X020063Y009932D01*
X020038Y009874D01*
X020009Y009818D01*
X019977Y009764D01*
X019942Y009712D01*
X019904Y009663D01*
X019862Y009615D01*
X019818Y009571D01*
X019770Y009529D01*
X019721Y009491D01*
X019669Y009456D01*
X019615Y009424D01*
X019559Y009395D01*
X019501Y009370D01*
X019442Y009349D01*
X019382Y009331D01*
X019320Y009318D01*
X019258Y009308D01*
X019196Y009302D01*
X019133Y009300D01*
X019070Y009302D01*
X019008Y009308D01*
X018946Y009318D01*
X018884Y009331D01*
X018824Y009349D01*
X018765Y009370D01*
X018707Y009395D01*
X018651Y009424D01*
X018597Y009456D01*
X018545Y009491D01*
X018496Y009529D01*
X018448Y009571D01*
X018404Y009615D01*
X018362Y009663D01*
X018324Y009712D01*
X018289Y009764D01*
X018257Y009818D01*
X018228Y009874D01*
X018203Y009932D01*
X018182Y009991D01*
X018164Y010051D01*
X018151Y010113D01*
X018141Y010175D01*
X018135Y010237D01*
X018133Y010300D01*
X018133Y013200D02*
X016733Y013200D01*
X016733Y013300D01*
X016733Y020500D02*
X016733Y020600D01*
X018133Y020600D01*
X019171Y022080D02*
X019896Y022080D01*
X019896Y023720D01*
X019171Y023720D01*
X019171Y022080D01*
X019533Y022650D02*
X019533Y022900D01*
X019783Y022900D01*
X019533Y022900D02*
X019283Y022900D01*
X019533Y022900D02*
X019283Y023300D01*
X019783Y023300D01*
X019533Y022900D01*
X019533Y023500D01*
X020133Y024350D02*
X025033Y024350D01*
X025033Y024700D01*
X025633Y024700D01*
X025633Y024350D01*
X026383Y024350D01*
X026383Y028450D01*
X025633Y028450D01*
X025633Y028100D01*
X025033Y028100D01*
X025033Y028450D01*
X020133Y028450D01*
X020133Y024350D01*
X022014Y023962D02*
X022014Y023238D01*
X023653Y023238D01*
X023653Y023962D01*
X022014Y023962D01*
X022583Y023600D02*
X022833Y023600D01*
X022833Y023350D01*
X022833Y023600D02*
X022833Y023850D01*
X022833Y023600D02*
X023233Y023850D01*
X023233Y023350D01*
X022833Y023600D01*
X023433Y023600D01*
X023653Y022862D02*
X023653Y022138D01*
X022014Y022138D01*
X022014Y022862D01*
X023653Y022862D01*
X023083Y022500D02*
X022833Y022500D01*
X022833Y022750D01*
X022833Y022500D02*
X022233Y022500D01*
X022433Y022250D02*
X022833Y022500D01*
X022833Y022250D01*
X022833Y022500D02*
X022433Y022750D01*
X022433Y022250D01*
X022014Y021762D02*
X022014Y021038D01*
X023653Y021038D01*
X023653Y021762D01*
X022014Y021762D01*
X022433Y021650D02*
X022833Y021400D01*
X022833Y021650D01*
X022833Y021400D02*
X022233Y021400D01*
X022433Y021150D02*
X022833Y021400D01*
X022833Y021150D01*
X022833Y021400D02*
X023083Y021400D01*
X022433Y021150D02*
X022433Y021650D01*
X024323Y026400D02*
X024325Y026453D01*
X024331Y026506D01*
X024341Y026558D01*
X024355Y026609D01*
X024372Y026659D01*
X024393Y026708D01*
X024418Y026755D01*
X024446Y026800D01*
X024478Y026843D01*
X024513Y026883D01*
X024550Y026920D01*
X024590Y026955D01*
X024633Y026987D01*
X024678Y027015D01*
X024725Y027040D01*
X024774Y027061D01*
X024824Y027078D01*
X024875Y027092D01*
X024927Y027102D01*
X024980Y027108D01*
X025033Y027110D01*
X025086Y027108D01*
X025139Y027102D01*
X025191Y027092D01*
X025242Y027078D01*
X025292Y027061D01*
X025341Y027040D01*
X025388Y027015D01*
X025433Y026987D01*
X025476Y026955D01*
X025516Y026920D01*
X025553Y026883D01*
X025588Y026843D01*
X025620Y026800D01*
X025648Y026755D01*
X025673Y026708D01*
X025694Y026659D01*
X025711Y026609D01*
X025725Y026558D01*
X025735Y026506D01*
X025741Y026453D01*
X025743Y026400D01*
X025741Y026347D01*
X025735Y026294D01*
X025725Y026242D01*
X025711Y026191D01*
X025694Y026141D01*
X025673Y026092D01*
X025648Y026045D01*
X025620Y026000D01*
X025588Y025957D01*
X025553Y025917D01*
X025516Y025880D01*
X025476Y025845D01*
X025433Y025813D01*
X025388Y025785D01*
X025341Y025760D01*
X025292Y025739D01*
X025242Y025722D01*
X025191Y025708D01*
X025139Y025698D01*
X025086Y025692D01*
X025033Y025690D01*
X024980Y025692D01*
X024927Y025698D01*
X024875Y025708D01*
X024824Y025722D01*
X024774Y025739D01*
X024725Y025760D01*
X024678Y025785D01*
X024633Y025813D01*
X024590Y025845D01*
X024550Y025880D01*
X024513Y025917D01*
X024478Y025957D01*
X024446Y026000D01*
X024418Y026045D01*
X024393Y026092D01*
X024372Y026141D01*
X024355Y026191D01*
X024341Y026242D01*
X024331Y026294D01*
X024325Y026347D01*
X024323Y026400D01*
X016733Y027450D02*
X016633Y027450D01*
X016633Y027350D01*
X016633Y027450D02*
X016533Y027450D01*
X016633Y027450D02*
X016633Y027550D01*
X015133Y026900D02*
X015135Y026963D01*
X015141Y027025D01*
X015151Y027087D01*
X015164Y027149D01*
X015182Y027209D01*
X015203Y027268D01*
X015228Y027326D01*
X015257Y027382D01*
X015289Y027436D01*
X015324Y027488D01*
X015362Y027537D01*
X015404Y027585D01*
X015448Y027629D01*
X015496Y027671D01*
X015545Y027709D01*
X015597Y027744D01*
X015651Y027776D01*
X015707Y027805D01*
X015765Y027830D01*
X015824Y027851D01*
X015884Y027869D01*
X015946Y027882D01*
X016008Y027892D01*
X016070Y027898D01*
X016133Y027900D01*
X016196Y027898D01*
X016258Y027892D01*
X016320Y027882D01*
X016382Y027869D01*
X016442Y027851D01*
X016501Y027830D01*
X016559Y027805D01*
X016615Y027776D01*
X016669Y027744D01*
X016721Y027709D01*
X016770Y027671D01*
X016818Y027629D01*
X016862Y027585D01*
X016904Y027537D01*
X016942Y027488D01*
X016977Y027436D01*
X017009Y027382D01*
X017038Y027326D01*
X017063Y027268D01*
X017084Y027209D01*
X017102Y027149D01*
X017115Y027087D01*
X017125Y027025D01*
X017131Y026963D01*
X017133Y026900D01*
X017131Y026837D01*
X017125Y026775D01*
X017115Y026713D01*
X017102Y026651D01*
X017084Y026591D01*
X017063Y026532D01*
X017038Y026474D01*
X017009Y026418D01*
X016977Y026364D01*
X016942Y026312D01*
X016904Y026263D01*
X016862Y026215D01*
X016818Y026171D01*
X016770Y026129D01*
X016721Y026091D01*
X016669Y026056D01*
X016615Y026024D01*
X016559Y025995D01*
X016501Y025970D01*
X016442Y025949D01*
X016382Y025931D01*
X016320Y025918D01*
X016258Y025908D01*
X016196Y025902D01*
X016133Y025900D01*
X016070Y025902D01*
X016008Y025908D01*
X015946Y025918D01*
X015884Y025931D01*
X015824Y025949D01*
X015765Y025970D01*
X015707Y025995D01*
X015651Y026024D01*
X015597Y026056D01*
X015545Y026091D01*
X015496Y026129D01*
X015448Y026171D01*
X015404Y026215D01*
X015362Y026263D01*
X015324Y026312D01*
X015289Y026364D01*
X015257Y026418D01*
X015228Y026474D01*
X015203Y026532D01*
X015182Y026591D01*
X015164Y026651D01*
X015151Y026713D01*
X015141Y026775D01*
X015135Y026837D01*
X015133Y026900D01*
D15*
X020383Y028200D02*
X020383Y024600D01*
X023633Y024600D01*
X023633Y028200D01*
X020383Y028200D01*
D16*
X019958Y027400D03*
X019958Y026400D03*
X019958Y025400D03*
D17*
X017883Y024900D02*
X017383Y024900D01*
X012983Y018600D02*
X012483Y018600D01*
X012483Y017600D02*
X012983Y017600D01*
X012983Y016200D02*
X012483Y016200D01*
X012483Y015200D02*
X012983Y015200D01*
X010183Y015200D02*
X009683Y015200D01*
X009683Y016200D02*
X010183Y016200D01*
X010183Y017600D02*
X009683Y017600D01*
X009683Y018600D02*
X010183Y018600D01*
X025533Y021110D02*
X025643Y021000D01*
X026033Y021000D01*
X026423Y021000D01*
X026533Y021110D01*
X026033Y021100D02*
X026033Y021000D01*
X026033Y021850D02*
X026033Y022150D01*
X026033Y022900D02*
X026033Y023000D01*
X025643Y023000D01*
X025533Y022890D01*
X026033Y023000D02*
X026423Y023000D01*
X026533Y022890D01*
X028683Y020400D02*
X029183Y020400D01*
X029183Y013400D02*
X028683Y013400D01*
D18*
X018013Y013374D02*
X018013Y013681D01*
X018013Y013527D02*
X017553Y013527D01*
X017706Y013374D01*
X017783Y013834D02*
X017783Y014141D01*
X017553Y014064D02*
X017783Y013834D01*
X018013Y014064D02*
X017553Y014064D01*
X014466Y013518D02*
X014466Y013364D01*
X014390Y013287D01*
X014236Y013287D02*
X014160Y013441D01*
X014160Y013518D01*
X014236Y013594D01*
X014390Y013594D01*
X014466Y013518D01*
X014236Y013287D02*
X014006Y013287D01*
X014006Y013594D01*
X014466Y013134D02*
X014466Y012827D01*
X014466Y012980D02*
X014006Y012980D01*
X014160Y012827D01*
X017630Y019679D02*
X017553Y019755D01*
X017553Y019909D01*
X017630Y019986D01*
X017706Y019986D01*
X018013Y019679D01*
X018013Y019986D01*
X014443Y020132D02*
X014443Y020439D01*
X014443Y020285D02*
X013983Y020285D01*
X014136Y020132D01*
D19*
X018432Y016900D03*
D20*
X023383Y021406D03*
X023383Y022506D03*
X022283Y023594D03*
X022283Y010994D03*
X023383Y009606D03*
X023383Y007906D03*
X023383Y006506D03*
D21*
X023778Y006500D03*
X023778Y007900D03*
X021889Y007900D03*
X021889Y006500D03*
X021889Y009600D03*
X021889Y011000D03*
X023778Y011000D03*
X023778Y009600D03*
X023778Y021400D03*
X023778Y022500D03*
X023778Y023600D03*
X021889Y023600D03*
X021889Y022500D03*
X021889Y021400D03*
D22*
X019539Y022350D03*
D23*
X019533Y021955D03*
X019533Y023845D03*
M02*
