%
M48
M72
T01C0.0276
T02C0.0315
T03C0.0320
T04C0.0400
T05C0.0433
T06C0.0440
T07C0.0472
T08C0.0787
T09C0.1260
%
T01
X17633Y24400
X17633Y25400
T02
X17433Y22600
X24933Y19700
X26033Y19700
X24333Y15200
X24333Y14300
X20533Y11600
X20133Y13700
X7933Y15200
X7933Y16600
X7233Y17800
T03
X16133Y26400
X16133Y27400
X19133Y10800
X19133Y9800
X19664Y7730
X18780Y7554
X19487Y6846
X16664Y7730
X15780Y7554
X16487Y6846
T04
X28933Y13900
X28933Y13900
X28933Y14900
X28933Y14900
X28933Y15900
X28933Y15900
X28933Y16900
X28933Y16900
X28933Y17900
X28933Y17900
X28933Y18900
X28933Y18900
X28933Y19900
X28933Y19900
X26033Y21450
X26033Y22550
X19133Y25400
X19133Y26400
X19133Y27400
T05
X19533Y24400
X21333Y23600
X21333Y22500
X21333Y21400
X19533Y21400
X24333Y21400
X24333Y22500
X24333Y23600
X24333Y11000
X24333Y9600
X24333Y7900
X24333Y6500
X21333Y6500
X21333Y7900
X21333Y9600
X21333Y11000
T06
X12733Y15700
X12733Y18100
X9933Y18100
X9933Y15700
T07
X15033Y15400
X15033Y16400
X15033Y17400
X15033Y18400
X15033Y19400
X15033Y20400
X17033Y19900
X17033Y18900
X17033Y17900
X17033Y16900
X17033Y15900
X17033Y14900
X17033Y13900
X15033Y13400
X15033Y14400
T08
X14727Y10418
X8034Y10418
X8040Y23382
X14733Y23382
T09
X7233Y6900
X28933Y9300
X28933Y24500
X7233Y26900
M30
