G75*
G70*
%OFA0B0*%
%FSLAX24Y24*%
%IPPOS*%
%LPD*%
%AMOC8*
5,1,8,0,0,1.08239X$1,22.5*
%
%ADD10C,0.0100*%
%ADD11C,0.0000*%
%ADD12C,0.0150*%
%ADD13C,0.0130*%
%ADD14C,0.0112*%
%ADD15C,0.0640*%
%ADD16C,0.0650*%
%ADD17OC8,0.0630*%
%ADD18C,0.0630*%
%ADD19C,0.0712*%
%ADD20C,0.0673*%
%ADD21C,0.0740*%
%ADD22C,0.0400*%
%ADD23R,0.0560X0.0560*%
%ADD24C,0.0240*%
%ADD25C,0.0660*%
D10*
X006033Y006400D02*
X007133Y005300D01*
X026633Y005300D01*
X030133Y008800D01*
X030133Y025000D01*
X026633Y028500D01*
X007133Y028500D01*
X006033Y027400D01*
X006033Y006400D01*
X014233Y006384D02*
X020860Y006384D01*
X020859Y006386D02*
X020882Y006313D01*
X020917Y006245D01*
X020962Y006183D01*
X021016Y006129D01*
X021078Y006084D01*
X021147Y006049D01*
X021219Y006025D01*
X021283Y006015D01*
X021283Y006450D01*
X020849Y006450D01*
X020859Y006386D01*
X020897Y006285D02*
X014233Y006285D01*
X014233Y006187D02*
X020960Y006187D01*
X021073Y006088D02*
X014233Y006088D01*
X014233Y005990D02*
X025787Y005990D01*
X025801Y005958D02*
X025870Y005889D01*
X025960Y005851D01*
X026768Y005851D01*
X026858Y005889D01*
X026927Y005958D01*
X026964Y006048D01*
X026964Y006145D01*
X026927Y006235D01*
X026858Y006304D01*
X026829Y006333D01*
X026927Y006431D01*
X026964Y006521D01*
X026964Y006619D01*
X026927Y006709D01*
X026858Y006778D01*
X026843Y006784D01*
X026858Y006799D01*
X026927Y006868D01*
X026964Y006958D01*
X026964Y007411D01*
X026927Y007501D01*
X026858Y007570D01*
X026768Y007607D01*
X026755Y007607D01*
X026927Y007778D01*
X026964Y007868D01*
X026964Y007966D01*
X026927Y008056D01*
X026858Y008125D01*
X026669Y008313D01*
X026690Y008333D01*
X026727Y008423D01*
X026727Y008521D01*
X026690Y008611D01*
X026592Y008709D01*
X026690Y008807D01*
X026727Y008897D01*
X026727Y008995D01*
X026690Y009085D01*
X026621Y009154D01*
X026606Y009160D01*
X026621Y009175D01*
X026690Y009244D01*
X026727Y009334D01*
X026727Y009668D01*
X026711Y009706D01*
X026690Y009758D01*
X026690Y009758D01*
X026688Y009759D01*
X026621Y009827D01*
X026621Y009827D01*
X026571Y009876D01*
X026571Y009876D01*
X026551Y009897D01*
X026621Y009967D01*
X026690Y010035D01*
X026727Y010126D01*
X026727Y010285D01*
X026768Y010285D01*
X026858Y010322D01*
X026927Y010391D01*
X026964Y010481D01*
X026964Y010578D01*
X026927Y010668D01*
X026858Y010737D01*
X026768Y010775D01*
X026637Y010775D01*
X026690Y010827D01*
X026727Y010917D01*
X026727Y011076D01*
X026768Y011076D01*
X026858Y011114D01*
X026927Y011183D01*
X026964Y011273D01*
X026964Y011370D01*
X026927Y011460D01*
X026858Y011529D01*
X026768Y011566D01*
X026717Y011566D01*
X026727Y011591D01*
X026727Y012044D01*
X026711Y012082D01*
X026690Y012134D01*
X026688Y012135D01*
X026624Y012200D01*
X026690Y012266D01*
X026704Y012301D01*
X026739Y012315D01*
X026808Y012384D01*
X026846Y012474D01*
X026846Y012572D01*
X026808Y012662D01*
X026739Y012731D01*
X026704Y012745D01*
X026690Y012780D01*
X026621Y012849D01*
X026606Y012855D01*
X026690Y012939D01*
X026727Y013029D01*
X026727Y013363D01*
X026690Y013453D01*
X026637Y013506D01*
X026768Y013506D01*
X026858Y013544D01*
X026927Y013612D01*
X026964Y013703D01*
X026964Y013800D01*
X026927Y013890D01*
X026858Y013959D01*
X026829Y013988D01*
X026927Y014086D01*
X026964Y014176D01*
X026964Y014274D01*
X026927Y014364D01*
X026858Y014433D01*
X026768Y014470D01*
X026670Y014470D01*
X025960Y014470D01*
X025870Y014433D01*
X025801Y014364D01*
X025763Y014274D01*
X025763Y014176D01*
X025801Y014086D01*
X025870Y014017D01*
X025940Y013988D01*
X025870Y013959D01*
X025801Y013890D01*
X025763Y013800D01*
X025763Y013703D01*
X025801Y013612D01*
X025870Y013544D01*
X025885Y013537D01*
X025801Y013453D01*
X025763Y013363D01*
X025763Y012911D01*
X025801Y012821D01*
X025870Y012752D01*
X025960Y012714D01*
X025972Y012714D01*
X025919Y012662D01*
X025919Y012662D01*
X025801Y012543D01*
X025763Y012453D01*
X025763Y012356D01*
X025801Y012266D01*
X025867Y012200D01*
X025801Y012134D01*
X025763Y012044D01*
X025763Y011591D01*
X025801Y011501D01*
X025821Y011481D01*
X025801Y011460D01*
X025763Y011370D01*
X025763Y011273D01*
X025801Y011183D01*
X025870Y011114D01*
X025940Y011085D01*
X025870Y011055D01*
X025801Y010986D01*
X025763Y010896D01*
X025763Y010799D01*
X025801Y010709D01*
X025821Y010689D01*
X025801Y010668D01*
X025763Y010578D01*
X025763Y010126D01*
X025801Y010035D01*
X025870Y009967D01*
X025919Y009917D01*
X025939Y009897D01*
X025801Y009758D01*
X025763Y009668D01*
X025763Y009334D01*
X025801Y009244D01*
X025870Y009175D01*
X025885Y009160D01*
X025870Y009154D01*
X025801Y009085D01*
X025763Y008995D01*
X025763Y008897D01*
X025801Y008807D01*
X025899Y008709D01*
X025801Y008611D01*
X025763Y008521D01*
X025763Y008423D01*
X025801Y008333D01*
X025821Y008313D01*
X025801Y008293D01*
X025763Y008203D01*
X025763Y008105D01*
X025801Y008015D01*
X025870Y007946D01*
X025940Y007917D01*
X025870Y007888D01*
X025801Y007819D01*
X025763Y007729D01*
X025763Y007631D01*
X025801Y007541D01*
X025821Y007521D01*
X025801Y007501D01*
X025763Y007411D01*
X025763Y007313D01*
X025801Y007223D01*
X025870Y007154D01*
X025911Y007137D01*
X025801Y007027D01*
X025763Y006937D01*
X025763Y006840D01*
X025801Y006750D01*
X025821Y006729D01*
X025801Y006709D01*
X025763Y006619D01*
X025763Y006521D01*
X025801Y006431D01*
X025870Y006362D01*
X025940Y006333D01*
X025870Y006304D01*
X025801Y006235D01*
X025763Y006145D01*
X025763Y006048D01*
X025801Y005958D01*
X025867Y005891D02*
X014233Y005891D01*
X014233Y005793D02*
X026815Y005793D01*
X026860Y005891D02*
X026913Y005891D01*
X026940Y005990D02*
X027012Y005990D01*
X026964Y006088D02*
X027110Y006088D01*
X027209Y006187D02*
X026947Y006187D01*
X026877Y006285D02*
X027307Y006285D01*
X027406Y006384D02*
X026879Y006384D01*
X026948Y006482D02*
X027504Y006482D01*
X027603Y006581D02*
X026964Y006581D01*
X026939Y006679D02*
X027701Y006679D01*
X027800Y006778D02*
X026858Y006778D01*
X026858Y006799D02*
X026858Y006799D01*
X026930Y006876D02*
X027898Y006876D01*
X027997Y006975D02*
X026964Y006975D01*
X026964Y007073D02*
X028095Y007073D01*
X028194Y007172D02*
X026964Y007172D01*
X026964Y007270D02*
X028292Y007270D01*
X028391Y007369D02*
X026964Y007369D01*
X026941Y007467D02*
X028489Y007467D01*
X028588Y007566D02*
X026862Y007566D01*
X026812Y007664D02*
X028686Y007664D01*
X028785Y007763D02*
X026911Y007763D01*
X026961Y007861D02*
X028883Y007861D01*
X028982Y007960D02*
X026964Y007960D01*
X026924Y008058D02*
X029080Y008058D01*
X029179Y008157D02*
X026826Y008157D01*
X026727Y008255D02*
X029277Y008255D01*
X029376Y008354D02*
X026698Y008354D01*
X026727Y008452D02*
X029474Y008452D01*
X029573Y008551D02*
X029214Y008551D01*
X029092Y008500D02*
X029386Y008622D01*
X029611Y008847D01*
X029733Y009141D01*
X029733Y009459D01*
X029611Y009753D01*
X029386Y009978D01*
X029092Y010100D01*
X028774Y010100D01*
X028480Y009978D01*
X028255Y009753D01*
X028133Y009459D01*
X028133Y009141D01*
X028255Y008847D01*
X028480Y008622D01*
X028774Y008500D01*
X029092Y008500D01*
X029414Y008649D02*
X029671Y008649D01*
X029770Y008748D02*
X029512Y008748D01*
X029611Y008846D02*
X029868Y008846D01*
X029913Y008891D02*
X026542Y005520D01*
X014233Y005520D01*
X014233Y010137D01*
X014249Y010099D01*
X014408Y009940D01*
X014615Y009854D01*
X014839Y009854D01*
X015046Y009940D01*
X015205Y010099D01*
X015291Y010306D01*
X015291Y010530D01*
X015205Y010737D01*
X015046Y010896D01*
X014839Y010982D01*
X014615Y010982D01*
X014408Y010896D01*
X014249Y010737D01*
X014233Y010699D01*
X014233Y012130D01*
X016307Y012130D01*
X016443Y012186D01*
X017243Y012986D01*
X017347Y013090D01*
X017403Y013226D01*
X017403Y013374D01*
X017494Y013374D01*
X017688Y013454D01*
X017836Y013602D01*
X017916Y013795D01*
X017916Y014005D01*
X017836Y014198D01*
X017688Y014346D01*
X017558Y014400D01*
X017688Y014454D01*
X017836Y014602D01*
X017916Y014795D01*
X017916Y015005D01*
X017836Y015198D01*
X017688Y015346D01*
X017558Y015400D01*
X017665Y015445D01*
X017874Y015236D01*
X018010Y015180D01*
X018043Y015180D01*
X018043Y015180D01*
X018043Y012620D01*
X017387Y011964D01*
X017343Y011858D01*
X017343Y009520D01*
X017013Y009190D01*
X016476Y009190D01*
X016369Y009146D01*
X015870Y008646D01*
X015680Y008646D01*
X015497Y008570D01*
X015356Y008430D01*
X015280Y008246D01*
X015280Y007454D01*
X015356Y007270D01*
X014233Y007270D01*
X014233Y007172D02*
X015455Y007172D01*
X015497Y007130D02*
X015680Y007054D01*
X015879Y007054D01*
X016063Y007130D01*
X016204Y007270D01*
X016280Y007454D01*
X016280Y007478D01*
X016477Y007280D01*
X016850Y007280D01*
X017114Y007544D01*
X017114Y007917D01*
X016850Y008180D01*
X016477Y008180D01*
X016280Y007983D01*
X016280Y008236D01*
X016653Y008610D01*
X017191Y008610D01*
X017298Y008654D01*
X017379Y008736D01*
X017879Y009236D01*
X017923Y009342D01*
X017923Y011680D01*
X018498Y012254D01*
X018579Y012336D01*
X018623Y012442D01*
X018623Y015358D01*
X018579Y015464D01*
X018453Y015590D01*
X018453Y015624D01*
X018397Y015760D01*
X018047Y016110D01*
X017943Y016214D01*
X017807Y016270D01*
X017764Y016270D01*
X017688Y016346D01*
X017527Y016413D01*
X017584Y016431D01*
X017655Y016467D01*
X017719Y016514D01*
X017776Y016570D01*
X017823Y016635D01*
X017859Y016706D01*
X017883Y016781D01*
X017894Y016850D01*
X017083Y016850D01*
X017083Y016950D01*
X017894Y016950D01*
X017883Y017019D01*
X017859Y017094D01*
X017823Y017165D01*
X017776Y017230D01*
X017719Y017286D01*
X017655Y017333D01*
X017584Y017369D01*
X017527Y017387D01*
X017688Y017454D01*
X017836Y017602D01*
X017916Y017795D01*
X017916Y018005D01*
X017836Y018198D01*
X017688Y018346D01*
X017558Y018400D01*
X017665Y018445D01*
X018763Y017347D01*
X018763Y011116D01*
X018722Y011075D01*
X018648Y010896D01*
X018648Y010704D01*
X018722Y010525D01*
X018859Y010389D01*
X019037Y010315D01*
X019230Y010315D01*
X019408Y010389D01*
X019543Y010524D01*
X019543Y010048D01*
X019326Y010265D01*
X019163Y010265D01*
X019163Y009830D01*
X019103Y009830D01*
X019103Y009770D01*
X018668Y009770D01*
X018668Y009607D01*
X018941Y009335D01*
X019103Y009335D01*
X019103Y009770D01*
X019163Y009770D01*
X019163Y009335D01*
X019326Y009335D01*
X019543Y009552D01*
X019543Y009020D01*
X019413Y008890D01*
X019076Y008890D01*
X018969Y008846D01*
X018770Y008646D01*
X018680Y008646D01*
X018497Y008570D01*
X018356Y008430D01*
X018280Y008246D01*
X018280Y007454D01*
X018356Y007270D01*
X016671Y007270D01*
X016665Y007276D02*
X016309Y007276D01*
X016204Y007172D01*
X016487Y006889D01*
X016770Y007172D01*
X016665Y007276D01*
X016770Y007172D02*
X018455Y007172D01*
X018497Y007130D02*
X018680Y007054D01*
X018879Y007054D01*
X019063Y007130D01*
X019204Y007270D01*
X019280Y007454D01*
X019280Y007478D01*
X019477Y007280D01*
X019850Y007280D01*
X020114Y007544D01*
X020114Y007917D01*
X019850Y008180D01*
X019477Y008180D01*
X019280Y007983D01*
X019280Y008246D01*
X019253Y008310D01*
X019253Y008310D01*
X019591Y008310D01*
X019698Y008354D01*
X019779Y008436D01*
X020079Y008736D01*
X020123Y008842D01*
X020123Y011210D01*
X020183Y011150D01*
X020847Y011150D01*
X020827Y011101D01*
X020827Y010899D01*
X020904Y010713D01*
X021046Y010571D01*
X021233Y010493D01*
X021434Y010493D01*
X021620Y010571D01*
X021763Y010713D01*
X021840Y010899D01*
X021840Y011101D01*
X021763Y011287D01*
X021620Y011429D01*
X021434Y011507D01*
X021233Y011507D01*
X021046Y011429D01*
X020983Y011366D01*
X020983Y011640D01*
X022798Y013454D01*
X022879Y013536D01*
X022923Y013642D01*
X022923Y014680D01*
X023953Y015710D01*
X026791Y015710D01*
X026898Y015754D01*
X027753Y016610D01*
X028099Y016610D01*
X028106Y016594D01*
X028257Y016442D01*
X028359Y016400D01*
X028257Y016358D01*
X028106Y016206D01*
X028099Y016190D01*
X027576Y016190D01*
X027469Y016146D01*
X027387Y016064D01*
X026813Y015490D01*
X024783Y015490D01*
X024783Y015550D01*
X024684Y015650D01*
X023983Y015650D01*
X023883Y015550D01*
X023883Y014850D01*
X023983Y014750D01*
X024684Y014750D01*
X024783Y014850D01*
X024783Y014910D01*
X026991Y014910D01*
X027098Y014954D01*
X027753Y015610D01*
X028099Y015610D01*
X028106Y015594D01*
X028257Y015442D01*
X028359Y015400D01*
X028257Y015358D01*
X028106Y015206D01*
X028023Y015007D01*
X028023Y014793D01*
X028106Y014594D01*
X028257Y014442D01*
X028359Y014400D01*
X028257Y014358D01*
X028106Y014206D01*
X028023Y014007D01*
X028023Y013793D01*
X028106Y013594D01*
X028257Y013442D01*
X028456Y013360D01*
X029411Y013360D01*
X029609Y013442D01*
X029761Y013594D01*
X029843Y013793D01*
X029843Y014007D01*
X029761Y014206D01*
X029609Y014358D01*
X029507Y014400D01*
X029609Y014442D01*
X029761Y014594D01*
X029843Y014793D01*
X029843Y015007D01*
X029761Y015206D01*
X029609Y015358D01*
X029507Y015400D01*
X029609Y015442D01*
X029761Y015594D01*
X029843Y015793D01*
X029843Y016007D01*
X029761Y016206D01*
X029609Y016358D01*
X029507Y016400D01*
X029609Y016442D01*
X029761Y016594D01*
X029843Y016793D01*
X029843Y017007D01*
X029761Y017206D01*
X029609Y017358D01*
X029507Y017400D01*
X029609Y017442D01*
X029761Y017594D01*
X029843Y017793D01*
X029843Y018007D01*
X029761Y018206D01*
X029609Y018358D01*
X029481Y018411D01*
X029503Y018418D01*
X029576Y018455D01*
X029642Y018503D01*
X029700Y018561D01*
X029748Y018627D01*
X029785Y018700D01*
X029811Y018778D01*
X029822Y018850D01*
X029303Y018850D01*
X029303Y018950D01*
X029822Y018950D01*
X029811Y019022D01*
X029785Y019100D01*
X029748Y019173D01*
X029700Y019239D01*
X029642Y019297D01*
X029576Y019345D01*
X029503Y019382D01*
X029481Y019389D01*
X029609Y019442D01*
X029761Y019594D01*
X029843Y019793D01*
X029843Y020007D01*
X029761Y020206D01*
X029609Y020358D01*
X029411Y020440D01*
X028456Y020440D01*
X028257Y020358D01*
X028170Y020270D01*
X026160Y020270D01*
X026024Y020214D01*
X025960Y020150D01*
X025683Y020150D01*
X025583Y020050D01*
X025583Y019350D01*
X025683Y019250D01*
X026384Y019250D01*
X026483Y019350D01*
X026483Y019530D01*
X028170Y019530D01*
X028257Y019442D01*
X028386Y019389D01*
X028364Y019382D01*
X028291Y019345D01*
X028225Y019297D01*
X028167Y019239D01*
X028119Y019173D01*
X028081Y019100D01*
X028056Y019022D01*
X028045Y018950D01*
X028563Y018950D01*
X028563Y018850D01*
X028045Y018850D01*
X028056Y018778D01*
X028081Y018700D01*
X028119Y018627D01*
X028167Y018561D01*
X028225Y018503D01*
X028291Y018455D01*
X028364Y018418D01*
X028386Y018411D01*
X028257Y018358D01*
X028170Y018270D01*
X025887Y018270D01*
X025303Y018853D01*
X025303Y019270D01*
X025383Y019350D01*
X025383Y020050D01*
X025284Y020150D01*
X024583Y020150D01*
X024503Y020070D01*
X024087Y020070D01*
X023303Y020853D01*
X023303Y024474D01*
X023247Y024610D01*
X023143Y024714D01*
X022143Y025714D01*
X022007Y025770D01*
X019776Y025770D01*
X019731Y025815D01*
X019551Y025890D01*
X018716Y025890D01*
X018536Y025815D01*
X018398Y025678D01*
X018323Y025497D01*
X018323Y025303D01*
X018398Y025122D01*
X018536Y024985D01*
X018716Y024910D01*
X019551Y024910D01*
X019731Y024985D01*
X019776Y025030D01*
X021780Y025030D01*
X022563Y024247D01*
X022563Y020626D01*
X022620Y020490D01*
X023620Y019490D01*
X023724Y019386D01*
X023860Y019330D01*
X024503Y019330D01*
X024563Y019270D01*
X024563Y018626D01*
X024620Y018490D01*
X025420Y017690D01*
X025524Y017586D01*
X025660Y017530D01*
X028170Y017530D01*
X028257Y017442D01*
X028359Y017400D01*
X028257Y017358D01*
X028106Y017206D01*
X028099Y017190D01*
X027576Y017190D01*
X027469Y017146D01*
X027387Y017064D01*
X026613Y016290D01*
X023776Y016290D01*
X023669Y016246D01*
X023587Y016164D01*
X022387Y014964D01*
X022343Y014858D01*
X022343Y013820D01*
X020573Y012050D01*
X020183Y012050D01*
X020123Y011990D01*
X020123Y013250D01*
X020484Y013250D01*
X020583Y013350D01*
X020583Y014050D01*
X020484Y014150D01*
X019783Y014150D01*
X019683Y014050D01*
X019683Y013660D01*
X019587Y013564D01*
X019543Y013458D01*
X019543Y011076D01*
X019503Y011116D01*
X019503Y017574D01*
X019447Y017710D01*
X018047Y019110D01*
X017943Y019214D01*
X017807Y019270D01*
X017764Y019270D01*
X017688Y019346D01*
X017558Y019400D01*
X017688Y019454D01*
X017836Y019602D01*
X017916Y019795D01*
X017916Y020005D01*
X017836Y020198D01*
X017688Y020346D01*
X017494Y020426D01*
X016572Y020426D01*
X016379Y020346D01*
X016231Y020198D01*
X016151Y020005D01*
X016151Y019795D01*
X016231Y019602D01*
X016379Y019454D01*
X016509Y019400D01*
X016379Y019346D01*
X016231Y019198D01*
X016151Y019005D01*
X016151Y018795D01*
X016231Y018602D01*
X016379Y018454D01*
X016509Y018400D01*
X016379Y018346D01*
X016231Y018198D01*
X016151Y018005D01*
X016151Y017795D01*
X016231Y017602D01*
X016379Y017454D01*
X016539Y017387D01*
X016483Y017369D01*
X016412Y017333D01*
X016347Y017286D01*
X016291Y017230D01*
X016244Y017165D01*
X016208Y017094D01*
X016183Y017019D01*
X016173Y016950D01*
X016983Y016950D01*
X016983Y016850D01*
X016173Y016850D01*
X016183Y016781D01*
X016208Y016706D01*
X016244Y016635D01*
X016291Y016570D01*
X016347Y016514D01*
X016412Y016467D01*
X016483Y016431D01*
X016539Y016413D01*
X016379Y016346D01*
X016231Y016198D01*
X016151Y016005D01*
X016151Y015795D01*
X016231Y015602D01*
X016379Y015454D01*
X016509Y015400D01*
X016379Y015346D01*
X016231Y015198D01*
X016151Y015005D01*
X016151Y014795D01*
X016231Y014602D01*
X016379Y014454D01*
X016509Y014400D01*
X016379Y014346D01*
X016231Y014198D01*
X016151Y014005D01*
X016151Y013795D01*
X016231Y013602D01*
X016379Y013454D01*
X016572Y013374D01*
X016584Y013374D01*
X016080Y012870D01*
X014387Y012870D01*
X014233Y013023D01*
X014233Y013156D01*
X014244Y013135D01*
X014291Y013070D01*
X014347Y013014D01*
X014412Y012967D01*
X014483Y012931D01*
X014559Y012906D01*
X014637Y012894D01*
X014983Y012894D01*
X014983Y013350D01*
X015083Y013350D01*
X015083Y012894D01*
X015429Y012894D01*
X015508Y012906D01*
X015584Y012931D01*
X015655Y012967D01*
X015719Y013014D01*
X015776Y013070D01*
X015823Y013135D01*
X015859Y013206D01*
X015883Y013281D01*
X015894Y013350D01*
X015083Y013350D01*
X015083Y013450D01*
X015894Y013450D01*
X015883Y013519D01*
X015859Y013594D01*
X015823Y013665D01*
X015776Y013730D01*
X015719Y013786D01*
X015655Y013833D01*
X015584Y013869D01*
X015527Y013887D01*
X015688Y013954D01*
X015836Y014102D01*
X015916Y014295D01*
X015916Y014505D01*
X015836Y014698D01*
X015688Y014846D01*
X015558Y014900D01*
X015688Y014954D01*
X015836Y015102D01*
X015916Y015295D01*
X015916Y015505D01*
X015836Y015698D01*
X015688Y015846D01*
X015558Y015900D01*
X015688Y015954D01*
X015836Y016102D01*
X015916Y016295D01*
X015916Y016505D01*
X015836Y016698D01*
X015688Y016846D01*
X015558Y016900D01*
X015688Y016954D01*
X015836Y017102D01*
X015916Y017295D01*
X015916Y017505D01*
X015836Y017698D01*
X015688Y017846D01*
X015558Y017900D01*
X015688Y017954D01*
X015836Y018102D01*
X015916Y018295D01*
X015916Y018505D01*
X015836Y018698D01*
X015688Y018846D01*
X015558Y018900D01*
X015688Y018954D01*
X015836Y019102D01*
X015916Y019295D01*
X015916Y019505D01*
X015836Y019698D01*
X015688Y019846D01*
X015527Y019913D01*
X015584Y019931D01*
X015655Y019967D01*
X015719Y020014D01*
X015776Y020070D01*
X015823Y020135D01*
X015859Y020206D01*
X015883Y020281D01*
X015894Y020350D01*
X015083Y020350D01*
X015083Y020450D01*
X014983Y020450D01*
X014983Y020906D01*
X014637Y020906D01*
X014559Y020894D01*
X014546Y020890D01*
X014587Y020930D01*
X015807Y020930D01*
X015943Y020986D01*
X016543Y021586D01*
X016647Y021690D01*
X016703Y021826D01*
X016703Y024447D01*
X017287Y025030D01*
X017303Y025030D01*
X017353Y024980D01*
X017535Y024905D01*
X017732Y024905D01*
X017914Y024980D01*
X018053Y025120D01*
X018128Y025302D01*
X018128Y025498D01*
X018053Y025680D01*
X017914Y025820D01*
X017732Y025895D01*
X017535Y025895D01*
X017353Y025820D01*
X017303Y025770D01*
X017060Y025770D01*
X016924Y025714D01*
X016820Y025610D01*
X016020Y024810D01*
X015963Y024674D01*
X015963Y022053D01*
X015580Y021670D01*
X014360Y021670D01*
X014233Y021618D01*
X014233Y023114D01*
X014255Y023063D01*
X014413Y022904D01*
X014620Y022818D01*
X014845Y022818D01*
X015052Y022904D01*
X015210Y023063D01*
X015296Y023270D01*
X015296Y023494D01*
X015210Y023701D01*
X015052Y023860D01*
X014845Y023946D01*
X014620Y023946D01*
X014413Y023860D01*
X014255Y023701D01*
X014233Y023650D01*
X014233Y028280D01*
X026542Y028280D01*
X029913Y024909D01*
X029913Y008891D01*
X029913Y008945D02*
X029652Y008945D01*
X029693Y009043D02*
X029913Y009043D01*
X029913Y009142D02*
X029733Y009142D01*
X029733Y009240D02*
X029913Y009240D01*
X029913Y009339D02*
X029733Y009339D01*
X029733Y009437D02*
X029913Y009437D01*
X029913Y009536D02*
X029702Y009536D01*
X029661Y009634D02*
X029913Y009634D01*
X029913Y009733D02*
X029620Y009733D01*
X029534Y009831D02*
X029913Y009831D01*
X029913Y009930D02*
X029435Y009930D01*
X029266Y010028D02*
X029913Y010028D01*
X029913Y010127D02*
X026727Y010127D01*
X026727Y010225D02*
X029913Y010225D01*
X029913Y010324D02*
X026859Y010324D01*
X026940Y010422D02*
X029913Y010422D01*
X029913Y010521D02*
X026964Y010521D01*
X026947Y010619D02*
X029913Y010619D01*
X029913Y010718D02*
X026877Y010718D01*
X026678Y010816D02*
X029913Y010816D01*
X029913Y010915D02*
X026726Y010915D01*
X026727Y011013D02*
X029913Y011013D01*
X029913Y011112D02*
X026852Y011112D01*
X026938Y011210D02*
X029913Y011210D01*
X029913Y011309D02*
X026964Y011309D01*
X026949Y011407D02*
X029913Y011407D01*
X029913Y011506D02*
X026881Y011506D01*
X026727Y011604D02*
X029913Y011604D01*
X029913Y011703D02*
X026727Y011703D01*
X026727Y011801D02*
X029913Y011801D01*
X029913Y011900D02*
X026727Y011900D01*
X026727Y011998D02*
X029913Y011998D01*
X029913Y012097D02*
X026705Y012097D01*
X026690Y012134D02*
X026690Y012134D01*
X026628Y012195D02*
X029913Y012195D01*
X029913Y012294D02*
X026701Y012294D01*
X026812Y012392D02*
X029913Y012392D01*
X029913Y012491D02*
X026846Y012491D01*
X026838Y012589D02*
X029913Y012589D01*
X029913Y012688D02*
X026782Y012688D01*
X026684Y012786D02*
X029913Y012786D01*
X029913Y012885D02*
X026635Y012885D01*
X026708Y012983D02*
X029913Y012983D01*
X029913Y013082D02*
X026727Y013082D01*
X026727Y013180D02*
X029913Y013180D01*
X029913Y013279D02*
X026727Y013279D01*
X026721Y013377D02*
X028415Y013377D01*
X028224Y013476D02*
X026668Y013476D01*
X026888Y013574D02*
X028126Y013574D01*
X028073Y013673D02*
X026952Y013673D01*
X026964Y013771D02*
X028032Y013771D01*
X028023Y013870D02*
X026935Y013870D01*
X026849Y013968D02*
X028023Y013968D01*
X028048Y014067D02*
X026907Y014067D01*
X026959Y014165D02*
X028089Y014165D01*
X028163Y014264D02*
X026964Y014264D01*
X026927Y014362D02*
X028268Y014362D01*
X028239Y014461D02*
X026791Y014461D01*
X027095Y014953D02*
X028023Y014953D01*
X028023Y014855D02*
X024783Y014855D01*
X024690Y014756D02*
X028038Y014756D01*
X028079Y014658D02*
X024742Y014658D01*
X024733Y014672D02*
X024705Y014700D01*
X024671Y014720D01*
X024633Y014730D01*
X024362Y014730D01*
X024362Y014329D01*
X024305Y014329D01*
X024305Y014730D01*
X024034Y014730D01*
X023995Y014720D01*
X023961Y014700D01*
X023933Y014672D01*
X023914Y014638D01*
X023903Y014600D01*
X023903Y014329D01*
X024305Y014329D01*
X024305Y014271D01*
X024362Y014271D01*
X024362Y013870D01*
X024633Y013870D01*
X024671Y013880D01*
X024705Y013900D01*
X024733Y013928D01*
X024753Y013962D01*
X024763Y014000D01*
X024763Y014271D01*
X024362Y014271D01*
X024362Y014329D01*
X024763Y014329D01*
X024763Y014600D01*
X024753Y014638D01*
X024733Y014672D01*
X024763Y014559D02*
X028141Y014559D01*
X028042Y015052D02*
X027195Y015052D01*
X027293Y015150D02*
X028082Y015150D01*
X028148Y015249D02*
X027392Y015249D01*
X027490Y015347D02*
X028247Y015347D01*
X028254Y015446D02*
X027589Y015446D01*
X027687Y015544D02*
X028156Y015544D01*
X028133Y016234D02*
X027377Y016234D01*
X027458Y016135D02*
X027278Y016135D01*
X027360Y016037D02*
X027180Y016037D01*
X027261Y015938D02*
X027081Y015938D01*
X027163Y015840D02*
X026983Y015840D01*
X027064Y015741D02*
X026866Y015741D01*
X026966Y015643D02*
X024691Y015643D01*
X024783Y015544D02*
X026867Y015544D01*
X026655Y016332D02*
X019503Y016332D01*
X019503Y016234D02*
X023657Y016234D01*
X023558Y016135D02*
X019503Y016135D01*
X019503Y016037D02*
X023460Y016037D01*
X023361Y015938D02*
X019503Y015938D01*
X019503Y015840D02*
X023263Y015840D01*
X023164Y015741D02*
X019503Y015741D01*
X019503Y015643D02*
X023066Y015643D01*
X022967Y015544D02*
X019503Y015544D01*
X019503Y015446D02*
X022869Y015446D01*
X022770Y015347D02*
X019503Y015347D01*
X019503Y015249D02*
X022672Y015249D01*
X022573Y015150D02*
X019503Y015150D01*
X019503Y015052D02*
X022475Y015052D01*
X022383Y014953D02*
X019503Y014953D01*
X019503Y014855D02*
X022343Y014855D01*
X022343Y014756D02*
X019503Y014756D01*
X019503Y014658D02*
X022343Y014658D01*
X022343Y014559D02*
X019503Y014559D01*
X019503Y014461D02*
X022343Y014461D01*
X022343Y014362D02*
X019503Y014362D01*
X019503Y014264D02*
X022343Y014264D01*
X022343Y014165D02*
X019503Y014165D01*
X019503Y014067D02*
X019699Y014067D01*
X019683Y013968D02*
X019503Y013968D01*
X019503Y013870D02*
X019683Y013870D01*
X019683Y013771D02*
X019503Y013771D01*
X019503Y013673D02*
X019683Y013673D01*
X019597Y013574D02*
X019503Y013574D01*
X019503Y013476D02*
X019551Y013476D01*
X019543Y013377D02*
X019503Y013377D01*
X019503Y013279D02*
X019543Y013279D01*
X019543Y013180D02*
X019503Y013180D01*
X019503Y013082D02*
X019543Y013082D01*
X019543Y012983D02*
X019503Y012983D01*
X019503Y012885D02*
X019543Y012885D01*
X019543Y012786D02*
X019503Y012786D01*
X019503Y012688D02*
X019543Y012688D01*
X019543Y012589D02*
X019503Y012589D01*
X019503Y012491D02*
X019543Y012491D01*
X019543Y012392D02*
X019503Y012392D01*
X019503Y012294D02*
X019543Y012294D01*
X019543Y012195D02*
X019503Y012195D01*
X019503Y012097D02*
X019543Y012097D01*
X019543Y011998D02*
X019503Y011998D01*
X019503Y011900D02*
X019543Y011900D01*
X019543Y011801D02*
X019503Y011801D01*
X019503Y011703D02*
X019543Y011703D01*
X019543Y011604D02*
X019503Y011604D01*
X019503Y011506D02*
X019543Y011506D01*
X019543Y011407D02*
X019503Y011407D01*
X019503Y011309D02*
X019543Y011309D01*
X019543Y011210D02*
X019503Y011210D01*
X019508Y011112D02*
X019543Y011112D01*
X020123Y011112D02*
X020831Y011112D01*
X020827Y011013D02*
X020123Y011013D01*
X020123Y010915D02*
X020827Y010915D01*
X020861Y010816D02*
X020123Y010816D01*
X020123Y010718D02*
X020902Y010718D01*
X020998Y010619D02*
X020123Y010619D01*
X020123Y010521D02*
X021167Y010521D01*
X021499Y010521D02*
X024251Y010521D01*
X024219Y010525D02*
X024283Y010515D01*
X024283Y010950D01*
X023849Y010950D01*
X023859Y010886D01*
X023882Y010813D01*
X023917Y010745D01*
X023962Y010683D01*
X024016Y010629D01*
X024078Y010584D01*
X024147Y010549D01*
X024219Y010525D01*
X024283Y010521D02*
X024383Y010521D01*
X024383Y010515D02*
X024447Y010525D01*
X024520Y010549D01*
X024588Y010584D01*
X024650Y010629D01*
X024704Y010683D01*
X024749Y010745D01*
X024784Y010813D01*
X024808Y010886D01*
X024818Y010950D01*
X024383Y010950D01*
X024383Y010515D01*
X024416Y010521D02*
X025763Y010521D01*
X025763Y010422D02*
X020123Y010422D01*
X020123Y010324D02*
X025763Y010324D01*
X025763Y010225D02*
X020123Y010225D01*
X020123Y010127D02*
X025763Y010127D01*
X025808Y010028D02*
X024622Y010028D01*
X024620Y010029D02*
X024434Y010107D01*
X024233Y010107D01*
X024046Y010029D01*
X023904Y009887D01*
X023827Y009701D01*
X023827Y009499D01*
X023904Y009313D01*
X023963Y009254D01*
X023963Y008246D01*
X023904Y008187D01*
X023827Y008001D01*
X023827Y007799D01*
X023904Y007613D01*
X024046Y007471D01*
X024233Y007393D01*
X024434Y007393D01*
X024620Y007471D01*
X024763Y007613D01*
X024840Y007799D01*
X024840Y008001D01*
X024763Y008187D01*
X024703Y008246D01*
X024703Y009254D01*
X024763Y009313D01*
X024840Y009499D01*
X024840Y009701D01*
X024763Y009887D01*
X024620Y010029D01*
X024720Y009930D02*
X025907Y009930D01*
X025919Y009917D02*
X025919Y009917D01*
X025870Y009967D02*
X025870Y009967D01*
X025874Y009831D02*
X024786Y009831D01*
X024827Y009733D02*
X025790Y009733D01*
X025763Y009634D02*
X024840Y009634D01*
X024840Y009536D02*
X025763Y009536D01*
X025763Y009437D02*
X024814Y009437D01*
X024773Y009339D02*
X025763Y009339D01*
X025804Y009240D02*
X024703Y009240D01*
X024703Y009142D02*
X025858Y009142D01*
X025870Y009175D02*
X025870Y009175D01*
X025783Y009043D02*
X024703Y009043D01*
X024703Y008945D02*
X025763Y008945D01*
X025784Y008846D02*
X024703Y008846D01*
X024703Y008748D02*
X025860Y008748D01*
X025839Y008649D02*
X024703Y008649D01*
X024703Y008551D02*
X025776Y008551D01*
X025763Y008452D02*
X024703Y008452D01*
X024703Y008354D02*
X025792Y008354D01*
X025785Y008255D02*
X024703Y008255D01*
X024775Y008157D02*
X025763Y008157D01*
X025783Y008058D02*
X024816Y008058D01*
X024840Y007960D02*
X025856Y007960D01*
X025843Y007861D02*
X024840Y007861D01*
X024825Y007763D02*
X025777Y007763D01*
X025763Y007664D02*
X024784Y007664D01*
X024715Y007566D02*
X025791Y007566D01*
X025787Y007467D02*
X024612Y007467D01*
X024434Y007007D02*
X024233Y007007D01*
X024046Y006929D01*
X023987Y006870D01*
X022887Y006870D01*
X021840Y007917D01*
X021840Y008001D01*
X021763Y008187D01*
X021620Y008329D01*
X021434Y008407D01*
X021233Y008407D01*
X021046Y008329D01*
X020904Y008187D01*
X020827Y008001D01*
X020827Y007799D01*
X020904Y007613D01*
X021046Y007471D01*
X021233Y007393D01*
X021317Y007393D01*
X022420Y006290D01*
X022524Y006186D01*
X022660Y006130D01*
X023987Y006130D01*
X024046Y006071D01*
X024233Y005993D01*
X024434Y005993D01*
X024620Y006071D01*
X024763Y006213D01*
X024840Y006399D01*
X024840Y006601D01*
X024763Y006787D01*
X024620Y006929D01*
X024434Y007007D01*
X024511Y006975D02*
X025779Y006975D01*
X025763Y006876D02*
X024674Y006876D01*
X024767Y006778D02*
X025789Y006778D01*
X025788Y006679D02*
X024807Y006679D01*
X024840Y006581D02*
X025763Y006581D01*
X025780Y006482D02*
X024840Y006482D01*
X024833Y006384D02*
X025849Y006384D01*
X025850Y006285D02*
X024793Y006285D01*
X024736Y006187D02*
X025780Y006187D01*
X025763Y006088D02*
X024638Y006088D01*
X024029Y006088D02*
X021594Y006088D01*
X021588Y006084D02*
X021650Y006129D01*
X021704Y006183D01*
X021749Y006245D01*
X021784Y006313D01*
X021808Y006386D01*
X021818Y006450D01*
X021383Y006450D01*
X021383Y006015D01*
X021447Y006025D01*
X021520Y006049D01*
X021588Y006084D01*
X021707Y006187D02*
X022524Y006187D01*
X022425Y006285D02*
X021770Y006285D01*
X021807Y006384D02*
X022327Y006384D01*
X022228Y006482D02*
X021383Y006482D01*
X021383Y006450D02*
X021383Y006550D01*
X021283Y006550D01*
X021283Y006450D01*
X021383Y006450D01*
X021383Y006384D02*
X021283Y006384D01*
X021283Y006482D02*
X019731Y006482D01*
X019770Y006521D02*
X019487Y006804D01*
X019529Y006846D01*
X019812Y006564D01*
X019917Y006668D01*
X019917Y007025D01*
X019812Y007129D01*
X019529Y006846D01*
X019487Y006889D01*
X019770Y007172D01*
X019665Y007276D01*
X019309Y007276D01*
X019204Y007172D01*
X019487Y006889D01*
X019444Y006846D01*
X019487Y006804D01*
X019204Y006521D01*
X019309Y006416D01*
X019665Y006416D01*
X019770Y006521D01*
X019795Y006581D02*
X019710Y006581D01*
X019697Y006679D02*
X019612Y006679D01*
X019598Y006778D02*
X019513Y006778D01*
X019460Y006778D02*
X019376Y006778D01*
X019444Y006846D02*
X019162Y006564D01*
X019057Y006668D01*
X019057Y007025D01*
X019162Y007129D01*
X019444Y006846D01*
X019415Y006876D02*
X019474Y006876D01*
X019500Y006876D02*
X019559Y006876D01*
X019573Y006975D02*
X019657Y006975D01*
X019671Y007073D02*
X019756Y007073D01*
X019770Y007172D02*
X021539Y007172D01*
X021440Y007270D02*
X019671Y007270D01*
X019868Y007073D02*
X021637Y007073D01*
X021736Y006975D02*
X021447Y006975D01*
X021383Y006985D01*
X021383Y006550D01*
X021818Y006550D01*
X021808Y006614D01*
X021784Y006687D01*
X021749Y006755D01*
X021704Y006817D01*
X021650Y006871D01*
X021588Y006916D01*
X021520Y006951D01*
X021447Y006975D01*
X021383Y006975D02*
X021283Y006975D01*
X021283Y006985D02*
X021219Y006975D01*
X019917Y006975D01*
X019917Y006876D02*
X021023Y006876D01*
X021016Y006871D02*
X020962Y006817D01*
X020917Y006755D01*
X020882Y006687D01*
X020859Y006614D01*
X020849Y006550D01*
X021283Y006550D01*
X021283Y006985D01*
X021219Y006975D02*
X021147Y006951D01*
X021078Y006916D01*
X021016Y006871D01*
X020934Y006778D02*
X019917Y006778D01*
X019917Y006679D02*
X020880Y006679D01*
X020853Y006581D02*
X019829Y006581D01*
X019362Y006679D02*
X019277Y006679D01*
X019263Y006581D02*
X019179Y006581D01*
X019145Y006581D02*
X016829Y006581D01*
X016812Y006564D02*
X016917Y006668D01*
X016917Y007025D01*
X016812Y007129D01*
X016529Y006846D01*
X016812Y006564D01*
X016795Y006581D02*
X016710Y006581D01*
X016770Y006521D02*
X016487Y006804D01*
X016529Y006846D01*
X016487Y006889D01*
X016444Y006846D01*
X016487Y006804D01*
X016204Y006521D01*
X016309Y006416D01*
X016665Y006416D01*
X016770Y006521D01*
X016731Y006482D02*
X019243Y006482D01*
X019057Y006679D02*
X016917Y006679D01*
X016917Y006778D02*
X019057Y006778D01*
X019057Y006876D02*
X016917Y006876D01*
X016917Y006975D02*
X019057Y006975D01*
X019105Y007073D02*
X018926Y007073D01*
X019105Y007172D02*
X019204Y007172D01*
X019203Y007270D02*
X019302Y007270D01*
X019244Y007369D02*
X019389Y007369D01*
X019291Y007467D02*
X019280Y007467D01*
X019303Y007073D02*
X019218Y007073D01*
X019316Y006975D02*
X019401Y006975D01*
X019938Y007369D02*
X021342Y007369D01*
X021055Y007467D02*
X020037Y007467D01*
X020114Y007566D02*
X020951Y007566D01*
X020883Y007664D02*
X020114Y007664D01*
X020114Y007763D02*
X020842Y007763D01*
X020827Y007861D02*
X020114Y007861D01*
X020071Y007960D02*
X020827Y007960D01*
X020851Y008058D02*
X019972Y008058D01*
X019874Y008157D02*
X020891Y008157D01*
X020972Y008255D02*
X019276Y008255D01*
X019280Y008157D02*
X019453Y008157D01*
X019355Y008058D02*
X019280Y008058D01*
X019696Y008354D02*
X021105Y008354D01*
X021562Y008354D02*
X023963Y008354D01*
X023963Y008452D02*
X019795Y008452D01*
X019894Y008551D02*
X023963Y008551D01*
X023963Y008649D02*
X019992Y008649D01*
X020084Y008748D02*
X023963Y008748D01*
X023963Y008846D02*
X020123Y008846D01*
X020123Y008945D02*
X023963Y008945D01*
X023963Y009043D02*
X020123Y009043D01*
X020123Y009142D02*
X021117Y009142D01*
X021046Y009171D02*
X021233Y009093D01*
X021434Y009093D01*
X021620Y009171D01*
X021763Y009313D01*
X021840Y009499D01*
X021840Y009701D01*
X021763Y009887D01*
X021620Y010029D01*
X021434Y010107D01*
X021233Y010107D01*
X021046Y010029D01*
X020904Y009887D01*
X020827Y009701D01*
X020827Y009499D01*
X020904Y009313D01*
X021046Y009171D01*
X020977Y009240D02*
X020123Y009240D01*
X020123Y009339D02*
X020893Y009339D01*
X020853Y009437D02*
X020123Y009437D01*
X020123Y009536D02*
X020827Y009536D01*
X020827Y009634D02*
X020123Y009634D01*
X020123Y009733D02*
X020840Y009733D01*
X020881Y009831D02*
X020123Y009831D01*
X020123Y009930D02*
X020946Y009930D01*
X021045Y010028D02*
X020123Y010028D01*
X019543Y010127D02*
X019464Y010127D01*
X019543Y010225D02*
X019366Y010225D01*
X019250Y010324D02*
X019543Y010324D01*
X019543Y010422D02*
X019441Y010422D01*
X019540Y010521D02*
X019543Y010521D01*
X019163Y010225D02*
X019103Y010225D01*
X019103Y010265D02*
X018941Y010265D01*
X018668Y009993D01*
X018668Y009830D01*
X019103Y009830D01*
X019103Y010265D01*
X019016Y010324D02*
X017923Y010324D01*
X017923Y010422D02*
X018825Y010422D01*
X018727Y010521D02*
X017923Y010521D01*
X017923Y010619D02*
X018683Y010619D01*
X018648Y010718D02*
X017923Y010718D01*
X017923Y010816D02*
X018648Y010816D01*
X018656Y010915D02*
X017923Y010915D01*
X017923Y011013D02*
X018697Y011013D01*
X018759Y011112D02*
X017923Y011112D01*
X017923Y011210D02*
X018763Y011210D01*
X018763Y011309D02*
X017923Y011309D01*
X017923Y011407D02*
X018763Y011407D01*
X018763Y011506D02*
X017923Y011506D01*
X017923Y011604D02*
X018763Y011604D01*
X018763Y011703D02*
X017946Y011703D01*
X018044Y011801D02*
X018763Y011801D01*
X018763Y011900D02*
X018143Y011900D01*
X018241Y011998D02*
X018763Y011998D01*
X018763Y012097D02*
X018340Y012097D01*
X018438Y012195D02*
X018763Y012195D01*
X018763Y012294D02*
X018537Y012294D01*
X018602Y012392D02*
X018763Y012392D01*
X018763Y012491D02*
X018623Y012491D01*
X018623Y012589D02*
X018763Y012589D01*
X018763Y012688D02*
X018623Y012688D01*
X018623Y012786D02*
X018763Y012786D01*
X018763Y012885D02*
X018623Y012885D01*
X018623Y012983D02*
X018763Y012983D01*
X018763Y013082D02*
X018623Y013082D01*
X018623Y013180D02*
X018763Y013180D01*
X018763Y013279D02*
X018623Y013279D01*
X018623Y013377D02*
X018763Y013377D01*
X018763Y013476D02*
X018623Y013476D01*
X018623Y013574D02*
X018763Y013574D01*
X018763Y013673D02*
X018623Y013673D01*
X018623Y013771D02*
X018763Y013771D01*
X018763Y013870D02*
X018623Y013870D01*
X018623Y013968D02*
X018763Y013968D01*
X018763Y014067D02*
X018623Y014067D01*
X018623Y014165D02*
X018763Y014165D01*
X018763Y014264D02*
X018623Y014264D01*
X018623Y014362D02*
X018763Y014362D01*
X018763Y014461D02*
X018623Y014461D01*
X018623Y014559D02*
X018763Y014559D01*
X018763Y014658D02*
X018623Y014658D01*
X018623Y014756D02*
X018763Y014756D01*
X018763Y014855D02*
X018623Y014855D01*
X018623Y014953D02*
X018763Y014953D01*
X018763Y015052D02*
X018623Y015052D01*
X018623Y015150D02*
X018763Y015150D01*
X018763Y015249D02*
X018623Y015249D01*
X018623Y015347D02*
X018763Y015347D01*
X018763Y015446D02*
X018587Y015446D01*
X018499Y015544D02*
X018763Y015544D01*
X018763Y015643D02*
X018445Y015643D01*
X018405Y015741D02*
X018763Y015741D01*
X018763Y015840D02*
X018317Y015840D01*
X018219Y015938D02*
X018763Y015938D01*
X018763Y016037D02*
X018120Y016037D01*
X018022Y016135D02*
X018763Y016135D01*
X018763Y016234D02*
X017895Y016234D01*
X017702Y016332D02*
X018763Y016332D01*
X018763Y016431D02*
X017583Y016431D01*
X017734Y016529D02*
X018763Y016529D01*
X018763Y016628D02*
X017817Y016628D01*
X017865Y016726D02*
X018763Y016726D01*
X018763Y016825D02*
X017890Y016825D01*
X017882Y017022D02*
X018763Y017022D01*
X018763Y017120D02*
X017846Y017120D01*
X017784Y017219D02*
X018763Y017219D01*
X018763Y017317D02*
X017677Y017317D01*
X017595Y017416D02*
X018695Y017416D01*
X018596Y017514D02*
X017748Y017514D01*
X017840Y017613D02*
X018498Y017613D01*
X018399Y017711D02*
X017881Y017711D01*
X017916Y017810D02*
X018301Y017810D01*
X018202Y017908D02*
X017916Y017908D01*
X017915Y018007D02*
X018104Y018007D01*
X018005Y018105D02*
X017874Y018105D01*
X017907Y018204D02*
X017830Y018204D01*
X017808Y018302D02*
X017732Y018302D01*
X017710Y018401D02*
X017559Y018401D01*
X018165Y018992D02*
X024563Y018992D01*
X024563Y019090D02*
X018067Y019090D01*
X018047Y019110D02*
X018047Y019110D01*
X017968Y019189D02*
X024563Y019189D01*
X024546Y019287D02*
X017747Y019287D01*
X017592Y019386D02*
X023726Y019386D01*
X023626Y019484D02*
X017718Y019484D01*
X017816Y019583D02*
X023528Y019583D01*
X023429Y019681D02*
X017868Y019681D01*
X017909Y019780D02*
X023331Y019780D01*
X023232Y019878D02*
X017916Y019878D01*
X017916Y019977D02*
X023134Y019977D01*
X023035Y020075D02*
X017887Y020075D01*
X017846Y020174D02*
X022937Y020174D01*
X022838Y020272D02*
X017762Y020272D01*
X017629Y020371D02*
X022740Y020371D01*
X022641Y020469D02*
X015891Y020469D01*
X015894Y020450D02*
X015883Y020519D01*
X015859Y020594D01*
X015823Y020665D01*
X015776Y020730D01*
X015719Y020786D01*
X015655Y020833D01*
X015584Y020869D01*
X015508Y020894D01*
X015429Y020906D01*
X015083Y020906D01*
X015083Y020450D01*
X015894Y020450D01*
X015867Y020568D02*
X022588Y020568D01*
X022563Y020666D02*
X015822Y020666D01*
X015741Y020765D02*
X022563Y020765D01*
X022563Y020863D02*
X015596Y020863D01*
X015883Y020962D02*
X019268Y020962D01*
X019246Y020971D02*
X019433Y020893D01*
X019634Y020893D01*
X019820Y020971D01*
X019963Y021113D01*
X020040Y021299D01*
X020040Y021501D01*
X019963Y021687D01*
X019820Y021829D01*
X019634Y021907D01*
X019433Y021907D01*
X019246Y021829D01*
X019187Y021770D01*
X018787Y021770D01*
X017883Y022673D01*
X017883Y022950D01*
X017784Y023050D01*
X017083Y023050D01*
X016983Y022950D01*
X016983Y022250D01*
X017083Y022150D01*
X017360Y022150D01*
X018320Y021190D01*
X018424Y021086D01*
X018560Y021030D01*
X019187Y021030D01*
X019246Y020971D01*
X019798Y020962D02*
X021068Y020962D01*
X021046Y020971D02*
X021233Y020893D01*
X021434Y020893D01*
X021620Y020971D01*
X021763Y021113D01*
X021840Y021299D01*
X021840Y021501D01*
X021763Y021687D01*
X021620Y021829D01*
X021434Y021907D01*
X021233Y021907D01*
X021046Y021829D01*
X020904Y021687D01*
X020827Y021501D01*
X020827Y021299D01*
X020904Y021113D01*
X021046Y020971D01*
X020957Y021060D02*
X019910Y021060D01*
X019982Y021159D02*
X020885Y021159D01*
X020844Y021257D02*
X020022Y021257D01*
X020040Y021356D02*
X020827Y021356D01*
X020827Y021454D02*
X020040Y021454D01*
X020018Y021553D02*
X020848Y021553D01*
X020889Y021651D02*
X019978Y021651D01*
X019900Y021750D02*
X020967Y021750D01*
X021091Y021848D02*
X019775Y021848D01*
X019291Y021848D02*
X018709Y021848D01*
X018610Y021947D02*
X022563Y021947D01*
X022563Y022045D02*
X021559Y022045D01*
X021620Y022071D02*
X021763Y022213D01*
X021840Y022399D01*
X021840Y022601D01*
X021763Y022787D01*
X021620Y022929D01*
X021434Y023007D01*
X021233Y023007D01*
X021046Y022929D01*
X020904Y022787D01*
X020827Y022601D01*
X020827Y022399D01*
X020904Y022213D01*
X021046Y022071D01*
X021233Y021993D01*
X021434Y021993D01*
X021620Y022071D01*
X021693Y022144D02*
X022563Y022144D01*
X022563Y022242D02*
X021775Y022242D01*
X021816Y022341D02*
X022563Y022341D01*
X022563Y022439D02*
X021840Y022439D01*
X021840Y022538D02*
X022563Y022538D01*
X022563Y022636D02*
X021825Y022636D01*
X021784Y022735D02*
X022563Y022735D01*
X022563Y022833D02*
X021717Y022833D01*
X021615Y022932D02*
X022563Y022932D01*
X022563Y023030D02*
X017804Y023030D01*
X017883Y022932D02*
X021052Y022932D01*
X020950Y022833D02*
X017883Y022833D01*
X017883Y022735D02*
X020882Y022735D01*
X020841Y022636D02*
X017921Y022636D01*
X018019Y022538D02*
X020827Y022538D01*
X020827Y022439D02*
X018118Y022439D01*
X018216Y022341D02*
X020851Y022341D01*
X020892Y022242D02*
X018315Y022242D01*
X018413Y022144D02*
X020973Y022144D01*
X021108Y022045D02*
X018512Y022045D01*
X017958Y021553D02*
X016509Y021553D01*
X016608Y021651D02*
X017859Y021651D01*
X017761Y021750D02*
X016671Y021750D01*
X016703Y021848D02*
X017662Y021848D01*
X017564Y021947D02*
X016703Y021947D01*
X016703Y022045D02*
X017465Y022045D01*
X017367Y022144D02*
X016703Y022144D01*
X016703Y022242D02*
X016991Y022242D01*
X016983Y022341D02*
X016703Y022341D01*
X016703Y022439D02*
X016983Y022439D01*
X016983Y022538D02*
X016703Y022538D01*
X016703Y022636D02*
X016983Y022636D01*
X016983Y022735D02*
X016703Y022735D01*
X016703Y022833D02*
X016983Y022833D01*
X016983Y022932D02*
X016703Y022932D01*
X016703Y023030D02*
X017063Y023030D01*
X016703Y023129D02*
X021148Y023129D01*
X021233Y023093D02*
X021434Y023093D01*
X021620Y023171D01*
X021763Y023313D01*
X021840Y023499D01*
X021840Y023701D01*
X021763Y023887D01*
X021620Y024029D01*
X021434Y024107D01*
X021233Y024107D01*
X021046Y024029D01*
X020904Y023887D01*
X020827Y023701D01*
X020827Y023499D01*
X020904Y023313D01*
X021046Y023171D01*
X021233Y023093D01*
X020990Y023227D02*
X016703Y023227D01*
X016703Y023326D02*
X020899Y023326D01*
X020858Y023424D02*
X016703Y023424D01*
X016703Y023523D02*
X020827Y023523D01*
X020827Y023621D02*
X016703Y023621D01*
X016703Y023720D02*
X020835Y023720D01*
X020875Y023818D02*
X016703Y023818D01*
X016703Y023917D02*
X019476Y023917D01*
X019483Y023917D02*
X019583Y023917D01*
X019583Y023915D02*
X019647Y023925D01*
X019720Y023949D01*
X019788Y023984D01*
X019850Y024029D01*
X019904Y024083D01*
X019949Y024145D01*
X019984Y024213D01*
X020008Y024286D01*
X020018Y024350D01*
X019583Y024350D01*
X019583Y023915D01*
X019591Y023917D02*
X020934Y023917D01*
X021032Y024015D02*
X019831Y024015D01*
X019927Y024114D02*
X022563Y024114D01*
X022563Y024212D02*
X019984Y024212D01*
X020012Y024311D02*
X022500Y024311D01*
X022401Y024409D02*
X019583Y024409D01*
X019583Y024450D02*
X020018Y024450D01*
X020008Y024514D01*
X019984Y024587D01*
X019949Y024655D01*
X019904Y024717D01*
X019850Y024771D01*
X019788Y024816D01*
X019720Y024851D01*
X019647Y024875D01*
X019583Y024885D01*
X019583Y024450D01*
X019483Y024450D01*
X019483Y024350D01*
X019049Y024350D01*
X019059Y024286D01*
X019082Y024213D01*
X019117Y024145D01*
X019162Y024083D01*
X019216Y024029D01*
X019278Y023984D01*
X019347Y023949D01*
X019419Y023925D01*
X019483Y023915D01*
X019483Y024350D01*
X019583Y024350D01*
X019583Y024450D01*
X019583Y024508D02*
X019483Y024508D01*
X019483Y024450D02*
X019483Y024885D01*
X019419Y024875D01*
X019347Y024851D01*
X019278Y024816D01*
X019216Y024771D01*
X019162Y024717D01*
X019117Y024655D01*
X019082Y024587D01*
X019059Y024514D01*
X019049Y024450D01*
X019483Y024450D01*
X019483Y024409D02*
X017652Y024409D01*
X017652Y024419D02*
X018108Y024419D01*
X018108Y024437D01*
X018097Y024511D01*
X018074Y024582D01*
X018040Y024649D01*
X017996Y024709D01*
X017943Y024762D01*
X017882Y024806D01*
X017816Y024840D01*
X017745Y024863D01*
X017671Y024875D01*
X017652Y024875D01*
X017652Y024419D01*
X017614Y024419D01*
X017614Y024381D01*
X017158Y024381D01*
X017158Y024363D01*
X017170Y024289D01*
X017193Y024218D01*
X017227Y024151D01*
X017271Y024091D01*
X017324Y024038D01*
X017384Y023994D01*
X017451Y023960D01*
X017522Y023937D01*
X017596Y023925D01*
X017614Y023925D01*
X017614Y024381D01*
X017652Y024381D01*
X017652Y023925D01*
X017671Y023925D01*
X017745Y023937D01*
X017816Y023960D01*
X017882Y023994D01*
X017943Y024038D01*
X017996Y024091D01*
X018040Y024151D01*
X018074Y024218D01*
X018097Y024289D01*
X018108Y024363D01*
X018108Y024381D01*
X017652Y024381D01*
X017652Y024419D01*
X017614Y024419D02*
X017614Y024875D01*
X017596Y024875D01*
X017522Y024863D01*
X017451Y024840D01*
X017384Y024806D01*
X017324Y024762D01*
X017271Y024709D01*
X017227Y024649D01*
X017193Y024582D01*
X017170Y024511D01*
X017158Y024437D01*
X017158Y024419D01*
X017614Y024419D01*
X017614Y024409D02*
X016703Y024409D01*
X016703Y024311D02*
X017167Y024311D01*
X017196Y024212D02*
X016703Y024212D01*
X016703Y024114D02*
X017254Y024114D01*
X017355Y024015D02*
X016703Y024015D01*
X016764Y024508D02*
X017169Y024508D01*
X017205Y024606D02*
X016863Y024606D01*
X016961Y024705D02*
X017267Y024705D01*
X017380Y024803D02*
X017060Y024803D01*
X017158Y024902D02*
X021909Y024902D01*
X022007Y024803D02*
X019806Y024803D01*
X019913Y024705D02*
X022106Y024705D01*
X022204Y024606D02*
X019974Y024606D01*
X020009Y024508D02*
X022303Y024508D01*
X022563Y024015D02*
X021635Y024015D01*
X021733Y023917D02*
X022563Y023917D01*
X022563Y023818D02*
X021791Y023818D01*
X021832Y023720D02*
X022563Y023720D01*
X022563Y023621D02*
X021840Y023621D01*
X021840Y023523D02*
X022563Y023523D01*
X022563Y023424D02*
X021809Y023424D01*
X021768Y023326D02*
X022563Y023326D01*
X022563Y023227D02*
X021677Y023227D01*
X021519Y023129D02*
X022563Y023129D01*
X023303Y023129D02*
X024210Y023129D01*
X024219Y023125D02*
X024283Y023115D01*
X024283Y023550D01*
X023849Y023550D01*
X023859Y023486D01*
X023882Y023413D01*
X023917Y023345D01*
X023962Y023283D01*
X024016Y023229D01*
X024078Y023184D01*
X024147Y023149D01*
X024219Y023125D01*
X024283Y023129D02*
X024383Y023129D01*
X024383Y023115D02*
X024447Y023125D01*
X024520Y023149D01*
X024588Y023184D01*
X024650Y023229D01*
X024704Y023283D01*
X024749Y023345D01*
X024784Y023413D01*
X024808Y023486D01*
X024818Y023550D01*
X024383Y023550D01*
X024383Y023115D01*
X024457Y023129D02*
X027421Y023129D01*
X027401Y023109D02*
X027263Y022971D01*
X027263Y022289D01*
X027523Y022030D01*
X027600Y022030D01*
X027463Y021893D01*
X027463Y021211D01*
X027843Y020832D01*
X027845Y020830D01*
X028039Y020830D01*
X028177Y020968D01*
X028255Y021046D01*
X028255Y020968D01*
X028393Y020830D01*
X028831Y020830D01*
X028876Y020875D01*
X028921Y020830D01*
X029115Y020830D01*
X029253Y020968D01*
X029253Y021019D01*
X029270Y020994D01*
X029270Y020968D01*
X029323Y020915D01*
X029364Y020854D01*
X029389Y020849D01*
X029408Y020830D01*
X029482Y020830D01*
X029555Y020815D01*
X029576Y020830D01*
X029603Y020830D01*
X029655Y020882D01*
X029717Y020923D01*
X029722Y020949D01*
X029740Y020968D01*
X029740Y021042D01*
X029755Y021114D01*
X029740Y021136D01*
X029740Y021893D01*
X029603Y022031D01*
X029545Y022031D01*
X029630Y022115D01*
X029667Y022152D01*
X029719Y022204D01*
X029804Y022289D01*
X029804Y022971D01*
X029716Y023059D01*
X029667Y023109D01*
X029667Y023109D01*
X029632Y023143D01*
X029545Y023231D01*
X028985Y023231D01*
X028930Y023176D01*
X028875Y023231D01*
X028680Y023231D01*
X028542Y023093D01*
X028542Y023041D01*
X028525Y023067D01*
X028525Y023093D01*
X028473Y023145D01*
X028432Y023207D01*
X028406Y023212D01*
X028388Y023231D01*
X028313Y023231D01*
X028241Y023245D01*
X028219Y023231D01*
X028193Y023231D01*
X028140Y023178D01*
X028079Y023137D01*
X028075Y023117D01*
X028049Y023143D01*
X027961Y023231D01*
X027523Y023231D01*
X027401Y023109D01*
X027322Y023030D02*
X023303Y023030D01*
X023303Y022932D02*
X024052Y022932D01*
X024046Y022929D02*
X023904Y022787D01*
X023827Y022601D01*
X023827Y022399D01*
X023904Y022213D01*
X024046Y022071D01*
X024233Y021993D01*
X024434Y021993D01*
X024620Y022071D01*
X024763Y022213D01*
X024840Y022399D01*
X024840Y022601D01*
X024763Y022787D01*
X024620Y022929D01*
X024434Y023007D01*
X024233Y023007D01*
X024046Y022929D01*
X023950Y022833D02*
X023303Y022833D01*
X023303Y022735D02*
X023882Y022735D01*
X023841Y022636D02*
X023303Y022636D01*
X023303Y022538D02*
X023827Y022538D01*
X023827Y022439D02*
X023303Y022439D01*
X023303Y022341D02*
X023851Y022341D01*
X023892Y022242D02*
X023303Y022242D01*
X023303Y022144D02*
X023973Y022144D01*
X024108Y022045D02*
X023303Y022045D01*
X023303Y021947D02*
X027517Y021947D01*
X027508Y022045D02*
X024559Y022045D01*
X024693Y022144D02*
X025476Y022144D01*
X025467Y022148D02*
X025533Y022114D01*
X025603Y022092D01*
X025676Y022080D01*
X025983Y022080D01*
X025983Y022500D01*
X025245Y022500D01*
X025255Y022440D01*
X025278Y022370D01*
X025311Y022304D01*
X025355Y022244D01*
X025407Y022192D01*
X025467Y022148D01*
X025357Y022242D02*
X024775Y022242D01*
X024816Y022341D02*
X025293Y022341D01*
X025255Y022439D02*
X024840Y022439D01*
X024840Y022538D02*
X025983Y022538D01*
X025983Y022500D02*
X025983Y022600D01*
X025245Y022600D01*
X025255Y022660D01*
X025278Y022730D01*
X025311Y022796D01*
X025355Y022856D01*
X025407Y022908D01*
X025467Y022952D01*
X025533Y022986D01*
X025603Y023008D01*
X025676Y023020D01*
X025983Y023020D01*
X025983Y022600D01*
X026083Y022600D01*
X026083Y023020D01*
X026390Y023020D01*
X026463Y023008D01*
X026534Y022986D01*
X026600Y022952D01*
X026660Y022908D01*
X026712Y022856D01*
X026755Y022796D01*
X026789Y022730D01*
X026812Y022660D01*
X026821Y022600D01*
X026083Y022600D01*
X026083Y022500D01*
X026083Y022080D01*
X026390Y022080D01*
X026463Y022092D01*
X026534Y022114D01*
X026600Y022148D01*
X026660Y022192D01*
X026712Y022244D01*
X026755Y022304D01*
X026789Y022370D01*
X026812Y022440D01*
X026821Y022500D01*
X026083Y022500D01*
X025983Y022500D01*
X025983Y022439D02*
X026083Y022439D01*
X026083Y022341D02*
X025983Y022341D01*
X025983Y022242D02*
X026083Y022242D01*
X026083Y022144D02*
X025983Y022144D01*
X026083Y022538D02*
X027263Y022538D01*
X027263Y022636D02*
X026816Y022636D01*
X026787Y022735D02*
X027263Y022735D01*
X027263Y022833D02*
X026729Y022833D01*
X026628Y022932D02*
X027263Y022932D01*
X027519Y023227D02*
X024648Y023227D01*
X024735Y023326D02*
X029913Y023326D01*
X029913Y023424D02*
X024788Y023424D01*
X024814Y023523D02*
X029913Y023523D01*
X029913Y023621D02*
X024383Y023621D01*
X024383Y023650D02*
X024818Y023650D01*
X024808Y023714D01*
X024784Y023787D01*
X024749Y023855D01*
X024704Y023917D01*
X024650Y023971D01*
X024588Y024016D01*
X024520Y024051D01*
X024447Y024075D01*
X024383Y024085D01*
X024383Y023650D01*
X024283Y023650D01*
X024283Y023550D01*
X024383Y023550D01*
X024383Y023650D01*
X024383Y023720D02*
X024283Y023720D01*
X024283Y023650D02*
X024283Y024085D01*
X024219Y024075D01*
X024147Y024051D01*
X024078Y024016D01*
X024016Y023971D01*
X023962Y023917D01*
X023917Y023855D01*
X023882Y023787D01*
X023859Y023714D01*
X023849Y023650D01*
X024283Y023650D01*
X024283Y023621D02*
X023303Y023621D01*
X023303Y023523D02*
X023853Y023523D01*
X023879Y023424D02*
X023303Y023424D01*
X023303Y023326D02*
X023931Y023326D01*
X024019Y023227D02*
X023303Y023227D01*
X023303Y023720D02*
X023861Y023720D01*
X023898Y023818D02*
X023303Y023818D01*
X023303Y023917D02*
X023962Y023917D01*
X024077Y024015D02*
X023303Y024015D01*
X023303Y024114D02*
X028228Y024114D01*
X028255Y024047D02*
X028133Y024341D01*
X028133Y024659D01*
X028255Y024953D01*
X028480Y025178D01*
X028774Y025300D01*
X029092Y025300D01*
X029386Y025178D01*
X029611Y024953D01*
X029733Y024659D01*
X029733Y024341D01*
X029611Y024047D01*
X029386Y023822D01*
X029092Y023700D01*
X028774Y023700D01*
X028480Y023822D01*
X028255Y024047D01*
X028287Y024015D02*
X024590Y024015D01*
X024705Y023917D02*
X028386Y023917D01*
X028489Y023818D02*
X024768Y023818D01*
X024806Y023720D02*
X028727Y023720D01*
X029139Y023720D02*
X029913Y023720D01*
X029913Y023818D02*
X029377Y023818D01*
X029481Y023917D02*
X029913Y023917D01*
X029913Y024015D02*
X029580Y024015D01*
X029639Y024114D02*
X029913Y024114D01*
X029913Y024212D02*
X029680Y024212D01*
X029721Y024311D02*
X029913Y024311D01*
X029913Y024409D02*
X029733Y024409D01*
X029733Y024508D02*
X029913Y024508D01*
X029913Y024606D02*
X029733Y024606D01*
X029714Y024705D02*
X029913Y024705D01*
X029913Y024803D02*
X029674Y024803D01*
X029633Y024902D02*
X029913Y024902D01*
X029822Y025000D02*
X029565Y025000D01*
X029466Y025099D02*
X029724Y025099D01*
X029625Y025197D02*
X029341Y025197D01*
X029527Y025296D02*
X029103Y025296D01*
X029330Y025493D02*
X022364Y025493D01*
X022266Y025591D02*
X029231Y025591D01*
X029133Y025690D02*
X022167Y025690D01*
X022463Y025394D02*
X029428Y025394D01*
X029034Y025788D02*
X019758Y025788D01*
X019674Y025985D02*
X028837Y025985D01*
X028739Y026084D02*
X019802Y026084D01*
X019812Y026094D02*
X019855Y026154D01*
X019889Y026220D01*
X019912Y026290D01*
X019921Y026350D01*
X019183Y026350D01*
X019183Y025930D01*
X019490Y025930D01*
X019563Y025942D01*
X019634Y025964D01*
X019700Y025998D01*
X019760Y026042D01*
X019812Y026094D01*
X019870Y026182D02*
X028640Y026182D01*
X028542Y026281D02*
X019909Y026281D01*
X019921Y026450D02*
X019912Y026510D01*
X019889Y026580D01*
X019855Y026646D01*
X019812Y026706D01*
X019760Y026758D01*
X019700Y026802D01*
X019634Y026836D01*
X019563Y026858D01*
X019490Y026870D01*
X019183Y026870D01*
X019183Y026450D01*
X019083Y026450D01*
X019083Y026350D01*
X018345Y026350D01*
X018355Y026290D01*
X018378Y026220D01*
X018411Y026154D01*
X018455Y026094D01*
X018507Y026042D01*
X018567Y025998D01*
X018633Y025964D01*
X018703Y025942D01*
X018776Y025930D01*
X019083Y025930D01*
X019083Y026350D01*
X019183Y026350D01*
X019183Y026450D01*
X019921Y026450D01*
X019917Y026478D02*
X028345Y026478D01*
X028246Y026576D02*
X019890Y026576D01*
X019835Y026675D02*
X028148Y026675D01*
X028049Y026773D02*
X019739Y026773D01*
X019696Y026970D02*
X027852Y026970D01*
X027754Y027069D02*
X019815Y027069D01*
X019869Y027122D02*
X019731Y026985D01*
X019551Y026910D01*
X018716Y026910D01*
X018536Y026985D01*
X018398Y027122D01*
X018323Y027303D01*
X018323Y027497D01*
X018398Y027678D01*
X018536Y027815D01*
X018716Y027890D01*
X019551Y027890D01*
X019731Y027815D01*
X019869Y027678D01*
X019943Y027497D01*
X019943Y027303D01*
X019869Y027122D01*
X019887Y027167D02*
X027655Y027167D01*
X027557Y027266D02*
X019928Y027266D01*
X019943Y027364D02*
X027458Y027364D01*
X027360Y027463D02*
X019943Y027463D01*
X019917Y027561D02*
X027261Y027561D01*
X027163Y027660D02*
X019876Y027660D01*
X019788Y027758D02*
X027064Y027758D01*
X026966Y027857D02*
X019632Y027857D01*
X018635Y027857D02*
X016298Y027857D01*
X016230Y027885D02*
X016037Y027885D01*
X015859Y027811D01*
X015722Y027675D01*
X015648Y027496D01*
X015648Y027304D01*
X015722Y027125D01*
X015859Y026989D01*
X016037Y026915D01*
X016230Y026915D01*
X016408Y026989D01*
X016544Y027125D01*
X016618Y027304D01*
X016618Y027496D01*
X016544Y027675D01*
X016408Y027811D01*
X016230Y027885D01*
X015968Y027857D02*
X014233Y027857D01*
X014233Y027955D02*
X026867Y027955D01*
X026769Y028054D02*
X014233Y028054D01*
X014233Y028152D02*
X026670Y028152D01*
X026572Y028251D02*
X014233Y028251D01*
X014233Y027758D02*
X015805Y027758D01*
X015716Y027660D02*
X014233Y027660D01*
X014233Y027561D02*
X015675Y027561D01*
X015648Y027463D02*
X014233Y027463D01*
X014233Y027364D02*
X015648Y027364D01*
X015664Y027266D02*
X014233Y027266D01*
X014233Y027167D02*
X015705Y027167D01*
X015779Y027069D02*
X014233Y027069D01*
X014233Y026970D02*
X015904Y026970D01*
X015941Y026865D02*
X015668Y026593D01*
X015668Y026430D01*
X016103Y026430D01*
X016103Y026370D01*
X015668Y026370D01*
X015668Y026207D01*
X015941Y025935D01*
X016103Y025935D01*
X016103Y026370D01*
X016163Y026370D01*
X016163Y025935D01*
X016326Y025935D01*
X016598Y026207D01*
X016598Y026370D01*
X016163Y026370D01*
X016163Y026430D01*
X016103Y026430D01*
X016103Y026865D01*
X015941Y026865D01*
X015849Y026773D02*
X014233Y026773D01*
X014233Y026675D02*
X015750Y026675D01*
X015668Y026576D02*
X014233Y026576D01*
X014233Y026478D02*
X015668Y026478D01*
X015668Y026281D02*
X014233Y026281D01*
X014233Y026379D02*
X016103Y026379D01*
X016163Y026379D02*
X019083Y026379D01*
X019083Y026450D02*
X018345Y026450D01*
X018355Y026510D01*
X018378Y026580D01*
X018411Y026646D01*
X018455Y026706D01*
X018507Y026758D01*
X018567Y026802D01*
X018633Y026836D01*
X018703Y026858D01*
X018776Y026870D01*
X019083Y026870D01*
X019083Y026450D01*
X019083Y026478D02*
X019183Y026478D01*
X019183Y026576D02*
X019083Y026576D01*
X019083Y026675D02*
X019183Y026675D01*
X019183Y026773D02*
X019083Y026773D01*
X018571Y026970D02*
X016363Y026970D01*
X016326Y026865D02*
X016163Y026865D01*
X016163Y026430D01*
X016598Y026430D01*
X016598Y026593D01*
X016326Y026865D01*
X016418Y026773D02*
X018527Y026773D01*
X018432Y026675D02*
X016516Y026675D01*
X016598Y026576D02*
X018376Y026576D01*
X018350Y026478D02*
X016598Y026478D01*
X016598Y026281D02*
X018358Y026281D01*
X018397Y026182D02*
X016573Y026182D01*
X016474Y026084D02*
X018465Y026084D01*
X018592Y025985D02*
X016376Y025985D01*
X016163Y025985D02*
X016103Y025985D01*
X016103Y026084D02*
X016163Y026084D01*
X016163Y026182D02*
X016103Y026182D01*
X016103Y026281D02*
X016163Y026281D01*
X016163Y026478D02*
X016103Y026478D01*
X016103Y026576D02*
X016163Y026576D01*
X016163Y026675D02*
X016103Y026675D01*
X016103Y026773D02*
X016163Y026773D01*
X016488Y027069D02*
X018452Y027069D01*
X018379Y027167D02*
X016562Y027167D01*
X016603Y027266D02*
X018339Y027266D01*
X018323Y027364D02*
X016618Y027364D01*
X016618Y027463D02*
X018323Y027463D01*
X018350Y027561D02*
X016592Y027561D01*
X016551Y027660D02*
X018390Y027660D01*
X018478Y027758D02*
X016461Y027758D01*
X015694Y026182D02*
X014233Y026182D01*
X014233Y026084D02*
X015792Y026084D01*
X015891Y025985D02*
X014233Y025985D01*
X014233Y025887D02*
X017514Y025887D01*
X017321Y025788D02*
X014233Y025788D01*
X014233Y025690D02*
X016900Y025690D01*
X016801Y025591D02*
X014233Y025591D01*
X014233Y025493D02*
X016703Y025493D01*
X016604Y025394D02*
X014233Y025394D01*
X014233Y025296D02*
X016506Y025296D01*
X016407Y025197D02*
X014233Y025197D01*
X014233Y025099D02*
X016309Y025099D01*
X016210Y025000D02*
X014233Y025000D01*
X014233Y024902D02*
X016112Y024902D01*
X016017Y024803D02*
X014233Y024803D01*
X014233Y024705D02*
X015976Y024705D01*
X015963Y024606D02*
X014233Y024606D01*
X014233Y024508D02*
X015963Y024508D01*
X015963Y024409D02*
X014233Y024409D01*
X014233Y024311D02*
X015963Y024311D01*
X015963Y024212D02*
X014233Y024212D01*
X014233Y024114D02*
X015963Y024114D01*
X015963Y024015D02*
X014233Y024015D01*
X014233Y023917D02*
X014550Y023917D01*
X014372Y023818D02*
X014233Y023818D01*
X014233Y023720D02*
X014273Y023720D01*
X014915Y023917D02*
X015963Y023917D01*
X015963Y023818D02*
X015094Y023818D01*
X015192Y023720D02*
X015963Y023720D01*
X015963Y023621D02*
X015244Y023621D01*
X015284Y023523D02*
X015963Y023523D01*
X015963Y023424D02*
X015296Y023424D01*
X015296Y023326D02*
X015963Y023326D01*
X015963Y023227D02*
X015279Y023227D01*
X015238Y023129D02*
X015963Y023129D01*
X015963Y023030D02*
X015178Y023030D01*
X015079Y022932D02*
X015963Y022932D01*
X015963Y022833D02*
X014881Y022833D01*
X014585Y022833D02*
X014233Y022833D01*
X014233Y022735D02*
X015963Y022735D01*
X015963Y022636D02*
X014233Y022636D01*
X014233Y022538D02*
X015963Y022538D01*
X015963Y022439D02*
X014233Y022439D01*
X014233Y022341D02*
X015963Y022341D01*
X015963Y022242D02*
X014233Y022242D01*
X014233Y022144D02*
X015963Y022144D01*
X015955Y022045D02*
X014233Y022045D01*
X014233Y021947D02*
X015857Y021947D01*
X015758Y021848D02*
X014233Y021848D01*
X014233Y021750D02*
X015660Y021750D01*
X016214Y021257D02*
X018253Y021257D01*
X018320Y021190D02*
X018320Y021190D01*
X018352Y021159D02*
X016115Y021159D01*
X016017Y021060D02*
X018487Y021060D01*
X018155Y021356D02*
X016312Y021356D01*
X016411Y021454D02*
X018056Y021454D01*
X016438Y020371D02*
X015083Y020371D01*
X015083Y020469D02*
X014983Y020469D01*
X014983Y020568D02*
X015083Y020568D01*
X015083Y020666D02*
X014983Y020666D01*
X014983Y020765D02*
X015083Y020765D01*
X015083Y020863D02*
X014983Y020863D01*
X015880Y020272D02*
X016305Y020272D01*
X016221Y020174D02*
X015842Y020174D01*
X015779Y020075D02*
X016180Y020075D01*
X016151Y019977D02*
X015668Y019977D01*
X015611Y019878D02*
X016151Y019878D01*
X016157Y019780D02*
X015754Y019780D01*
X015843Y019681D02*
X016198Y019681D01*
X016250Y019583D02*
X015884Y019583D01*
X015916Y019484D02*
X016349Y019484D01*
X016474Y019386D02*
X015916Y019386D01*
X015912Y019287D02*
X016320Y019287D01*
X016227Y019189D02*
X015872Y019189D01*
X015824Y019090D02*
X016186Y019090D01*
X016151Y018992D02*
X015725Y018992D01*
X015574Y018893D02*
X016151Y018893D01*
X016151Y018795D02*
X015739Y018795D01*
X015837Y018696D02*
X016192Y018696D01*
X016235Y018598D02*
X015877Y018598D01*
X015916Y018499D02*
X016334Y018499D01*
X016335Y018302D02*
X015916Y018302D01*
X015916Y018401D02*
X016508Y018401D01*
X016236Y018204D02*
X015878Y018204D01*
X015837Y018105D02*
X016192Y018105D01*
X016152Y018007D02*
X015740Y018007D01*
X015577Y017908D02*
X016151Y017908D01*
X016151Y017810D02*
X015724Y017810D01*
X015823Y017711D02*
X016186Y017711D01*
X016227Y017613D02*
X015871Y017613D01*
X015912Y017514D02*
X016319Y017514D01*
X016472Y017416D02*
X015916Y017416D01*
X015916Y017317D02*
X016390Y017317D01*
X016283Y017219D02*
X015884Y017219D01*
X015843Y017120D02*
X016221Y017120D01*
X016184Y017022D02*
X015755Y017022D01*
X015613Y016923D02*
X016983Y016923D01*
X017083Y016923D02*
X018763Y016923D01*
X019503Y016923D02*
X027246Y016923D01*
X027148Y016825D02*
X019503Y016825D01*
X019503Y016726D02*
X027049Y016726D01*
X026951Y016628D02*
X019503Y016628D01*
X019503Y016529D02*
X026852Y016529D01*
X026754Y016431D02*
X019503Y016431D01*
X019503Y017022D02*
X027345Y017022D01*
X027443Y017120D02*
X019503Y017120D01*
X019503Y017219D02*
X028118Y017219D01*
X028217Y017317D02*
X019503Y017317D01*
X019503Y017416D02*
X028322Y017416D01*
X028186Y017514D02*
X019503Y017514D01*
X019487Y017613D02*
X025498Y017613D01*
X025399Y017711D02*
X019446Y017711D01*
X019347Y017810D02*
X025301Y017810D01*
X025202Y017908D02*
X019249Y017908D01*
X019150Y018007D02*
X025104Y018007D01*
X025005Y018105D02*
X019052Y018105D01*
X018953Y018204D02*
X024907Y018204D01*
X024808Y018302D02*
X018855Y018302D01*
X018756Y018401D02*
X024710Y018401D01*
X024616Y018499D02*
X018658Y018499D01*
X018559Y018598D02*
X024575Y018598D01*
X024563Y018696D02*
X018461Y018696D01*
X018362Y018795D02*
X024563Y018795D01*
X024563Y018893D02*
X018264Y018893D01*
X016177Y016825D02*
X015709Y016825D01*
X015808Y016726D02*
X016201Y016726D01*
X016249Y016628D02*
X015865Y016628D01*
X015906Y016529D02*
X016332Y016529D01*
X016484Y016431D02*
X015916Y016431D01*
X015916Y016332D02*
X016365Y016332D01*
X016266Y016234D02*
X015890Y016234D01*
X015849Y016135D02*
X016205Y016135D01*
X016164Y016037D02*
X015770Y016037D01*
X015649Y015938D02*
X016151Y015938D01*
X016151Y015840D02*
X015694Y015840D01*
X015793Y015741D02*
X016173Y015741D01*
X016214Y015643D02*
X015859Y015643D01*
X015899Y015544D02*
X016289Y015544D01*
X016399Y015446D02*
X015916Y015446D01*
X015916Y015347D02*
X016381Y015347D01*
X016281Y015249D02*
X015896Y015249D01*
X015856Y015150D02*
X016211Y015150D01*
X016170Y015052D02*
X015785Y015052D01*
X015686Y014953D02*
X016151Y014953D01*
X016151Y014855D02*
X015667Y014855D01*
X015778Y014756D02*
X016167Y014756D01*
X016208Y014658D02*
X015852Y014658D01*
X015893Y014559D02*
X016274Y014559D01*
X016372Y014461D02*
X015916Y014461D01*
X015916Y014362D02*
X016417Y014362D01*
X016296Y014264D02*
X015903Y014264D01*
X015862Y014165D02*
X016217Y014165D01*
X016177Y014067D02*
X015800Y014067D01*
X015702Y013968D02*
X016151Y013968D01*
X016151Y013870D02*
X015583Y013870D01*
X015734Y013771D02*
X016161Y013771D01*
X016202Y013673D02*
X015817Y013673D01*
X015865Y013574D02*
X016259Y013574D01*
X016357Y013476D02*
X015890Y013476D01*
X015882Y013279D02*
X016489Y013279D01*
X016565Y013377D02*
X015083Y013377D01*
X015083Y013279D02*
X014983Y013279D01*
X014983Y013180D02*
X015083Y013180D01*
X015083Y013082D02*
X014983Y013082D01*
X014983Y012983D02*
X015083Y012983D01*
X015677Y012983D02*
X016193Y012983D01*
X016095Y012885D02*
X014372Y012885D01*
X014390Y012983D02*
X014274Y012983D01*
X014283Y013082D02*
X014233Y013082D01*
X014233Y012097D02*
X017520Y012097D01*
X017618Y012195D02*
X016452Y012195D01*
X016550Y012294D02*
X017717Y012294D01*
X017815Y012392D02*
X016649Y012392D01*
X016747Y012491D02*
X017914Y012491D01*
X018012Y012589D02*
X016846Y012589D01*
X016944Y012688D02*
X018043Y012688D01*
X018043Y012786D02*
X017043Y012786D01*
X017141Y012885D02*
X018043Y012885D01*
X018043Y012983D02*
X017240Y012983D01*
X017338Y013082D02*
X018043Y013082D01*
X018043Y013180D02*
X017384Y013180D01*
X017403Y013279D02*
X018043Y013279D01*
X018043Y013377D02*
X017502Y013377D01*
X017709Y013476D02*
X018043Y013476D01*
X018043Y013574D02*
X017808Y013574D01*
X017865Y013673D02*
X018043Y013673D01*
X018043Y013771D02*
X017906Y013771D01*
X017916Y013870D02*
X018043Y013870D01*
X018043Y013968D02*
X017916Y013968D01*
X017890Y014067D02*
X018043Y014067D01*
X018043Y014165D02*
X017849Y014165D01*
X017770Y014264D02*
X018043Y014264D01*
X018043Y014362D02*
X017649Y014362D01*
X017694Y014461D02*
X018043Y014461D01*
X018043Y014559D02*
X017793Y014559D01*
X017859Y014658D02*
X018043Y014658D01*
X018043Y014756D02*
X017899Y014756D01*
X017916Y014855D02*
X018043Y014855D01*
X018043Y014953D02*
X017916Y014953D01*
X017896Y015052D02*
X018043Y015052D01*
X018043Y015150D02*
X017856Y015150D01*
X017862Y015249D02*
X017785Y015249D01*
X017763Y015347D02*
X017685Y015347D01*
X016390Y013180D02*
X015846Y013180D01*
X015784Y013082D02*
X016292Y013082D01*
X017421Y011998D02*
X014233Y011998D01*
X014233Y011900D02*
X017361Y011900D01*
X017343Y011801D02*
X014233Y011801D01*
X014233Y011703D02*
X017343Y011703D01*
X017343Y011604D02*
X014233Y011604D01*
X014233Y011506D02*
X017343Y011506D01*
X017343Y011407D02*
X014233Y011407D01*
X014233Y011309D02*
X017343Y011309D01*
X017343Y011210D02*
X014233Y011210D01*
X014233Y011112D02*
X017343Y011112D01*
X017343Y011013D02*
X014233Y011013D01*
X014233Y010915D02*
X014452Y010915D01*
X014328Y010816D02*
X014233Y010816D01*
X014233Y010718D02*
X014241Y010718D01*
X014233Y010127D02*
X014238Y010127D01*
X014233Y010028D02*
X014320Y010028D01*
X014233Y009930D02*
X014434Y009930D01*
X014233Y009831D02*
X017343Y009831D01*
X017343Y009733D02*
X014233Y009733D01*
X014233Y009634D02*
X017343Y009634D01*
X017343Y009536D02*
X014233Y009536D01*
X014233Y009437D02*
X017260Y009437D01*
X017162Y009339D02*
X014233Y009339D01*
X014233Y009240D02*
X017063Y009240D01*
X017489Y008846D02*
X018969Y008846D01*
X018871Y008748D02*
X017391Y008748D01*
X017285Y008649D02*
X018772Y008649D01*
X018477Y008551D02*
X016594Y008551D01*
X016495Y008452D02*
X018378Y008452D01*
X018324Y008354D02*
X016397Y008354D01*
X016298Y008255D02*
X018284Y008255D01*
X018280Y008157D02*
X016874Y008157D01*
X016972Y008058D02*
X018280Y008058D01*
X018280Y007960D02*
X017071Y007960D01*
X017114Y007861D02*
X018280Y007861D01*
X018280Y007763D02*
X017114Y007763D01*
X017114Y007664D02*
X018280Y007664D01*
X018280Y007566D02*
X017114Y007566D01*
X017037Y007467D02*
X018280Y007467D01*
X018315Y007369D02*
X016938Y007369D01*
X016868Y007073D02*
X018633Y007073D01*
X018497Y007130D02*
X018356Y007270D01*
X016756Y007073D02*
X016671Y007073D01*
X016657Y006975D02*
X016573Y006975D01*
X016559Y006876D02*
X016500Y006876D01*
X016474Y006876D02*
X016415Y006876D01*
X016444Y006846D02*
X016162Y007129D01*
X016057Y007025D01*
X016057Y006668D01*
X016162Y006564D01*
X016444Y006846D01*
X016460Y006778D02*
X016376Y006778D01*
X016362Y006679D02*
X016277Y006679D01*
X016263Y006581D02*
X016179Y006581D01*
X016145Y006581D02*
X014233Y006581D01*
X014233Y006679D02*
X016057Y006679D01*
X016057Y006778D02*
X014233Y006778D01*
X014233Y006876D02*
X016057Y006876D01*
X016057Y006975D02*
X014233Y006975D01*
X014233Y007073D02*
X015633Y007073D01*
X015497Y007130D02*
X015356Y007270D01*
X015315Y007369D02*
X014233Y007369D01*
X014233Y007467D02*
X015280Y007467D01*
X015280Y007566D02*
X014233Y007566D01*
X014233Y007664D02*
X015280Y007664D01*
X015280Y007763D02*
X014233Y007763D01*
X014233Y007861D02*
X015280Y007861D01*
X015280Y007960D02*
X014233Y007960D01*
X014233Y008058D02*
X015280Y008058D01*
X015280Y008157D02*
X014233Y008157D01*
X014233Y008255D02*
X015284Y008255D01*
X015324Y008354D02*
X014233Y008354D01*
X014233Y008452D02*
X015378Y008452D01*
X015477Y008551D02*
X014233Y008551D01*
X014233Y008649D02*
X015872Y008649D01*
X015971Y008748D02*
X014233Y008748D01*
X014233Y008846D02*
X016069Y008846D01*
X016168Y008945D02*
X014233Y008945D01*
X014233Y009043D02*
X016266Y009043D01*
X016365Y009142D02*
X014233Y009142D01*
X015020Y009930D02*
X017343Y009930D01*
X017343Y010028D02*
X015134Y010028D01*
X015216Y010127D02*
X017343Y010127D01*
X017343Y010225D02*
X015257Y010225D01*
X015291Y010324D02*
X017343Y010324D01*
X017343Y010422D02*
X015291Y010422D01*
X015291Y010521D02*
X017343Y010521D01*
X017343Y010619D02*
X015254Y010619D01*
X015213Y010718D02*
X017343Y010718D01*
X017343Y010816D02*
X015126Y010816D01*
X015002Y010915D02*
X017343Y010915D01*
X017923Y010225D02*
X018901Y010225D01*
X018802Y010127D02*
X017923Y010127D01*
X017923Y010028D02*
X018704Y010028D01*
X018668Y009930D02*
X017923Y009930D01*
X017923Y009831D02*
X018668Y009831D01*
X018668Y009733D02*
X017923Y009733D01*
X017923Y009634D02*
X018668Y009634D01*
X018740Y009536D02*
X017923Y009536D01*
X017923Y009437D02*
X018839Y009437D01*
X018937Y009339D02*
X017922Y009339D01*
X017881Y009240D02*
X019543Y009240D01*
X019543Y009142D02*
X017785Y009142D01*
X017686Y009043D02*
X019543Y009043D01*
X019468Y008945D02*
X017588Y008945D01*
X016453Y008157D02*
X016280Y008157D01*
X016280Y008058D02*
X016355Y008058D01*
X016291Y007467D02*
X016280Y007467D01*
X016244Y007369D02*
X016389Y007369D01*
X016302Y007270D02*
X016203Y007270D01*
X016204Y007172D02*
X016105Y007172D01*
X016105Y007073D02*
X015926Y007073D01*
X016218Y007073D02*
X016303Y007073D01*
X016316Y006975D02*
X016401Y006975D01*
X016513Y006778D02*
X016598Y006778D01*
X016612Y006679D02*
X016697Y006679D01*
X016243Y006482D02*
X014233Y006482D01*
X014233Y005694D02*
X026716Y005694D01*
X026618Y005596D02*
X014233Y005596D01*
X019103Y009339D02*
X019163Y009339D01*
X019163Y009437D02*
X019103Y009437D01*
X019103Y009536D02*
X019163Y009536D01*
X019163Y009634D02*
X019103Y009634D01*
X019103Y009733D02*
X019163Y009733D01*
X019163Y009831D02*
X019103Y009831D01*
X019103Y009930D02*
X019163Y009930D01*
X019163Y010028D02*
X019103Y010028D01*
X019103Y010127D02*
X019163Y010127D01*
X019526Y009536D02*
X019543Y009536D01*
X019543Y009437D02*
X019428Y009437D01*
X019329Y009339D02*
X019543Y009339D01*
X021550Y009142D02*
X023963Y009142D01*
X023963Y009240D02*
X021690Y009240D01*
X021773Y009339D02*
X023893Y009339D01*
X023853Y009437D02*
X021814Y009437D01*
X021840Y009536D02*
X023827Y009536D01*
X023827Y009634D02*
X021840Y009634D01*
X021827Y009733D02*
X023840Y009733D01*
X023881Y009831D02*
X021786Y009831D01*
X021720Y009930D02*
X023946Y009930D01*
X024045Y010028D02*
X021622Y010028D01*
X021669Y010619D02*
X024030Y010619D01*
X023937Y010718D02*
X021765Y010718D01*
X021805Y010816D02*
X023882Y010816D01*
X023854Y010915D02*
X021840Y010915D01*
X021840Y011013D02*
X024283Y011013D01*
X024283Y011050D02*
X024283Y010950D01*
X024383Y010950D01*
X024383Y011050D01*
X024283Y011050D01*
X023849Y011050D01*
X023859Y011114D01*
X023882Y011187D01*
X023917Y011255D01*
X023962Y011317D01*
X024016Y011371D01*
X024078Y011416D01*
X024147Y011451D01*
X024219Y011475D01*
X024283Y011485D01*
X024283Y011050D01*
X024283Y011112D02*
X024383Y011112D01*
X024383Y011050D02*
X024383Y011485D01*
X024447Y011475D01*
X024520Y011451D01*
X024588Y011416D01*
X024650Y011371D01*
X024704Y011317D01*
X024749Y011255D01*
X024784Y011187D01*
X024808Y011114D01*
X024818Y011050D01*
X024383Y011050D01*
X024383Y011013D02*
X025827Y011013D01*
X025875Y011112D02*
X024808Y011112D01*
X024772Y011210D02*
X025789Y011210D01*
X025763Y011309D02*
X024711Y011309D01*
X024601Y011407D02*
X025779Y011407D01*
X025799Y011506D02*
X021437Y011506D01*
X021230Y011506D02*
X020983Y011506D01*
X020983Y011604D02*
X025763Y011604D01*
X025763Y011703D02*
X021046Y011703D01*
X021144Y011801D02*
X025763Y011801D01*
X025763Y011900D02*
X021243Y011900D01*
X021341Y011998D02*
X025763Y011998D01*
X025785Y012097D02*
X021440Y012097D01*
X021538Y012195D02*
X025862Y012195D01*
X025789Y012294D02*
X021637Y012294D01*
X021735Y012392D02*
X025763Y012392D01*
X025779Y012491D02*
X021834Y012491D01*
X021932Y012589D02*
X025846Y012589D01*
X025945Y012688D02*
X022031Y012688D01*
X022129Y012786D02*
X025835Y012786D01*
X025774Y012885D02*
X022228Y012885D01*
X022326Y012983D02*
X025763Y012983D01*
X025763Y013082D02*
X022425Y013082D01*
X022523Y013180D02*
X025763Y013180D01*
X025763Y013279D02*
X022622Y013279D01*
X022720Y013377D02*
X025769Y013377D01*
X025823Y013476D02*
X022819Y013476D01*
X022895Y013574D02*
X025839Y013574D01*
X025776Y013673D02*
X022923Y013673D01*
X022923Y013771D02*
X025763Y013771D01*
X025792Y013870D02*
X022923Y013870D01*
X022923Y013968D02*
X023912Y013968D01*
X023914Y013962D02*
X023933Y013928D01*
X023961Y013900D01*
X023995Y013880D01*
X024034Y013870D01*
X024305Y013870D01*
X024305Y014271D01*
X023903Y014271D01*
X023903Y014000D01*
X023914Y013962D01*
X023903Y014067D02*
X022923Y014067D01*
X022923Y014165D02*
X023903Y014165D01*
X023903Y014264D02*
X022923Y014264D01*
X022923Y014362D02*
X023903Y014362D01*
X023903Y014461D02*
X022923Y014461D01*
X022923Y014559D02*
X023903Y014559D01*
X023925Y014658D02*
X022923Y014658D01*
X022999Y014756D02*
X023977Y014756D01*
X023883Y014855D02*
X023098Y014855D01*
X023196Y014953D02*
X023883Y014953D01*
X023883Y015052D02*
X023295Y015052D01*
X023393Y015150D02*
X023883Y015150D01*
X023883Y015249D02*
X023492Y015249D01*
X023590Y015347D02*
X023883Y015347D01*
X023883Y015446D02*
X023689Y015446D01*
X023787Y015544D02*
X023883Y015544D01*
X023886Y015643D02*
X023975Y015643D01*
X024305Y014658D02*
X024362Y014658D01*
X024362Y014559D02*
X024305Y014559D01*
X024305Y014461D02*
X024362Y014461D01*
X024362Y014362D02*
X024305Y014362D01*
X024305Y014264D02*
X024362Y014264D01*
X024362Y014165D02*
X024305Y014165D01*
X024305Y014067D02*
X024362Y014067D01*
X024362Y013968D02*
X024305Y013968D01*
X024755Y013968D02*
X025891Y013968D01*
X025820Y014067D02*
X024763Y014067D01*
X024763Y014165D02*
X025768Y014165D01*
X025763Y014264D02*
X024763Y014264D01*
X024763Y014362D02*
X025800Y014362D01*
X025937Y014461D02*
X024763Y014461D01*
X022343Y014067D02*
X020567Y014067D01*
X020583Y013968D02*
X022343Y013968D01*
X022343Y013870D02*
X020583Y013870D01*
X020583Y013771D02*
X022294Y013771D01*
X022196Y013673D02*
X020583Y013673D01*
X020583Y013574D02*
X022097Y013574D01*
X021999Y013476D02*
X020583Y013476D01*
X020583Y013377D02*
X021900Y013377D01*
X021802Y013279D02*
X020512Y013279D01*
X020123Y013180D02*
X021703Y013180D01*
X021605Y013082D02*
X020123Y013082D01*
X020123Y012983D02*
X021506Y012983D01*
X021408Y012885D02*
X020123Y012885D01*
X020123Y012786D02*
X021309Y012786D01*
X021211Y012688D02*
X020123Y012688D01*
X020123Y012589D02*
X021112Y012589D01*
X021014Y012491D02*
X020123Y012491D01*
X020123Y012392D02*
X020915Y012392D01*
X020817Y012294D02*
X020123Y012294D01*
X020123Y012195D02*
X020718Y012195D01*
X020620Y012097D02*
X020123Y012097D01*
X020123Y011998D02*
X020131Y011998D01*
X020983Y011407D02*
X021024Y011407D01*
X021643Y011407D02*
X024066Y011407D01*
X023956Y011309D02*
X021741Y011309D01*
X021795Y011210D02*
X023894Y011210D01*
X023858Y011112D02*
X021835Y011112D01*
X024283Y011210D02*
X024383Y011210D01*
X024383Y011309D02*
X024283Y011309D01*
X024283Y011407D02*
X024383Y011407D01*
X024383Y010915D02*
X024283Y010915D01*
X024283Y010816D02*
X024383Y010816D01*
X024383Y010718D02*
X024283Y010718D01*
X024283Y010619D02*
X024383Y010619D01*
X024637Y010619D02*
X025780Y010619D01*
X025797Y010718D02*
X024729Y010718D01*
X024785Y010816D02*
X025763Y010816D01*
X025771Y010915D02*
X024812Y010915D01*
X026584Y009930D02*
X028432Y009930D01*
X028333Y009831D02*
X026617Y009831D01*
X026700Y009733D02*
X028247Y009733D01*
X028206Y009634D02*
X026727Y009634D01*
X026727Y009536D02*
X028165Y009536D01*
X028133Y009437D02*
X026727Y009437D01*
X026727Y009339D02*
X028133Y009339D01*
X028133Y009240D02*
X026686Y009240D01*
X026633Y009142D02*
X028133Y009142D01*
X028174Y009043D02*
X026707Y009043D01*
X026727Y008945D02*
X028215Y008945D01*
X028256Y008846D02*
X026706Y008846D01*
X026630Y008748D02*
X028355Y008748D01*
X028453Y008649D02*
X026652Y008649D01*
X026715Y008551D02*
X028652Y008551D01*
X028601Y010028D02*
X026682Y010028D01*
X023963Y008255D02*
X021695Y008255D01*
X021775Y008157D02*
X023891Y008157D01*
X023851Y008058D02*
X021816Y008058D01*
X021840Y007960D02*
X023827Y007960D01*
X023827Y007861D02*
X021896Y007861D01*
X021994Y007763D02*
X023842Y007763D01*
X023883Y007664D02*
X022093Y007664D01*
X022191Y007566D02*
X023951Y007566D01*
X024055Y007467D02*
X022290Y007467D01*
X022388Y007369D02*
X025763Y007369D01*
X025781Y007270D02*
X022487Y007270D01*
X022585Y007172D02*
X025852Y007172D01*
X025847Y007073D02*
X022684Y007073D01*
X022782Y006975D02*
X024155Y006975D01*
X023993Y006876D02*
X022881Y006876D01*
X022130Y006581D02*
X021813Y006581D01*
X021787Y006679D02*
X022031Y006679D01*
X021933Y006778D02*
X021733Y006778D01*
X021644Y006876D02*
X021834Y006876D01*
X021383Y006876D02*
X021283Y006876D01*
X021283Y006778D02*
X021383Y006778D01*
X021383Y006679D02*
X021283Y006679D01*
X021283Y006581D02*
X021383Y006581D01*
X021383Y006285D02*
X021283Y006285D01*
X021283Y006187D02*
X021383Y006187D01*
X021383Y006088D02*
X021283Y006088D01*
X029452Y013377D02*
X029913Y013377D01*
X029913Y013476D02*
X029643Y013476D01*
X029741Y013574D02*
X029913Y013574D01*
X029913Y013673D02*
X029794Y013673D01*
X029834Y013771D02*
X029913Y013771D01*
X029913Y013870D02*
X029843Y013870D01*
X029843Y013968D02*
X029913Y013968D01*
X029913Y014067D02*
X029819Y014067D01*
X029778Y014165D02*
X029913Y014165D01*
X029913Y014264D02*
X029703Y014264D01*
X029599Y014362D02*
X029913Y014362D01*
X029913Y014461D02*
X029628Y014461D01*
X029726Y014559D02*
X029913Y014559D01*
X029913Y014658D02*
X029787Y014658D01*
X029828Y014756D02*
X029913Y014756D01*
X029913Y014855D02*
X029843Y014855D01*
X029843Y014953D02*
X029913Y014953D01*
X029913Y015052D02*
X029825Y015052D01*
X029784Y015150D02*
X029913Y015150D01*
X029913Y015249D02*
X029718Y015249D01*
X029620Y015347D02*
X029913Y015347D01*
X029913Y015446D02*
X029613Y015446D01*
X029711Y015544D02*
X029913Y015544D01*
X029913Y015643D02*
X029781Y015643D01*
X029822Y015741D02*
X029913Y015741D01*
X029913Y015840D02*
X029843Y015840D01*
X029843Y015938D02*
X029913Y015938D01*
X029913Y016037D02*
X029831Y016037D01*
X029790Y016135D02*
X029913Y016135D01*
X029913Y016234D02*
X029733Y016234D01*
X029635Y016332D02*
X029913Y016332D01*
X029913Y016431D02*
X029581Y016431D01*
X029696Y016529D02*
X029913Y016529D01*
X029913Y016628D02*
X029775Y016628D01*
X029816Y016726D02*
X029913Y016726D01*
X029913Y016825D02*
X029843Y016825D01*
X029843Y016923D02*
X029913Y016923D01*
X029913Y017022D02*
X029837Y017022D01*
X029797Y017120D02*
X029913Y017120D01*
X029913Y017219D02*
X029748Y017219D01*
X029650Y017317D02*
X029913Y017317D01*
X029913Y017416D02*
X029545Y017416D01*
X029681Y017514D02*
X029913Y017514D01*
X029913Y017613D02*
X029769Y017613D01*
X029810Y017711D02*
X029913Y017711D01*
X029913Y017810D02*
X029843Y017810D01*
X029843Y017908D02*
X029913Y017908D01*
X029913Y018007D02*
X029843Y018007D01*
X029803Y018105D02*
X029913Y018105D01*
X029913Y018204D02*
X029762Y018204D01*
X029665Y018302D02*
X029913Y018302D01*
X029913Y018401D02*
X029506Y018401D01*
X029636Y018499D02*
X029913Y018499D01*
X029913Y018598D02*
X029726Y018598D01*
X029783Y018696D02*
X029913Y018696D01*
X029913Y018795D02*
X029813Y018795D01*
X029913Y018893D02*
X029303Y018893D01*
X029815Y018992D02*
X029913Y018992D01*
X029913Y019090D02*
X029788Y019090D01*
X029736Y019189D02*
X029913Y019189D01*
X029913Y019287D02*
X029652Y019287D01*
X029492Y019386D02*
X029913Y019386D01*
X029913Y019484D02*
X029651Y019484D01*
X029750Y019583D02*
X029913Y019583D01*
X029913Y019681D02*
X029797Y019681D01*
X029838Y019780D02*
X029913Y019780D01*
X029913Y019878D02*
X029843Y019878D01*
X029843Y019977D02*
X029913Y019977D01*
X029913Y020075D02*
X029815Y020075D01*
X029775Y020174D02*
X029913Y020174D01*
X029913Y020272D02*
X029695Y020272D01*
X029578Y020371D02*
X029913Y020371D01*
X029913Y020469D02*
X023688Y020469D01*
X023786Y020371D02*
X028288Y020371D01*
X028172Y020272D02*
X023885Y020272D01*
X023983Y020174D02*
X025984Y020174D01*
X025608Y020075D02*
X025359Y020075D01*
X025383Y019977D02*
X025583Y019977D01*
X025583Y019878D02*
X025383Y019878D01*
X025383Y019780D02*
X025583Y019780D01*
X025583Y019681D02*
X025383Y019681D01*
X025383Y019583D02*
X025583Y019583D01*
X025583Y019484D02*
X025383Y019484D01*
X025383Y019386D02*
X025583Y019386D01*
X025646Y019287D02*
X025321Y019287D01*
X025303Y019189D02*
X028130Y019189D01*
X028078Y019090D02*
X025303Y019090D01*
X025303Y018992D02*
X028051Y018992D01*
X028054Y018795D02*
X025362Y018795D01*
X025303Y018893D02*
X028563Y018893D01*
X028140Y018598D02*
X025559Y018598D01*
X025461Y018696D02*
X028084Y018696D01*
X028231Y018499D02*
X025658Y018499D01*
X025756Y018401D02*
X028361Y018401D01*
X028202Y018302D02*
X025855Y018302D01*
X026421Y019287D02*
X028215Y019287D01*
X028375Y019386D02*
X026483Y019386D01*
X026483Y019484D02*
X028216Y019484D01*
X028072Y020863D02*
X028360Y020863D01*
X028261Y020962D02*
X028171Y020962D01*
X028177Y020968D02*
X028177Y020968D01*
X027811Y020863D02*
X023303Y020863D01*
X023303Y020962D02*
X024068Y020962D01*
X024046Y020971D02*
X024233Y020893D01*
X024434Y020893D01*
X024620Y020971D01*
X024763Y021113D01*
X024840Y021299D01*
X024840Y021501D01*
X024763Y021687D01*
X024620Y021829D01*
X024434Y021907D01*
X024233Y021907D01*
X024046Y021829D01*
X023904Y021687D01*
X023827Y021501D01*
X023827Y021299D01*
X023904Y021113D01*
X024046Y020971D01*
X023957Y021060D02*
X023303Y021060D01*
X023303Y021159D02*
X023885Y021159D01*
X023844Y021257D02*
X023303Y021257D01*
X023303Y021356D02*
X023827Y021356D01*
X023827Y021454D02*
X023303Y021454D01*
X023303Y021553D02*
X023848Y021553D01*
X023889Y021651D02*
X023303Y021651D01*
X023303Y021750D02*
X023967Y021750D01*
X024091Y021848D02*
X023303Y021848D01*
X022563Y021848D02*
X021575Y021848D01*
X021700Y021750D02*
X022563Y021750D01*
X022563Y021651D02*
X021778Y021651D01*
X021818Y021553D02*
X022563Y021553D01*
X022563Y021454D02*
X021840Y021454D01*
X021840Y021356D02*
X022563Y021356D01*
X022563Y021257D02*
X021822Y021257D01*
X021782Y021159D02*
X022563Y021159D01*
X022563Y021060D02*
X021710Y021060D01*
X021598Y020962D02*
X022563Y020962D01*
X023392Y020765D02*
X029913Y020765D01*
X029913Y020863D02*
X029636Y020863D01*
X029734Y020962D02*
X029913Y020962D01*
X029913Y021060D02*
X029744Y021060D01*
X029740Y021159D02*
X029913Y021159D01*
X029913Y021257D02*
X029740Y021257D01*
X029740Y021356D02*
X029913Y021356D01*
X029913Y021454D02*
X029740Y021454D01*
X029740Y021553D02*
X029913Y021553D01*
X029913Y021651D02*
X029740Y021651D01*
X029740Y021750D02*
X029913Y021750D01*
X029913Y021848D02*
X029740Y021848D01*
X029687Y021947D02*
X029913Y021947D01*
X029913Y022045D02*
X029560Y022045D01*
X029658Y022144D02*
X029913Y022144D01*
X029913Y022242D02*
X029757Y022242D01*
X029804Y022341D02*
X029913Y022341D01*
X029913Y022439D02*
X029804Y022439D01*
X029804Y022538D02*
X029913Y022538D01*
X029913Y022636D02*
X029804Y022636D01*
X029804Y022735D02*
X029913Y022735D01*
X029913Y022833D02*
X029804Y022833D01*
X029804Y022932D02*
X029913Y022932D01*
X029913Y023030D02*
X029745Y023030D01*
X029647Y023129D02*
X029913Y023129D01*
X029913Y023227D02*
X029548Y023227D01*
X028981Y023227D02*
X028878Y023227D01*
X028676Y023227D02*
X028391Y023227D01*
X028490Y023129D02*
X028578Y023129D01*
X028189Y023227D02*
X027965Y023227D01*
X028063Y023129D02*
X028077Y023129D01*
X027263Y022439D02*
X026811Y022439D01*
X026774Y022341D02*
X027263Y022341D01*
X027311Y022242D02*
X026710Y022242D01*
X026591Y022144D02*
X027409Y022144D01*
X027463Y021848D02*
X026648Y021848D01*
X026631Y021865D02*
X026451Y021940D01*
X025616Y021940D01*
X025436Y021865D01*
X025298Y021728D01*
X025223Y021547D01*
X025223Y021353D01*
X025298Y021172D01*
X025436Y021035D01*
X025616Y020960D01*
X026451Y020960D01*
X026631Y021035D01*
X026769Y021172D01*
X026843Y021353D01*
X026843Y021547D01*
X026769Y021728D01*
X026631Y021865D01*
X026747Y021750D02*
X027463Y021750D01*
X027463Y021651D02*
X026800Y021651D01*
X026841Y021553D02*
X027463Y021553D01*
X027463Y021454D02*
X026843Y021454D01*
X026843Y021356D02*
X027463Y021356D01*
X027463Y021257D02*
X026804Y021257D01*
X026755Y021159D02*
X027516Y021159D01*
X027614Y021060D02*
X026656Y021060D01*
X026455Y020962D02*
X027713Y020962D01*
X028864Y020863D02*
X028888Y020863D01*
X029149Y020863D02*
X029357Y020863D01*
X029276Y020962D02*
X029247Y020962D01*
X029913Y020666D02*
X023491Y020666D01*
X023589Y020568D02*
X029913Y020568D01*
X029667Y022152D02*
X029667Y022152D01*
X028187Y024212D02*
X023303Y024212D01*
X023303Y024311D02*
X028146Y024311D01*
X028133Y024409D02*
X023303Y024409D01*
X023289Y024508D02*
X028133Y024508D01*
X028133Y024606D02*
X023248Y024606D01*
X023152Y024705D02*
X028152Y024705D01*
X028193Y024803D02*
X023054Y024803D01*
X022955Y024902D02*
X028234Y024902D01*
X028302Y025000D02*
X022857Y025000D01*
X022758Y025099D02*
X028401Y025099D01*
X028526Y025197D02*
X022660Y025197D01*
X022561Y025296D02*
X028764Y025296D01*
X028936Y025887D02*
X019559Y025887D01*
X019183Y025985D02*
X019083Y025985D01*
X019083Y026084D02*
X019183Y026084D01*
X019183Y026182D02*
X019083Y026182D01*
X019083Y026281D02*
X019183Y026281D01*
X019183Y026379D02*
X028443Y026379D01*
X027951Y026872D02*
X014233Y026872D01*
X017257Y025000D02*
X017333Y025000D01*
X017614Y024803D02*
X017652Y024803D01*
X017652Y024705D02*
X017614Y024705D01*
X017614Y024606D02*
X017652Y024606D01*
X017652Y024508D02*
X017614Y024508D01*
X017614Y024311D02*
X017652Y024311D01*
X017652Y024212D02*
X017614Y024212D01*
X017614Y024114D02*
X017652Y024114D01*
X017652Y024015D02*
X017614Y024015D01*
X017912Y024015D02*
X019235Y024015D01*
X019140Y024114D02*
X018012Y024114D01*
X018071Y024212D02*
X019083Y024212D01*
X019055Y024311D02*
X018100Y024311D01*
X018097Y024508D02*
X019058Y024508D01*
X019092Y024606D02*
X018061Y024606D01*
X017999Y024705D02*
X019153Y024705D01*
X019260Y024803D02*
X017887Y024803D01*
X017933Y025000D02*
X018520Y025000D01*
X018422Y025099D02*
X018032Y025099D01*
X018085Y025197D02*
X018367Y025197D01*
X018326Y025296D02*
X018126Y025296D01*
X018128Y025394D02*
X018323Y025394D01*
X018323Y025493D02*
X018128Y025493D01*
X018090Y025591D02*
X018362Y025591D01*
X018410Y025690D02*
X018044Y025690D01*
X017945Y025788D02*
X018508Y025788D01*
X018708Y025887D02*
X017752Y025887D01*
X019483Y024803D02*
X019583Y024803D01*
X019583Y024705D02*
X019483Y024705D01*
X019483Y024606D02*
X019583Y024606D01*
X019583Y024311D02*
X019483Y024311D01*
X019483Y024212D02*
X019583Y024212D01*
X019583Y024114D02*
X019483Y024114D01*
X019483Y024015D02*
X019583Y024015D01*
X019746Y025000D02*
X021810Y025000D01*
X024283Y024015D02*
X024383Y024015D01*
X024383Y023917D02*
X024283Y023917D01*
X024283Y023818D02*
X024383Y023818D01*
X024383Y023523D02*
X024283Y023523D01*
X024283Y023424D02*
X024383Y023424D01*
X024383Y023326D02*
X024283Y023326D01*
X024283Y023227D02*
X024383Y023227D01*
X024615Y022932D02*
X025439Y022932D01*
X025338Y022833D02*
X024717Y022833D01*
X024784Y022735D02*
X025280Y022735D01*
X025251Y022636D02*
X024825Y022636D01*
X024575Y021848D02*
X025418Y021848D01*
X025320Y021750D02*
X024700Y021750D01*
X024778Y021651D02*
X025266Y021651D01*
X025225Y021553D02*
X024818Y021553D01*
X024840Y021454D02*
X025223Y021454D01*
X025223Y021356D02*
X024840Y021356D01*
X024822Y021257D02*
X025263Y021257D01*
X025312Y021159D02*
X024782Y021159D01*
X024710Y021060D02*
X025410Y021060D01*
X025612Y020962D02*
X024598Y020962D01*
X024508Y020075D02*
X024082Y020075D01*
X025983Y022636D02*
X026083Y022636D01*
X026083Y022735D02*
X025983Y022735D01*
X025983Y022833D02*
X026083Y022833D01*
X026083Y022932D02*
X025983Y022932D01*
X027672Y016529D02*
X028171Y016529D01*
X028286Y016431D02*
X027574Y016431D01*
X027475Y016332D02*
X028232Y016332D01*
X014314Y021651D02*
X014233Y021651D01*
X014233Y022932D02*
X014386Y022932D01*
X014287Y023030D02*
X014233Y023030D01*
D11*
X014339Y023382D02*
X014341Y023421D01*
X014347Y023460D01*
X014357Y023498D01*
X014370Y023535D01*
X014387Y023570D01*
X014407Y023604D01*
X014431Y023635D01*
X014458Y023664D01*
X014487Y023690D01*
X014519Y023713D01*
X014553Y023733D01*
X014589Y023749D01*
X014626Y023761D01*
X014665Y023770D01*
X014704Y023775D01*
X014743Y023776D01*
X014782Y023773D01*
X014821Y023766D01*
X014858Y023755D01*
X014895Y023741D01*
X014930Y023723D01*
X014963Y023702D01*
X014994Y023677D01*
X015022Y023650D01*
X015047Y023620D01*
X015069Y023587D01*
X015088Y023553D01*
X015103Y023517D01*
X015115Y023479D01*
X015123Y023441D01*
X015127Y023402D01*
X015127Y023362D01*
X015123Y023323D01*
X015115Y023285D01*
X015103Y023247D01*
X015088Y023211D01*
X015069Y023177D01*
X015047Y023144D01*
X015022Y023114D01*
X014994Y023087D01*
X014963Y023062D01*
X014930Y023041D01*
X014895Y023023D01*
X014858Y023009D01*
X014821Y022998D01*
X014782Y022991D01*
X014743Y022988D01*
X014704Y022989D01*
X014665Y022994D01*
X014626Y023003D01*
X014589Y023015D01*
X014553Y023031D01*
X014519Y023051D01*
X014487Y023074D01*
X014458Y023100D01*
X014431Y023129D01*
X014407Y023160D01*
X014387Y023194D01*
X014370Y023229D01*
X014357Y023266D01*
X014347Y023304D01*
X014341Y023343D01*
X014339Y023382D01*
X007646Y023382D02*
X007648Y023421D01*
X007654Y023460D01*
X007664Y023498D01*
X007677Y023535D01*
X007694Y023570D01*
X007714Y023604D01*
X007738Y023635D01*
X007765Y023664D01*
X007794Y023690D01*
X007826Y023713D01*
X007860Y023733D01*
X007896Y023749D01*
X007933Y023761D01*
X007972Y023770D01*
X008011Y023775D01*
X008050Y023776D01*
X008089Y023773D01*
X008128Y023766D01*
X008165Y023755D01*
X008202Y023741D01*
X008237Y023723D01*
X008270Y023702D01*
X008301Y023677D01*
X008329Y023650D01*
X008354Y023620D01*
X008376Y023587D01*
X008395Y023553D01*
X008410Y023517D01*
X008422Y023479D01*
X008430Y023441D01*
X008434Y023402D01*
X008434Y023362D01*
X008430Y023323D01*
X008422Y023285D01*
X008410Y023247D01*
X008395Y023211D01*
X008376Y023177D01*
X008354Y023144D01*
X008329Y023114D01*
X008301Y023087D01*
X008270Y023062D01*
X008237Y023041D01*
X008202Y023023D01*
X008165Y023009D01*
X008128Y022998D01*
X008089Y022991D01*
X008050Y022988D01*
X008011Y022989D01*
X007972Y022994D01*
X007933Y023003D01*
X007896Y023015D01*
X007860Y023031D01*
X007826Y023051D01*
X007794Y023074D01*
X007765Y023100D01*
X007738Y023129D01*
X007714Y023160D01*
X007694Y023194D01*
X007677Y023229D01*
X007664Y023266D01*
X007654Y023304D01*
X007648Y023343D01*
X007646Y023382D01*
X006603Y026900D02*
X006605Y026950D01*
X006611Y027000D01*
X006621Y027049D01*
X006635Y027097D01*
X006652Y027144D01*
X006673Y027189D01*
X006698Y027233D01*
X006726Y027274D01*
X006758Y027313D01*
X006792Y027350D01*
X006829Y027384D01*
X006869Y027414D01*
X006911Y027441D01*
X006955Y027465D01*
X007001Y027486D01*
X007048Y027502D01*
X007096Y027515D01*
X007146Y027524D01*
X007195Y027529D01*
X007246Y027530D01*
X007296Y027527D01*
X007345Y027520D01*
X007394Y027509D01*
X007442Y027494D01*
X007488Y027476D01*
X007533Y027454D01*
X007576Y027428D01*
X007617Y027399D01*
X007656Y027367D01*
X007692Y027332D01*
X007724Y027294D01*
X007754Y027254D01*
X007781Y027211D01*
X007804Y027167D01*
X007823Y027121D01*
X007839Y027073D01*
X007851Y027024D01*
X007859Y026975D01*
X007863Y026925D01*
X007863Y026875D01*
X007859Y026825D01*
X007851Y026776D01*
X007839Y026727D01*
X007823Y026679D01*
X007804Y026633D01*
X007781Y026589D01*
X007754Y026546D01*
X007724Y026506D01*
X007692Y026468D01*
X007656Y026433D01*
X007617Y026401D01*
X007576Y026372D01*
X007533Y026346D01*
X007488Y026324D01*
X007442Y026306D01*
X007394Y026291D01*
X007345Y026280D01*
X007296Y026273D01*
X007246Y026270D01*
X007195Y026271D01*
X007146Y026276D01*
X007096Y026285D01*
X007048Y026298D01*
X007001Y026314D01*
X006955Y026335D01*
X006911Y026359D01*
X006869Y026386D01*
X006829Y026416D01*
X006792Y026450D01*
X006758Y026487D01*
X006726Y026526D01*
X006698Y026567D01*
X006673Y026611D01*
X006652Y026656D01*
X006635Y026703D01*
X006621Y026751D01*
X006611Y026800D01*
X006605Y026850D01*
X006603Y026900D01*
X007640Y010418D02*
X007642Y010457D01*
X007648Y010496D01*
X007658Y010534D01*
X007671Y010571D01*
X007688Y010606D01*
X007708Y010640D01*
X007732Y010671D01*
X007759Y010700D01*
X007788Y010726D01*
X007820Y010749D01*
X007854Y010769D01*
X007890Y010785D01*
X007927Y010797D01*
X007966Y010806D01*
X008005Y010811D01*
X008044Y010812D01*
X008083Y010809D01*
X008122Y010802D01*
X008159Y010791D01*
X008196Y010777D01*
X008231Y010759D01*
X008264Y010738D01*
X008295Y010713D01*
X008323Y010686D01*
X008348Y010656D01*
X008370Y010623D01*
X008389Y010589D01*
X008404Y010553D01*
X008416Y010515D01*
X008424Y010477D01*
X008428Y010438D01*
X008428Y010398D01*
X008424Y010359D01*
X008416Y010321D01*
X008404Y010283D01*
X008389Y010247D01*
X008370Y010213D01*
X008348Y010180D01*
X008323Y010150D01*
X008295Y010123D01*
X008264Y010098D01*
X008231Y010077D01*
X008196Y010059D01*
X008159Y010045D01*
X008122Y010034D01*
X008083Y010027D01*
X008044Y010024D01*
X008005Y010025D01*
X007966Y010030D01*
X007927Y010039D01*
X007890Y010051D01*
X007854Y010067D01*
X007820Y010087D01*
X007788Y010110D01*
X007759Y010136D01*
X007732Y010165D01*
X007708Y010196D01*
X007688Y010230D01*
X007671Y010265D01*
X007658Y010302D01*
X007648Y010340D01*
X007642Y010379D01*
X007640Y010418D01*
X006603Y006900D02*
X006605Y006950D01*
X006611Y007000D01*
X006621Y007049D01*
X006635Y007097D01*
X006652Y007144D01*
X006673Y007189D01*
X006698Y007233D01*
X006726Y007274D01*
X006758Y007313D01*
X006792Y007350D01*
X006829Y007384D01*
X006869Y007414D01*
X006911Y007441D01*
X006955Y007465D01*
X007001Y007486D01*
X007048Y007502D01*
X007096Y007515D01*
X007146Y007524D01*
X007195Y007529D01*
X007246Y007530D01*
X007296Y007527D01*
X007345Y007520D01*
X007394Y007509D01*
X007442Y007494D01*
X007488Y007476D01*
X007533Y007454D01*
X007576Y007428D01*
X007617Y007399D01*
X007656Y007367D01*
X007692Y007332D01*
X007724Y007294D01*
X007754Y007254D01*
X007781Y007211D01*
X007804Y007167D01*
X007823Y007121D01*
X007839Y007073D01*
X007851Y007024D01*
X007859Y006975D01*
X007863Y006925D01*
X007863Y006875D01*
X007859Y006825D01*
X007851Y006776D01*
X007839Y006727D01*
X007823Y006679D01*
X007804Y006633D01*
X007781Y006589D01*
X007754Y006546D01*
X007724Y006506D01*
X007692Y006468D01*
X007656Y006433D01*
X007617Y006401D01*
X007576Y006372D01*
X007533Y006346D01*
X007488Y006324D01*
X007442Y006306D01*
X007394Y006291D01*
X007345Y006280D01*
X007296Y006273D01*
X007246Y006270D01*
X007195Y006271D01*
X007146Y006276D01*
X007096Y006285D01*
X007048Y006298D01*
X007001Y006314D01*
X006955Y006335D01*
X006911Y006359D01*
X006869Y006386D01*
X006829Y006416D01*
X006792Y006450D01*
X006758Y006487D01*
X006726Y006526D01*
X006698Y006567D01*
X006673Y006611D01*
X006652Y006656D01*
X006635Y006703D01*
X006621Y006751D01*
X006611Y006800D01*
X006605Y006850D01*
X006603Y006900D01*
X014333Y010418D02*
X014335Y010457D01*
X014341Y010496D01*
X014351Y010534D01*
X014364Y010571D01*
X014381Y010606D01*
X014401Y010640D01*
X014425Y010671D01*
X014452Y010700D01*
X014481Y010726D01*
X014513Y010749D01*
X014547Y010769D01*
X014583Y010785D01*
X014620Y010797D01*
X014659Y010806D01*
X014698Y010811D01*
X014737Y010812D01*
X014776Y010809D01*
X014815Y010802D01*
X014852Y010791D01*
X014889Y010777D01*
X014924Y010759D01*
X014957Y010738D01*
X014988Y010713D01*
X015016Y010686D01*
X015041Y010656D01*
X015063Y010623D01*
X015082Y010589D01*
X015097Y010553D01*
X015109Y010515D01*
X015117Y010477D01*
X015121Y010438D01*
X015121Y010398D01*
X015117Y010359D01*
X015109Y010321D01*
X015097Y010283D01*
X015082Y010247D01*
X015063Y010213D01*
X015041Y010180D01*
X015016Y010150D01*
X014988Y010123D01*
X014957Y010098D01*
X014924Y010077D01*
X014889Y010059D01*
X014852Y010045D01*
X014815Y010034D01*
X014776Y010027D01*
X014737Y010024D01*
X014698Y010025D01*
X014659Y010030D01*
X014620Y010039D01*
X014583Y010051D01*
X014547Y010067D01*
X014513Y010087D01*
X014481Y010110D01*
X014452Y010136D01*
X014425Y010165D01*
X014401Y010196D01*
X014381Y010230D01*
X014364Y010265D01*
X014351Y010302D01*
X014341Y010340D01*
X014335Y010379D01*
X014333Y010418D01*
X028303Y009300D02*
X028305Y009350D01*
X028311Y009400D01*
X028321Y009449D01*
X028335Y009497D01*
X028352Y009544D01*
X028373Y009589D01*
X028398Y009633D01*
X028426Y009674D01*
X028458Y009713D01*
X028492Y009750D01*
X028529Y009784D01*
X028569Y009814D01*
X028611Y009841D01*
X028655Y009865D01*
X028701Y009886D01*
X028748Y009902D01*
X028796Y009915D01*
X028846Y009924D01*
X028895Y009929D01*
X028946Y009930D01*
X028996Y009927D01*
X029045Y009920D01*
X029094Y009909D01*
X029142Y009894D01*
X029188Y009876D01*
X029233Y009854D01*
X029276Y009828D01*
X029317Y009799D01*
X029356Y009767D01*
X029392Y009732D01*
X029424Y009694D01*
X029454Y009654D01*
X029481Y009611D01*
X029504Y009567D01*
X029523Y009521D01*
X029539Y009473D01*
X029551Y009424D01*
X029559Y009375D01*
X029563Y009325D01*
X029563Y009275D01*
X029559Y009225D01*
X029551Y009176D01*
X029539Y009127D01*
X029523Y009079D01*
X029504Y009033D01*
X029481Y008989D01*
X029454Y008946D01*
X029424Y008906D01*
X029392Y008868D01*
X029356Y008833D01*
X029317Y008801D01*
X029276Y008772D01*
X029233Y008746D01*
X029188Y008724D01*
X029142Y008706D01*
X029094Y008691D01*
X029045Y008680D01*
X028996Y008673D01*
X028946Y008670D01*
X028895Y008671D01*
X028846Y008676D01*
X028796Y008685D01*
X028748Y008698D01*
X028701Y008714D01*
X028655Y008735D01*
X028611Y008759D01*
X028569Y008786D01*
X028529Y008816D01*
X028492Y008850D01*
X028458Y008887D01*
X028426Y008926D01*
X028398Y008967D01*
X028373Y009011D01*
X028352Y009056D01*
X028335Y009103D01*
X028321Y009151D01*
X028311Y009200D01*
X028305Y009250D01*
X028303Y009300D01*
X028733Y013900D02*
X028735Y013928D01*
X028741Y013955D01*
X028750Y013981D01*
X028763Y014006D01*
X028780Y014029D01*
X028799Y014049D01*
X028821Y014066D01*
X028845Y014080D01*
X028871Y014090D01*
X028898Y014097D01*
X028926Y014100D01*
X028954Y014099D01*
X028981Y014094D01*
X029008Y014085D01*
X029033Y014073D01*
X029056Y014058D01*
X029077Y014039D01*
X029095Y014018D01*
X029110Y013994D01*
X029121Y013968D01*
X029129Y013942D01*
X029133Y013914D01*
X029133Y013886D01*
X029129Y013858D01*
X029121Y013832D01*
X029110Y013806D01*
X029095Y013782D01*
X029077Y013761D01*
X029056Y013742D01*
X029033Y013727D01*
X029008Y013715D01*
X028981Y013706D01*
X028954Y013701D01*
X028926Y013700D01*
X028898Y013703D01*
X028871Y013710D01*
X028845Y013720D01*
X028821Y013734D01*
X028799Y013751D01*
X028780Y013771D01*
X028763Y013794D01*
X028750Y013819D01*
X028741Y013845D01*
X028735Y013872D01*
X028733Y013900D01*
X028733Y014900D02*
X028735Y014928D01*
X028741Y014955D01*
X028750Y014981D01*
X028763Y015006D01*
X028780Y015029D01*
X028799Y015049D01*
X028821Y015066D01*
X028845Y015080D01*
X028871Y015090D01*
X028898Y015097D01*
X028926Y015100D01*
X028954Y015099D01*
X028981Y015094D01*
X029008Y015085D01*
X029033Y015073D01*
X029056Y015058D01*
X029077Y015039D01*
X029095Y015018D01*
X029110Y014994D01*
X029121Y014968D01*
X029129Y014942D01*
X029133Y014914D01*
X029133Y014886D01*
X029129Y014858D01*
X029121Y014832D01*
X029110Y014806D01*
X029095Y014782D01*
X029077Y014761D01*
X029056Y014742D01*
X029033Y014727D01*
X029008Y014715D01*
X028981Y014706D01*
X028954Y014701D01*
X028926Y014700D01*
X028898Y014703D01*
X028871Y014710D01*
X028845Y014720D01*
X028821Y014734D01*
X028799Y014751D01*
X028780Y014771D01*
X028763Y014794D01*
X028750Y014819D01*
X028741Y014845D01*
X028735Y014872D01*
X028733Y014900D01*
X028733Y015900D02*
X028735Y015928D01*
X028741Y015955D01*
X028750Y015981D01*
X028763Y016006D01*
X028780Y016029D01*
X028799Y016049D01*
X028821Y016066D01*
X028845Y016080D01*
X028871Y016090D01*
X028898Y016097D01*
X028926Y016100D01*
X028954Y016099D01*
X028981Y016094D01*
X029008Y016085D01*
X029033Y016073D01*
X029056Y016058D01*
X029077Y016039D01*
X029095Y016018D01*
X029110Y015994D01*
X029121Y015968D01*
X029129Y015942D01*
X029133Y015914D01*
X029133Y015886D01*
X029129Y015858D01*
X029121Y015832D01*
X029110Y015806D01*
X029095Y015782D01*
X029077Y015761D01*
X029056Y015742D01*
X029033Y015727D01*
X029008Y015715D01*
X028981Y015706D01*
X028954Y015701D01*
X028926Y015700D01*
X028898Y015703D01*
X028871Y015710D01*
X028845Y015720D01*
X028821Y015734D01*
X028799Y015751D01*
X028780Y015771D01*
X028763Y015794D01*
X028750Y015819D01*
X028741Y015845D01*
X028735Y015872D01*
X028733Y015900D01*
X028733Y016900D02*
X028735Y016928D01*
X028741Y016955D01*
X028750Y016981D01*
X028763Y017006D01*
X028780Y017029D01*
X028799Y017049D01*
X028821Y017066D01*
X028845Y017080D01*
X028871Y017090D01*
X028898Y017097D01*
X028926Y017100D01*
X028954Y017099D01*
X028981Y017094D01*
X029008Y017085D01*
X029033Y017073D01*
X029056Y017058D01*
X029077Y017039D01*
X029095Y017018D01*
X029110Y016994D01*
X029121Y016968D01*
X029129Y016942D01*
X029133Y016914D01*
X029133Y016886D01*
X029129Y016858D01*
X029121Y016832D01*
X029110Y016806D01*
X029095Y016782D01*
X029077Y016761D01*
X029056Y016742D01*
X029033Y016727D01*
X029008Y016715D01*
X028981Y016706D01*
X028954Y016701D01*
X028926Y016700D01*
X028898Y016703D01*
X028871Y016710D01*
X028845Y016720D01*
X028821Y016734D01*
X028799Y016751D01*
X028780Y016771D01*
X028763Y016794D01*
X028750Y016819D01*
X028741Y016845D01*
X028735Y016872D01*
X028733Y016900D01*
X028733Y017900D02*
X028735Y017928D01*
X028741Y017955D01*
X028750Y017981D01*
X028763Y018006D01*
X028780Y018029D01*
X028799Y018049D01*
X028821Y018066D01*
X028845Y018080D01*
X028871Y018090D01*
X028898Y018097D01*
X028926Y018100D01*
X028954Y018099D01*
X028981Y018094D01*
X029008Y018085D01*
X029033Y018073D01*
X029056Y018058D01*
X029077Y018039D01*
X029095Y018018D01*
X029110Y017994D01*
X029121Y017968D01*
X029129Y017942D01*
X029133Y017914D01*
X029133Y017886D01*
X029129Y017858D01*
X029121Y017832D01*
X029110Y017806D01*
X029095Y017782D01*
X029077Y017761D01*
X029056Y017742D01*
X029033Y017727D01*
X029008Y017715D01*
X028981Y017706D01*
X028954Y017701D01*
X028926Y017700D01*
X028898Y017703D01*
X028871Y017710D01*
X028845Y017720D01*
X028821Y017734D01*
X028799Y017751D01*
X028780Y017771D01*
X028763Y017794D01*
X028750Y017819D01*
X028741Y017845D01*
X028735Y017872D01*
X028733Y017900D01*
X028733Y018900D02*
X028735Y018928D01*
X028741Y018955D01*
X028750Y018981D01*
X028763Y019006D01*
X028780Y019029D01*
X028799Y019049D01*
X028821Y019066D01*
X028845Y019080D01*
X028871Y019090D01*
X028898Y019097D01*
X028926Y019100D01*
X028954Y019099D01*
X028981Y019094D01*
X029008Y019085D01*
X029033Y019073D01*
X029056Y019058D01*
X029077Y019039D01*
X029095Y019018D01*
X029110Y018994D01*
X029121Y018968D01*
X029129Y018942D01*
X029133Y018914D01*
X029133Y018886D01*
X029129Y018858D01*
X029121Y018832D01*
X029110Y018806D01*
X029095Y018782D01*
X029077Y018761D01*
X029056Y018742D01*
X029033Y018727D01*
X029008Y018715D01*
X028981Y018706D01*
X028954Y018701D01*
X028926Y018700D01*
X028898Y018703D01*
X028871Y018710D01*
X028845Y018720D01*
X028821Y018734D01*
X028799Y018751D01*
X028780Y018771D01*
X028763Y018794D01*
X028750Y018819D01*
X028741Y018845D01*
X028735Y018872D01*
X028733Y018900D01*
X028733Y019900D02*
X028735Y019928D01*
X028741Y019955D01*
X028750Y019981D01*
X028763Y020006D01*
X028780Y020029D01*
X028799Y020049D01*
X028821Y020066D01*
X028845Y020080D01*
X028871Y020090D01*
X028898Y020097D01*
X028926Y020100D01*
X028954Y020099D01*
X028981Y020094D01*
X029008Y020085D01*
X029033Y020073D01*
X029056Y020058D01*
X029077Y020039D01*
X029095Y020018D01*
X029110Y019994D01*
X029121Y019968D01*
X029129Y019942D01*
X029133Y019914D01*
X029133Y019886D01*
X029129Y019858D01*
X029121Y019832D01*
X029110Y019806D01*
X029095Y019782D01*
X029077Y019761D01*
X029056Y019742D01*
X029033Y019727D01*
X029008Y019715D01*
X028981Y019706D01*
X028954Y019701D01*
X028926Y019700D01*
X028898Y019703D01*
X028871Y019710D01*
X028845Y019720D01*
X028821Y019734D01*
X028799Y019751D01*
X028780Y019771D01*
X028763Y019794D01*
X028750Y019819D01*
X028741Y019845D01*
X028735Y019872D01*
X028733Y019900D01*
X028303Y024500D02*
X028305Y024550D01*
X028311Y024600D01*
X028321Y024649D01*
X028335Y024697D01*
X028352Y024744D01*
X028373Y024789D01*
X028398Y024833D01*
X028426Y024874D01*
X028458Y024913D01*
X028492Y024950D01*
X028529Y024984D01*
X028569Y025014D01*
X028611Y025041D01*
X028655Y025065D01*
X028701Y025086D01*
X028748Y025102D01*
X028796Y025115D01*
X028846Y025124D01*
X028895Y025129D01*
X028946Y025130D01*
X028996Y025127D01*
X029045Y025120D01*
X029094Y025109D01*
X029142Y025094D01*
X029188Y025076D01*
X029233Y025054D01*
X029276Y025028D01*
X029317Y024999D01*
X029356Y024967D01*
X029392Y024932D01*
X029424Y024894D01*
X029454Y024854D01*
X029481Y024811D01*
X029504Y024767D01*
X029523Y024721D01*
X029539Y024673D01*
X029551Y024624D01*
X029559Y024575D01*
X029563Y024525D01*
X029563Y024475D01*
X029559Y024425D01*
X029551Y024376D01*
X029539Y024327D01*
X029523Y024279D01*
X029504Y024233D01*
X029481Y024189D01*
X029454Y024146D01*
X029424Y024106D01*
X029392Y024068D01*
X029356Y024033D01*
X029317Y024001D01*
X029276Y023972D01*
X029233Y023946D01*
X029188Y023924D01*
X029142Y023906D01*
X029094Y023891D01*
X029045Y023880D01*
X028996Y023873D01*
X028946Y023870D01*
X028895Y023871D01*
X028846Y023876D01*
X028796Y023885D01*
X028748Y023898D01*
X028701Y023914D01*
X028655Y023935D01*
X028611Y023959D01*
X028569Y023986D01*
X028529Y024016D01*
X028492Y024050D01*
X028458Y024087D01*
X028426Y024126D01*
X028398Y024167D01*
X028373Y024211D01*
X028352Y024256D01*
X028335Y024303D01*
X028321Y024351D01*
X028311Y024400D01*
X028305Y024450D01*
X028303Y024500D01*
D12*
X026719Y014225D02*
X026008Y014225D01*
X026482Y013988D02*
X026719Y013751D01*
X026008Y013751D01*
X026127Y013433D02*
X026245Y013315D01*
X026245Y012959D01*
X026364Y012959D02*
X026008Y012959D01*
X026008Y013315D01*
X026127Y013433D01*
X026482Y013315D02*
X026482Y013078D01*
X026364Y012959D01*
X026482Y012641D02*
X026482Y012404D01*
X026601Y012523D02*
X026127Y012523D01*
X026008Y012404D01*
X026127Y012113D02*
X026008Y011995D01*
X026008Y011640D01*
X026008Y011321D02*
X026719Y011321D01*
X026482Y011203D02*
X026482Y010966D01*
X026364Y010848D01*
X026008Y010848D01*
X026008Y010530D02*
X026008Y010174D01*
X026127Y010056D01*
X026364Y010056D01*
X026482Y010174D01*
X026482Y010530D01*
X026719Y010530D02*
X026008Y010530D01*
X026482Y011203D02*
X026364Y011321D01*
X026482Y011640D02*
X026482Y011995D01*
X026364Y012113D01*
X026127Y012113D01*
X026482Y013988D02*
X026719Y014225D01*
X026364Y009738D02*
X026127Y009738D01*
X026008Y009619D01*
X026008Y009382D01*
X026127Y009264D01*
X026364Y009264D01*
X026482Y009382D01*
X026482Y009619D01*
X026364Y009738D01*
X026482Y008946D02*
X026008Y008472D01*
X026008Y008154D02*
X026482Y008154D01*
X026719Y007917D01*
X026482Y007680D01*
X026008Y007680D01*
X026008Y007362D02*
X026719Y007362D01*
X026719Y007007D01*
X026601Y006888D01*
X026364Y006888D01*
X026245Y007007D01*
X026245Y007362D01*
X026245Y007125D02*
X026008Y006888D01*
X026008Y006570D02*
X026719Y006570D01*
X026482Y006333D01*
X026719Y006096D01*
X026008Y006096D01*
X026364Y007680D02*
X026364Y008154D01*
X026482Y008472D02*
X026008Y008946D01*
D13*
X027942Y021065D02*
X028185Y021309D01*
X028185Y021796D01*
X028490Y021796D02*
X028734Y021796D01*
X028612Y021796D02*
X028612Y021065D01*
X028490Y021065D02*
X028734Y021065D01*
X029018Y021065D02*
X029018Y021796D01*
X029505Y021065D01*
X029505Y021796D01*
X029447Y022265D02*
X029082Y022265D01*
X029082Y022996D01*
X029447Y022996D01*
X029569Y022874D01*
X029569Y022387D01*
X029447Y022265D01*
X028777Y022265D02*
X028777Y022996D01*
X028290Y022996D02*
X028777Y022265D01*
X028290Y022265D02*
X028290Y022996D01*
X027985Y022874D02*
X027864Y022996D01*
X027620Y022996D01*
X027498Y022874D01*
X027498Y022387D01*
X027620Y022265D01*
X027864Y022265D01*
X027985Y022387D01*
X027985Y022630D01*
X027742Y022630D01*
X027698Y021796D02*
X027698Y021309D01*
X027942Y021065D01*
D14*
X019701Y007563D02*
X019757Y007507D01*
X019571Y007507D01*
X019441Y007637D01*
X019441Y007823D01*
X019571Y007953D01*
X019757Y007953D01*
X019887Y007823D01*
X019887Y007637D01*
X019757Y007507D01*
X019722Y007591D01*
X019606Y007591D01*
X019525Y007672D01*
X019525Y007788D01*
X019606Y007869D01*
X019722Y007869D01*
X019803Y007788D01*
X019803Y007672D01*
X019722Y007591D01*
X019687Y007675D01*
X019641Y007675D01*
X019609Y007707D01*
X019609Y007753D01*
X019641Y007785D01*
X019687Y007785D01*
X019719Y007753D01*
X019719Y007707D01*
X019687Y007675D01*
X018817Y007387D02*
X018873Y007331D01*
X018687Y007331D01*
X018557Y007461D01*
X018557Y007647D01*
X018687Y007777D01*
X018873Y007777D01*
X019003Y007647D01*
X019003Y007461D01*
X018873Y007331D01*
X018838Y007415D01*
X018722Y007415D01*
X018641Y007496D01*
X018641Y007612D01*
X018722Y007693D01*
X018838Y007693D01*
X018919Y007612D01*
X018919Y007496D01*
X018838Y007415D01*
X018803Y007499D01*
X018757Y007499D01*
X018725Y007531D01*
X018725Y007577D01*
X018757Y007609D01*
X018803Y007609D01*
X018835Y007577D01*
X018835Y007531D01*
X018803Y007499D01*
X019524Y006679D02*
X019580Y006623D01*
X019394Y006623D01*
X019264Y006753D01*
X019264Y006939D01*
X019394Y007069D01*
X019580Y007069D01*
X019710Y006939D01*
X019710Y006753D01*
X019580Y006623D01*
X019545Y006707D01*
X019429Y006707D01*
X019348Y006788D01*
X019348Y006904D01*
X019429Y006985D01*
X019545Y006985D01*
X019626Y006904D01*
X019626Y006788D01*
X019545Y006707D01*
X019510Y006791D01*
X019464Y006791D01*
X019432Y006823D01*
X019432Y006869D01*
X019464Y006901D01*
X019510Y006901D01*
X019542Y006869D01*
X019542Y006823D01*
X019510Y006791D01*
X016701Y007563D02*
X016757Y007507D01*
X016571Y007507D01*
X016441Y007637D01*
X016441Y007823D01*
X016571Y007953D01*
X016757Y007953D01*
X016887Y007823D01*
X016887Y007637D01*
X016757Y007507D01*
X016722Y007591D01*
X016606Y007591D01*
X016525Y007672D01*
X016525Y007788D01*
X016606Y007869D01*
X016722Y007869D01*
X016803Y007788D01*
X016803Y007672D01*
X016722Y007591D01*
X016687Y007675D01*
X016641Y007675D01*
X016609Y007707D01*
X016609Y007753D01*
X016641Y007785D01*
X016687Y007785D01*
X016719Y007753D01*
X016719Y007707D01*
X016687Y007675D01*
X015817Y007387D02*
X015873Y007331D01*
X015687Y007331D01*
X015557Y007461D01*
X015557Y007647D01*
X015687Y007777D01*
X015873Y007777D01*
X016003Y007647D01*
X016003Y007461D01*
X015873Y007331D01*
X015838Y007415D01*
X015722Y007415D01*
X015641Y007496D01*
X015641Y007612D01*
X015722Y007693D01*
X015838Y007693D01*
X015919Y007612D01*
X015919Y007496D01*
X015838Y007415D01*
X015803Y007499D01*
X015757Y007499D01*
X015725Y007531D01*
X015725Y007577D01*
X015757Y007609D01*
X015803Y007609D01*
X015835Y007577D01*
X015835Y007531D01*
X015803Y007499D01*
X016524Y006679D02*
X016580Y006623D01*
X016394Y006623D01*
X016264Y006753D01*
X016264Y006939D01*
X016394Y007069D01*
X016580Y007069D01*
X016710Y006939D01*
X016710Y006753D01*
X016580Y006623D01*
X016545Y006707D01*
X016429Y006707D01*
X016348Y006788D01*
X016348Y006904D01*
X016429Y006985D01*
X016545Y006985D01*
X016626Y006904D01*
X016626Y006788D01*
X016545Y006707D01*
X016510Y006791D01*
X016464Y006791D01*
X016432Y006823D01*
X016432Y006869D01*
X016464Y006901D01*
X016510Y006901D01*
X016542Y006869D01*
X016542Y006823D01*
X016510Y006791D01*
D15*
X025713Y021450D02*
X026353Y021450D01*
X026353Y022550D02*
X025713Y022550D01*
X019453Y025400D02*
X018813Y025400D01*
X018813Y026400D02*
X019453Y026400D01*
X019453Y027400D02*
X018813Y027400D01*
D16*
X017633Y025400D03*
X017633Y024400D03*
D17*
X016133Y026400D03*
X019133Y009800D03*
D18*
X019133Y010800D03*
X016133Y027400D03*
D19*
X015390Y020400D02*
X014677Y020400D01*
X014677Y019400D02*
X015390Y019400D01*
X015390Y018400D02*
X014677Y018400D01*
X014677Y017400D02*
X015390Y017400D01*
X016677Y016900D02*
X017390Y016900D01*
X017390Y017900D02*
X016677Y017900D01*
X016677Y018900D02*
X017390Y018900D01*
X017390Y019900D02*
X016677Y019900D01*
X015390Y016400D02*
X014677Y016400D01*
X014677Y015400D02*
X015390Y015400D01*
X016677Y014900D02*
X017390Y014900D01*
X017390Y015900D02*
X016677Y015900D01*
X015390Y014400D02*
X014677Y014400D01*
X014677Y013400D02*
X015390Y013400D01*
X016677Y013900D02*
X017390Y013900D01*
D20*
X021333Y011000D03*
X021333Y009600D03*
X021333Y007900D03*
X021333Y006500D03*
X024333Y006500D03*
X024333Y007900D03*
X024333Y009600D03*
X024333Y011000D03*
X024333Y021400D03*
X024333Y022500D03*
X024333Y023600D03*
X021333Y023600D03*
X021333Y022500D03*
X021333Y021400D03*
X019533Y021400D03*
X019533Y024400D03*
D21*
X013103Y018100D02*
X012363Y018100D01*
X010303Y018100D02*
X009563Y018100D01*
X009563Y015700D02*
X010303Y015700D01*
X012363Y015700D02*
X013103Y015700D01*
X028563Y015900D02*
X029303Y015900D01*
X029303Y014900D02*
X028563Y014900D01*
X028563Y013900D02*
X029303Y013900D01*
X029303Y016900D02*
X028563Y016900D01*
X028563Y017900D02*
X029303Y017900D01*
X029303Y018900D02*
X028563Y018900D01*
X028563Y019900D02*
X029303Y019900D01*
D22*
X028933Y019900D02*
X026233Y019900D01*
X026033Y019700D01*
X024933Y019700D02*
X024933Y018700D01*
X025733Y017900D01*
X028933Y017900D01*
X024933Y019700D02*
X023933Y019700D01*
X022933Y020700D01*
X022933Y024400D01*
X021933Y025400D01*
X019133Y025400D01*
X017633Y025400D02*
X017133Y025400D01*
X016333Y024600D01*
X016333Y021900D01*
X015733Y021300D01*
X014433Y021300D01*
X013933Y020800D01*
X013933Y016700D01*
X014233Y016400D01*
X015033Y016400D01*
X013733Y015100D02*
X013733Y013000D01*
X014233Y012500D01*
X016233Y012500D01*
X017033Y013300D01*
X017033Y013900D01*
X018083Y015550D02*
X017733Y015900D01*
X017033Y015900D01*
X019133Y017500D02*
X017733Y018900D01*
X017033Y018900D01*
X019133Y017500D02*
X019133Y010800D01*
X021033Y008800D02*
X022133Y008800D01*
X021033Y008800D02*
X020533Y008300D01*
X020533Y007300D01*
X021333Y007900D02*
X022733Y006500D01*
X024333Y006500D01*
X024333Y007900D02*
X024333Y009600D01*
X020633Y005800D02*
X019433Y005800D01*
X013733Y015100D02*
X013133Y015700D01*
X012733Y015700D01*
X011533Y016900D02*
X009333Y016900D01*
X008433Y017800D01*
X007233Y017800D01*
X011533Y016900D02*
X012733Y018100D01*
X017433Y022600D02*
X018633Y021400D01*
X019533Y021400D01*
D23*
X017433Y022600D03*
X024933Y019700D03*
X026033Y019700D03*
X024333Y015200D03*
X024333Y014300D03*
X020533Y011600D03*
X020133Y013700D03*
X007933Y015200D03*
X007933Y016600D03*
X007233Y017800D03*
D24*
X007933Y016600D02*
X007933Y015200D01*
X015780Y008146D02*
X016533Y008900D01*
X017133Y008900D01*
X017633Y009400D01*
X017633Y011800D01*
X018333Y012500D01*
X018333Y015300D01*
X018083Y015550D01*
X020133Y013700D02*
X019833Y013400D01*
X019833Y008900D01*
X019533Y008600D01*
X019133Y008600D01*
X018780Y008246D01*
X018780Y008146D01*
X020533Y011600D02*
X022633Y013700D01*
X022633Y014800D01*
X023833Y016000D01*
X026733Y016000D01*
X027633Y016900D01*
X028933Y016900D01*
X028933Y015900D02*
X027633Y015900D01*
X026933Y015200D01*
X024333Y015200D01*
D25*
X018780Y008146D02*
X018780Y007554D01*
X015780Y007554D02*
X015780Y008146D01*
M02*
