G75*
G70*
%OFA0B0*%
%FSLAX24Y24*%
%IPPOS*%
%LPD*%
%AMOC8*
5,1,8,0,0,1.08239X$1,22.5*
%
%ADD10C,0.0130*%
%ADD11R,0.0472X0.0315*%
%ADD12R,0.0315X0.0472*%
%ADD13C,0.0112*%
%ADD14C,0.0640*%
%ADD15C,0.0650*%
%ADD16OC8,0.0630*%
%ADD17C,0.0630*%
%ADD18C,0.0712*%
%ADD19C,0.0673*%
%ADD20C,0.0740*%
%ADD21R,0.0880X0.0480*%
%ADD22R,0.0866X0.1417*%
%ADD23R,0.0630X0.0748*%
%ADD24C,0.0400*%
%ADD25C,0.0240*%
%ADD26R,0.0560X0.0560*%
%ADD27C,0.0100*%
%ADD28C,0.0320*%
D10*
X027661Y021065D02*
X027661Y021796D01*
X027619Y022265D02*
X027497Y022387D01*
X027497Y022874D01*
X027619Y022996D01*
X027985Y022996D01*
X027985Y022265D01*
X027619Y022265D01*
X028289Y022265D02*
X028289Y022996D01*
X028776Y022996D02*
X028289Y022265D01*
X028776Y022265D02*
X028776Y022996D01*
X029081Y022874D02*
X029203Y022996D01*
X029447Y022996D01*
X029568Y022874D01*
X029568Y022387D01*
X029447Y022265D01*
X029203Y022265D01*
X029081Y022387D01*
X029081Y022630D01*
X029325Y022630D01*
X029468Y021796D02*
X029468Y021309D01*
X029225Y021065D01*
X028981Y021309D01*
X028981Y021796D01*
X028676Y021796D02*
X028433Y021796D01*
X028555Y021796D02*
X028555Y021065D01*
X028676Y021065D02*
X028433Y021065D01*
X028149Y021065D02*
X028149Y021796D01*
X027661Y021065D01*
D11*
X025933Y017954D03*
X025933Y017246D03*
X022433Y010654D03*
X022433Y009946D03*
X008933Y013946D03*
X008933Y014654D03*
D12*
X020679Y014500D03*
X021388Y014500D03*
X021388Y013700D03*
X020679Y013700D03*
D13*
X019701Y007563D02*
X019757Y007507D01*
X019571Y007507D01*
X019441Y007637D01*
X019441Y007823D01*
X019571Y007953D01*
X019757Y007953D01*
X019887Y007823D01*
X019887Y007637D01*
X019757Y007507D01*
X019722Y007591D01*
X019606Y007591D01*
X019525Y007672D01*
X019525Y007788D01*
X019606Y007869D01*
X019722Y007869D01*
X019803Y007788D01*
X019803Y007672D01*
X019722Y007591D01*
X019687Y007675D01*
X019641Y007675D01*
X019609Y007707D01*
X019609Y007753D01*
X019641Y007785D01*
X019687Y007785D01*
X019719Y007753D01*
X019719Y007707D01*
X019687Y007675D01*
X018817Y007387D02*
X018873Y007331D01*
X018687Y007331D01*
X018557Y007461D01*
X018557Y007647D01*
X018687Y007777D01*
X018873Y007777D01*
X019003Y007647D01*
X019003Y007461D01*
X018873Y007331D01*
X018838Y007415D01*
X018722Y007415D01*
X018641Y007496D01*
X018641Y007612D01*
X018722Y007693D01*
X018838Y007693D01*
X018919Y007612D01*
X018919Y007496D01*
X018838Y007415D01*
X018803Y007499D01*
X018757Y007499D01*
X018725Y007531D01*
X018725Y007577D01*
X018757Y007609D01*
X018803Y007609D01*
X018835Y007577D01*
X018835Y007531D01*
X018803Y007499D01*
X019524Y006679D02*
X019580Y006623D01*
X019394Y006623D01*
X019264Y006753D01*
X019264Y006939D01*
X019394Y007069D01*
X019580Y007069D01*
X019710Y006939D01*
X019710Y006753D01*
X019580Y006623D01*
X019545Y006707D01*
X019429Y006707D01*
X019348Y006788D01*
X019348Y006904D01*
X019429Y006985D01*
X019545Y006985D01*
X019626Y006904D01*
X019626Y006788D01*
X019545Y006707D01*
X019510Y006791D01*
X019464Y006791D01*
X019432Y006823D01*
X019432Y006869D01*
X019464Y006901D01*
X019510Y006901D01*
X019542Y006869D01*
X019542Y006823D01*
X019510Y006791D01*
X016701Y007563D02*
X016757Y007507D01*
X016571Y007507D01*
X016441Y007637D01*
X016441Y007823D01*
X016571Y007953D01*
X016757Y007953D01*
X016887Y007823D01*
X016887Y007637D01*
X016757Y007507D01*
X016722Y007591D01*
X016606Y007591D01*
X016525Y007672D01*
X016525Y007788D01*
X016606Y007869D01*
X016722Y007869D01*
X016803Y007788D01*
X016803Y007672D01*
X016722Y007591D01*
X016687Y007675D01*
X016641Y007675D01*
X016609Y007707D01*
X016609Y007753D01*
X016641Y007785D01*
X016687Y007785D01*
X016719Y007753D01*
X016719Y007707D01*
X016687Y007675D01*
X015817Y007387D02*
X015873Y007331D01*
X015687Y007331D01*
X015557Y007461D01*
X015557Y007647D01*
X015687Y007777D01*
X015873Y007777D01*
X016003Y007647D01*
X016003Y007461D01*
X015873Y007331D01*
X015838Y007415D01*
X015722Y007415D01*
X015641Y007496D01*
X015641Y007612D01*
X015722Y007693D01*
X015838Y007693D01*
X015919Y007612D01*
X015919Y007496D01*
X015838Y007415D01*
X015803Y007499D01*
X015757Y007499D01*
X015725Y007531D01*
X015725Y007577D01*
X015757Y007609D01*
X015803Y007609D01*
X015835Y007577D01*
X015835Y007531D01*
X015803Y007499D01*
X016524Y006679D02*
X016580Y006623D01*
X016394Y006623D01*
X016264Y006753D01*
X016264Y006939D01*
X016394Y007069D01*
X016580Y007069D01*
X016710Y006939D01*
X016710Y006753D01*
X016580Y006623D01*
X016545Y006707D01*
X016429Y006707D01*
X016348Y006788D01*
X016348Y006904D01*
X016429Y006985D01*
X016545Y006985D01*
X016626Y006904D01*
X016626Y006788D01*
X016545Y006707D01*
X016510Y006791D01*
X016464Y006791D01*
X016432Y006823D01*
X016432Y006869D01*
X016464Y006901D01*
X016510Y006901D01*
X016542Y006869D01*
X016542Y006823D01*
X016510Y006791D01*
D14*
X025713Y021450D02*
X026353Y021450D01*
X026353Y022550D02*
X025713Y022550D01*
X019453Y025400D02*
X018813Y025400D01*
X018813Y026400D02*
X019453Y026400D01*
X019453Y027400D02*
X018813Y027400D01*
D15*
X017633Y025400D03*
X017633Y024400D03*
D16*
X016133Y026400D03*
X019133Y009800D03*
D17*
X019133Y010800D03*
X016133Y027400D03*
D18*
X015390Y020400D02*
X014677Y020400D01*
X014677Y019400D02*
X015390Y019400D01*
X015390Y018400D02*
X014677Y018400D01*
X014677Y017400D02*
X015390Y017400D01*
X016677Y016900D02*
X017390Y016900D01*
X017390Y017900D02*
X016677Y017900D01*
X016677Y018900D02*
X017390Y018900D01*
X017390Y019900D02*
X016677Y019900D01*
X015390Y016400D02*
X014677Y016400D01*
X014677Y015400D02*
X015390Y015400D01*
X016677Y014900D02*
X017390Y014900D01*
X017390Y015900D02*
X016677Y015900D01*
X015390Y014400D02*
X014677Y014400D01*
X014677Y013400D02*
X015390Y013400D01*
X016677Y013900D02*
X017390Y013900D01*
D19*
X021333Y011000D03*
X021333Y009600D03*
X021333Y007900D03*
X021333Y006500D03*
X024333Y006500D03*
X024333Y007900D03*
X024333Y009600D03*
X024333Y011000D03*
X024333Y021400D03*
X024333Y022500D03*
X024333Y023600D03*
X021333Y023600D03*
X021333Y022500D03*
X021333Y021400D03*
X019533Y021400D03*
X019533Y024400D03*
D20*
X013103Y018100D02*
X012363Y018100D01*
X010303Y018100D02*
X009563Y018100D01*
X009563Y015700D02*
X010303Y015700D01*
X012363Y015700D02*
X013103Y015700D01*
X028563Y015900D02*
X029303Y015900D01*
X029303Y014900D02*
X028563Y014900D01*
X028563Y013900D02*
X029303Y013900D01*
X029303Y016900D02*
X028563Y016900D01*
X028563Y017900D02*
X029303Y017900D01*
X029303Y018900D02*
X028563Y018900D01*
X028563Y019900D02*
X029303Y019900D01*
D21*
X020913Y019110D03*
X020913Y018200D03*
X020913Y017290D03*
D22*
X023353Y018200D03*
D23*
X024733Y018250D03*
X024733Y016950D03*
X019633Y017550D03*
X019633Y018850D03*
D24*
X019894Y019110D01*
X020913Y019110D01*
X021703Y019700D01*
X024933Y019700D01*
X026033Y019700D02*
X026033Y018250D01*
X025933Y018250D01*
X024733Y018250D01*
X024733Y018200D01*
X023353Y018200D01*
X020913Y018200D01*
X021633Y020500D02*
X019333Y020500D01*
X017733Y018900D01*
X017033Y018900D01*
X017033Y019900D02*
X018533Y021400D01*
X019533Y021400D01*
X021333Y021400D01*
X022133Y021000D02*
X021633Y020500D01*
X022133Y021000D02*
X022133Y024000D01*
X021633Y024500D01*
X020933Y024500D01*
X019933Y023500D01*
X016833Y023500D01*
X015233Y025100D01*
X015233Y026800D01*
X015833Y027400D01*
X016133Y027400D01*
X019133Y027400D01*
X021033Y027400D01*
X023533Y024900D01*
X023533Y022900D01*
X023933Y022500D01*
X024333Y022500D01*
X024333Y021400D01*
X024333Y021450D01*
X026033Y021450D01*
X026733Y020500D02*
X027233Y020000D01*
X027233Y019500D01*
X027833Y018900D01*
X027933Y018900D01*
X028933Y018900D01*
X027933Y018900D02*
X026933Y017900D01*
X026933Y016500D01*
X022733Y014300D02*
X021833Y015200D01*
X019333Y015200D01*
X017633Y016900D01*
X017033Y016900D01*
X015033Y019400D02*
X012433Y019400D01*
X012433Y020300D01*
X013433Y021300D01*
X017333Y021300D01*
X018533Y022500D01*
X021333Y022500D01*
X021333Y023600D01*
X022833Y024600D02*
X022233Y025200D01*
X020633Y025200D01*
X019133Y025400D02*
X017633Y025400D01*
X017033Y024400D02*
X016133Y025300D01*
X017433Y022600D02*
X016733Y021900D01*
X012533Y021900D01*
X009733Y019100D01*
X009033Y019100D01*
X007733Y017800D01*
X007233Y017800D01*
X009933Y018100D02*
X011233Y019400D01*
X012433Y019400D01*
X009933Y015700D02*
X011233Y014400D01*
X012433Y014400D01*
X012433Y013400D01*
X013333Y012500D01*
X014833Y012500D01*
X015533Y011800D01*
X017333Y011800D01*
X017633Y011500D01*
X017633Y010000D01*
X018733Y008900D01*
X020033Y008900D01*
X021033Y007900D01*
X021333Y007900D01*
X021033Y008800D02*
X022033Y008800D01*
X022933Y007900D01*
X024333Y007900D01*
X021033Y008800D02*
X020033Y009800D01*
X020033Y010400D01*
X019633Y010800D01*
X019133Y010800D01*
X018333Y010400D02*
X018333Y011800D01*
X017633Y012500D01*
X015933Y012500D01*
X017033Y013900D02*
X018033Y013900D01*
X019533Y012400D01*
X020933Y012400D01*
X021333Y012000D01*
X021333Y011000D01*
X021333Y009600D01*
X015033Y014400D02*
X012433Y014400D01*
X022833Y021000D02*
X023333Y020500D01*
X026733Y020500D01*
X022833Y021000D02*
X022833Y024600D01*
X024333Y024400D02*
X025033Y024400D01*
D25*
X028133Y017900D02*
X028933Y017900D01*
X028133Y017900D02*
X027733Y017500D01*
X027733Y016400D01*
X024533Y013200D01*
X021833Y013200D01*
X021388Y013646D01*
X021388Y013700D01*
X021388Y014500D01*
X020679Y014500D02*
X019133Y014500D01*
X017733Y015900D01*
X017033Y015900D01*
X017033Y014900D02*
X017933Y014900D01*
X019833Y013000D01*
X021233Y013000D01*
X022433Y011800D01*
X022933Y012300D01*
X024433Y012300D01*
X027033Y014900D01*
X028933Y014900D01*
X028933Y013900D02*
X026833Y013900D01*
X025533Y012600D01*
X025533Y006600D01*
X024533Y005600D01*
X015033Y005600D01*
X010833Y009800D01*
X010833Y011700D01*
X010433Y012100D01*
X009033Y012100D01*
X007233Y013900D01*
X007233Y015900D01*
X008333Y015900D01*
X008633Y015600D01*
X008633Y014954D01*
X008933Y014654D01*
X008933Y013946D02*
X008933Y013600D01*
X009433Y013100D01*
X010833Y013100D01*
X011833Y012100D01*
X011833Y010200D01*
X013933Y008100D01*
X014433Y008100D01*
X015233Y008900D01*
X017233Y008900D01*
X017933Y008200D01*
X019194Y008200D01*
X019664Y007730D01*
X018780Y007554D02*
X017880Y007554D01*
X017033Y008400D01*
X015433Y008400D01*
X014633Y007600D01*
X013733Y007600D01*
X011333Y010000D01*
X011333Y011900D01*
X010633Y012600D01*
X009233Y012600D01*
X007933Y013900D01*
X007933Y015200D01*
X007233Y015900D02*
X007233Y016900D01*
X007533Y017200D01*
X013433Y017200D01*
X014633Y018400D01*
X015033Y018400D01*
X015033Y017400D02*
X014433Y017400D01*
X013633Y016600D01*
X007933Y016600D01*
X015033Y015400D02*
X015533Y015400D01*
X016033Y014900D01*
X016033Y013500D01*
X016433Y013100D01*
X017933Y013100D01*
X019433Y011600D01*
X020533Y011600D01*
X022433Y011800D02*
X022433Y010654D01*
X022433Y009946D02*
X023779Y008600D01*
X024733Y008600D01*
X025033Y008300D01*
X025033Y007600D01*
X024633Y007200D01*
X021033Y007200D01*
X019933Y006100D01*
X018294Y006100D01*
X016664Y007730D01*
X020133Y013700D02*
X020679Y013700D01*
X022733Y015200D02*
X024333Y015200D01*
X022733Y015200D02*
X022133Y015800D01*
X019633Y015800D01*
X017533Y017900D01*
X017033Y017900D01*
X017033Y016900D02*
X016533Y016900D01*
X016033Y017400D01*
X016033Y019800D01*
D26*
X017433Y022600D03*
X024933Y019700D03*
X026033Y019700D03*
X024333Y015200D03*
X024333Y014300D03*
X020533Y011600D03*
X020133Y013700D03*
X007933Y015200D03*
X007933Y016600D03*
X007233Y017800D03*
D27*
X006253Y006491D02*
X007224Y005520D01*
X014703Y005520D01*
X010669Y009554D01*
X010587Y009636D01*
X010543Y009742D01*
X010543Y011580D01*
X010313Y011810D01*
X008976Y011810D01*
X008869Y011854D01*
X006987Y013736D01*
X006943Y013842D01*
X006943Y016958D01*
X006987Y017064D01*
X007273Y017350D01*
X006883Y017350D01*
X006783Y017450D01*
X006783Y018150D01*
X006883Y018250D01*
X007584Y018250D01*
X007622Y018212D01*
X008824Y019414D01*
X008960Y019470D01*
X009580Y019470D01*
X012324Y022214D01*
X012460Y022270D01*
X016580Y022270D01*
X016983Y022673D01*
X016983Y022950D01*
X017083Y023050D01*
X017784Y023050D01*
X017883Y022950D01*
X017883Y022373D01*
X018220Y022710D01*
X018324Y022814D01*
X018460Y022870D01*
X020963Y022870D01*
X020963Y023254D01*
X020904Y023313D01*
X020827Y023499D01*
X020827Y023701D01*
X020904Y023887D01*
X021046Y024029D01*
X021233Y024107D01*
X021434Y024107D01*
X021553Y024057D01*
X021480Y024130D01*
X021087Y024130D01*
X020143Y023186D01*
X020007Y023130D01*
X016760Y023130D01*
X016624Y023186D01*
X016520Y023290D01*
X014920Y024890D01*
X014863Y025026D01*
X014863Y026874D01*
X014920Y027010D01*
X015024Y027114D01*
X015024Y027114D01*
X015520Y027610D01*
X015520Y027610D01*
X015624Y027714D01*
X015760Y027770D01*
X015817Y027770D01*
X015859Y027811D01*
X016037Y027885D01*
X016230Y027885D01*
X016408Y027811D01*
X016449Y027770D01*
X018490Y027770D01*
X018536Y027815D01*
X018716Y027890D01*
X019551Y027890D01*
X019731Y027815D01*
X019776Y027770D01*
X021107Y027770D01*
X021243Y027714D01*
X021347Y027610D01*
X023847Y025110D01*
X023903Y024974D01*
X023903Y023828D01*
X023917Y023855D01*
X023962Y023917D01*
X024016Y023971D01*
X024078Y024016D01*
X024147Y024051D01*
X024219Y024075D01*
X024283Y024085D01*
X024283Y023650D01*
X024383Y023650D01*
X024383Y024085D01*
X024447Y024075D01*
X024520Y024051D01*
X024588Y024016D01*
X024650Y023971D01*
X024704Y023917D01*
X024749Y023855D01*
X024784Y023787D01*
X024808Y023714D01*
X024818Y023650D01*
X024383Y023650D01*
X024383Y023550D01*
X024383Y023115D01*
X024447Y023125D01*
X024520Y023149D01*
X024588Y023184D01*
X024650Y023229D01*
X024704Y023283D01*
X024749Y023345D01*
X024784Y023413D01*
X024808Y023486D01*
X024818Y023550D01*
X024383Y023550D01*
X024283Y023550D01*
X024283Y023115D01*
X024219Y023125D01*
X024147Y023149D01*
X024078Y023184D01*
X024016Y023229D01*
X023962Y023283D01*
X023917Y023345D01*
X023903Y023372D01*
X023903Y023053D01*
X024037Y022920D01*
X024046Y022929D01*
X024233Y023007D01*
X024434Y023007D01*
X024620Y022929D01*
X024763Y022787D01*
X024840Y022601D01*
X024840Y022399D01*
X024763Y022213D01*
X024703Y022154D01*
X024703Y021820D01*
X025390Y021820D01*
X025436Y021865D01*
X025616Y021940D01*
X026451Y021940D01*
X026631Y021865D01*
X026769Y021728D01*
X026843Y021547D01*
X026843Y021353D01*
X026769Y021172D01*
X026631Y021035D01*
X026451Y020960D01*
X025616Y020960D01*
X025436Y021035D01*
X025390Y021080D01*
X024730Y021080D01*
X024620Y020971D01*
X024434Y020893D01*
X024233Y020893D01*
X024046Y020971D01*
X023904Y021113D01*
X023827Y021299D01*
X023827Y021501D01*
X023904Y021687D01*
X023963Y021746D01*
X023963Y022130D01*
X023860Y022130D01*
X023724Y022186D01*
X023220Y022690D01*
X023163Y022826D01*
X023163Y024747D01*
X020880Y027030D01*
X019776Y027030D01*
X019731Y026985D01*
X019551Y026910D01*
X018716Y026910D01*
X018536Y026985D01*
X018490Y027030D01*
X016449Y027030D01*
X016408Y026989D01*
X016230Y026915D01*
X016037Y026915D01*
X015920Y026963D01*
X015603Y026647D01*
X015603Y025253D01*
X016987Y023870D01*
X019780Y023870D01*
X020620Y024710D01*
X020724Y024814D01*
X020860Y024870D01*
X021707Y024870D01*
X021843Y024814D01*
X022343Y024314D01*
X022447Y024210D01*
X022503Y024074D01*
X022503Y020926D01*
X022447Y020790D01*
X021947Y020290D01*
X021843Y020186D01*
X021707Y020130D01*
X019487Y020130D01*
X018047Y018690D01*
X017943Y018586D01*
X017807Y018530D01*
X017764Y018530D01*
X017688Y018454D01*
X017558Y018400D01*
X017688Y018346D01*
X017836Y018198D01*
X017916Y018005D01*
X017916Y017928D01*
X019753Y016090D01*
X022191Y016090D01*
X022298Y016046D01*
X022853Y015490D01*
X023883Y015490D01*
X023883Y015550D01*
X023983Y015650D01*
X024684Y015650D01*
X024783Y015550D01*
X024783Y014850D01*
X024684Y014750D01*
X023983Y014750D01*
X023883Y014850D01*
X023883Y014910D01*
X022676Y014910D01*
X022569Y014954D01*
X022487Y015036D01*
X022013Y015510D01*
X019576Y015510D01*
X019469Y015554D01*
X019387Y015636D01*
X017604Y017419D01*
X017527Y017387D01*
X017584Y017369D01*
X017655Y017333D01*
X017719Y017286D01*
X017776Y017230D01*
X017823Y017165D01*
X017859Y017094D01*
X017883Y017019D01*
X017894Y016950D01*
X017083Y016950D01*
X017083Y016850D01*
X017894Y016850D01*
X017883Y016781D01*
X017859Y016706D01*
X017823Y016635D01*
X017776Y016570D01*
X017719Y016514D01*
X017655Y016467D01*
X017584Y016431D01*
X017527Y016413D01*
X017688Y016346D01*
X017836Y016198D01*
X017849Y016166D01*
X017898Y016146D01*
X017979Y016064D01*
X019253Y014790D01*
X020352Y014790D01*
X020352Y014807D01*
X020451Y014906D01*
X020907Y014906D01*
X021006Y014807D01*
X021006Y014193D01*
X020913Y014100D01*
X021006Y014007D01*
X021006Y013393D01*
X020907Y013294D01*
X020528Y013294D01*
X020524Y013290D01*
X021291Y013290D01*
X021363Y013260D01*
X021329Y013294D01*
X021160Y013294D01*
X021060Y013393D01*
X021060Y014007D01*
X021098Y014044D01*
X021098Y014156D01*
X021060Y014193D01*
X021060Y014807D01*
X021160Y014906D01*
X021616Y014906D01*
X021715Y014807D01*
X021715Y014193D01*
X021678Y014156D01*
X021678Y014044D01*
X021715Y014007D01*
X021715Y013728D01*
X021953Y013490D01*
X024413Y013490D01*
X027443Y016520D01*
X027443Y017558D01*
X027487Y017664D01*
X027569Y017746D01*
X027569Y017746D01*
X027887Y018064D01*
X027969Y018146D01*
X028076Y018190D01*
X028099Y018190D01*
X028106Y018206D01*
X028257Y018358D01*
X028386Y018411D01*
X028364Y018418D01*
X028291Y018455D01*
X028225Y018503D01*
X028167Y018561D01*
X028119Y018627D01*
X028081Y018700D01*
X028056Y018778D01*
X028045Y018850D01*
X028563Y018850D01*
X028563Y018950D01*
X028045Y018950D01*
X028056Y019022D01*
X028081Y019100D01*
X028119Y019173D01*
X028167Y019239D01*
X028225Y019297D01*
X028291Y019345D01*
X028364Y019382D01*
X028386Y019389D01*
X028257Y019442D01*
X028106Y019594D01*
X028023Y019793D01*
X028023Y020007D01*
X028106Y020206D01*
X028257Y020358D01*
X028456Y020440D01*
X029411Y020440D01*
X029609Y020358D01*
X029761Y020206D01*
X029843Y020007D01*
X029843Y019793D01*
X029761Y019594D01*
X029609Y019442D01*
X029481Y019389D01*
X029503Y019382D01*
X029576Y019345D01*
X029642Y019297D01*
X029700Y019239D01*
X029748Y019173D01*
X029785Y019100D01*
X029811Y019022D01*
X029822Y018950D01*
X029303Y018950D01*
X029303Y018850D01*
X029822Y018850D01*
X029811Y018778D01*
X029785Y018700D01*
X029748Y018627D01*
X029700Y018561D01*
X029642Y018503D01*
X029576Y018455D01*
X029503Y018418D01*
X029481Y018411D01*
X029609Y018358D01*
X029761Y018206D01*
X029843Y018007D01*
X029843Y017793D01*
X029761Y017594D01*
X029609Y017442D01*
X029507Y017400D01*
X029609Y017358D01*
X029761Y017206D01*
X029843Y017007D01*
X029843Y016793D01*
X029761Y016594D01*
X029609Y016442D01*
X029507Y016400D01*
X029609Y016358D01*
X029761Y016206D01*
X029843Y016007D01*
X029843Y015793D01*
X029761Y015594D01*
X029609Y015442D01*
X029507Y015400D01*
X029609Y015358D01*
X029761Y015206D01*
X029843Y015007D01*
X029843Y014793D01*
X029761Y014594D01*
X029609Y014442D01*
X029507Y014400D01*
X029609Y014358D01*
X029761Y014206D01*
X029843Y014007D01*
X029843Y013793D01*
X029761Y013594D01*
X029609Y013442D01*
X029411Y013360D01*
X028456Y013360D01*
X028257Y013442D01*
X028106Y013594D01*
X028099Y013610D01*
X026953Y013610D01*
X025823Y012480D01*
X025823Y006542D01*
X025779Y006436D01*
X024863Y005520D01*
X026542Y005520D01*
X029913Y008891D01*
X029913Y024909D01*
X026542Y028280D01*
X007224Y028280D01*
X006253Y027309D01*
X006253Y006491D01*
X006262Y006482D02*
X006541Y006482D01*
X006555Y006447D02*
X006780Y006222D01*
X007074Y006100D01*
X007392Y006100D01*
X007686Y006222D01*
X007911Y006447D01*
X008033Y006741D01*
X008033Y007059D01*
X007911Y007353D01*
X007686Y007578D01*
X007392Y007700D01*
X007074Y007700D01*
X006780Y007578D01*
X006555Y007353D01*
X006433Y007059D01*
X006433Y006741D01*
X006555Y006447D01*
X006619Y006384D02*
X006361Y006384D01*
X006459Y006285D02*
X006717Y006285D01*
X006866Y006187D02*
X006558Y006187D01*
X006656Y006088D02*
X014135Y006088D01*
X014037Y006187D02*
X007601Y006187D01*
X007750Y006285D02*
X013938Y006285D01*
X013840Y006384D02*
X007848Y006384D01*
X007926Y006482D02*
X013741Y006482D01*
X013643Y006581D02*
X007967Y006581D01*
X008008Y006679D02*
X013544Y006679D01*
X013446Y006778D02*
X008033Y006778D01*
X008033Y006876D02*
X013347Y006876D01*
X013249Y006975D02*
X008033Y006975D01*
X008028Y007073D02*
X013150Y007073D01*
X013052Y007172D02*
X007987Y007172D01*
X007946Y007270D02*
X012953Y007270D01*
X012855Y007369D02*
X007896Y007369D01*
X007798Y007467D02*
X012756Y007467D01*
X012658Y007566D02*
X007699Y007566D01*
X007479Y007664D02*
X012559Y007664D01*
X012461Y007763D02*
X006253Y007763D01*
X006253Y007861D02*
X012362Y007861D01*
X012264Y007960D02*
X006253Y007960D01*
X006253Y008058D02*
X012165Y008058D01*
X012067Y008157D02*
X006253Y008157D01*
X006253Y008255D02*
X011968Y008255D01*
X011870Y008354D02*
X006253Y008354D01*
X006253Y008452D02*
X011771Y008452D01*
X011673Y008551D02*
X006253Y008551D01*
X006253Y008649D02*
X011574Y008649D01*
X011476Y008748D02*
X006253Y008748D01*
X006253Y008846D02*
X011377Y008846D01*
X011279Y008945D02*
X006253Y008945D01*
X006253Y009043D02*
X011180Y009043D01*
X011082Y009142D02*
X006253Y009142D01*
X006253Y009240D02*
X010983Y009240D01*
X010885Y009339D02*
X006253Y009339D01*
X006253Y009437D02*
X010786Y009437D01*
X010688Y009536D02*
X006253Y009536D01*
X006253Y009634D02*
X010589Y009634D01*
X010547Y009733D02*
X006253Y009733D01*
X006253Y009831D02*
X010543Y009831D01*
X010543Y009930D02*
X008328Y009930D01*
X008353Y009940D02*
X008512Y010099D01*
X008598Y010306D01*
X008598Y010530D01*
X008512Y010737D01*
X008353Y010896D01*
X008146Y010982D01*
X007922Y010982D01*
X007715Y010896D01*
X007556Y010737D01*
X007470Y010530D01*
X007470Y010306D01*
X007556Y010099D01*
X007715Y009940D01*
X007922Y009854D01*
X008146Y009854D01*
X008353Y009940D01*
X008441Y010028D02*
X010543Y010028D01*
X010543Y010127D02*
X008523Y010127D01*
X008564Y010225D02*
X010543Y010225D01*
X010543Y010324D02*
X008598Y010324D01*
X008598Y010422D02*
X010543Y010422D01*
X010543Y010521D02*
X008598Y010521D01*
X008561Y010619D02*
X010543Y010619D01*
X010543Y010718D02*
X008520Y010718D01*
X008433Y010816D02*
X010543Y010816D01*
X010543Y010915D02*
X008309Y010915D01*
X007760Y010915D02*
X006253Y010915D01*
X006253Y011013D02*
X010543Y011013D01*
X010543Y011112D02*
X006253Y011112D01*
X006253Y011210D02*
X010543Y011210D01*
X010543Y011309D02*
X006253Y011309D01*
X006253Y011407D02*
X010543Y011407D01*
X010543Y011506D02*
X006253Y011506D01*
X006253Y011604D02*
X010519Y011604D01*
X010421Y011703D02*
X006253Y011703D01*
X006253Y011801D02*
X010322Y011801D01*
X008824Y011900D02*
X006253Y011900D01*
X006253Y011998D02*
X008725Y011998D01*
X008627Y012097D02*
X006253Y012097D01*
X006253Y012195D02*
X008528Y012195D01*
X008430Y012294D02*
X006253Y012294D01*
X006253Y012392D02*
X008331Y012392D01*
X008233Y012491D02*
X006253Y012491D01*
X006253Y012589D02*
X008134Y012589D01*
X008036Y012688D02*
X006253Y012688D01*
X006253Y012786D02*
X007937Y012786D01*
X007839Y012885D02*
X006253Y012885D01*
X006253Y012983D02*
X007740Y012983D01*
X007642Y013082D02*
X006253Y013082D01*
X006253Y013180D02*
X007543Y013180D01*
X007445Y013279D02*
X006253Y013279D01*
X006253Y013377D02*
X007346Y013377D01*
X007248Y013476D02*
X006253Y013476D01*
X006253Y013574D02*
X007149Y013574D01*
X007051Y013673D02*
X006253Y013673D01*
X006253Y013771D02*
X006973Y013771D01*
X006943Y013870D02*
X006253Y013870D01*
X006253Y013968D02*
X006943Y013968D01*
X006943Y014067D02*
X006253Y014067D01*
X006253Y014165D02*
X006943Y014165D01*
X006943Y014264D02*
X006253Y014264D01*
X006253Y014362D02*
X006943Y014362D01*
X006943Y014461D02*
X006253Y014461D01*
X006253Y014559D02*
X006943Y014559D01*
X006943Y014658D02*
X006253Y014658D01*
X006253Y014756D02*
X006943Y014756D01*
X006943Y014855D02*
X006253Y014855D01*
X006253Y014953D02*
X006943Y014953D01*
X006943Y015052D02*
X006253Y015052D01*
X006253Y015150D02*
X006943Y015150D01*
X006943Y015249D02*
X006253Y015249D01*
X006253Y015347D02*
X006943Y015347D01*
X006943Y015446D02*
X006253Y015446D01*
X006253Y015544D02*
X006943Y015544D01*
X006943Y015643D02*
X006253Y015643D01*
X006253Y015741D02*
X006943Y015741D01*
X006943Y015840D02*
X006253Y015840D01*
X006253Y015938D02*
X006943Y015938D01*
X006943Y016037D02*
X006253Y016037D01*
X006253Y016135D02*
X006943Y016135D01*
X006943Y016234D02*
X006253Y016234D01*
X006253Y016332D02*
X006943Y016332D01*
X006943Y016431D02*
X006253Y016431D01*
X006253Y016529D02*
X006943Y016529D01*
X006943Y016628D02*
X006253Y016628D01*
X006253Y016726D02*
X006943Y016726D01*
X006943Y016825D02*
X006253Y016825D01*
X006253Y016923D02*
X006943Y016923D01*
X006970Y017022D02*
X006253Y017022D01*
X006253Y017120D02*
X007043Y017120D01*
X007142Y017219D02*
X006253Y017219D01*
X006253Y017317D02*
X007240Y017317D01*
X006817Y017416D02*
X006253Y017416D01*
X006253Y017514D02*
X006783Y017514D01*
X006783Y017613D02*
X006253Y017613D01*
X006253Y017711D02*
X006783Y017711D01*
X006783Y017810D02*
X006253Y017810D01*
X006253Y017908D02*
X006783Y017908D01*
X006783Y018007D02*
X006253Y018007D01*
X006253Y018105D02*
X006783Y018105D01*
X006836Y018204D02*
X006253Y018204D01*
X006253Y018302D02*
X007712Y018302D01*
X007811Y018401D02*
X006253Y018401D01*
X006253Y018499D02*
X007909Y018499D01*
X008008Y018598D02*
X006253Y018598D01*
X006253Y018696D02*
X008106Y018696D01*
X008205Y018795D02*
X006253Y018795D01*
X006253Y018893D02*
X008303Y018893D01*
X008402Y018992D02*
X006253Y018992D01*
X006253Y019090D02*
X008500Y019090D01*
X008599Y019189D02*
X006253Y019189D01*
X006253Y019287D02*
X008697Y019287D01*
X008796Y019386D02*
X006253Y019386D01*
X006253Y019484D02*
X009594Y019484D01*
X009693Y019583D02*
X006253Y019583D01*
X006253Y019681D02*
X009791Y019681D01*
X009890Y019780D02*
X006253Y019780D01*
X006253Y019878D02*
X009988Y019878D01*
X010087Y019977D02*
X006253Y019977D01*
X006253Y020075D02*
X010185Y020075D01*
X010284Y020174D02*
X006253Y020174D01*
X006253Y020272D02*
X010382Y020272D01*
X010481Y020371D02*
X006253Y020371D01*
X006253Y020469D02*
X010579Y020469D01*
X010678Y020568D02*
X006253Y020568D01*
X006253Y020666D02*
X010776Y020666D01*
X010875Y020765D02*
X006253Y020765D01*
X006253Y020863D02*
X010973Y020863D01*
X011072Y020962D02*
X006253Y020962D01*
X006253Y021060D02*
X011170Y021060D01*
X011269Y021159D02*
X006253Y021159D01*
X006253Y021257D02*
X011367Y021257D01*
X011466Y021356D02*
X006253Y021356D01*
X006253Y021454D02*
X011564Y021454D01*
X011663Y021553D02*
X006253Y021553D01*
X006253Y021651D02*
X011761Y021651D01*
X011860Y021750D02*
X006253Y021750D01*
X006253Y021848D02*
X011958Y021848D01*
X012057Y021947D02*
X006253Y021947D01*
X006253Y022045D02*
X012155Y022045D01*
X012254Y022144D02*
X006253Y022144D01*
X006253Y022242D02*
X012392Y022242D01*
X013587Y020930D02*
X017407Y020930D01*
X017543Y020986D01*
X018687Y022130D01*
X020987Y022130D01*
X021046Y022071D01*
X021233Y021993D01*
X021434Y021993D01*
X021620Y022071D01*
X021763Y022213D01*
X021763Y022214D01*
X021763Y021686D01*
X021763Y021687D01*
X021620Y021829D01*
X021434Y021907D01*
X021233Y021907D01*
X021046Y021829D01*
X020987Y021770D01*
X019880Y021770D01*
X019820Y021829D01*
X019634Y021907D01*
X019433Y021907D01*
X019246Y021829D01*
X019187Y021770D01*
X018460Y021770D01*
X018324Y021714D01*
X017036Y020426D01*
X016572Y020426D01*
X016379Y020346D01*
X016231Y020198D01*
X016151Y020005D01*
X016151Y019795D01*
X016231Y019602D01*
X016379Y019454D01*
X016509Y019400D01*
X016379Y019346D01*
X016231Y019198D01*
X016151Y019005D01*
X016151Y018795D01*
X016231Y018602D01*
X016379Y018454D01*
X016509Y018400D01*
X016379Y018346D01*
X016231Y018198D01*
X016151Y018005D01*
X016151Y017795D01*
X016231Y017602D01*
X016379Y017454D01*
X016539Y017387D01*
X016483Y017369D01*
X016412Y017333D01*
X016347Y017286D01*
X016291Y017230D01*
X016244Y017165D01*
X016208Y017094D01*
X016183Y017019D01*
X016173Y016950D01*
X016983Y016950D01*
X016983Y016850D01*
X016173Y016850D01*
X016183Y016781D01*
X016208Y016706D01*
X016244Y016635D01*
X016291Y016570D01*
X016347Y016514D01*
X016412Y016467D01*
X016483Y016431D01*
X016539Y016413D01*
X016379Y016346D01*
X016231Y016198D01*
X016151Y016005D01*
X016151Y015795D01*
X016231Y015602D01*
X016379Y015454D01*
X016509Y015400D01*
X016379Y015346D01*
X016231Y015198D01*
X016206Y015138D01*
X016198Y015146D01*
X015916Y015428D01*
X015916Y015505D01*
X015836Y015698D01*
X015688Y015846D01*
X015558Y015900D01*
X015688Y015954D01*
X015836Y016102D01*
X015916Y016295D01*
X015916Y016505D01*
X015836Y016698D01*
X015688Y016846D01*
X015558Y016900D01*
X015688Y016954D01*
X015836Y017102D01*
X015916Y017295D01*
X015916Y017505D01*
X015836Y017698D01*
X015688Y017846D01*
X015558Y017900D01*
X015688Y017954D01*
X015836Y018102D01*
X015916Y018295D01*
X015916Y018505D01*
X015836Y018698D01*
X015688Y018846D01*
X015558Y018900D01*
X015688Y018954D01*
X015836Y019102D01*
X015916Y019295D01*
X015916Y019505D01*
X015836Y019698D01*
X015688Y019846D01*
X015527Y019913D01*
X015584Y019931D01*
X015655Y019967D01*
X015719Y020014D01*
X015776Y020070D01*
X015823Y020135D01*
X015859Y020206D01*
X015883Y020281D01*
X015894Y020350D01*
X015083Y020350D01*
X015083Y020450D01*
X014983Y020450D01*
X014983Y020350D01*
X014173Y020350D01*
X014183Y020281D01*
X014208Y020206D01*
X014244Y020135D01*
X014291Y020070D01*
X014347Y020014D01*
X014412Y019967D01*
X014483Y019931D01*
X014539Y019913D01*
X014379Y019846D01*
X014303Y019770D01*
X012803Y019770D01*
X012803Y020147D01*
X013587Y020930D01*
X013520Y020863D02*
X014471Y020863D01*
X014483Y020869D02*
X014412Y020833D01*
X014347Y020786D01*
X014291Y020730D01*
X014244Y020665D01*
X014208Y020594D01*
X014183Y020519D01*
X014173Y020450D01*
X014983Y020450D01*
X014983Y020906D01*
X014637Y020906D01*
X014559Y020894D01*
X014483Y020869D01*
X014326Y020765D02*
X013421Y020765D01*
X013323Y020666D02*
X014245Y020666D01*
X014199Y020568D02*
X013224Y020568D01*
X013126Y020469D02*
X014176Y020469D01*
X014186Y020272D02*
X012929Y020272D01*
X013027Y020371D02*
X014983Y020371D01*
X014983Y020469D02*
X015083Y020469D01*
X015083Y020450D02*
X015083Y020906D01*
X015429Y020906D01*
X015508Y020894D01*
X015584Y020869D01*
X015655Y020833D01*
X015719Y020786D01*
X015776Y020730D01*
X015823Y020665D01*
X015859Y020594D01*
X015883Y020519D01*
X015894Y020450D01*
X015083Y020450D01*
X015083Y020371D02*
X016438Y020371D01*
X016305Y020272D02*
X015880Y020272D01*
X015842Y020174D02*
X016221Y020174D01*
X016180Y020075D02*
X015779Y020075D01*
X015668Y019977D02*
X016151Y019977D01*
X016151Y019878D02*
X015611Y019878D01*
X015754Y019780D02*
X016157Y019780D01*
X016198Y019681D02*
X015843Y019681D01*
X015884Y019583D02*
X016250Y019583D01*
X016349Y019484D02*
X015916Y019484D01*
X015916Y019386D02*
X016474Y019386D01*
X016320Y019287D02*
X015912Y019287D01*
X015872Y019189D02*
X016227Y019189D01*
X016186Y019090D02*
X015824Y019090D01*
X015725Y018992D02*
X016151Y018992D01*
X016151Y018893D02*
X015574Y018893D01*
X015739Y018795D02*
X016151Y018795D01*
X016192Y018696D02*
X015837Y018696D01*
X015877Y018598D02*
X016235Y018598D01*
X016334Y018499D02*
X015916Y018499D01*
X015916Y018401D02*
X016508Y018401D01*
X016335Y018302D02*
X015916Y018302D01*
X015878Y018204D02*
X016236Y018204D01*
X016192Y018105D02*
X015837Y018105D01*
X015740Y018007D02*
X016152Y018007D01*
X016151Y017908D02*
X015577Y017908D01*
X015724Y017810D02*
X016151Y017810D01*
X016186Y017711D02*
X015823Y017711D01*
X015871Y017613D02*
X016227Y017613D01*
X016319Y017514D02*
X015912Y017514D01*
X015916Y017416D02*
X016472Y017416D01*
X016390Y017317D02*
X015916Y017317D01*
X015884Y017219D02*
X016283Y017219D01*
X016221Y017120D02*
X015843Y017120D01*
X015755Y017022D02*
X016184Y017022D01*
X016177Y016825D02*
X015709Y016825D01*
X015613Y016923D02*
X016983Y016923D01*
X017083Y016923D02*
X018100Y016923D01*
X018002Y017022D02*
X017882Y017022D01*
X017903Y017120D02*
X017846Y017120D01*
X017805Y017219D02*
X017784Y017219D01*
X017706Y017317D02*
X017677Y017317D01*
X017608Y017416D02*
X017595Y017416D01*
X018034Y017810D02*
X019168Y017810D01*
X019168Y017908D02*
X017935Y017908D01*
X017915Y018007D02*
X019193Y018007D01*
X019198Y018017D02*
X019179Y017982D01*
X019168Y017944D01*
X019168Y017600D01*
X019583Y017600D01*
X019583Y017500D01*
X019683Y017500D01*
X019683Y017026D01*
X019968Y017026D01*
X020006Y017037D01*
X020040Y017056D01*
X020068Y017084D01*
X020088Y017118D01*
X020098Y017157D01*
X020098Y017500D01*
X019683Y017500D01*
X019683Y017600D01*
X019583Y017600D01*
X019583Y018074D01*
X019299Y018074D01*
X019260Y018064D01*
X019226Y018044D01*
X019198Y018017D01*
X019248Y018306D02*
X020019Y018306D01*
X020118Y018405D01*
X020118Y018740D01*
X020363Y018740D01*
X020403Y018700D01*
X021424Y018700D01*
X021523Y018800D01*
X021523Y019104D01*
X021826Y019330D01*
X024503Y019330D01*
X024583Y019250D01*
X025284Y019250D01*
X025383Y019350D01*
X025383Y020050D01*
X025284Y020150D01*
X024583Y020150D01*
X024503Y020070D01*
X021730Y020070D01*
X021684Y020077D01*
X021657Y020070D01*
X021630Y020070D01*
X021586Y020052D01*
X021541Y020040D01*
X021519Y020024D01*
X021494Y020014D01*
X021461Y019980D01*
X020844Y019520D01*
X020403Y019520D01*
X020363Y019480D01*
X019820Y019480D01*
X019684Y019424D01*
X019654Y019394D01*
X019248Y019394D01*
X019148Y019294D01*
X019148Y018405D01*
X019248Y018306D01*
X019153Y018401D02*
X017559Y018401D01*
X017732Y018302D02*
X020303Y018302D01*
X020303Y018204D02*
X017830Y018204D01*
X017874Y018105D02*
X020303Y018105D01*
X020303Y018007D02*
X020074Y018007D01*
X020068Y018017D02*
X020040Y018044D01*
X020006Y018064D01*
X019968Y018074D01*
X019683Y018074D01*
X019683Y017600D01*
X020098Y017600D01*
X020098Y017944D01*
X020088Y017982D01*
X020068Y018017D01*
X020098Y017908D02*
X020303Y017908D01*
X020303Y017890D02*
X020403Y017790D01*
X021424Y017790D01*
X021464Y017830D01*
X022750Y017830D01*
X022750Y017421D01*
X022850Y017321D01*
X023857Y017321D01*
X023956Y017421D01*
X023956Y017830D01*
X024248Y017830D01*
X024248Y017805D01*
X024348Y017706D01*
X025119Y017706D01*
X025218Y017805D01*
X025218Y017880D01*
X025527Y017880D01*
X025527Y017726D01*
X025627Y017627D01*
X025862Y017627D01*
X025868Y017624D01*
X025999Y017624D01*
X026005Y017627D01*
X026240Y017627D01*
X026340Y017726D01*
X026340Y018033D01*
X026347Y018040D01*
X026403Y018176D01*
X026403Y019270D01*
X026483Y019350D01*
X026483Y020050D01*
X026384Y020150D01*
X025683Y020150D01*
X025583Y020050D01*
X025583Y019350D01*
X025663Y019270D01*
X025663Y018620D01*
X025218Y018620D01*
X025218Y018694D01*
X025119Y018794D01*
X024348Y018794D01*
X024248Y018694D01*
X024248Y018570D01*
X023956Y018570D01*
X023956Y018979D01*
X023857Y019079D01*
X022850Y019079D01*
X022750Y018979D01*
X022750Y018570D01*
X021464Y018570D01*
X021424Y018610D01*
X020403Y018610D01*
X020303Y018510D01*
X020303Y017890D01*
X020383Y017810D02*
X020098Y017810D01*
X020098Y017711D02*
X022750Y017711D01*
X022750Y017613D02*
X021479Y017613D01*
X021473Y017622D02*
X021445Y017650D01*
X021411Y017670D01*
X021373Y017680D01*
X020963Y017680D01*
X020963Y017340D01*
X020863Y017340D01*
X020863Y017240D01*
X020323Y017240D01*
X020323Y017030D01*
X020334Y016992D01*
X020353Y016958D01*
X020381Y016930D01*
X020415Y016910D01*
X020454Y016900D01*
X020863Y016900D01*
X020863Y017240D01*
X020963Y017240D01*
X020963Y016900D01*
X021373Y016900D01*
X021411Y016910D01*
X021445Y016930D01*
X021473Y016958D01*
X021493Y016992D01*
X021503Y017030D01*
X021503Y017240D01*
X020963Y017240D01*
X020963Y017340D01*
X021503Y017340D01*
X021503Y017550D01*
X021493Y017588D01*
X021473Y017622D01*
X021503Y017514D02*
X022750Y017514D01*
X022756Y017416D02*
X021503Y017416D01*
X021503Y017219D02*
X024268Y017219D01*
X024268Y017317D02*
X020963Y017317D01*
X020963Y017219D02*
X020863Y017219D01*
X020863Y017317D02*
X020098Y017317D01*
X020098Y017219D02*
X020323Y017219D01*
X020323Y017120D02*
X020088Y017120D01*
X020326Y017022D02*
X018822Y017022D01*
X018723Y017120D02*
X019178Y017120D01*
X019179Y017118D02*
X019198Y017084D01*
X019226Y017056D01*
X019260Y017037D01*
X019299Y017026D01*
X019583Y017026D01*
X019583Y017500D01*
X019168Y017500D01*
X019168Y017157D01*
X019179Y017118D01*
X019168Y017219D02*
X018625Y017219D01*
X018526Y017317D02*
X019168Y017317D01*
X019168Y017416D02*
X018428Y017416D01*
X018329Y017514D02*
X019583Y017514D01*
X019583Y017416D02*
X019683Y017416D01*
X019683Y017514D02*
X020323Y017514D01*
X020323Y017550D02*
X020323Y017340D01*
X020863Y017340D01*
X020863Y017680D01*
X020454Y017680D01*
X020415Y017670D01*
X020381Y017650D01*
X020353Y017622D01*
X020334Y017588D01*
X020323Y017550D01*
X020348Y017613D02*
X020098Y017613D01*
X020098Y017416D02*
X020323Y017416D01*
X020863Y017416D02*
X020963Y017416D01*
X020963Y017514D02*
X020863Y017514D01*
X020863Y017613D02*
X020963Y017613D01*
X020963Y017120D02*
X020863Y017120D01*
X020863Y017022D02*
X020963Y017022D01*
X020963Y016923D02*
X020863Y016923D01*
X020393Y016923D02*
X018920Y016923D01*
X019019Y016825D02*
X024268Y016825D01*
X024268Y016900D02*
X024268Y016557D01*
X024279Y016518D01*
X024298Y016484D01*
X024326Y016456D01*
X024360Y016437D01*
X024399Y016426D01*
X024683Y016426D01*
X024683Y016900D01*
X024783Y016900D01*
X024783Y016426D01*
X025068Y016426D01*
X025106Y016437D01*
X025140Y016456D01*
X025168Y016484D01*
X025188Y016518D01*
X025198Y016557D01*
X025198Y016900D01*
X024783Y016900D01*
X024783Y017000D01*
X024683Y017000D01*
X024683Y016900D01*
X024268Y016900D01*
X024268Y017000D02*
X024268Y017344D01*
X024279Y017382D01*
X024298Y017417D01*
X024326Y017444D01*
X024360Y017464D01*
X024399Y017474D01*
X024683Y017474D01*
X024683Y017000D01*
X024268Y017000D01*
X024268Y017022D02*
X021501Y017022D01*
X021503Y017120D02*
X024268Y017120D01*
X024298Y017416D02*
X023951Y017416D01*
X023956Y017514D02*
X025596Y017514D01*
X025605Y017523D02*
X025577Y017495D01*
X025557Y017461D01*
X025547Y017423D01*
X025547Y017274D01*
X025905Y017274D01*
X025905Y017217D01*
X025962Y017217D01*
X025962Y016938D01*
X026189Y016938D01*
X026227Y016948D01*
X026262Y016968D01*
X026290Y016996D01*
X026309Y017030D01*
X026320Y017068D01*
X026320Y017217D01*
X025962Y017217D01*
X025962Y017274D01*
X026320Y017274D01*
X026320Y017423D01*
X026309Y017461D01*
X026290Y017495D01*
X026262Y017523D01*
X026227Y017543D01*
X026189Y017553D01*
X025962Y017553D01*
X025962Y017274D01*
X025905Y017274D01*
X025905Y017553D01*
X025677Y017553D01*
X025639Y017543D01*
X025605Y017523D01*
X025547Y017416D02*
X025169Y017416D01*
X025168Y017417D02*
X025140Y017444D01*
X025106Y017464D01*
X025068Y017474D01*
X024783Y017474D01*
X024783Y017000D01*
X025198Y017000D01*
X025198Y017344D01*
X025188Y017382D01*
X025168Y017417D01*
X025198Y017317D02*
X025547Y017317D01*
X025547Y017217D02*
X025547Y017068D01*
X025557Y017030D01*
X025577Y016996D01*
X025605Y016968D01*
X025639Y016948D01*
X025677Y016938D01*
X025905Y016938D01*
X025905Y017217D01*
X025547Y017217D01*
X025547Y017120D02*
X025198Y017120D01*
X025198Y017022D02*
X025562Y017022D01*
X025905Y017022D02*
X025962Y017022D01*
X025962Y017120D02*
X025905Y017120D01*
X025905Y017219D02*
X025198Y017219D01*
X025198Y016825D02*
X027443Y016825D01*
X027443Y016923D02*
X024783Y016923D01*
X024783Y016825D02*
X024683Y016825D01*
X024683Y016923D02*
X021433Y016923D01*
X021443Y017810D02*
X022750Y017810D01*
X022750Y018598D02*
X021436Y018598D01*
X021518Y018795D02*
X022750Y018795D01*
X022750Y018893D02*
X021523Y018893D01*
X021523Y018992D02*
X022763Y018992D01*
X022750Y018696D02*
X020118Y018696D01*
X020118Y018598D02*
X020390Y018598D01*
X020303Y018499D02*
X020118Y018499D01*
X020114Y018401D02*
X020303Y018401D01*
X019683Y018007D02*
X019583Y018007D01*
X019583Y017908D02*
X019683Y017908D01*
X019683Y017810D02*
X019583Y017810D01*
X019583Y017711D02*
X019683Y017711D01*
X019683Y017613D02*
X019583Y017613D01*
X019583Y017317D02*
X019683Y017317D01*
X019683Y017219D02*
X019583Y017219D01*
X019583Y017120D02*
X019683Y017120D01*
X019168Y017613D02*
X018231Y017613D01*
X018132Y017711D02*
X019168Y017711D01*
X019148Y018499D02*
X017733Y018499D01*
X017954Y018598D02*
X019148Y018598D01*
X019148Y018696D02*
X018053Y018696D01*
X018151Y018795D02*
X019148Y018795D01*
X019148Y018893D02*
X018250Y018893D01*
X018348Y018992D02*
X019148Y018992D01*
X019148Y019090D02*
X018447Y019090D01*
X018545Y019189D02*
X019148Y019189D01*
X019148Y019287D02*
X018644Y019287D01*
X018742Y019386D02*
X019240Y019386D01*
X019038Y019681D02*
X021060Y019681D01*
X021191Y019780D02*
X019136Y019780D01*
X019235Y019878D02*
X021323Y019878D01*
X021455Y019977D02*
X019333Y019977D01*
X019432Y020075D02*
X021677Y020075D01*
X021695Y020075D02*
X024508Y020075D01*
X025359Y020075D02*
X025608Y020075D01*
X025583Y019977D02*
X025383Y019977D01*
X025383Y019878D02*
X025583Y019878D01*
X025583Y019780D02*
X025383Y019780D01*
X025383Y019681D02*
X025583Y019681D01*
X025583Y019583D02*
X025383Y019583D01*
X025383Y019484D02*
X025583Y019484D01*
X025583Y019386D02*
X025383Y019386D01*
X025321Y019287D02*
X025646Y019287D01*
X025663Y019189D02*
X021637Y019189D01*
X021523Y019090D02*
X025663Y019090D01*
X025663Y018992D02*
X023944Y018992D01*
X023956Y018893D02*
X025663Y018893D01*
X025663Y018795D02*
X023956Y018795D01*
X023956Y018696D02*
X024250Y018696D01*
X024248Y018598D02*
X023956Y018598D01*
X024546Y019287D02*
X021769Y019287D01*
X021812Y020174D02*
X028092Y020174D01*
X028051Y020075D02*
X026459Y020075D01*
X026483Y019977D02*
X028023Y019977D01*
X028023Y019878D02*
X026483Y019878D01*
X026483Y019780D02*
X028029Y019780D01*
X028070Y019681D02*
X026483Y019681D01*
X026483Y019583D02*
X028117Y019583D01*
X028216Y019484D02*
X026483Y019484D01*
X026483Y019386D02*
X028375Y019386D01*
X028215Y019287D02*
X026421Y019287D01*
X026403Y019189D02*
X028130Y019189D01*
X028078Y019090D02*
X026403Y019090D01*
X026403Y018992D02*
X028051Y018992D01*
X028054Y018795D02*
X026403Y018795D01*
X026403Y018893D02*
X028563Y018893D01*
X028140Y018598D02*
X026403Y018598D01*
X026403Y018696D02*
X028084Y018696D01*
X028231Y018499D02*
X026403Y018499D01*
X026403Y018401D02*
X028361Y018401D01*
X028202Y018302D02*
X026403Y018302D01*
X026403Y018204D02*
X028105Y018204D01*
X027928Y018105D02*
X026374Y018105D01*
X026340Y018007D02*
X027830Y018007D01*
X027731Y017908D02*
X026340Y017908D01*
X026340Y017810D02*
X027633Y017810D01*
X027534Y017711D02*
X026324Y017711D01*
X026271Y017514D02*
X027443Y017514D01*
X027443Y017416D02*
X026320Y017416D01*
X026320Y017317D02*
X027443Y017317D01*
X027443Y017219D02*
X025962Y017219D01*
X025962Y017317D02*
X025905Y017317D01*
X025905Y017416D02*
X025962Y017416D01*
X025962Y017514D02*
X025905Y017514D01*
X025543Y017711D02*
X025124Y017711D01*
X025218Y017810D02*
X025527Y017810D01*
X024783Y017416D02*
X024683Y017416D01*
X024683Y017317D02*
X024783Y017317D01*
X024783Y017219D02*
X024683Y017219D01*
X024683Y017120D02*
X024783Y017120D01*
X024783Y017022D02*
X024683Y017022D01*
X024683Y016726D02*
X024783Y016726D01*
X024783Y016628D02*
X024683Y016628D01*
X024683Y016529D02*
X024783Y016529D01*
X024783Y016431D02*
X024683Y016431D01*
X024383Y016431D02*
X019413Y016431D01*
X019314Y016529D02*
X024276Y016529D01*
X024268Y016628D02*
X019216Y016628D01*
X019117Y016726D02*
X024268Y016726D01*
X025084Y016431D02*
X027354Y016431D01*
X027443Y016529D02*
X025191Y016529D01*
X025198Y016628D02*
X027443Y016628D01*
X027443Y016726D02*
X025198Y016726D01*
X026304Y017022D02*
X027443Y017022D01*
X027443Y017120D02*
X026320Y017120D01*
X027255Y016332D02*
X019511Y016332D01*
X019610Y016234D02*
X027157Y016234D01*
X027058Y016135D02*
X019708Y016135D01*
X019282Y015741D02*
X018302Y015741D01*
X018204Y015840D02*
X019184Y015840D01*
X019085Y015938D02*
X018105Y015938D01*
X018007Y016037D02*
X018987Y016037D01*
X018888Y016135D02*
X017908Y016135D01*
X017800Y016234D02*
X018790Y016234D01*
X018691Y016332D02*
X017702Y016332D01*
X017583Y016431D02*
X018593Y016431D01*
X018494Y016529D02*
X017734Y016529D01*
X017817Y016628D02*
X018396Y016628D01*
X018297Y016726D02*
X017865Y016726D01*
X017890Y016825D02*
X018199Y016825D01*
X016484Y016431D02*
X015916Y016431D01*
X015906Y016529D02*
X016332Y016529D01*
X016249Y016628D02*
X015865Y016628D01*
X015808Y016726D02*
X016201Y016726D01*
X016365Y016332D02*
X015916Y016332D01*
X015890Y016234D02*
X016266Y016234D01*
X016205Y016135D02*
X015849Y016135D01*
X015770Y016037D02*
X016164Y016037D01*
X016151Y015938D02*
X015649Y015938D01*
X015694Y015840D02*
X016151Y015840D01*
X016173Y015741D02*
X015793Y015741D01*
X015859Y015643D02*
X016214Y015643D01*
X016289Y015544D02*
X015899Y015544D01*
X015916Y015446D02*
X016399Y015446D01*
X016381Y015347D02*
X015996Y015347D01*
X016095Y015249D02*
X016281Y015249D01*
X016211Y015150D02*
X016193Y015150D01*
X014509Y014900D02*
X014379Y014846D01*
X014303Y014770D01*
X011387Y014770D01*
X010762Y015395D01*
X010843Y015593D01*
X010843Y015807D01*
X010761Y016006D01*
X010609Y016158D01*
X010411Y016240D01*
X009456Y016240D01*
X009257Y016158D01*
X009106Y016006D01*
X009023Y015807D01*
X009023Y015593D01*
X009106Y015394D01*
X009257Y015242D01*
X009456Y015160D01*
X009950Y015160D01*
X010920Y014190D01*
X011024Y014086D01*
X011160Y014030D01*
X012063Y014030D01*
X012063Y013326D01*
X012120Y013190D01*
X012224Y013086D01*
X013124Y012186D01*
X013260Y012130D01*
X014680Y012130D01*
X015324Y011486D01*
X015460Y011430D01*
X017180Y011430D01*
X017263Y011347D01*
X017263Y009926D01*
X017320Y009790D01*
X018524Y008586D01*
X018660Y008530D01*
X019880Y008530D01*
X020824Y007586D01*
X020960Y007530D01*
X020987Y007530D01*
X021027Y007490D01*
X020976Y007490D01*
X020869Y007446D01*
X019813Y006390D01*
X018414Y006390D01*
X017114Y007690D01*
X017114Y007910D01*
X017716Y007308D01*
X017822Y007264D01*
X018433Y007264D01*
X018593Y007104D01*
X018966Y007104D01*
X019230Y007367D01*
X019230Y007528D01*
X019477Y007280D01*
X019850Y007280D01*
X020114Y007544D01*
X020114Y007917D01*
X019850Y008180D01*
X019624Y008180D01*
X019358Y008446D01*
X019252Y008490D01*
X018053Y008490D01*
X017398Y009146D01*
X017291Y009190D01*
X015176Y009190D01*
X015069Y009146D01*
X014987Y009064D01*
X014313Y008390D01*
X014053Y008390D01*
X012123Y010320D01*
X012123Y012158D01*
X012079Y012264D01*
X011079Y013264D01*
X010998Y013346D01*
X010891Y013390D01*
X009553Y013390D01*
X009283Y013661D01*
X009340Y013718D01*
X009340Y014174D01*
X009240Y014273D01*
X008627Y014273D01*
X008527Y014174D01*
X008527Y013718D01*
X008627Y013618D01*
X008643Y013618D01*
X008643Y013600D01*
X008223Y014020D01*
X008223Y014750D01*
X008284Y014750D01*
X008369Y014835D01*
X008387Y014790D01*
X008527Y014650D01*
X008527Y014426D01*
X008627Y014327D01*
X009240Y014327D01*
X009340Y014426D01*
X009340Y014882D01*
X009240Y014982D01*
X009016Y014982D01*
X008923Y015074D01*
X008923Y015658D01*
X008879Y015764D01*
X008798Y015846D01*
X008498Y016146D01*
X008391Y016190D01*
X008324Y016190D01*
X008383Y016250D01*
X008383Y016310D01*
X013691Y016310D01*
X013798Y016354D01*
X013879Y016436D01*
X014392Y016949D01*
X014509Y016900D01*
X014379Y016846D01*
X014231Y016698D01*
X014151Y016505D01*
X014151Y016295D01*
X014231Y016102D01*
X014379Y015954D01*
X014509Y015900D01*
X014379Y015846D01*
X014231Y015698D01*
X014151Y015505D01*
X014151Y015295D01*
X014231Y015102D01*
X014379Y014954D01*
X014509Y014900D01*
X014399Y014855D02*
X011302Y014855D01*
X011204Y014953D02*
X014381Y014953D01*
X014281Y015052D02*
X011105Y015052D01*
X011007Y015150D02*
X014211Y015150D01*
X014170Y015249D02*
X013416Y015249D01*
X013409Y015242D02*
X013561Y015394D01*
X013643Y015593D01*
X013643Y015807D01*
X013561Y016006D01*
X013409Y016158D01*
X013211Y016240D01*
X012256Y016240D01*
X012057Y016158D01*
X011906Y016006D01*
X011823Y015807D01*
X011823Y015593D01*
X011906Y015394D01*
X012057Y015242D01*
X012256Y015160D01*
X013211Y015160D01*
X013409Y015242D01*
X013514Y015347D02*
X014151Y015347D01*
X014151Y015446D02*
X013582Y015446D01*
X013623Y015544D02*
X014167Y015544D01*
X014208Y015643D02*
X013643Y015643D01*
X013643Y015741D02*
X014274Y015741D01*
X014372Y015840D02*
X013630Y015840D01*
X013589Y015938D02*
X014417Y015938D01*
X014296Y016037D02*
X013530Y016037D01*
X013432Y016135D02*
X014217Y016135D01*
X014176Y016234D02*
X013226Y016234D01*
X013744Y016332D02*
X014151Y016332D01*
X014151Y016431D02*
X013874Y016431D01*
X013972Y016529D02*
X014161Y016529D01*
X014202Y016628D02*
X014071Y016628D01*
X014169Y016726D02*
X014259Y016726D01*
X014268Y016825D02*
X014357Y016825D01*
X014366Y016923D02*
X014454Y016923D01*
X012240Y016234D02*
X010426Y016234D01*
X010632Y016135D02*
X012035Y016135D01*
X011936Y016037D02*
X010730Y016037D01*
X010789Y015938D02*
X011877Y015938D01*
X011837Y015840D02*
X010830Y015840D01*
X010843Y015741D02*
X011823Y015741D01*
X011823Y015643D02*
X010843Y015643D01*
X010823Y015544D02*
X011843Y015544D01*
X011884Y015446D02*
X010782Y015446D01*
X010810Y015347D02*
X011953Y015347D01*
X012051Y015249D02*
X010908Y015249D01*
X010354Y014756D02*
X009340Y014756D01*
X009340Y014658D02*
X010453Y014658D01*
X010551Y014559D02*
X009340Y014559D01*
X009340Y014461D02*
X010650Y014461D01*
X010748Y014362D02*
X009275Y014362D01*
X009250Y014264D02*
X010847Y014264D01*
X010945Y014165D02*
X009340Y014165D01*
X009340Y014067D02*
X011072Y014067D01*
X010922Y013377D02*
X012063Y013377D01*
X012063Y013476D02*
X009468Y013476D01*
X009369Y013574D02*
X012063Y013574D01*
X012063Y013673D02*
X009294Y013673D01*
X009340Y013771D02*
X012063Y013771D01*
X012063Y013870D02*
X009340Y013870D01*
X009340Y013968D02*
X012063Y013968D01*
X012803Y013968D02*
X014365Y013968D01*
X014379Y013954D02*
X014539Y013887D01*
X014483Y013869D01*
X014412Y013833D01*
X014347Y013786D01*
X014291Y013730D01*
X014244Y013665D01*
X014208Y013594D01*
X014183Y013519D01*
X014173Y013450D01*
X014983Y013450D01*
X014983Y013350D01*
X014173Y013350D01*
X014183Y013281D01*
X014208Y013206D01*
X014244Y013135D01*
X014291Y013070D01*
X014347Y013014D01*
X014412Y012967D01*
X014483Y012931D01*
X014559Y012906D01*
X014637Y012894D01*
X014983Y012894D01*
X014983Y013350D01*
X015083Y013350D01*
X015083Y012894D01*
X015429Y012894D01*
X015508Y012906D01*
X015584Y012931D01*
X015655Y012967D01*
X015719Y013014D01*
X015776Y013070D01*
X015823Y013135D01*
X015859Y013206D01*
X015873Y013250D01*
X016187Y012936D01*
X016269Y012854D01*
X016376Y012810D01*
X017813Y012810D01*
X019187Y011436D01*
X019269Y011354D01*
X019376Y011310D01*
X020083Y011310D01*
X020083Y011250D01*
X020183Y011150D01*
X020847Y011150D01*
X020827Y011101D01*
X020827Y010899D01*
X020904Y010713D01*
X020963Y010654D01*
X020963Y009946D01*
X020904Y009887D01*
X020827Y009701D01*
X020827Y009530D01*
X020403Y009953D01*
X020403Y010474D01*
X020347Y010610D01*
X020243Y010714D01*
X019843Y011114D01*
X019707Y011170D01*
X019449Y011170D01*
X019408Y011211D01*
X019230Y011285D01*
X019037Y011285D01*
X018859Y011211D01*
X018722Y011075D01*
X018648Y010896D01*
X018648Y010704D01*
X018722Y010525D01*
X018859Y010389D01*
X019037Y010315D01*
X019230Y010315D01*
X019408Y010389D01*
X019449Y010430D01*
X019480Y010430D01*
X019663Y010247D01*
X019663Y009726D01*
X019720Y009590D01*
X020040Y009270D01*
X018887Y009270D01*
X018003Y010153D01*
X018003Y011574D01*
X017947Y011710D01*
X017647Y012010D01*
X017543Y012114D01*
X017407Y012170D01*
X015687Y012170D01*
X015147Y012710D01*
X015043Y012814D01*
X014907Y012870D01*
X013487Y012870D01*
X012803Y013553D01*
X012803Y014030D01*
X014303Y014030D01*
X014379Y013954D01*
X014484Y013870D02*
X012803Y013870D01*
X012803Y013771D02*
X014332Y013771D01*
X014249Y013673D02*
X012803Y013673D01*
X012803Y013574D02*
X014201Y013574D01*
X014177Y013476D02*
X012881Y013476D01*
X012980Y013377D02*
X014983Y013377D01*
X014983Y013279D02*
X015083Y013279D01*
X015083Y013180D02*
X014983Y013180D01*
X014983Y013082D02*
X015083Y013082D01*
X015083Y012983D02*
X014983Y012983D01*
X015071Y012786D02*
X017837Y012786D01*
X017936Y012688D02*
X015169Y012688D01*
X015147Y012710D02*
X015147Y012710D01*
X015268Y012589D02*
X018034Y012589D01*
X018133Y012491D02*
X015366Y012491D01*
X015465Y012392D02*
X018231Y012392D01*
X018330Y012294D02*
X015563Y012294D01*
X015662Y012195D02*
X018428Y012195D01*
X018527Y012097D02*
X017560Y012097D01*
X017647Y012010D02*
X017647Y012010D01*
X017659Y011998D02*
X018625Y011998D01*
X018724Y011900D02*
X017757Y011900D01*
X017856Y011801D02*
X018822Y011801D01*
X018921Y011703D02*
X017950Y011703D01*
X017991Y011604D02*
X019019Y011604D01*
X019118Y011506D02*
X018003Y011506D01*
X018003Y011407D02*
X019216Y011407D01*
X019409Y011210D02*
X020123Y011210D01*
X020083Y011309D02*
X018003Y011309D01*
X018003Y011210D02*
X018857Y011210D01*
X018759Y011112D02*
X018003Y011112D01*
X018003Y011013D02*
X018697Y011013D01*
X018656Y010915D02*
X018003Y010915D01*
X018003Y010816D02*
X018648Y010816D01*
X018648Y010718D02*
X018003Y010718D01*
X018003Y010619D02*
X018683Y010619D01*
X018727Y010521D02*
X018003Y010521D01*
X018003Y010422D02*
X018825Y010422D01*
X018941Y010265D02*
X018668Y009993D01*
X018668Y009830D01*
X019103Y009830D01*
X019103Y009770D01*
X018668Y009770D01*
X018668Y009607D01*
X018941Y009335D01*
X019103Y009335D01*
X019103Y009770D01*
X019163Y009770D01*
X019163Y009335D01*
X019326Y009335D01*
X019598Y009607D01*
X019598Y009770D01*
X019163Y009770D01*
X019163Y009830D01*
X019103Y009830D01*
X019103Y010265D01*
X018941Y010265D01*
X018901Y010225D02*
X018003Y010225D01*
X018003Y010324D02*
X019016Y010324D01*
X019103Y010225D02*
X019163Y010225D01*
X019163Y010265D02*
X019163Y009830D01*
X019598Y009830D01*
X019598Y009993D01*
X019326Y010265D01*
X019163Y010265D01*
X019250Y010324D02*
X019587Y010324D01*
X019663Y010225D02*
X019366Y010225D01*
X019464Y010127D02*
X019663Y010127D01*
X019663Y010028D02*
X019563Y010028D01*
X019598Y009930D02*
X019663Y009930D01*
X019663Y009831D02*
X019598Y009831D01*
X019598Y009733D02*
X019663Y009733D01*
X019702Y009634D02*
X019598Y009634D01*
X019526Y009536D02*
X019775Y009536D01*
X019873Y009437D02*
X019428Y009437D01*
X019329Y009339D02*
X019972Y009339D01*
X020526Y009831D02*
X020881Y009831D01*
X020840Y009733D02*
X020624Y009733D01*
X020723Y009634D02*
X020827Y009634D01*
X020821Y009536D02*
X020827Y009536D01*
X020946Y009930D02*
X020427Y009930D01*
X020403Y010028D02*
X020963Y010028D01*
X020963Y010127D02*
X020403Y010127D01*
X020403Y010225D02*
X020963Y010225D01*
X020963Y010324D02*
X020403Y010324D01*
X020403Y010422D02*
X020963Y010422D01*
X020963Y010521D02*
X020384Y010521D01*
X020338Y010619D02*
X020963Y010619D01*
X020902Y010718D02*
X020239Y010718D01*
X020141Y010816D02*
X020861Y010816D01*
X020827Y010915D02*
X020042Y010915D01*
X019944Y011013D02*
X020827Y011013D01*
X020831Y011112D02*
X019845Y011112D01*
X019488Y010422D02*
X019441Y010422D01*
X019163Y010127D02*
X019103Y010127D01*
X019103Y010028D02*
X019163Y010028D01*
X019163Y009930D02*
X019103Y009930D01*
X019103Y009831D02*
X019163Y009831D01*
X019163Y009733D02*
X019103Y009733D01*
X019103Y009634D02*
X019163Y009634D01*
X019163Y009536D02*
X019103Y009536D01*
X019103Y009437D02*
X019163Y009437D01*
X019163Y009339D02*
X019103Y009339D01*
X018937Y009339D02*
X018818Y009339D01*
X018839Y009437D02*
X018720Y009437D01*
X018740Y009536D02*
X018621Y009536D01*
X018668Y009634D02*
X018523Y009634D01*
X018424Y009733D02*
X018668Y009733D01*
X018668Y009831D02*
X018326Y009831D01*
X018227Y009930D02*
X018668Y009930D01*
X018704Y010028D02*
X018129Y010028D01*
X018030Y010127D02*
X018802Y010127D01*
X017870Y009240D02*
X013203Y009240D01*
X013105Y009339D02*
X017772Y009339D01*
X017673Y009437D02*
X013006Y009437D01*
X012908Y009536D02*
X017575Y009536D01*
X017476Y009634D02*
X012809Y009634D01*
X012711Y009733D02*
X017378Y009733D01*
X017303Y009831D02*
X012612Y009831D01*
X012514Y009930D02*
X014434Y009930D01*
X014408Y009940D02*
X014615Y009854D01*
X014839Y009854D01*
X015046Y009940D01*
X015205Y010099D01*
X015291Y010306D01*
X015291Y010530D01*
X015205Y010737D01*
X015046Y010896D01*
X014839Y010982D01*
X014615Y010982D01*
X014408Y010896D01*
X014249Y010737D01*
X014163Y010530D01*
X014163Y010306D01*
X014249Y010099D01*
X014408Y009940D01*
X014320Y010028D02*
X012415Y010028D01*
X012317Y010127D02*
X014238Y010127D01*
X014197Y010225D02*
X012218Y010225D01*
X012123Y010324D02*
X014163Y010324D01*
X014163Y010422D02*
X012123Y010422D01*
X012123Y010521D02*
X014163Y010521D01*
X014200Y010619D02*
X012123Y010619D01*
X012123Y010718D02*
X014241Y010718D01*
X014328Y010816D02*
X012123Y010816D01*
X012123Y010915D02*
X014452Y010915D01*
X015002Y010915D02*
X017263Y010915D01*
X017263Y011013D02*
X012123Y011013D01*
X012123Y011112D02*
X017263Y011112D01*
X017263Y011210D02*
X012123Y011210D01*
X012123Y011309D02*
X017263Y011309D01*
X017203Y011407D02*
X012123Y011407D01*
X012123Y011506D02*
X015305Y011506D01*
X015206Y011604D02*
X012123Y011604D01*
X012123Y011703D02*
X015108Y011703D01*
X015009Y011801D02*
X012123Y011801D01*
X012123Y011900D02*
X014911Y011900D01*
X014812Y011998D02*
X012123Y011998D01*
X012123Y012097D02*
X014714Y012097D01*
X014390Y012983D02*
X013374Y012983D01*
X013472Y012885D02*
X016239Y012885D01*
X016140Y012983D02*
X015677Y012983D01*
X015784Y013082D02*
X016042Y013082D01*
X015943Y013180D02*
X015846Y013180D01*
X014283Y013082D02*
X013275Y013082D01*
X013177Y013180D02*
X014221Y013180D01*
X014184Y013279D02*
X013078Y013279D01*
X012524Y012786D02*
X011557Y012786D01*
X011459Y012885D02*
X012426Y012885D01*
X012327Y012983D02*
X011360Y012983D01*
X011262Y013082D02*
X012229Y013082D01*
X012130Y013180D02*
X011163Y013180D01*
X011065Y013279D02*
X012083Y013279D01*
X011656Y012688D02*
X012623Y012688D01*
X012721Y012589D02*
X011754Y012589D01*
X011853Y012491D02*
X012820Y012491D01*
X012918Y012392D02*
X011951Y012392D01*
X012050Y012294D02*
X013017Y012294D01*
X013115Y012195D02*
X012108Y012195D01*
X015126Y010816D02*
X017263Y010816D01*
X017263Y010718D02*
X015213Y010718D01*
X015254Y010619D02*
X017263Y010619D01*
X017263Y010521D02*
X015291Y010521D01*
X015291Y010422D02*
X017263Y010422D01*
X017263Y010324D02*
X015291Y010324D01*
X015257Y010225D02*
X017263Y010225D01*
X017263Y010127D02*
X015216Y010127D01*
X015134Y010028D02*
X017263Y010028D01*
X017263Y009930D02*
X015020Y009930D01*
X015065Y009142D02*
X013302Y009142D01*
X013400Y009043D02*
X014966Y009043D01*
X014868Y008945D02*
X013499Y008945D01*
X013597Y008846D02*
X014769Y008846D01*
X014671Y008748D02*
X013696Y008748D01*
X013794Y008649D02*
X014572Y008649D01*
X014474Y008551D02*
X013893Y008551D01*
X013991Y008452D02*
X014375Y008452D01*
X015304Y007861D02*
X015451Y007861D01*
X015403Y007960D02*
X015549Y007960D01*
X015593Y008004D02*
X015330Y007740D01*
X015330Y007367D01*
X015593Y007104D01*
X015966Y007104D01*
X016230Y007367D01*
X016230Y007528D01*
X016477Y007280D01*
X016704Y007280D01*
X018094Y005890D01*
X015153Y005890D01*
X013733Y007310D01*
X014691Y007310D01*
X014798Y007354D01*
X014879Y007436D01*
X015553Y008110D01*
X016407Y008110D01*
X016214Y007917D01*
X016214Y007756D01*
X015966Y008004D01*
X015593Y008004D01*
X015501Y008058D02*
X016355Y008058D01*
X016256Y007960D02*
X016010Y007960D01*
X016109Y007861D02*
X016214Y007861D01*
X016207Y007763D02*
X016214Y007763D01*
X016230Y007467D02*
X016291Y007467D01*
X016230Y007369D02*
X016389Y007369D01*
X016309Y007276D02*
X016204Y007172D01*
X016487Y006889D01*
X016770Y007172D01*
X016665Y007276D01*
X016309Y007276D01*
X016302Y007270D02*
X016133Y007270D01*
X016204Y007172D02*
X016034Y007172D01*
X016105Y007073D02*
X013970Y007073D01*
X013872Y007172D02*
X015525Y007172D01*
X015427Y007270D02*
X013773Y007270D01*
X014069Y006975D02*
X016057Y006975D01*
X016057Y007025D02*
X016057Y006668D01*
X016162Y006564D01*
X016444Y006846D01*
X016487Y006804D01*
X016529Y006846D01*
X016812Y006564D01*
X016917Y006668D01*
X016917Y007025D01*
X016812Y007129D01*
X016529Y006846D01*
X016487Y006889D01*
X016444Y006846D01*
X016162Y007129D01*
X016057Y007025D01*
X016057Y006876D02*
X014167Y006876D01*
X014266Y006778D02*
X016057Y006778D01*
X016057Y006679D02*
X014364Y006679D01*
X014463Y006581D02*
X016145Y006581D01*
X016179Y006581D02*
X016263Y006581D01*
X016204Y006521D02*
X016309Y006416D01*
X016665Y006416D01*
X016770Y006521D01*
X016487Y006804D01*
X016204Y006521D01*
X016243Y006482D02*
X014561Y006482D01*
X014660Y006384D02*
X017600Y006384D01*
X017502Y006482D02*
X016731Y006482D01*
X016710Y006581D02*
X016795Y006581D01*
X016829Y006581D02*
X017403Y006581D01*
X017305Y006679D02*
X016917Y006679D01*
X016917Y006778D02*
X017206Y006778D01*
X017108Y006876D02*
X016917Y006876D01*
X016917Y006975D02*
X017009Y006975D01*
X016911Y007073D02*
X016868Y007073D01*
X016756Y007073D02*
X016671Y007073D01*
X016657Y006975D02*
X016573Y006975D01*
X016559Y006876D02*
X016500Y006876D01*
X016474Y006876D02*
X016415Y006876D01*
X016401Y006975D02*
X016316Y006975D01*
X016303Y007073D02*
X016218Y007073D01*
X016376Y006778D02*
X016460Y006778D01*
X016513Y006778D02*
X016598Y006778D01*
X016612Y006679D02*
X016697Y006679D01*
X016362Y006679D02*
X016277Y006679D01*
X016770Y007172D02*
X016812Y007172D01*
X016714Y007270D02*
X016671Y007270D01*
X017140Y007664D02*
X017359Y007664D01*
X017261Y007763D02*
X017114Y007763D01*
X017114Y007861D02*
X017162Y007861D01*
X017239Y007566D02*
X017458Y007566D01*
X017556Y007467D02*
X017337Y007467D01*
X017436Y007369D02*
X017655Y007369D01*
X017534Y007270D02*
X017807Y007270D01*
X017633Y007172D02*
X018525Y007172D01*
X019034Y007172D02*
X019204Y007172D01*
X019487Y006889D01*
X019770Y007172D01*
X019665Y007276D01*
X019309Y007276D01*
X019204Y007172D01*
X019162Y007129D02*
X019057Y007025D01*
X019057Y006668D01*
X019162Y006564D01*
X019444Y006846D01*
X019487Y006804D01*
X019529Y006846D01*
X019812Y006564D01*
X019917Y006668D01*
X019917Y007025D01*
X019812Y007129D01*
X019529Y006846D01*
X019487Y006889D01*
X019444Y006846D01*
X019162Y007129D01*
X019218Y007073D02*
X019303Y007073D01*
X019316Y006975D02*
X019401Y006975D01*
X019415Y006876D02*
X019474Y006876D01*
X019500Y006876D02*
X019559Y006876D01*
X019573Y006975D02*
X019657Y006975D01*
X019671Y007073D02*
X019756Y007073D01*
X019770Y007172D02*
X020595Y007172D01*
X020693Y007270D02*
X019671Y007270D01*
X019868Y007073D02*
X020496Y007073D01*
X020398Y006975D02*
X019917Y006975D01*
X019917Y006876D02*
X020299Y006876D01*
X020201Y006778D02*
X019917Y006778D01*
X019917Y006679D02*
X020102Y006679D01*
X020004Y006581D02*
X019829Y006581D01*
X019795Y006581D02*
X019710Y006581D01*
X019770Y006521D02*
X019487Y006804D01*
X019204Y006521D01*
X019309Y006416D01*
X019665Y006416D01*
X019770Y006521D01*
X019731Y006482D02*
X019905Y006482D01*
X019697Y006679D02*
X019612Y006679D01*
X019598Y006778D02*
X019513Y006778D01*
X019460Y006778D02*
X019376Y006778D01*
X019362Y006679D02*
X019277Y006679D01*
X019263Y006581D02*
X019179Y006581D01*
X019145Y006581D02*
X018224Y006581D01*
X018125Y006679D02*
X019057Y006679D01*
X019057Y006778D02*
X018027Y006778D01*
X017928Y006876D02*
X019057Y006876D01*
X019057Y006975D02*
X017830Y006975D01*
X017731Y007073D02*
X019105Y007073D01*
X019133Y007270D02*
X019302Y007270D01*
X019230Y007369D02*
X019389Y007369D01*
X019291Y007467D02*
X019230Y007467D01*
X019938Y007369D02*
X020792Y007369D01*
X020920Y007467D02*
X020037Y007467D01*
X020114Y007566D02*
X020874Y007566D01*
X020746Y007664D02*
X020114Y007664D01*
X020114Y007763D02*
X020648Y007763D01*
X020549Y007861D02*
X020114Y007861D01*
X020071Y007960D02*
X020451Y007960D01*
X020352Y008058D02*
X019972Y008058D01*
X019874Y008157D02*
X020254Y008157D01*
X020155Y008255D02*
X019549Y008255D01*
X019451Y008354D02*
X020057Y008354D01*
X019958Y008452D02*
X019343Y008452D01*
X018610Y008551D02*
X017993Y008551D01*
X017894Y008649D02*
X018461Y008649D01*
X018363Y008748D02*
X017796Y008748D01*
X017697Y008846D02*
X018264Y008846D01*
X018166Y008945D02*
X017599Y008945D01*
X017500Y009043D02*
X018067Y009043D01*
X017969Y009142D02*
X017402Y009142D01*
X015352Y007763D02*
X015206Y007763D01*
X015107Y007664D02*
X015330Y007664D01*
X015330Y007566D02*
X015009Y007566D01*
X014910Y007467D02*
X015330Y007467D01*
X015330Y007369D02*
X014812Y007369D01*
X014758Y006285D02*
X017699Y006285D01*
X017797Y006187D02*
X014857Y006187D01*
X014955Y006088D02*
X017896Y006088D01*
X017994Y005990D02*
X015054Y005990D01*
X015152Y005891D02*
X018093Y005891D01*
X018322Y006482D02*
X019243Y006482D01*
X020133Y005890D02*
X020179Y005936D01*
X020859Y006616D01*
X020859Y006614D01*
X020849Y006550D01*
X021283Y006550D01*
X021283Y006450D01*
X020849Y006450D01*
X020859Y006386D01*
X020882Y006313D01*
X020917Y006245D01*
X020962Y006183D01*
X021016Y006129D01*
X021078Y006084D01*
X021147Y006049D01*
X021219Y006025D01*
X021283Y006015D01*
X021283Y006450D01*
X021383Y006450D01*
X021383Y006015D01*
X021447Y006025D01*
X021520Y006049D01*
X021588Y006084D01*
X021650Y006129D01*
X021704Y006183D01*
X021749Y006245D01*
X021784Y006313D01*
X021808Y006386D01*
X021818Y006450D01*
X021383Y006450D01*
X021383Y006550D01*
X021818Y006550D01*
X021808Y006614D01*
X021784Y006687D01*
X021749Y006755D01*
X021704Y006817D01*
X021650Y006871D01*
X021597Y006910D01*
X024027Y006910D01*
X023904Y006787D01*
X023827Y006601D01*
X023827Y006399D01*
X023904Y006213D01*
X024046Y006071D01*
X024233Y005993D01*
X024434Y005993D01*
X024575Y006052D01*
X024413Y005890D01*
X020133Y005890D01*
X020134Y005891D02*
X024414Y005891D01*
X024513Y005990D02*
X020233Y005990D01*
X020331Y006088D02*
X021073Y006088D01*
X020960Y006187D02*
X020430Y006187D01*
X020528Y006285D02*
X020897Y006285D01*
X020860Y006384D02*
X020627Y006384D01*
X020725Y006482D02*
X021283Y006482D01*
X021283Y006384D02*
X021383Y006384D01*
X021383Y006482D02*
X023827Y006482D01*
X023827Y006581D02*
X021813Y006581D01*
X021787Y006679D02*
X023859Y006679D01*
X023900Y006778D02*
X021733Y006778D01*
X021644Y006876D02*
X023993Y006876D01*
X023833Y006384D02*
X021807Y006384D01*
X021770Y006285D02*
X023874Y006285D01*
X023930Y006187D02*
X021707Y006187D01*
X021594Y006088D02*
X024029Y006088D01*
X024939Y005596D02*
X026618Y005596D01*
X026716Y005694D02*
X025037Y005694D01*
X025136Y005793D02*
X026815Y005793D01*
X026913Y005891D02*
X025234Y005891D01*
X025333Y005990D02*
X027012Y005990D01*
X027110Y006088D02*
X025431Y006088D01*
X025530Y006187D02*
X027209Y006187D01*
X027307Y006285D02*
X025628Y006285D01*
X025727Y006384D02*
X027406Y006384D01*
X027504Y006482D02*
X025798Y006482D01*
X025823Y006581D02*
X027603Y006581D01*
X027701Y006679D02*
X025823Y006679D01*
X025823Y006778D02*
X027800Y006778D01*
X027898Y006876D02*
X025823Y006876D01*
X025823Y006975D02*
X027997Y006975D01*
X028095Y007073D02*
X025823Y007073D01*
X025823Y007172D02*
X028194Y007172D01*
X028292Y007270D02*
X025823Y007270D01*
X025823Y007369D02*
X028391Y007369D01*
X028489Y007467D02*
X025823Y007467D01*
X025823Y007566D02*
X028588Y007566D01*
X028686Y007664D02*
X025823Y007664D01*
X025823Y007763D02*
X028785Y007763D01*
X028883Y007861D02*
X025823Y007861D01*
X025823Y007960D02*
X028982Y007960D01*
X029080Y008058D02*
X025823Y008058D01*
X025823Y008157D02*
X029179Y008157D01*
X029277Y008255D02*
X025823Y008255D01*
X025823Y008354D02*
X029376Y008354D01*
X029474Y008452D02*
X025823Y008452D01*
X025823Y008551D02*
X028652Y008551D01*
X028774Y008500D02*
X029092Y008500D01*
X029386Y008622D01*
X029611Y008847D01*
X029733Y009141D01*
X029733Y009459D01*
X029611Y009753D01*
X029386Y009978D01*
X029092Y010100D01*
X028774Y010100D01*
X028480Y009978D01*
X028255Y009753D01*
X028133Y009459D01*
X028133Y009141D01*
X028255Y008847D01*
X028480Y008622D01*
X028774Y008500D01*
X028453Y008649D02*
X025823Y008649D01*
X025823Y008748D02*
X028355Y008748D01*
X028256Y008846D02*
X025823Y008846D01*
X025823Y008945D02*
X028215Y008945D01*
X028174Y009043D02*
X025823Y009043D01*
X025823Y009142D02*
X028133Y009142D01*
X028133Y009240D02*
X025823Y009240D01*
X025823Y009339D02*
X028133Y009339D01*
X028133Y009437D02*
X025823Y009437D01*
X025823Y009536D02*
X028165Y009536D01*
X028206Y009634D02*
X025823Y009634D01*
X025823Y009733D02*
X028247Y009733D01*
X028333Y009831D02*
X025823Y009831D01*
X025823Y009930D02*
X028432Y009930D01*
X028601Y010028D02*
X025823Y010028D01*
X025823Y010127D02*
X029913Y010127D01*
X029913Y010225D02*
X025823Y010225D01*
X025823Y010324D02*
X029913Y010324D01*
X029913Y010422D02*
X025823Y010422D01*
X025823Y010521D02*
X029913Y010521D01*
X029913Y010619D02*
X025823Y010619D01*
X025823Y010718D02*
X029913Y010718D01*
X029913Y010816D02*
X025823Y010816D01*
X025823Y010915D02*
X029913Y010915D01*
X029913Y011013D02*
X025823Y011013D01*
X025823Y011112D02*
X029913Y011112D01*
X029913Y011210D02*
X025823Y011210D01*
X025823Y011309D02*
X029913Y011309D01*
X029913Y011407D02*
X025823Y011407D01*
X025823Y011506D02*
X029913Y011506D01*
X029913Y011604D02*
X025823Y011604D01*
X025823Y011703D02*
X029913Y011703D01*
X029913Y011801D02*
X025823Y011801D01*
X025823Y011900D02*
X029913Y011900D01*
X029913Y011998D02*
X025823Y011998D01*
X025823Y012097D02*
X029913Y012097D01*
X029913Y012195D02*
X025823Y012195D01*
X025823Y012294D02*
X029913Y012294D01*
X029913Y012392D02*
X025823Y012392D01*
X025834Y012491D02*
X029913Y012491D01*
X029913Y012589D02*
X025932Y012589D01*
X026031Y012688D02*
X029913Y012688D01*
X029913Y012786D02*
X026129Y012786D01*
X026228Y012885D02*
X029913Y012885D01*
X029913Y012983D02*
X026326Y012983D01*
X026425Y013082D02*
X029913Y013082D01*
X029913Y013180D02*
X026523Y013180D01*
X026622Y013279D02*
X029913Y013279D01*
X029913Y013377D02*
X029452Y013377D01*
X029643Y013476D02*
X029913Y013476D01*
X029913Y013574D02*
X029741Y013574D01*
X029794Y013673D02*
X029913Y013673D01*
X029913Y013771D02*
X029834Y013771D01*
X029843Y013870D02*
X029913Y013870D01*
X029913Y013968D02*
X029843Y013968D01*
X029819Y014067D02*
X029913Y014067D01*
X029913Y014165D02*
X029778Y014165D01*
X029703Y014264D02*
X029913Y014264D01*
X029913Y014362D02*
X029599Y014362D01*
X029628Y014461D02*
X029913Y014461D01*
X029913Y014559D02*
X029726Y014559D01*
X029787Y014658D02*
X029913Y014658D01*
X029913Y014756D02*
X029828Y014756D01*
X029843Y014855D02*
X029913Y014855D01*
X029913Y014953D02*
X029843Y014953D01*
X029825Y015052D02*
X029913Y015052D01*
X029913Y015150D02*
X029784Y015150D01*
X029718Y015249D02*
X029913Y015249D01*
X029913Y015347D02*
X029620Y015347D01*
X029613Y015446D02*
X029913Y015446D01*
X029913Y015544D02*
X029711Y015544D01*
X029781Y015643D02*
X029913Y015643D01*
X029913Y015741D02*
X029822Y015741D01*
X029843Y015840D02*
X029913Y015840D01*
X029913Y015938D02*
X029843Y015938D01*
X029831Y016037D02*
X029913Y016037D01*
X029913Y016135D02*
X029790Y016135D01*
X029733Y016234D02*
X029913Y016234D01*
X029913Y016332D02*
X029635Y016332D01*
X029581Y016431D02*
X029913Y016431D01*
X029913Y016529D02*
X029696Y016529D01*
X029775Y016628D02*
X029913Y016628D01*
X029913Y016726D02*
X029816Y016726D01*
X029843Y016825D02*
X029913Y016825D01*
X029913Y016923D02*
X029843Y016923D01*
X029837Y017022D02*
X029913Y017022D01*
X029913Y017120D02*
X029797Y017120D01*
X029748Y017219D02*
X029913Y017219D01*
X029913Y017317D02*
X029650Y017317D01*
X029545Y017416D02*
X029913Y017416D01*
X029913Y017514D02*
X029681Y017514D01*
X029769Y017613D02*
X029913Y017613D01*
X029913Y017711D02*
X029810Y017711D01*
X029843Y017810D02*
X029913Y017810D01*
X029913Y017908D02*
X029843Y017908D01*
X029843Y018007D02*
X029913Y018007D01*
X029913Y018105D02*
X029803Y018105D01*
X029762Y018204D02*
X029913Y018204D01*
X029913Y018302D02*
X029665Y018302D01*
X029506Y018401D02*
X029913Y018401D01*
X029913Y018499D02*
X029636Y018499D01*
X029726Y018598D02*
X029913Y018598D01*
X029913Y018696D02*
X029783Y018696D01*
X029813Y018795D02*
X029913Y018795D01*
X029913Y018893D02*
X029303Y018893D01*
X029815Y018992D02*
X029913Y018992D01*
X029913Y019090D02*
X029788Y019090D01*
X029736Y019189D02*
X029913Y019189D01*
X029913Y019287D02*
X029652Y019287D01*
X029492Y019386D02*
X029913Y019386D01*
X029913Y019484D02*
X029651Y019484D01*
X029750Y019583D02*
X029913Y019583D01*
X029913Y019681D02*
X029797Y019681D01*
X029838Y019780D02*
X029913Y019780D01*
X029913Y019878D02*
X029843Y019878D01*
X029843Y019977D02*
X029913Y019977D01*
X029913Y020075D02*
X029815Y020075D01*
X029775Y020174D02*
X029913Y020174D01*
X029913Y020272D02*
X029695Y020272D01*
X029578Y020371D02*
X029913Y020371D01*
X029913Y020469D02*
X022126Y020469D01*
X022224Y020568D02*
X029913Y020568D01*
X029913Y020666D02*
X022323Y020666D01*
X022421Y020765D02*
X029913Y020765D01*
X029913Y020863D02*
X029355Y020863D01*
X029324Y020832D02*
X029703Y021211D01*
X029703Y021893D01*
X029566Y022031D01*
X029545Y022031D01*
X029682Y022168D01*
X029803Y022289D01*
X029803Y022971D01*
X029666Y023109D01*
X029544Y023231D01*
X029106Y023231D01*
X029018Y023143D01*
X028992Y023117D01*
X028988Y023137D01*
X028926Y023178D01*
X028874Y023231D01*
X028848Y023231D01*
X028826Y023245D01*
X028753Y023231D01*
X028679Y023231D01*
X028661Y023212D01*
X028635Y023207D01*
X028594Y023145D01*
X028541Y023093D01*
X028541Y023067D01*
X028524Y023041D01*
X028524Y023093D01*
X028387Y023231D01*
X028192Y023231D01*
X028137Y023176D01*
X028082Y023231D01*
X027522Y023231D01*
X027434Y023143D01*
X027400Y023109D01*
X027350Y023059D01*
X027262Y022971D01*
X027262Y022289D01*
X027348Y022204D01*
X027400Y022152D01*
X027437Y022115D01*
X027522Y022030D01*
X027563Y022030D01*
X027426Y021893D01*
X027426Y021136D01*
X027412Y021114D01*
X027426Y021042D01*
X027426Y020968D01*
X027445Y020949D01*
X027450Y020923D01*
X027512Y020882D01*
X027564Y020830D01*
X027590Y020830D01*
X027612Y020815D01*
X027685Y020830D01*
X027759Y020830D01*
X027777Y020849D01*
X027803Y020854D01*
X027844Y020915D01*
X027896Y020968D01*
X027896Y020994D01*
X027914Y021019D01*
X027914Y020968D01*
X028051Y020830D01*
X028246Y020830D01*
X028291Y020875D01*
X028336Y020830D01*
X028774Y020830D01*
X028911Y020968D01*
X028911Y021046D01*
X028990Y020968D01*
X028990Y020968D01*
X029127Y020830D01*
X029322Y020830D01*
X029324Y020832D01*
X029454Y020962D02*
X029913Y020962D01*
X029913Y021060D02*
X029552Y021060D01*
X029651Y021159D02*
X029913Y021159D01*
X029913Y021257D02*
X029703Y021257D01*
X029703Y021356D02*
X029913Y021356D01*
X029913Y021454D02*
X029703Y021454D01*
X029703Y021553D02*
X029913Y021553D01*
X029913Y021651D02*
X029703Y021651D01*
X029703Y021750D02*
X029913Y021750D01*
X029913Y021848D02*
X029703Y021848D01*
X029650Y021947D02*
X029913Y021947D01*
X029913Y022045D02*
X029559Y022045D01*
X029657Y022144D02*
X029913Y022144D01*
X029913Y022242D02*
X029756Y022242D01*
X029803Y022341D02*
X029913Y022341D01*
X029913Y022439D02*
X029803Y022439D01*
X029803Y022538D02*
X029913Y022538D01*
X029913Y022636D02*
X029803Y022636D01*
X029803Y022735D02*
X029913Y022735D01*
X029913Y022833D02*
X029803Y022833D01*
X029803Y022932D02*
X029913Y022932D01*
X029913Y023030D02*
X029744Y023030D01*
X029646Y023129D02*
X029913Y023129D01*
X029913Y023227D02*
X029547Y023227D01*
X029913Y023326D02*
X024735Y023326D01*
X024788Y023424D02*
X029913Y023424D01*
X029913Y023523D02*
X024814Y023523D01*
X024806Y023720D02*
X028727Y023720D01*
X028774Y023700D02*
X029092Y023700D01*
X029386Y023822D01*
X029611Y024047D01*
X029733Y024341D01*
X029733Y024659D01*
X029611Y024953D01*
X029386Y025178D01*
X029092Y025300D01*
X028774Y025300D01*
X028480Y025178D01*
X028255Y024953D01*
X028133Y024659D01*
X028133Y024341D01*
X028255Y024047D01*
X028480Y023822D01*
X028774Y023700D01*
X028489Y023818D02*
X024768Y023818D01*
X024705Y023917D02*
X028386Y023917D01*
X028287Y024015D02*
X024590Y024015D01*
X024383Y024015D02*
X024283Y024015D01*
X024283Y023917D02*
X024383Y023917D01*
X024383Y023818D02*
X024283Y023818D01*
X024283Y023720D02*
X024383Y023720D01*
X024383Y023621D02*
X029913Y023621D01*
X029913Y023720D02*
X029139Y023720D01*
X029377Y023818D02*
X029913Y023818D01*
X029913Y023917D02*
X029481Y023917D01*
X029580Y024015D02*
X029913Y024015D01*
X029913Y024114D02*
X029639Y024114D01*
X029680Y024212D02*
X029913Y024212D01*
X029913Y024311D02*
X029721Y024311D01*
X029733Y024409D02*
X029913Y024409D01*
X029913Y024508D02*
X029733Y024508D01*
X029733Y024606D02*
X029913Y024606D01*
X029913Y024705D02*
X029714Y024705D01*
X029674Y024803D02*
X029913Y024803D01*
X029913Y024902D02*
X029633Y024902D01*
X029565Y025000D02*
X029822Y025000D01*
X029724Y025099D02*
X029466Y025099D01*
X029341Y025197D02*
X029625Y025197D01*
X029527Y025296D02*
X029103Y025296D01*
X029330Y025493D02*
X023464Y025493D01*
X023366Y025591D02*
X029231Y025591D01*
X029133Y025690D02*
X023267Y025690D01*
X023169Y025788D02*
X029034Y025788D01*
X028936Y025887D02*
X023070Y025887D01*
X022972Y025985D02*
X028837Y025985D01*
X028739Y026084D02*
X022873Y026084D01*
X022775Y026182D02*
X028640Y026182D01*
X028542Y026281D02*
X022676Y026281D01*
X022578Y026379D02*
X028443Y026379D01*
X028345Y026478D02*
X022479Y026478D01*
X022381Y026576D02*
X028246Y026576D01*
X028148Y026675D02*
X022282Y026675D01*
X022184Y026773D02*
X028049Y026773D01*
X027951Y026872D02*
X022085Y026872D01*
X021987Y026970D02*
X027852Y026970D01*
X027754Y027069D02*
X021888Y027069D01*
X021790Y027167D02*
X027655Y027167D01*
X027557Y027266D02*
X021691Y027266D01*
X021593Y027364D02*
X027458Y027364D01*
X027360Y027463D02*
X021494Y027463D01*
X021396Y027561D02*
X027261Y027561D01*
X027163Y027660D02*
X021297Y027660D01*
X021136Y027758D02*
X027064Y027758D01*
X026966Y027857D02*
X019632Y027857D01*
X019696Y026970D02*
X020940Y026970D01*
X021039Y026872D02*
X015828Y026872D01*
X015849Y026773D02*
X015730Y026773D01*
X015750Y026675D02*
X015631Y026675D01*
X015668Y026593D02*
X015668Y026430D01*
X016103Y026430D01*
X016103Y026370D01*
X015668Y026370D01*
X015668Y026207D01*
X015941Y025935D01*
X016103Y025935D01*
X016103Y026370D01*
X016163Y026370D01*
X016163Y025935D01*
X016326Y025935D01*
X016598Y026207D01*
X016598Y026370D01*
X016163Y026370D01*
X016163Y026430D01*
X016103Y026430D01*
X016103Y026865D01*
X015941Y026865D01*
X015668Y026593D01*
X015668Y026576D02*
X015603Y026576D01*
X015603Y026478D02*
X015668Y026478D01*
X015603Y026379D02*
X016103Y026379D01*
X016163Y026379D02*
X019083Y026379D01*
X019083Y026350D02*
X018345Y026350D01*
X018355Y026290D01*
X018378Y026220D01*
X018411Y026154D01*
X018455Y026094D01*
X018507Y026042D01*
X018567Y025998D01*
X018633Y025964D01*
X018703Y025942D01*
X018776Y025930D01*
X019083Y025930D01*
X019083Y026350D01*
X019083Y026450D01*
X018345Y026450D01*
X018355Y026510D01*
X018378Y026580D01*
X018411Y026646D01*
X018455Y026706D01*
X018507Y026758D01*
X018567Y026802D01*
X018633Y026836D01*
X018703Y026858D01*
X018776Y026870D01*
X019083Y026870D01*
X019083Y026450D01*
X019183Y026450D01*
X019183Y026870D01*
X019490Y026870D01*
X019563Y026858D01*
X019634Y026836D01*
X019700Y026802D01*
X019760Y026758D01*
X019812Y026706D01*
X019855Y026646D01*
X019889Y026580D01*
X019912Y026510D01*
X019921Y026450D01*
X019183Y026450D01*
X019183Y026350D01*
X019183Y025930D01*
X019490Y025930D01*
X019563Y025942D01*
X019634Y025964D01*
X019700Y025998D01*
X019760Y026042D01*
X019812Y026094D01*
X019855Y026154D01*
X019889Y026220D01*
X019912Y026290D01*
X019921Y026350D01*
X019183Y026350D01*
X019083Y026350D01*
X019083Y026281D02*
X019183Y026281D01*
X019183Y026379D02*
X021531Y026379D01*
X021630Y026281D02*
X019909Y026281D01*
X019870Y026182D02*
X021728Y026182D01*
X021827Y026084D02*
X019802Y026084D01*
X019674Y025985D02*
X021925Y025985D01*
X022024Y025887D02*
X019559Y025887D01*
X019551Y025890D02*
X018716Y025890D01*
X018536Y025815D01*
X018490Y025770D01*
X017963Y025770D01*
X017914Y025820D01*
X017732Y025895D01*
X017535Y025895D01*
X017353Y025820D01*
X017214Y025680D01*
X017138Y025498D01*
X017138Y025302D01*
X017214Y025120D01*
X017353Y024980D01*
X017535Y024905D01*
X017732Y024905D01*
X017914Y024980D01*
X017963Y025030D01*
X018490Y025030D01*
X018536Y024985D01*
X018716Y024910D01*
X019551Y024910D01*
X019731Y024985D01*
X019869Y025122D01*
X019943Y025303D01*
X019943Y025497D01*
X019869Y025678D01*
X019731Y025815D01*
X019551Y025890D01*
X019758Y025788D02*
X022122Y025788D01*
X022221Y025690D02*
X019857Y025690D01*
X019905Y025591D02*
X022319Y025591D01*
X022418Y025493D02*
X019943Y025493D01*
X019943Y025394D02*
X022516Y025394D01*
X022615Y025296D02*
X019940Y025296D01*
X019900Y025197D02*
X022713Y025197D01*
X022812Y025099D02*
X019845Y025099D01*
X019746Y025000D02*
X022910Y025000D01*
X023009Y024902D02*
X015955Y024902D01*
X015857Y025000D02*
X017333Y025000D01*
X017235Y025099D02*
X015758Y025099D01*
X015660Y025197D02*
X017182Y025197D01*
X017141Y025296D02*
X015603Y025296D01*
X015603Y025394D02*
X017138Y025394D01*
X017138Y025493D02*
X015603Y025493D01*
X015603Y025591D02*
X017177Y025591D01*
X017223Y025690D02*
X015603Y025690D01*
X015603Y025788D02*
X017321Y025788D01*
X017514Y025887D02*
X015603Y025887D01*
X015603Y025985D02*
X015891Y025985D01*
X015792Y026084D02*
X015603Y026084D01*
X015603Y026182D02*
X015694Y026182D01*
X015668Y026281D02*
X015603Y026281D01*
X016103Y026281D02*
X016163Y026281D01*
X016163Y026182D02*
X016103Y026182D01*
X016103Y026084D02*
X016163Y026084D01*
X016163Y025985D02*
X016103Y025985D01*
X016376Y025985D02*
X018592Y025985D01*
X018708Y025887D02*
X017752Y025887D01*
X017945Y025788D02*
X018508Y025788D01*
X018465Y026084D02*
X016474Y026084D01*
X016573Y026182D02*
X018397Y026182D01*
X018358Y026281D02*
X016598Y026281D01*
X016598Y026430D02*
X016163Y026430D01*
X016163Y026865D01*
X016326Y026865D01*
X016598Y026593D01*
X016598Y026430D01*
X016598Y026478D02*
X018350Y026478D01*
X018376Y026576D02*
X016598Y026576D01*
X016516Y026675D02*
X018432Y026675D01*
X018527Y026773D02*
X016418Y026773D01*
X016363Y026970D02*
X018571Y026970D01*
X019083Y026773D02*
X019183Y026773D01*
X019183Y026675D02*
X019083Y026675D01*
X019083Y026576D02*
X019183Y026576D01*
X019183Y026478D02*
X019083Y026478D01*
X019083Y026182D02*
X019183Y026182D01*
X019183Y026084D02*
X019083Y026084D01*
X019083Y025985D02*
X019183Y025985D01*
X019917Y026478D02*
X021433Y026478D01*
X021334Y026576D02*
X019890Y026576D01*
X019835Y026675D02*
X021236Y026675D01*
X021137Y026773D02*
X019739Y026773D01*
X018635Y027857D02*
X016298Y027857D01*
X015968Y027857D02*
X006801Y027857D01*
X006900Y027955D02*
X026867Y027955D01*
X026769Y028054D02*
X006998Y028054D01*
X007097Y028152D02*
X026670Y028152D01*
X026572Y028251D02*
X007195Y028251D01*
X007074Y027700D02*
X006780Y027578D01*
X006555Y027353D01*
X006433Y027059D01*
X006433Y026741D01*
X006555Y026447D01*
X006780Y026222D01*
X007074Y026100D01*
X007392Y026100D01*
X007686Y026222D01*
X007911Y026447D01*
X008033Y026741D01*
X008033Y027059D01*
X007911Y027353D01*
X007686Y027578D01*
X007392Y027700D01*
X007074Y027700D01*
X006977Y027660D02*
X006604Y027660D01*
X006703Y027758D02*
X015731Y027758D01*
X015570Y027660D02*
X007490Y027660D01*
X007704Y027561D02*
X015471Y027561D01*
X015373Y027463D02*
X007802Y027463D01*
X007901Y027364D02*
X015274Y027364D01*
X015176Y027266D02*
X007948Y027266D01*
X007989Y027167D02*
X015077Y027167D01*
X014979Y027069D02*
X008029Y027069D01*
X008033Y026970D02*
X014903Y026970D01*
X014863Y026872D02*
X008033Y026872D01*
X008033Y026773D02*
X014863Y026773D01*
X014863Y026675D02*
X008006Y026675D01*
X007965Y026576D02*
X014863Y026576D01*
X014863Y026478D02*
X007924Y026478D01*
X007844Y026379D02*
X014863Y026379D01*
X014863Y026281D02*
X007745Y026281D01*
X007590Y026182D02*
X014863Y026182D01*
X014863Y026084D02*
X006253Y026084D01*
X006253Y026182D02*
X006876Y026182D01*
X006722Y026281D02*
X006253Y026281D01*
X006253Y026379D02*
X006623Y026379D01*
X006542Y026478D02*
X006253Y026478D01*
X006253Y026576D02*
X006502Y026576D01*
X006461Y026675D02*
X006253Y026675D01*
X006253Y026773D02*
X006433Y026773D01*
X006433Y026872D02*
X006253Y026872D01*
X006253Y026970D02*
X006433Y026970D01*
X006437Y027069D02*
X006253Y027069D01*
X006253Y027167D02*
X006478Y027167D01*
X006519Y027266D02*
X006253Y027266D01*
X006309Y027364D02*
X006566Y027364D01*
X006665Y027463D02*
X006407Y027463D01*
X006506Y027561D02*
X006763Y027561D01*
X006253Y025985D02*
X014863Y025985D01*
X014863Y025887D02*
X006253Y025887D01*
X006253Y025788D02*
X014863Y025788D01*
X014863Y025690D02*
X006253Y025690D01*
X006253Y025591D02*
X014863Y025591D01*
X014863Y025493D02*
X006253Y025493D01*
X006253Y025394D02*
X014863Y025394D01*
X014863Y025296D02*
X006253Y025296D01*
X006253Y025197D02*
X014863Y025197D01*
X014863Y025099D02*
X006253Y025099D01*
X006253Y025000D02*
X014874Y025000D01*
X014915Y024902D02*
X006253Y024902D01*
X006253Y024803D02*
X015007Y024803D01*
X015106Y024705D02*
X006253Y024705D01*
X006253Y024606D02*
X015204Y024606D01*
X015303Y024508D02*
X006253Y024508D01*
X006253Y024409D02*
X015401Y024409D01*
X015500Y024311D02*
X006253Y024311D01*
X006253Y024212D02*
X015598Y024212D01*
X015697Y024114D02*
X006253Y024114D01*
X006253Y024015D02*
X015795Y024015D01*
X015894Y023917D02*
X014915Y023917D01*
X014845Y023946D02*
X014620Y023946D01*
X014413Y023860D01*
X014255Y023701D01*
X014169Y023494D01*
X014169Y023270D01*
X014255Y023063D01*
X014413Y022904D01*
X014620Y022818D01*
X014845Y022818D01*
X015052Y022904D01*
X015210Y023063D01*
X015296Y023270D01*
X015296Y023494D01*
X015210Y023701D01*
X015052Y023860D01*
X014845Y023946D01*
X015094Y023818D02*
X015992Y023818D01*
X016091Y023720D02*
X015192Y023720D01*
X015244Y023621D02*
X016189Y023621D01*
X016288Y023523D02*
X015284Y023523D01*
X015296Y023424D02*
X016386Y023424D01*
X016485Y023326D02*
X015296Y023326D01*
X015279Y023227D02*
X016583Y023227D01*
X016983Y022932D02*
X015079Y022932D01*
X015178Y023030D02*
X017063Y023030D01*
X016983Y022833D02*
X014881Y022833D01*
X014585Y022833D02*
X008188Y022833D01*
X008152Y022818D02*
X008359Y022904D01*
X008518Y023063D01*
X008603Y023270D01*
X008603Y023494D01*
X008518Y023701D01*
X008359Y023860D01*
X008152Y023946D01*
X007928Y023946D01*
X007720Y023860D01*
X007562Y023701D01*
X007476Y023494D01*
X007476Y023270D01*
X007562Y023063D01*
X007720Y022904D01*
X007928Y022818D01*
X008152Y022818D01*
X008386Y022932D02*
X014386Y022932D01*
X014287Y023030D02*
X008485Y023030D01*
X008545Y023129D02*
X014227Y023129D01*
X014187Y023227D02*
X008586Y023227D01*
X008603Y023326D02*
X014169Y023326D01*
X014169Y023424D02*
X008603Y023424D01*
X008592Y023523D02*
X014181Y023523D01*
X014221Y023621D02*
X008551Y023621D01*
X008499Y023720D02*
X014273Y023720D01*
X014372Y023818D02*
X008401Y023818D01*
X008222Y023917D02*
X014550Y023917D01*
X015238Y023129D02*
X020963Y023129D01*
X020963Y023227D02*
X020184Y023227D01*
X020282Y023326D02*
X020899Y023326D01*
X020858Y023424D02*
X020381Y023424D01*
X020479Y023523D02*
X020827Y023523D01*
X020827Y023621D02*
X020578Y023621D01*
X020676Y023720D02*
X020835Y023720D01*
X020875Y023818D02*
X020775Y023818D01*
X020873Y023917D02*
X020934Y023917D01*
X020972Y024015D02*
X021032Y024015D01*
X021070Y024114D02*
X021497Y024114D01*
X022051Y024606D02*
X023163Y024606D01*
X023163Y024508D02*
X022149Y024508D01*
X022248Y024409D02*
X023163Y024409D01*
X023163Y024311D02*
X022346Y024311D01*
X022445Y024212D02*
X023163Y024212D01*
X023163Y024114D02*
X022487Y024114D01*
X022503Y024015D02*
X023163Y024015D01*
X023163Y023917D02*
X022503Y023917D01*
X022503Y023818D02*
X023163Y023818D01*
X023163Y023720D02*
X022503Y023720D01*
X022503Y023621D02*
X023163Y023621D01*
X023163Y023523D02*
X022503Y023523D01*
X022503Y023424D02*
X023163Y023424D01*
X023163Y023326D02*
X022503Y023326D01*
X022503Y023227D02*
X023163Y023227D01*
X023163Y023129D02*
X022503Y023129D01*
X022503Y023030D02*
X023163Y023030D01*
X023163Y022932D02*
X022503Y022932D01*
X022503Y022833D02*
X023163Y022833D01*
X023201Y022735D02*
X022503Y022735D01*
X022503Y022636D02*
X023274Y022636D01*
X023373Y022538D02*
X022503Y022538D01*
X022503Y022439D02*
X023471Y022439D01*
X023570Y022341D02*
X022503Y022341D01*
X022503Y022242D02*
X023668Y022242D01*
X023827Y022144D02*
X022503Y022144D01*
X022503Y022045D02*
X023963Y022045D01*
X023963Y021947D02*
X022503Y021947D01*
X022503Y021848D02*
X023963Y021848D01*
X023963Y021750D02*
X022503Y021750D01*
X022503Y021651D02*
X023889Y021651D01*
X023848Y021553D02*
X022503Y021553D01*
X022503Y021454D02*
X023827Y021454D01*
X023827Y021356D02*
X022503Y021356D01*
X022503Y021257D02*
X023844Y021257D01*
X023885Y021159D02*
X022503Y021159D01*
X022503Y021060D02*
X023957Y021060D01*
X024068Y020962D02*
X022503Y020962D01*
X022477Y020863D02*
X027531Y020863D01*
X027433Y020962D02*
X026455Y020962D01*
X026656Y021060D02*
X027423Y021060D01*
X027426Y021159D02*
X026755Y021159D01*
X026804Y021257D02*
X027426Y021257D01*
X027426Y021356D02*
X026843Y021356D01*
X026843Y021454D02*
X027426Y021454D01*
X027426Y021553D02*
X026841Y021553D01*
X026800Y021651D02*
X027426Y021651D01*
X027426Y021750D02*
X026747Y021750D01*
X026648Y021848D02*
X027426Y021848D01*
X027480Y021947D02*
X024703Y021947D01*
X024703Y022045D02*
X027507Y022045D01*
X027408Y022144D02*
X026591Y022144D01*
X026600Y022148D02*
X026660Y022192D01*
X026712Y022244D01*
X026755Y022304D01*
X026789Y022370D01*
X026812Y022440D01*
X026821Y022500D01*
X026083Y022500D01*
X026083Y022080D01*
X026390Y022080D01*
X026463Y022092D01*
X026534Y022114D01*
X026600Y022148D01*
X026710Y022242D02*
X027310Y022242D01*
X027262Y022341D02*
X026774Y022341D01*
X026811Y022439D02*
X027262Y022439D01*
X027262Y022538D02*
X026083Y022538D01*
X026083Y022500D02*
X026083Y022600D01*
X025983Y022600D01*
X025983Y022500D01*
X025245Y022500D01*
X025255Y022440D01*
X025278Y022370D01*
X025311Y022304D01*
X025355Y022244D01*
X025407Y022192D01*
X025467Y022148D01*
X025533Y022114D01*
X025603Y022092D01*
X025676Y022080D01*
X025983Y022080D01*
X025983Y022500D01*
X026083Y022500D01*
X026083Y022439D02*
X025983Y022439D01*
X025983Y022341D02*
X026083Y022341D01*
X026083Y022242D02*
X025983Y022242D01*
X025983Y022144D02*
X026083Y022144D01*
X025983Y022538D02*
X024840Y022538D01*
X024840Y022439D02*
X025255Y022439D01*
X025293Y022341D02*
X024816Y022341D01*
X024775Y022242D02*
X025357Y022242D01*
X025476Y022144D02*
X024703Y022144D01*
X024703Y021848D02*
X025418Y021848D01*
X025245Y022600D02*
X025983Y022600D01*
X025983Y023020D01*
X025676Y023020D01*
X025603Y023008D01*
X025533Y022986D01*
X025467Y022952D01*
X025407Y022908D01*
X025355Y022856D01*
X025311Y022796D01*
X025278Y022730D01*
X025255Y022660D01*
X025245Y022600D01*
X025251Y022636D02*
X024825Y022636D01*
X024784Y022735D02*
X025280Y022735D01*
X025338Y022833D02*
X024717Y022833D01*
X024615Y022932D02*
X025439Y022932D01*
X025983Y022932D02*
X026083Y022932D01*
X026083Y023020D02*
X026083Y022600D01*
X026821Y022600D01*
X026812Y022660D01*
X026789Y022730D01*
X026755Y022796D01*
X026712Y022856D01*
X026660Y022908D01*
X026600Y022952D01*
X026534Y022986D01*
X026463Y023008D01*
X026390Y023020D01*
X026083Y023020D01*
X026083Y022833D02*
X025983Y022833D01*
X025983Y022735D02*
X026083Y022735D01*
X026083Y022636D02*
X025983Y022636D01*
X026628Y022932D02*
X027262Y022932D01*
X027262Y022833D02*
X026729Y022833D01*
X026787Y022735D02*
X027262Y022735D01*
X027262Y022636D02*
X026816Y022636D01*
X027321Y023030D02*
X023927Y023030D01*
X023903Y023129D02*
X024210Y023129D01*
X024283Y023129D02*
X024383Y023129D01*
X024457Y023129D02*
X027420Y023129D01*
X027400Y023109D02*
X027400Y023109D01*
X027518Y023227D02*
X024648Y023227D01*
X024383Y023227D02*
X024283Y023227D01*
X024283Y023326D02*
X024383Y023326D01*
X024383Y023424D02*
X024283Y023424D01*
X024283Y023523D02*
X024383Y023523D01*
X024019Y023227D02*
X023903Y023227D01*
X023903Y023326D02*
X023931Y023326D01*
X024025Y022932D02*
X024052Y022932D01*
X023962Y023917D02*
X023903Y023917D01*
X023903Y024015D02*
X024077Y024015D01*
X023903Y024114D02*
X028228Y024114D01*
X028187Y024212D02*
X023903Y024212D01*
X023903Y024311D02*
X028146Y024311D01*
X028133Y024409D02*
X023903Y024409D01*
X023903Y024508D02*
X028133Y024508D01*
X028133Y024606D02*
X023903Y024606D01*
X023903Y024705D02*
X028152Y024705D01*
X028193Y024803D02*
X023903Y024803D01*
X023903Y024902D02*
X028234Y024902D01*
X028302Y025000D02*
X023892Y025000D01*
X023852Y025099D02*
X028401Y025099D01*
X028526Y025197D02*
X023760Y025197D01*
X023661Y025296D02*
X028764Y025296D01*
X029428Y025394D02*
X023563Y025394D01*
X023107Y024803D02*
X021854Y024803D01*
X021952Y024705D02*
X023163Y024705D01*
X020713Y024803D02*
X019806Y024803D01*
X019788Y024816D02*
X019720Y024851D01*
X019647Y024875D01*
X019583Y024885D01*
X019583Y024450D01*
X019483Y024450D01*
X019483Y024350D01*
X019049Y024350D01*
X019059Y024286D01*
X019082Y024213D01*
X019117Y024145D01*
X019162Y024083D01*
X019216Y024029D01*
X019278Y023984D01*
X019347Y023949D01*
X019419Y023925D01*
X019483Y023915D01*
X019483Y024350D01*
X019583Y024350D01*
X019583Y023915D01*
X019647Y023925D01*
X019720Y023949D01*
X019788Y023984D01*
X019850Y024029D01*
X019904Y024083D01*
X019949Y024145D01*
X019984Y024213D01*
X020008Y024286D01*
X020018Y024350D01*
X019583Y024350D01*
X019583Y024450D01*
X020018Y024450D01*
X020008Y024514D01*
X019984Y024587D01*
X019949Y024655D01*
X019904Y024717D01*
X019850Y024771D01*
X019788Y024816D01*
X019913Y024705D02*
X020615Y024705D01*
X020516Y024606D02*
X019974Y024606D01*
X020009Y024508D02*
X020418Y024508D01*
X020319Y024409D02*
X019583Y024409D01*
X019583Y024311D02*
X019483Y024311D01*
X019483Y024409D02*
X017652Y024409D01*
X017652Y024419D02*
X018108Y024419D01*
X018108Y024437D01*
X018097Y024511D01*
X018074Y024582D01*
X018040Y024649D01*
X017996Y024709D01*
X017943Y024762D01*
X017882Y024806D01*
X017816Y024840D01*
X017745Y024863D01*
X017671Y024875D01*
X017652Y024875D01*
X017652Y024419D01*
X017614Y024419D01*
X017614Y024381D01*
X017158Y024381D01*
X017158Y024363D01*
X017170Y024289D01*
X017193Y024218D01*
X017227Y024151D01*
X017271Y024091D01*
X017324Y024038D01*
X017384Y023994D01*
X017451Y023960D01*
X017522Y023937D01*
X017596Y023925D01*
X017614Y023925D01*
X017614Y024381D01*
X017652Y024381D01*
X017652Y023925D01*
X017671Y023925D01*
X017745Y023937D01*
X017816Y023960D01*
X017882Y023994D01*
X017943Y024038D01*
X017996Y024091D01*
X018040Y024151D01*
X018074Y024218D01*
X018097Y024289D01*
X018108Y024363D01*
X018108Y024381D01*
X017652Y024381D01*
X017652Y024419D01*
X017614Y024419D02*
X017614Y024875D01*
X017596Y024875D01*
X017522Y024863D01*
X017451Y024840D01*
X017384Y024806D01*
X017324Y024762D01*
X017271Y024709D01*
X017227Y024649D01*
X017193Y024582D01*
X017170Y024511D01*
X017158Y024437D01*
X017158Y024419D01*
X017614Y024419D01*
X017614Y024409D02*
X016448Y024409D01*
X016546Y024311D02*
X017167Y024311D01*
X017196Y024212D02*
X016645Y024212D01*
X016743Y024114D02*
X017254Y024114D01*
X017355Y024015D02*
X016842Y024015D01*
X016940Y023917D02*
X019476Y023917D01*
X019483Y023917D02*
X019583Y023917D01*
X019591Y023917D02*
X019827Y023917D01*
X019831Y024015D02*
X019925Y024015D01*
X019927Y024114D02*
X020024Y024114D01*
X019984Y024212D02*
X020122Y024212D01*
X020221Y024311D02*
X020012Y024311D01*
X019583Y024212D02*
X019483Y024212D01*
X019483Y024114D02*
X019583Y024114D01*
X019583Y024015D02*
X019483Y024015D01*
X019235Y024015D02*
X017912Y024015D01*
X018012Y024114D02*
X019140Y024114D01*
X019083Y024212D02*
X018071Y024212D01*
X018100Y024311D02*
X019055Y024311D01*
X019049Y024450D02*
X019483Y024450D01*
X019483Y024885D01*
X019419Y024875D01*
X019347Y024851D01*
X019278Y024816D01*
X019216Y024771D01*
X019162Y024717D01*
X019117Y024655D01*
X019082Y024587D01*
X019059Y024514D01*
X019049Y024450D01*
X019058Y024508D02*
X018097Y024508D01*
X018061Y024606D02*
X019092Y024606D01*
X019153Y024705D02*
X017999Y024705D01*
X017887Y024803D02*
X019260Y024803D01*
X019483Y024803D02*
X019583Y024803D01*
X019583Y024705D02*
X019483Y024705D01*
X019483Y024606D02*
X019583Y024606D01*
X019583Y024508D02*
X019483Y024508D01*
X018520Y025000D02*
X017933Y025000D01*
X017652Y024803D02*
X017614Y024803D01*
X017614Y024705D02*
X017652Y024705D01*
X017652Y024606D02*
X017614Y024606D01*
X017614Y024508D02*
X017652Y024508D01*
X017652Y024311D02*
X017614Y024311D01*
X017614Y024212D02*
X017652Y024212D01*
X017652Y024114D02*
X017614Y024114D01*
X017614Y024015D02*
X017652Y024015D01*
X017169Y024508D02*
X016349Y024508D01*
X016251Y024606D02*
X017205Y024606D01*
X017267Y024705D02*
X016152Y024705D01*
X016054Y024803D02*
X017380Y024803D01*
X017804Y023030D02*
X020963Y023030D01*
X020963Y022932D02*
X017883Y022932D01*
X017883Y022833D02*
X018371Y022833D01*
X018245Y022735D02*
X017883Y022735D01*
X017883Y022636D02*
X018146Y022636D01*
X018048Y022538D02*
X017883Y022538D01*
X017883Y022439D02*
X017949Y022439D01*
X018503Y021947D02*
X021763Y021947D01*
X021763Y022045D02*
X021559Y022045D01*
X021693Y022144D02*
X021763Y022144D01*
X021763Y021848D02*
X021575Y021848D01*
X021700Y021750D02*
X021763Y021750D01*
X021091Y021848D02*
X019775Y021848D01*
X019291Y021848D02*
X018405Y021848D01*
X018410Y021750D02*
X018306Y021750D01*
X018261Y021651D02*
X018208Y021651D01*
X018163Y021553D02*
X018109Y021553D01*
X018064Y021454D02*
X018011Y021454D01*
X017966Y021356D02*
X017912Y021356D01*
X017867Y021257D02*
X017814Y021257D01*
X017769Y021159D02*
X017715Y021159D01*
X017670Y021060D02*
X017617Y021060D01*
X017572Y020962D02*
X017483Y020962D01*
X017473Y020863D02*
X015596Y020863D01*
X015741Y020765D02*
X017375Y020765D01*
X017276Y020666D02*
X015822Y020666D01*
X015867Y020568D02*
X017178Y020568D01*
X017079Y020469D02*
X015891Y020469D01*
X015083Y020568D02*
X014983Y020568D01*
X014983Y020666D02*
X015083Y020666D01*
X015083Y020765D02*
X014983Y020765D01*
X014983Y020863D02*
X015083Y020863D01*
X014287Y020075D02*
X012803Y020075D01*
X012803Y019977D02*
X014399Y019977D01*
X014456Y019878D02*
X012803Y019878D01*
X012803Y019780D02*
X014312Y019780D01*
X014224Y020174D02*
X012830Y020174D01*
X016651Y022341D02*
X006253Y022341D01*
X006253Y022439D02*
X016749Y022439D01*
X016848Y022538D02*
X006253Y022538D01*
X006253Y022636D02*
X016946Y022636D01*
X016983Y022735D02*
X006253Y022735D01*
X006253Y022833D02*
X007892Y022833D01*
X007693Y022932D02*
X006253Y022932D01*
X006253Y023030D02*
X007594Y023030D01*
X007534Y023129D02*
X006253Y023129D01*
X006253Y023227D02*
X007494Y023227D01*
X007476Y023326D02*
X006253Y023326D01*
X006253Y023424D02*
X007476Y023424D01*
X007488Y023523D02*
X006253Y023523D01*
X006253Y023621D02*
X007529Y023621D01*
X007580Y023720D02*
X006253Y023720D01*
X006253Y023818D02*
X007679Y023818D01*
X007857Y023917D02*
X006253Y023917D01*
X008367Y016234D02*
X009440Y016234D01*
X009235Y016135D02*
X008508Y016135D01*
X008607Y016037D02*
X009136Y016037D01*
X009077Y015938D02*
X008705Y015938D01*
X008804Y015840D02*
X009037Y015840D01*
X009023Y015741D02*
X008889Y015741D01*
X008923Y015643D02*
X009023Y015643D01*
X009043Y015544D02*
X008923Y015544D01*
X008923Y015446D02*
X009084Y015446D01*
X009153Y015347D02*
X008923Y015347D01*
X008923Y015249D02*
X009251Y015249D01*
X009269Y014953D02*
X010157Y014953D01*
X010059Y015052D02*
X008946Y015052D01*
X008923Y015150D02*
X009960Y015150D01*
X010256Y014855D02*
X009340Y014855D01*
X008520Y014658D02*
X008223Y014658D01*
X008223Y014559D02*
X008527Y014559D01*
X008527Y014461D02*
X008223Y014461D01*
X008223Y014362D02*
X008592Y014362D01*
X008617Y014264D02*
X008223Y014264D01*
X008223Y014165D02*
X008527Y014165D01*
X008527Y014067D02*
X008223Y014067D01*
X008275Y013968D02*
X008527Y013968D01*
X008527Y013870D02*
X008374Y013870D01*
X008472Y013771D02*
X008527Y013771D01*
X008571Y013673D02*
X008572Y013673D01*
X008422Y014756D02*
X008290Y014756D01*
X007635Y010816D02*
X006253Y010816D01*
X006253Y010718D02*
X007548Y010718D01*
X007507Y010619D02*
X006253Y010619D01*
X006253Y010521D02*
X007470Y010521D01*
X007470Y010422D02*
X006253Y010422D01*
X006253Y010324D02*
X007470Y010324D01*
X007504Y010225D02*
X006253Y010225D01*
X006253Y010127D02*
X007545Y010127D01*
X007627Y010028D02*
X006253Y010028D01*
X006253Y009930D02*
X007741Y009930D01*
X006988Y007664D02*
X006253Y007664D01*
X006253Y007566D02*
X006768Y007566D01*
X006669Y007467D02*
X006253Y007467D01*
X006253Y007369D02*
X006571Y007369D01*
X006521Y007270D02*
X006253Y007270D01*
X006253Y007172D02*
X006480Y007172D01*
X006439Y007073D02*
X006253Y007073D01*
X006253Y006975D02*
X006433Y006975D01*
X006433Y006876D02*
X006253Y006876D01*
X006253Y006778D02*
X006433Y006778D01*
X006459Y006679D02*
X006253Y006679D01*
X006253Y006581D02*
X006500Y006581D01*
X006755Y005990D02*
X014234Y005990D01*
X014332Y005891D02*
X006853Y005891D01*
X006952Y005793D02*
X014431Y005793D01*
X014529Y005694D02*
X007050Y005694D01*
X007149Y005596D02*
X014628Y005596D01*
X020824Y006581D02*
X020853Y006581D01*
X021283Y006285D02*
X021383Y006285D01*
X021383Y006187D02*
X021283Y006187D01*
X021283Y006088D02*
X021383Y006088D01*
X023087Y008270D02*
X022243Y009114D01*
X022107Y009170D01*
X021619Y009170D01*
X021620Y009171D01*
X021763Y009313D01*
X021840Y009499D01*
X021840Y009701D01*
X021763Y009887D01*
X021703Y009946D01*
X021703Y010654D01*
X021763Y010713D01*
X021840Y010899D01*
X021840Y011101D01*
X021763Y011287D01*
X021703Y011346D01*
X021703Y012074D01*
X021671Y012153D01*
X022143Y011680D01*
X022143Y010982D01*
X022127Y010982D01*
X022027Y010882D01*
X022027Y010426D01*
X022127Y010327D01*
X022740Y010327D01*
X022840Y010426D01*
X022840Y010882D01*
X022740Y010982D01*
X022723Y010982D01*
X022723Y011680D01*
X023053Y012010D01*
X024491Y012010D01*
X024598Y012054D01*
X025273Y012730D01*
X025243Y012658D01*
X025243Y008500D01*
X024979Y008764D01*
X024898Y008846D01*
X024791Y008890D01*
X023899Y008890D01*
X022840Y009950D01*
X022840Y010174D01*
X022740Y010273D01*
X022127Y010273D01*
X022027Y010174D01*
X022027Y009718D01*
X022127Y009618D01*
X022351Y009618D01*
X023615Y008354D01*
X023721Y008310D01*
X024027Y008310D01*
X023987Y008270D01*
X023087Y008270D01*
X023003Y008354D02*
X023616Y008354D01*
X023517Y008452D02*
X022905Y008452D01*
X022806Y008551D02*
X023418Y008551D01*
X023320Y008649D02*
X022708Y008649D01*
X022609Y008748D02*
X023221Y008748D01*
X023123Y008846D02*
X022511Y008846D01*
X022412Y008945D02*
X023024Y008945D01*
X022926Y009043D02*
X022314Y009043D01*
X022176Y009142D02*
X022827Y009142D01*
X022729Y009240D02*
X021690Y009240D01*
X021773Y009339D02*
X022630Y009339D01*
X022532Y009437D02*
X021814Y009437D01*
X021840Y009536D02*
X022433Y009536D01*
X022111Y009634D02*
X021840Y009634D01*
X021827Y009733D02*
X022027Y009733D01*
X022027Y009831D02*
X021786Y009831D01*
X021720Y009930D02*
X022027Y009930D01*
X022027Y010028D02*
X021703Y010028D01*
X021703Y010127D02*
X022027Y010127D01*
X022079Y010225D02*
X021703Y010225D01*
X021703Y010324D02*
X025243Y010324D01*
X025243Y010422D02*
X022835Y010422D01*
X022840Y010521D02*
X024251Y010521D01*
X024219Y010525D02*
X024283Y010515D01*
X024283Y010950D01*
X023849Y010950D01*
X023859Y010886D01*
X023882Y010813D01*
X023917Y010745D01*
X023962Y010683D01*
X024016Y010629D01*
X024078Y010584D01*
X024147Y010549D01*
X024219Y010525D01*
X024283Y010521D02*
X024383Y010521D01*
X024383Y010515D02*
X024447Y010525D01*
X024520Y010549D01*
X024588Y010584D01*
X024650Y010629D01*
X024704Y010683D01*
X024749Y010745D01*
X024784Y010813D01*
X024808Y010886D01*
X024818Y010950D01*
X024383Y010950D01*
X024383Y010515D01*
X024416Y010521D02*
X025243Y010521D01*
X025243Y010619D02*
X024637Y010619D01*
X024729Y010718D02*
X025243Y010718D01*
X025243Y010816D02*
X024785Y010816D01*
X024812Y010915D02*
X025243Y010915D01*
X025243Y011013D02*
X024383Y011013D01*
X024383Y011050D02*
X024383Y010950D01*
X024283Y010950D01*
X024283Y011050D01*
X023849Y011050D01*
X023859Y011114D01*
X023882Y011187D01*
X023917Y011255D01*
X023962Y011317D01*
X024016Y011371D01*
X024078Y011416D01*
X024147Y011451D01*
X024219Y011475D01*
X024283Y011485D01*
X024283Y011050D01*
X024383Y011050D01*
X024383Y011485D01*
X024447Y011475D01*
X024520Y011451D01*
X024588Y011416D01*
X024650Y011371D01*
X024704Y011317D01*
X024749Y011255D01*
X024784Y011187D01*
X024808Y011114D01*
X024818Y011050D01*
X024383Y011050D01*
X024383Y011112D02*
X024283Y011112D01*
X024283Y011210D02*
X024383Y011210D01*
X024383Y011309D02*
X024283Y011309D01*
X024283Y011407D02*
X024383Y011407D01*
X024601Y011407D02*
X025243Y011407D01*
X025243Y011309D02*
X024711Y011309D01*
X024772Y011210D02*
X025243Y011210D01*
X025243Y011112D02*
X024808Y011112D01*
X024383Y010915D02*
X024283Y010915D01*
X024283Y011013D02*
X022723Y011013D01*
X022723Y011112D02*
X023858Y011112D01*
X023894Y011210D02*
X022723Y011210D01*
X022723Y011309D02*
X023956Y011309D01*
X024066Y011407D02*
X022723Y011407D01*
X022723Y011506D02*
X025243Y011506D01*
X025243Y011604D02*
X022723Y011604D01*
X022746Y011703D02*
X025243Y011703D01*
X025243Y011801D02*
X022844Y011801D01*
X022943Y011900D02*
X025243Y011900D01*
X025243Y011998D02*
X023041Y011998D01*
X022121Y011703D02*
X021703Y011703D01*
X021703Y011801D02*
X022022Y011801D01*
X021924Y011900D02*
X021703Y011900D01*
X021703Y011998D02*
X021825Y011998D01*
X021727Y012097D02*
X021694Y012097D01*
X021703Y011604D02*
X022143Y011604D01*
X022143Y011506D02*
X021703Y011506D01*
X021703Y011407D02*
X022143Y011407D01*
X022143Y011309D02*
X021741Y011309D01*
X021795Y011210D02*
X022143Y011210D01*
X022143Y011112D02*
X021835Y011112D01*
X021840Y011013D02*
X022143Y011013D01*
X022059Y010915D02*
X021840Y010915D01*
X021805Y010816D02*
X022027Y010816D01*
X022027Y010718D02*
X021765Y010718D01*
X021703Y010619D02*
X022027Y010619D01*
X022027Y010521D02*
X021703Y010521D01*
X021703Y010422D02*
X022032Y010422D01*
X022788Y010225D02*
X025243Y010225D01*
X025243Y010127D02*
X022840Y010127D01*
X022840Y010028D02*
X024045Y010028D01*
X024046Y010029D02*
X023904Y009887D01*
X023827Y009701D01*
X023827Y009499D01*
X023904Y009313D01*
X024046Y009171D01*
X024233Y009093D01*
X024434Y009093D01*
X024620Y009171D01*
X024763Y009313D01*
X024840Y009499D01*
X024840Y009701D01*
X024763Y009887D01*
X024620Y010029D01*
X024434Y010107D01*
X024233Y010107D01*
X024046Y010029D01*
X023946Y009930D02*
X022860Y009930D01*
X022958Y009831D02*
X023881Y009831D01*
X023840Y009733D02*
X023057Y009733D01*
X023155Y009634D02*
X023827Y009634D01*
X023827Y009536D02*
X023254Y009536D01*
X023352Y009437D02*
X023853Y009437D01*
X023893Y009339D02*
X023451Y009339D01*
X023549Y009240D02*
X023977Y009240D01*
X024117Y009142D02*
X023648Y009142D01*
X023746Y009043D02*
X025243Y009043D01*
X025243Y008945D02*
X023845Y008945D01*
X024550Y009142D02*
X025243Y009142D01*
X025243Y009240D02*
X024690Y009240D01*
X024773Y009339D02*
X025243Y009339D01*
X025243Y009437D02*
X024814Y009437D01*
X024840Y009536D02*
X025243Y009536D01*
X025243Y009634D02*
X024840Y009634D01*
X024827Y009733D02*
X025243Y009733D01*
X025243Y009831D02*
X024786Y009831D01*
X024720Y009930D02*
X025243Y009930D01*
X025243Y010028D02*
X024622Y010028D01*
X024383Y010619D02*
X024283Y010619D01*
X024283Y010718D02*
X024383Y010718D01*
X024383Y010816D02*
X024283Y010816D01*
X024030Y010619D02*
X022840Y010619D01*
X022840Y010718D02*
X023937Y010718D01*
X023882Y010816D02*
X022840Y010816D01*
X022807Y010915D02*
X023854Y010915D01*
X024640Y012097D02*
X025243Y012097D01*
X025243Y012195D02*
X024738Y012195D01*
X024837Y012294D02*
X025243Y012294D01*
X025243Y012392D02*
X024935Y012392D01*
X025034Y012491D02*
X025243Y012491D01*
X025243Y012589D02*
X025132Y012589D01*
X025231Y012688D02*
X025256Y012688D01*
X024497Y013574D02*
X021869Y013574D01*
X021771Y013673D02*
X024596Y013673D01*
X024694Y013771D02*
X021715Y013771D01*
X021715Y013870D02*
X024793Y013870D01*
X024733Y013928D02*
X024753Y013962D01*
X024763Y014000D01*
X024763Y014271D01*
X024362Y014271D01*
X024362Y013870D01*
X024633Y013870D01*
X024671Y013880D01*
X024705Y013900D01*
X024733Y013928D01*
X024755Y013968D02*
X024891Y013968D01*
X024990Y014067D02*
X024763Y014067D01*
X024763Y014165D02*
X025088Y014165D01*
X025187Y014264D02*
X024763Y014264D01*
X024763Y014329D02*
X024763Y014600D01*
X024753Y014638D01*
X024733Y014672D01*
X024705Y014700D01*
X024671Y014720D01*
X024633Y014730D01*
X024362Y014730D01*
X024362Y014329D01*
X024305Y014329D01*
X024305Y014730D01*
X024034Y014730D01*
X023995Y014720D01*
X023961Y014700D01*
X023933Y014672D01*
X023914Y014638D01*
X023903Y014600D01*
X023903Y014329D01*
X024305Y014329D01*
X024305Y014271D01*
X024362Y014271D01*
X024362Y014329D01*
X024763Y014329D01*
X024763Y014362D02*
X025285Y014362D01*
X025384Y014461D02*
X024763Y014461D01*
X024763Y014559D02*
X025482Y014559D01*
X025581Y014658D02*
X024742Y014658D01*
X024690Y014756D02*
X025679Y014756D01*
X025778Y014855D02*
X024783Y014855D01*
X024783Y014953D02*
X025876Y014953D01*
X025975Y015052D02*
X024783Y015052D01*
X024783Y015150D02*
X026073Y015150D01*
X026172Y015249D02*
X024783Y015249D01*
X024783Y015347D02*
X026270Y015347D01*
X026369Y015446D02*
X024783Y015446D01*
X024783Y015544D02*
X026467Y015544D01*
X026566Y015643D02*
X024691Y015643D01*
X023975Y015643D02*
X022701Y015643D01*
X022602Y015741D02*
X026664Y015741D01*
X026763Y015840D02*
X022504Y015840D01*
X022405Y015938D02*
X026861Y015938D01*
X026960Y016037D02*
X022307Y016037D01*
X022078Y015446D02*
X018598Y015446D01*
X018499Y015544D02*
X019494Y015544D01*
X019381Y015643D02*
X018401Y015643D01*
X018696Y015347D02*
X022176Y015347D01*
X022275Y015249D02*
X018795Y015249D01*
X018893Y015150D02*
X022373Y015150D01*
X022472Y015052D02*
X018992Y015052D01*
X019090Y014953D02*
X022572Y014953D01*
X022799Y015544D02*
X023883Y015544D01*
X023883Y014855D02*
X021667Y014855D01*
X021715Y014756D02*
X023977Y014756D01*
X023925Y014658D02*
X021715Y014658D01*
X021715Y014559D02*
X023903Y014559D01*
X023903Y014461D02*
X021715Y014461D01*
X021715Y014362D02*
X023903Y014362D01*
X023903Y014271D02*
X023903Y014000D01*
X023914Y013962D01*
X023933Y013928D01*
X023961Y013900D01*
X023995Y013880D01*
X024034Y013870D01*
X024305Y013870D01*
X024305Y014271D01*
X023903Y014271D01*
X023903Y014264D02*
X021715Y014264D01*
X021687Y014165D02*
X023903Y014165D01*
X023903Y014067D02*
X021678Y014067D01*
X021715Y013968D02*
X023912Y013968D01*
X024305Y013968D02*
X024362Y013968D01*
X024362Y014067D02*
X024305Y014067D01*
X024305Y014165D02*
X024362Y014165D01*
X024362Y014264D02*
X024305Y014264D01*
X024305Y014362D02*
X024362Y014362D01*
X024362Y014461D02*
X024305Y014461D01*
X024305Y014559D02*
X024362Y014559D01*
X024362Y014658D02*
X024305Y014658D01*
X026720Y013377D02*
X028415Y013377D01*
X028224Y013476D02*
X026819Y013476D01*
X026917Y013574D02*
X028126Y013574D01*
X029266Y010028D02*
X029913Y010028D01*
X029913Y009930D02*
X029435Y009930D01*
X029534Y009831D02*
X029913Y009831D01*
X029913Y009733D02*
X029620Y009733D01*
X029661Y009634D02*
X029913Y009634D01*
X029913Y009536D02*
X029702Y009536D01*
X029733Y009437D02*
X029913Y009437D01*
X029913Y009339D02*
X029733Y009339D01*
X029733Y009240D02*
X029913Y009240D01*
X029913Y009142D02*
X029733Y009142D01*
X029693Y009043D02*
X029913Y009043D01*
X029913Y008945D02*
X029652Y008945D01*
X029611Y008846D02*
X029868Y008846D01*
X029770Y008748D02*
X029512Y008748D01*
X029414Y008649D02*
X029671Y008649D01*
X029573Y008551D02*
X029214Y008551D01*
X025243Y008551D02*
X025193Y008551D01*
X025243Y008649D02*
X025094Y008649D01*
X024996Y008748D02*
X025243Y008748D01*
X025243Y008846D02*
X024897Y008846D01*
X021345Y013279D02*
X021319Y013279D01*
X021077Y013377D02*
X020990Y013377D01*
X021006Y013476D02*
X021060Y013476D01*
X021060Y013574D02*
X021006Y013574D01*
X021006Y013673D02*
X021060Y013673D01*
X021060Y013771D02*
X021006Y013771D01*
X021006Y013870D02*
X021060Y013870D01*
X021060Y013968D02*
X021006Y013968D01*
X020947Y014067D02*
X021098Y014067D01*
X021089Y014165D02*
X020978Y014165D01*
X021006Y014264D02*
X021060Y014264D01*
X021060Y014362D02*
X021006Y014362D01*
X021006Y014461D02*
X021060Y014461D01*
X021060Y014559D02*
X021006Y014559D01*
X021006Y014658D02*
X021060Y014658D01*
X021060Y014756D02*
X021006Y014756D01*
X020959Y014855D02*
X021108Y014855D01*
X020399Y014855D02*
X019189Y014855D01*
X023956Y017613D02*
X027466Y017613D01*
X025663Y018696D02*
X025216Y018696D01*
X024248Y017810D02*
X023956Y017810D01*
X023956Y017711D02*
X024343Y017711D01*
X021929Y020272D02*
X028172Y020272D01*
X028288Y020371D02*
X022027Y020371D01*
X020928Y019583D02*
X018939Y019583D01*
X018841Y019484D02*
X020367Y019484D01*
X021108Y022045D02*
X018602Y022045D01*
X016163Y026478D02*
X016103Y026478D01*
X016103Y026576D02*
X016163Y026576D01*
X016163Y026675D02*
X016103Y026675D01*
X016103Y026773D02*
X016163Y026773D01*
X024598Y020962D02*
X025612Y020962D01*
X025410Y021060D02*
X024710Y021060D01*
X027400Y022152D02*
X027400Y022152D01*
X028489Y023129D02*
X028577Y023129D01*
X028676Y023227D02*
X028390Y023227D01*
X028188Y023227D02*
X028085Y023227D01*
X028877Y023227D02*
X029102Y023227D01*
X029004Y023129D02*
X028990Y023129D01*
X028996Y020962D02*
X028905Y020962D01*
X028807Y020863D02*
X029094Y020863D01*
X028303Y020863D02*
X028279Y020863D01*
X028018Y020863D02*
X027809Y020863D01*
X027890Y020962D02*
X027920Y020962D01*
D28*
X025933Y018250D02*
X025933Y017954D01*
M02*
