G75*
G70*
%OFA0B0*%
%FSLAX24Y24*%
%IPPOS*%
%LPD*%
%AMOC8*
5,1,8,0,0,1.08239X$1,22.5*
%
%ADD10C,0.1340*%
%ADD11C,0.0980*%
%ADD12C,0.0674*%
%ADD13C,0.0075*%
%ADD14R,0.0820X0.0820*%
%ADD15C,0.0820*%
D10*
X012033Y005900D03*
X027233Y005900D03*
D11*
X022283Y010900D03*
X016983Y010900D03*
D12*
X013533Y012590D03*
X012533Y012590D03*
X012533Y013420D03*
X013533Y013420D03*
X016933Y014290D03*
X017933Y014290D03*
X017933Y015120D03*
X016933Y015120D03*
X021333Y015120D03*
X022333Y015120D03*
X022333Y014290D03*
X021333Y014290D03*
X025733Y013420D03*
X026733Y013420D03*
X026733Y012590D03*
X025733Y012590D03*
X030133Y011720D03*
X031133Y011720D03*
X031133Y010890D03*
X030133Y010890D03*
X009133Y010890D03*
X008133Y010890D03*
X008133Y011720D03*
X009133Y011720D03*
D13*
X010572Y011586D02*
X010572Y011906D01*
X010572Y011586D02*
X010094Y011586D01*
X010094Y011906D01*
X010572Y011906D01*
X010572Y011660D02*
X010094Y011660D01*
X010094Y011734D02*
X010572Y011734D01*
X010572Y011808D02*
X010094Y011808D01*
X010094Y011882D02*
X010572Y011882D01*
X010572Y012294D02*
X010572Y012614D01*
X010572Y012294D02*
X010094Y012294D01*
X010094Y012614D01*
X010572Y012614D01*
X010572Y012368D02*
X010094Y012368D01*
X010094Y012442D02*
X010572Y012442D01*
X010572Y012516D02*
X010094Y012516D01*
X010094Y012590D02*
X010572Y012590D01*
X011672Y013286D02*
X011672Y013606D01*
X011672Y013286D02*
X011194Y013286D01*
X011194Y013606D01*
X011672Y013606D01*
X011672Y013360D02*
X011194Y013360D01*
X011194Y013434D02*
X011672Y013434D01*
X011672Y013508D02*
X011194Y013508D01*
X011194Y013582D02*
X011672Y013582D01*
X011672Y013994D02*
X011672Y014314D01*
X011672Y013994D02*
X011194Y013994D01*
X011194Y014314D01*
X011672Y014314D01*
X011672Y014068D02*
X011194Y014068D01*
X011194Y014142D02*
X011672Y014142D01*
X011672Y014216D02*
X011194Y014216D01*
X011194Y014290D02*
X011672Y014290D01*
X014972Y014314D02*
X014972Y013994D01*
X014494Y013994D01*
X014494Y014314D01*
X014972Y014314D01*
X014972Y014068D02*
X014494Y014068D01*
X014494Y014142D02*
X014972Y014142D01*
X014972Y014216D02*
X014494Y014216D01*
X014494Y014290D02*
X014972Y014290D01*
X014972Y013606D02*
X014972Y013286D01*
X014494Y013286D01*
X014494Y013606D01*
X014972Y013606D01*
X014972Y013360D02*
X014494Y013360D01*
X014494Y013434D02*
X014972Y013434D01*
X014972Y013508D02*
X014494Y013508D01*
X014494Y013582D02*
X014972Y013582D01*
X015972Y015086D02*
X015972Y015406D01*
X015972Y015086D02*
X015494Y015086D01*
X015494Y015406D01*
X015972Y015406D01*
X015972Y015160D02*
X015494Y015160D01*
X015494Y015234D02*
X015972Y015234D01*
X015972Y015308D02*
X015494Y015308D01*
X015494Y015382D02*
X015972Y015382D01*
X015972Y015794D02*
X015972Y016114D01*
X015972Y015794D02*
X015494Y015794D01*
X015494Y016114D01*
X015972Y016114D01*
X015972Y015868D02*
X015494Y015868D01*
X015494Y015942D02*
X015972Y015942D01*
X015972Y016016D02*
X015494Y016016D01*
X015494Y016090D02*
X015972Y016090D01*
X019272Y016114D02*
X019272Y015794D01*
X018794Y015794D01*
X018794Y016114D01*
X019272Y016114D01*
X019272Y015868D02*
X018794Y015868D01*
X018794Y015942D02*
X019272Y015942D01*
X019272Y016016D02*
X018794Y016016D01*
X018794Y016090D02*
X019272Y016090D01*
X020472Y016114D02*
X020472Y015794D01*
X019994Y015794D01*
X019994Y016114D01*
X020472Y016114D01*
X020472Y015868D02*
X019994Y015868D01*
X019994Y015942D02*
X020472Y015942D01*
X020472Y016016D02*
X019994Y016016D01*
X019994Y016090D02*
X020472Y016090D01*
X020472Y015406D02*
X020472Y015086D01*
X019994Y015086D01*
X019994Y015406D01*
X020472Y015406D01*
X020472Y015160D02*
X019994Y015160D01*
X019994Y015234D02*
X020472Y015234D01*
X020472Y015308D02*
X019994Y015308D01*
X019994Y015382D02*
X020472Y015382D01*
X019272Y015406D02*
X019272Y015086D01*
X018794Y015086D01*
X018794Y015406D01*
X019272Y015406D01*
X019272Y015160D02*
X018794Y015160D01*
X018794Y015234D02*
X019272Y015234D01*
X019272Y015308D02*
X018794Y015308D01*
X018794Y015382D02*
X019272Y015382D01*
X023772Y015406D02*
X023772Y015086D01*
X023294Y015086D01*
X023294Y015406D01*
X023772Y015406D01*
X023772Y015160D02*
X023294Y015160D01*
X023294Y015234D02*
X023772Y015234D01*
X023772Y015308D02*
X023294Y015308D01*
X023294Y015382D02*
X023772Y015382D01*
X023772Y015794D02*
X023772Y016114D01*
X023772Y015794D02*
X023294Y015794D01*
X023294Y016114D01*
X023772Y016114D01*
X023772Y015868D02*
X023294Y015868D01*
X023294Y015942D02*
X023772Y015942D01*
X023772Y016016D02*
X023294Y016016D01*
X023294Y016090D02*
X023772Y016090D01*
X024872Y014314D02*
X024872Y013994D01*
X024394Y013994D01*
X024394Y014314D01*
X024872Y014314D01*
X024872Y014068D02*
X024394Y014068D01*
X024394Y014142D02*
X024872Y014142D01*
X024872Y014216D02*
X024394Y014216D01*
X024394Y014290D02*
X024872Y014290D01*
X024872Y013606D02*
X024872Y013286D01*
X024394Y013286D01*
X024394Y013606D01*
X024872Y013606D01*
X024872Y013360D02*
X024394Y013360D01*
X024394Y013434D02*
X024872Y013434D01*
X024872Y013508D02*
X024394Y013508D01*
X024394Y013582D02*
X024872Y013582D01*
X028172Y013606D02*
X028172Y013286D01*
X027694Y013286D01*
X027694Y013606D01*
X028172Y013606D01*
X028172Y013360D02*
X027694Y013360D01*
X027694Y013434D02*
X028172Y013434D01*
X028172Y013508D02*
X027694Y013508D01*
X027694Y013582D02*
X028172Y013582D01*
X028172Y013994D02*
X028172Y014314D01*
X028172Y013994D02*
X027694Y013994D01*
X027694Y014314D01*
X028172Y014314D01*
X028172Y014068D02*
X027694Y014068D01*
X027694Y014142D02*
X028172Y014142D01*
X028172Y014216D02*
X027694Y014216D01*
X027694Y014290D02*
X028172Y014290D01*
X029172Y012614D02*
X029172Y012294D01*
X028694Y012294D01*
X028694Y012614D01*
X029172Y012614D01*
X029172Y012368D02*
X028694Y012368D01*
X028694Y012442D02*
X029172Y012442D01*
X029172Y012516D02*
X028694Y012516D01*
X028694Y012590D02*
X029172Y012590D01*
X029172Y011906D02*
X029172Y011586D01*
X028694Y011586D01*
X028694Y011906D01*
X029172Y011906D01*
X029172Y011660D02*
X028694Y011660D01*
X028694Y011734D02*
X029172Y011734D01*
X029172Y011808D02*
X028694Y011808D01*
X028694Y011882D02*
X029172Y011882D01*
X032672Y011906D02*
X032672Y011586D01*
X032194Y011586D01*
X032194Y011906D01*
X032672Y011906D01*
X032672Y011660D02*
X032194Y011660D01*
X032194Y011734D02*
X032672Y011734D01*
X032672Y011808D02*
X032194Y011808D01*
X032194Y011882D02*
X032672Y011882D01*
X032672Y012294D02*
X032672Y012614D01*
X032672Y012294D02*
X032194Y012294D01*
X032194Y012614D01*
X032672Y012614D01*
X032672Y012368D02*
X032194Y012368D01*
X032194Y012442D02*
X032672Y012442D01*
X032672Y012516D02*
X032194Y012516D01*
X032194Y012590D02*
X032672Y012590D01*
X007272Y012614D02*
X007272Y012294D01*
X006794Y012294D01*
X006794Y012614D01*
X007272Y012614D01*
X007272Y012368D02*
X006794Y012368D01*
X006794Y012442D02*
X007272Y012442D01*
X007272Y012516D02*
X006794Y012516D01*
X006794Y012590D02*
X007272Y012590D01*
X007272Y011906D02*
X007272Y011586D01*
X006794Y011586D01*
X006794Y011906D01*
X007272Y011906D01*
X007272Y011660D02*
X006794Y011660D01*
X006794Y011734D02*
X007272Y011734D01*
X007272Y011808D02*
X006794Y011808D01*
X006794Y011882D02*
X007272Y011882D01*
D14*
X019133Y008000D03*
D15*
X020133Y008000D03*
X021133Y008000D03*
X022133Y008000D03*
X023133Y008000D03*
X024133Y008000D03*
X025133Y008000D03*
X026133Y008000D03*
M02*
