G75*
G70*
%OFA0B0*%
%FSLAX24Y24*%
%IPPOS*%
%LPD*%
%AMOC8*
5,1,8,0,0,1.08239X$1,22.5*
%
%ADD10C,0.0594*%
%ADD11R,0.0740X0.0740*%
%ADD12C,0.0740*%
%ADD13C,0.0160*%
%ADD14C,0.0100*%
%ADD15C,0.0400*%
%ADD16C,0.0080*%
D10*
X008133Y010890D03*
X009133Y010890D03*
X009133Y011720D03*
X008133Y011720D03*
X012533Y012590D03*
X013533Y012590D03*
X013533Y013420D03*
X012533Y013420D03*
X016933Y014290D03*
X017933Y014290D03*
X017933Y015120D03*
X016933Y015120D03*
X021333Y015120D03*
X022333Y015120D03*
X022333Y014290D03*
X021333Y014290D03*
X025733Y013420D03*
X026733Y013420D03*
X026733Y012590D03*
X025733Y012590D03*
X030133Y011720D03*
X031133Y011720D03*
X031133Y010890D03*
X030133Y010890D03*
D11*
X019133Y008000D03*
D12*
X020133Y008000D03*
X021133Y008000D03*
X022133Y008000D03*
X023133Y008000D03*
X024133Y008000D03*
X025133Y008000D03*
X026133Y008000D03*
D13*
X024733Y010000D02*
X023133Y008400D01*
X023133Y008000D01*
X022133Y008000D02*
X022133Y008600D01*
X020333Y010400D01*
X020333Y014300D01*
X018633Y012600D02*
X014733Y012600D01*
X011533Y012600D02*
X011533Y011800D01*
X014233Y009100D01*
X019633Y009100D01*
X020133Y008600D01*
X020133Y008000D01*
X019133Y008000D02*
X011433Y008000D01*
X009433Y010000D01*
X007633Y010000D01*
X007133Y010500D01*
X007133Y010900D01*
X024733Y010000D02*
X024733Y012600D01*
D14*
X010453Y005811D02*
X010453Y005020D01*
X015313Y005020D01*
X015313Y007191D01*
X015442Y007320D01*
X023824Y007320D01*
X023953Y007191D01*
X023953Y005020D01*
X028713Y005020D01*
X028713Y005911D01*
X028712Y005913D01*
X028713Y006002D01*
X028713Y006091D01*
X028715Y006093D01*
X028719Y006339D01*
X028719Y006339D01*
X028880Y006988D01*
X028880Y006988D01*
X029182Y007586D01*
X029182Y007586D01*
X029608Y008102D01*
X029608Y008102D01*
X029608Y008102D01*
X030139Y008510D01*
X030139Y008510D01*
X030748Y008789D01*
X030748Y008789D01*
X031403Y008926D01*
X031735Y008920D01*
X032913Y008920D01*
X032913Y012651D01*
X023791Y016280D01*
X015476Y016280D01*
X006453Y012651D01*
X006453Y008920D01*
X007331Y008920D01*
X007675Y008926D01*
X007675Y008926D01*
X008353Y008784D01*
X008353Y008784D01*
X008981Y008495D01*
X008981Y008495D01*
X009530Y008073D01*
X009530Y008073D01*
X009530Y008073D01*
X009970Y007540D01*
X009970Y007540D01*
X010281Y006922D01*
X010281Y006922D01*
X010447Y006250D01*
X010447Y006250D01*
X010452Y005993D01*
X010453Y005991D01*
X010453Y005902D01*
X010455Y005813D01*
X010453Y005811D01*
X010453Y005785D02*
X011233Y005785D01*
X011233Y005741D02*
X011355Y005447D01*
X011580Y005222D01*
X011874Y005100D01*
X012192Y005100D01*
X012486Y005222D01*
X012711Y005447D01*
X012833Y005741D01*
X012833Y006059D01*
X012711Y006353D01*
X012486Y006578D01*
X012192Y006700D01*
X011874Y006700D01*
X011580Y006578D01*
X011355Y006353D01*
X011233Y006059D01*
X011233Y005741D01*
X011256Y005687D02*
X010453Y005687D01*
X010453Y005588D02*
X011297Y005588D01*
X011338Y005490D02*
X010453Y005490D01*
X010453Y005391D02*
X011411Y005391D01*
X011510Y005293D02*
X010453Y005293D01*
X010453Y005194D02*
X011647Y005194D01*
X012419Y005194D02*
X015313Y005194D01*
X015313Y005096D02*
X010453Y005096D01*
X010454Y005884D02*
X011233Y005884D01*
X011233Y005982D02*
X010453Y005982D01*
X010450Y006081D02*
X011242Y006081D01*
X011283Y006179D02*
X010448Y006179D01*
X010440Y006278D02*
X011324Y006278D01*
X011378Y006376D02*
X010416Y006376D01*
X010392Y006475D02*
X011477Y006475D01*
X011575Y006573D02*
X010367Y006573D01*
X010343Y006672D02*
X011806Y006672D01*
X012261Y006672D02*
X015313Y006672D01*
X015313Y006770D02*
X010319Y006770D01*
X010295Y006869D02*
X015313Y006869D01*
X015313Y006967D02*
X010259Y006967D01*
X010209Y007066D02*
X015313Y007066D01*
X015313Y007164D02*
X010159Y007164D01*
X010110Y007263D02*
X015385Y007263D01*
X015313Y006573D02*
X012492Y006573D01*
X012590Y006475D02*
X015313Y006475D01*
X015313Y006376D02*
X012689Y006376D01*
X012743Y006278D02*
X015313Y006278D01*
X015313Y006179D02*
X012784Y006179D01*
X012824Y006081D02*
X015313Y006081D01*
X015313Y005982D02*
X012833Y005982D01*
X012833Y005884D02*
X015313Y005884D01*
X015313Y005785D02*
X012833Y005785D01*
X012811Y005687D02*
X015313Y005687D01*
X015313Y005588D02*
X012770Y005588D01*
X012729Y005490D02*
X015313Y005490D01*
X015313Y005391D02*
X012656Y005391D01*
X012557Y005293D02*
X015313Y005293D01*
X018593Y007560D02*
X018693Y007460D01*
X019574Y007460D01*
X019673Y007560D01*
X019673Y007699D01*
X019676Y007694D01*
X019827Y007542D01*
X020026Y007460D01*
X020241Y007460D01*
X020439Y007542D01*
X020591Y007694D01*
X020633Y007796D01*
X020676Y007694D01*
X020827Y007542D01*
X021026Y007460D01*
X021241Y007460D01*
X021439Y007542D01*
X021591Y007694D01*
X021633Y007796D01*
X021676Y007694D01*
X021827Y007542D01*
X022026Y007460D01*
X022241Y007460D01*
X022439Y007542D01*
X022591Y007694D01*
X022633Y007796D01*
X022676Y007694D01*
X022827Y007542D01*
X023026Y007460D01*
X023241Y007460D01*
X023439Y007542D01*
X023591Y007694D01*
X023633Y007796D01*
X023676Y007694D01*
X023827Y007542D01*
X024026Y007460D01*
X024241Y007460D01*
X024439Y007542D01*
X024591Y007694D01*
X024644Y007822D01*
X024651Y007800D01*
X024689Y007727D01*
X024737Y007661D01*
X024795Y007603D01*
X024861Y007555D01*
X024934Y007518D01*
X025012Y007493D01*
X025083Y007481D01*
X025083Y007950D01*
X025183Y007950D01*
X025183Y007481D01*
X025255Y007493D01*
X025333Y007518D01*
X025406Y007555D01*
X025472Y007603D01*
X025530Y007661D01*
X025578Y007727D01*
X025615Y007800D01*
X025622Y007822D01*
X025676Y007694D01*
X025827Y007542D01*
X026026Y007460D01*
X026241Y007460D01*
X026439Y007542D01*
X026591Y007694D01*
X026673Y007893D01*
X026673Y008107D01*
X026591Y008306D01*
X026439Y008458D01*
X026241Y008540D01*
X026026Y008540D01*
X025827Y008458D01*
X025676Y008306D01*
X025622Y008178D01*
X025615Y008200D01*
X025578Y008273D01*
X025530Y008339D01*
X025472Y008397D01*
X025406Y008445D01*
X025333Y008482D01*
X025255Y008507D01*
X025183Y008519D01*
X025183Y008050D01*
X025083Y008050D01*
X025083Y008519D01*
X025012Y008507D01*
X024934Y008482D01*
X024861Y008445D01*
X024795Y008397D01*
X024737Y008339D01*
X024689Y008273D01*
X024651Y008200D01*
X024644Y008178D01*
X024591Y008306D01*
X024439Y008458D01*
X024241Y008540D01*
X024026Y008540D01*
X023827Y008458D01*
X023676Y008306D01*
X023633Y008204D01*
X023591Y008306D01*
X023492Y008405D01*
X024875Y009788D01*
X024945Y009858D01*
X024983Y009950D01*
X024983Y012327D01*
X025047Y012390D01*
X025103Y012526D01*
X025103Y012674D01*
X025047Y012810D01*
X024943Y012914D01*
X024807Y012970D01*
X024660Y012970D01*
X024524Y012914D01*
X024420Y012810D01*
X024363Y012674D01*
X024363Y012526D01*
X024420Y012390D01*
X024483Y012327D01*
X024483Y010104D01*
X022921Y008542D01*
X022899Y008487D01*
X022827Y008458D01*
X022676Y008306D01*
X022633Y008204D01*
X022591Y008306D01*
X022439Y008458D01*
X022383Y008481D01*
X022383Y008650D01*
X022345Y008742D01*
X022275Y008812D01*
X020583Y010504D01*
X020583Y014027D01*
X020647Y014090D01*
X020703Y014226D01*
X020703Y014374D01*
X020647Y014510D01*
X020543Y014614D01*
X020407Y014670D01*
X020260Y014670D01*
X020124Y014614D01*
X020020Y014510D01*
X019963Y014374D01*
X019963Y014226D01*
X020020Y014090D01*
X020083Y014027D01*
X020083Y010350D01*
X020121Y010258D01*
X020192Y010188D01*
X021883Y008496D01*
X021883Y008481D01*
X021827Y008458D01*
X021676Y008306D01*
X021633Y008204D01*
X021591Y008306D01*
X021439Y008458D01*
X021241Y008540D01*
X021026Y008540D01*
X020827Y008458D01*
X020676Y008306D01*
X020633Y008204D01*
X020591Y008306D01*
X020439Y008458D01*
X020383Y008481D01*
X020383Y008650D01*
X020345Y008742D01*
X020275Y008812D01*
X019775Y009312D01*
X019683Y009350D01*
X014337Y009350D01*
X011783Y011904D01*
X011783Y012327D01*
X011847Y012390D01*
X011903Y012526D01*
X011903Y012674D01*
X011847Y012810D01*
X011743Y012914D01*
X011607Y012970D01*
X011460Y012970D01*
X011324Y012914D01*
X011220Y012810D01*
X011163Y012674D01*
X011163Y012526D01*
X011220Y012390D01*
X011283Y012327D01*
X011283Y011750D01*
X011321Y011658D01*
X014092Y008888D01*
X014184Y008850D01*
X019530Y008850D01*
X019883Y008496D01*
X019883Y008481D01*
X019827Y008458D01*
X019676Y008306D01*
X019673Y008301D01*
X019673Y008440D01*
X019574Y008540D01*
X018693Y008540D01*
X018593Y008440D01*
X018593Y008250D01*
X011537Y008250D01*
X009575Y010212D01*
X009483Y010250D01*
X009384Y010250D01*
X007737Y010250D01*
X007383Y010604D01*
X007383Y010627D01*
X007447Y010690D01*
X007503Y010826D01*
X007503Y010974D01*
X007447Y011110D01*
X007343Y011214D01*
X007207Y011270D01*
X007060Y011270D01*
X006924Y011214D01*
X006820Y011110D01*
X006763Y010974D01*
X006763Y010826D01*
X006820Y010690D01*
X006883Y010627D01*
X006883Y010450D01*
X006921Y010358D01*
X006992Y010288D01*
X007492Y009788D01*
X007584Y009750D01*
X009330Y009750D01*
X011292Y007788D01*
X011384Y007750D01*
X018593Y007750D01*
X018593Y007560D01*
X018595Y007558D02*
X009955Y007558D01*
X010011Y007460D02*
X029118Y007460D01*
X029167Y007558D02*
X026455Y007558D01*
X026554Y007657D02*
X029240Y007657D01*
X029321Y007755D02*
X026616Y007755D01*
X026657Y007854D02*
X029403Y007854D01*
X029484Y007952D02*
X026673Y007952D01*
X026673Y008051D02*
X029566Y008051D01*
X029670Y008149D02*
X026656Y008149D01*
X026615Y008248D02*
X029798Y008248D01*
X029926Y008346D02*
X026551Y008346D01*
X026452Y008445D02*
X030055Y008445D01*
X030212Y008543D02*
X023630Y008543D01*
X023728Y008642D02*
X030426Y008642D01*
X030641Y008740D02*
X023827Y008740D01*
X023925Y008839D02*
X030984Y008839D01*
X031403Y008926D02*
X031403Y008926D01*
X032913Y008937D02*
X024024Y008937D01*
X024122Y009036D02*
X032913Y009036D01*
X032913Y009134D02*
X024221Y009134D01*
X024319Y009233D02*
X032913Y009233D01*
X032913Y009331D02*
X024418Y009331D01*
X024516Y009430D02*
X032913Y009430D01*
X032913Y009528D02*
X024615Y009528D01*
X024713Y009627D02*
X032913Y009627D01*
X032913Y009725D02*
X024812Y009725D01*
X024910Y009824D02*
X032913Y009824D01*
X032913Y009922D02*
X024972Y009922D01*
X024983Y010021D02*
X032913Y010021D01*
X032913Y010119D02*
X024983Y010119D01*
X024983Y010218D02*
X032913Y010218D01*
X032913Y010316D02*
X024983Y010316D01*
X024983Y010415D02*
X032913Y010415D01*
X032913Y010513D02*
X031417Y010513D01*
X031398Y010494D02*
X031529Y010625D01*
X031600Y010797D01*
X031600Y010983D01*
X031529Y011155D01*
X031398Y011286D01*
X031326Y011316D01*
X031368Y011338D01*
X031425Y011379D01*
X031474Y011429D01*
X031516Y011486D01*
X031548Y011548D01*
X031569Y011615D01*
X031580Y011681D01*
X031172Y011681D01*
X031172Y011759D01*
X031095Y011759D01*
X031095Y012167D01*
X031029Y012156D01*
X030962Y012134D01*
X030899Y012102D01*
X030842Y012061D01*
X030792Y012011D01*
X030751Y011954D01*
X030719Y011892D01*
X030568Y011892D01*
X030600Y011813D02*
X030529Y011985D01*
X030398Y012116D01*
X030226Y012187D01*
X030040Y012187D01*
X029869Y012116D01*
X029737Y011985D01*
X029666Y011813D01*
X029666Y011627D01*
X029737Y011455D01*
X029869Y011324D01*
X029941Y011294D01*
X029899Y011272D01*
X029842Y011231D01*
X029792Y011181D01*
X029751Y011124D01*
X029719Y011062D01*
X029697Y010995D01*
X029687Y010929D01*
X030095Y010929D01*
X030095Y010851D01*
X030172Y010851D01*
X030172Y010443D01*
X030238Y010454D01*
X030305Y010476D01*
X030368Y010508D01*
X030425Y010549D01*
X030474Y010599D01*
X030516Y010656D01*
X030548Y010718D01*
X030569Y010785D01*
X030580Y010851D01*
X030172Y010851D01*
X030172Y010929D01*
X030580Y010929D01*
X030569Y010995D01*
X030548Y011062D01*
X030516Y011124D01*
X030474Y011181D01*
X030425Y011231D01*
X030368Y011272D01*
X030326Y011294D01*
X030398Y011324D01*
X030529Y011455D01*
X030600Y011627D01*
X030600Y011813D01*
X030600Y011794D02*
X030692Y011794D01*
X030697Y011825D02*
X030687Y011759D01*
X031095Y011759D01*
X031095Y011681D01*
X030687Y011681D01*
X030697Y011615D01*
X030719Y011548D01*
X030751Y011486D01*
X030792Y011429D01*
X030842Y011379D01*
X030899Y011338D01*
X030941Y011316D01*
X030869Y011286D01*
X030737Y011155D01*
X030666Y010983D01*
X030666Y010797D01*
X030737Y010625D01*
X030869Y010494D01*
X031040Y010423D01*
X031226Y010423D01*
X031398Y010494D01*
X031516Y010612D02*
X032913Y010612D01*
X032913Y010710D02*
X031564Y010710D01*
X031600Y010809D02*
X032913Y010809D01*
X032913Y010907D02*
X031600Y010907D01*
X031591Y011006D02*
X032913Y011006D01*
X032913Y011104D02*
X031550Y011104D01*
X031481Y011203D02*
X032913Y011203D01*
X032913Y011301D02*
X031362Y011301D01*
X031445Y011400D02*
X032913Y011400D01*
X032913Y011498D02*
X031522Y011498D01*
X031563Y011597D02*
X032913Y011597D01*
X032913Y011695D02*
X031172Y011695D01*
X031172Y011759D02*
X031580Y011759D01*
X031569Y011825D01*
X031548Y011892D01*
X031516Y011954D01*
X031474Y012011D01*
X031425Y012061D01*
X031368Y012102D01*
X031305Y012134D01*
X031238Y012156D01*
X031172Y012167D01*
X031172Y011759D01*
X031172Y011794D02*
X031095Y011794D01*
X031095Y011892D02*
X031172Y011892D01*
X031172Y011991D02*
X031095Y011991D01*
X031095Y012089D02*
X031172Y012089D01*
X031386Y012089D02*
X032913Y012089D01*
X032913Y011991D02*
X031490Y011991D01*
X031548Y011892D02*
X032913Y011892D01*
X032913Y011794D02*
X031574Y011794D01*
X031095Y011695D02*
X030600Y011695D01*
X030588Y011597D02*
X030703Y011597D01*
X030745Y011498D02*
X030547Y011498D01*
X030474Y011400D02*
X030821Y011400D01*
X030905Y011301D02*
X030343Y011301D01*
X030453Y011203D02*
X030785Y011203D01*
X030716Y011104D02*
X030526Y011104D01*
X030566Y011006D02*
X030676Y011006D01*
X030666Y010907D02*
X030172Y010907D01*
X030095Y010907D02*
X024983Y010907D01*
X024983Y010809D02*
X029693Y010809D01*
X029697Y010785D02*
X029719Y010718D01*
X029751Y010656D01*
X029792Y010599D01*
X029842Y010549D01*
X029899Y010508D01*
X029962Y010476D01*
X030029Y010454D01*
X030095Y010443D01*
X030095Y010851D01*
X029687Y010851D01*
X029697Y010785D01*
X029723Y010710D02*
X024983Y010710D01*
X024983Y010612D02*
X029783Y010612D01*
X029891Y010513D02*
X024983Y010513D01*
X024483Y010513D02*
X022773Y010513D01*
X022809Y010549D02*
X022635Y010374D01*
X022407Y010280D01*
X022160Y010280D01*
X021932Y010374D01*
X021758Y010549D01*
X021663Y010777D01*
X021663Y011023D01*
X021758Y011251D01*
X021932Y011426D01*
X022160Y011520D01*
X022407Y011520D01*
X022635Y011426D01*
X022809Y011251D01*
X022903Y011023D01*
X022903Y010777D01*
X022809Y010549D01*
X022835Y010612D02*
X024483Y010612D01*
X024483Y010710D02*
X022876Y010710D01*
X022903Y010809D02*
X024483Y010809D01*
X024483Y010907D02*
X022903Y010907D01*
X022903Y011006D02*
X024483Y011006D01*
X024483Y011104D02*
X022870Y011104D01*
X022829Y011203D02*
X024483Y011203D01*
X024483Y011301D02*
X022759Y011301D01*
X022661Y011400D02*
X024483Y011400D01*
X024483Y011498D02*
X022460Y011498D01*
X022107Y011498D02*
X020583Y011498D01*
X020583Y011400D02*
X021906Y011400D01*
X021808Y011301D02*
X020583Y011301D01*
X020583Y011203D02*
X021738Y011203D01*
X021697Y011104D02*
X020583Y011104D01*
X020583Y011006D02*
X021663Y011006D01*
X021663Y010907D02*
X020583Y010907D01*
X020583Y010809D02*
X021663Y010809D01*
X021691Y010710D02*
X020583Y010710D01*
X020583Y010612D02*
X021732Y010612D01*
X021794Y010513D02*
X020583Y010513D01*
X020672Y010415D02*
X021892Y010415D01*
X022073Y010316D02*
X020771Y010316D01*
X020869Y010218D02*
X024483Y010218D01*
X024483Y010316D02*
X022494Y010316D01*
X022675Y010415D02*
X024483Y010415D01*
X024483Y010119D02*
X020968Y010119D01*
X021066Y010021D02*
X024400Y010021D01*
X024302Y009922D02*
X021165Y009922D01*
X021263Y009824D02*
X024203Y009824D01*
X024105Y009725D02*
X021362Y009725D01*
X021460Y009627D02*
X024006Y009627D01*
X023908Y009528D02*
X021559Y009528D01*
X021657Y009430D02*
X023809Y009430D01*
X023711Y009331D02*
X021756Y009331D01*
X021854Y009233D02*
X023612Y009233D01*
X023514Y009134D02*
X021953Y009134D01*
X022051Y009036D02*
X023415Y009036D01*
X023317Y008937D02*
X022150Y008937D01*
X022248Y008839D02*
X023218Y008839D01*
X023120Y008740D02*
X022346Y008740D01*
X022383Y008642D02*
X023021Y008642D01*
X022923Y008543D02*
X022383Y008543D01*
X022452Y008445D02*
X022814Y008445D01*
X022716Y008346D02*
X022551Y008346D01*
X022615Y008248D02*
X022651Y008248D01*
X021814Y008445D02*
X021452Y008445D01*
X021551Y008346D02*
X021716Y008346D01*
X021651Y008248D02*
X021615Y008248D01*
X021837Y008543D02*
X020383Y008543D01*
X020383Y008642D02*
X021738Y008642D01*
X021640Y008740D02*
X020346Y008740D01*
X020248Y008839D02*
X021541Y008839D01*
X021443Y008937D02*
X020150Y008937D01*
X020051Y009036D02*
X021344Y009036D01*
X021246Y009134D02*
X019953Y009134D01*
X019854Y009233D02*
X021147Y009233D01*
X021049Y009331D02*
X019729Y009331D01*
X019541Y008839D02*
X010948Y008839D01*
X010850Y008937D02*
X014043Y008937D01*
X013944Y009036D02*
X010751Y009036D01*
X010653Y009134D02*
X013846Y009134D01*
X013747Y009233D02*
X010554Y009233D01*
X010456Y009331D02*
X013649Y009331D01*
X013550Y009430D02*
X010357Y009430D01*
X010259Y009528D02*
X013452Y009528D01*
X013353Y009627D02*
X010160Y009627D01*
X010062Y009725D02*
X013255Y009725D01*
X013156Y009824D02*
X009963Y009824D01*
X009865Y009922D02*
X013058Y009922D01*
X012959Y010021D02*
X009766Y010021D01*
X009668Y010119D02*
X012861Y010119D01*
X012762Y010218D02*
X009561Y010218D01*
X009398Y010494D02*
X009226Y010423D01*
X009040Y010423D01*
X008869Y010494D01*
X008737Y010625D01*
X008666Y010797D01*
X008666Y010983D01*
X008737Y011155D01*
X008869Y011286D01*
X008941Y011316D01*
X008899Y011338D01*
X008842Y011379D01*
X008792Y011429D01*
X008751Y011486D01*
X008719Y011548D01*
X008697Y011615D01*
X008687Y011681D01*
X009095Y011681D01*
X009095Y011759D01*
X009095Y012167D01*
X009029Y012156D01*
X008962Y012134D01*
X008899Y012102D01*
X008842Y012061D01*
X008792Y012011D01*
X008751Y011954D01*
X008719Y011892D01*
X008568Y011892D01*
X008600Y011813D02*
X008529Y011985D01*
X008398Y012116D01*
X008226Y012187D01*
X008040Y012187D01*
X007869Y012116D01*
X007737Y011985D01*
X007666Y011813D01*
X007666Y011627D01*
X007737Y011455D01*
X007869Y011324D01*
X007941Y011294D01*
X007899Y011272D01*
X007842Y011231D01*
X007792Y011181D01*
X007751Y011124D01*
X007719Y011062D01*
X007697Y010995D01*
X007687Y010929D01*
X008095Y010929D01*
X008095Y010851D01*
X008172Y010851D01*
X008172Y010443D01*
X008238Y010454D01*
X008305Y010476D01*
X008368Y010508D01*
X008425Y010549D01*
X008474Y010599D01*
X008516Y010656D01*
X008548Y010718D01*
X008569Y010785D01*
X008580Y010851D01*
X008172Y010851D01*
X008172Y010929D01*
X008580Y010929D01*
X008569Y010995D01*
X008548Y011062D01*
X008516Y011124D01*
X008474Y011181D01*
X008425Y011231D01*
X008368Y011272D01*
X008326Y011294D01*
X008398Y011324D01*
X008529Y011455D01*
X008600Y011627D01*
X008600Y011813D01*
X008600Y011794D02*
X008692Y011794D01*
X008697Y011825D02*
X008687Y011759D01*
X009095Y011759D01*
X009172Y011759D01*
X009172Y012167D01*
X009238Y012156D01*
X009305Y012134D01*
X009368Y012102D01*
X009425Y012061D01*
X009474Y012011D01*
X009516Y011954D01*
X009548Y011892D01*
X009569Y011825D01*
X009580Y011759D01*
X009172Y011759D01*
X009172Y011681D01*
X009580Y011681D01*
X009569Y011615D01*
X009548Y011548D01*
X009516Y011486D01*
X009474Y011429D01*
X009425Y011379D01*
X009368Y011338D01*
X009326Y011316D01*
X009398Y011286D01*
X009529Y011155D01*
X009600Y010983D01*
X009600Y010797D01*
X009529Y010625D01*
X009398Y010494D01*
X009417Y010513D02*
X012467Y010513D01*
X012565Y010415D02*
X007572Y010415D01*
X007474Y010513D02*
X007891Y010513D01*
X007899Y010508D02*
X007962Y010476D01*
X008029Y010454D01*
X008095Y010443D01*
X008095Y010851D01*
X007687Y010851D01*
X007697Y010785D01*
X007719Y010718D01*
X007751Y010656D01*
X007792Y010599D01*
X007842Y010549D01*
X007899Y010508D01*
X007783Y010612D02*
X007383Y010612D01*
X007455Y010710D02*
X007723Y010710D01*
X007693Y010809D02*
X007496Y010809D01*
X007503Y010907D02*
X008095Y010907D01*
X008172Y010907D02*
X008666Y010907D01*
X008666Y010809D02*
X008573Y010809D01*
X008543Y010710D02*
X008702Y010710D01*
X008751Y010612D02*
X008484Y010612D01*
X008375Y010513D02*
X008850Y010513D01*
X008172Y010513D02*
X008095Y010513D01*
X008095Y010612D02*
X008172Y010612D01*
X008172Y010710D02*
X008095Y010710D01*
X008095Y010809D02*
X008172Y010809D01*
X008566Y011006D02*
X008676Y011006D01*
X008716Y011104D02*
X008526Y011104D01*
X008453Y011203D02*
X008785Y011203D01*
X008905Y011301D02*
X008343Y011301D01*
X008474Y011400D02*
X008821Y011400D01*
X008745Y011498D02*
X008547Y011498D01*
X008588Y011597D02*
X008703Y011597D01*
X008600Y011695D02*
X009095Y011695D01*
X009172Y011695D02*
X011306Y011695D01*
X011283Y011794D02*
X009574Y011794D01*
X009548Y011892D02*
X011283Y011892D01*
X011283Y011991D02*
X009490Y011991D01*
X009386Y012089D02*
X011283Y012089D01*
X011283Y012188D02*
X006453Y012188D01*
X006453Y012286D02*
X011283Y012286D01*
X011226Y012385D02*
X006453Y012385D01*
X006453Y012483D02*
X011181Y012483D01*
X011163Y012582D02*
X006453Y012582D01*
X006525Y012680D02*
X011166Y012680D01*
X011207Y012779D02*
X006770Y012779D01*
X007014Y012877D02*
X011287Y012877D01*
X011780Y012877D02*
X012189Y012877D01*
X012192Y012881D02*
X012151Y012824D01*
X012119Y012762D01*
X012097Y012695D01*
X012087Y012629D01*
X012495Y012629D01*
X012495Y012551D01*
X012572Y012551D01*
X012572Y012143D01*
X012638Y012154D01*
X012705Y012176D01*
X012768Y012208D01*
X012825Y012249D01*
X012874Y012299D01*
X012916Y012356D01*
X012948Y012418D01*
X012969Y012485D01*
X012980Y012551D01*
X012572Y012551D01*
X012572Y012629D01*
X012980Y012629D01*
X012969Y012695D01*
X012948Y012762D01*
X012916Y012824D01*
X012874Y012881D01*
X012825Y012931D01*
X012768Y012972D01*
X012726Y012994D01*
X012798Y013024D01*
X012929Y013155D01*
X013000Y013327D01*
X013000Y013513D01*
X012929Y013685D01*
X012798Y013816D01*
X012626Y013887D01*
X012440Y013887D01*
X012269Y013816D01*
X012137Y013685D01*
X012066Y013513D01*
X012066Y013327D01*
X012137Y013155D01*
X012269Y013024D01*
X012341Y012994D01*
X012299Y012972D01*
X012242Y012931D01*
X012192Y012881D01*
X012128Y012779D02*
X011860Y012779D01*
X011901Y012680D02*
X012095Y012680D01*
X012087Y012551D02*
X012097Y012485D01*
X012119Y012418D01*
X012151Y012356D01*
X012192Y012299D01*
X012242Y012249D01*
X012299Y012208D01*
X012362Y012176D01*
X012429Y012154D01*
X012495Y012143D01*
X012495Y012551D01*
X012087Y012551D01*
X012098Y012483D02*
X011885Y012483D01*
X011903Y012582D02*
X012495Y012582D01*
X012572Y012582D02*
X013066Y012582D01*
X013066Y012497D02*
X013137Y012325D01*
X013269Y012194D01*
X013440Y012123D01*
X013626Y012123D01*
X013798Y012194D01*
X013929Y012325D01*
X014000Y012497D01*
X014000Y012683D01*
X013929Y012855D01*
X013798Y012986D01*
X013726Y013016D01*
X013768Y013038D01*
X013825Y013079D01*
X013874Y013129D01*
X013916Y013186D01*
X013948Y013248D01*
X013969Y013315D01*
X013980Y013381D01*
X013572Y013381D01*
X013572Y013459D01*
X013495Y013459D01*
X013495Y013867D01*
X013429Y013856D01*
X013362Y013834D01*
X013299Y013802D01*
X013242Y013761D01*
X013192Y013711D01*
X013151Y013654D01*
X013119Y013592D01*
X013097Y013525D01*
X013087Y013459D01*
X013495Y013459D01*
X013495Y013381D01*
X013087Y013381D01*
X013097Y013315D01*
X013119Y013248D01*
X013151Y013186D01*
X013192Y013129D01*
X013242Y013079D01*
X013299Y013038D01*
X013341Y013016D01*
X013269Y012986D01*
X013137Y012855D01*
X013066Y012683D01*
X013066Y012497D01*
X013072Y012483D02*
X012969Y012483D01*
X012930Y012385D02*
X013113Y012385D01*
X013177Y012286D02*
X012862Y012286D01*
X012728Y012188D02*
X013284Y012188D01*
X012572Y012188D02*
X012495Y012188D01*
X012495Y012286D02*
X012572Y012286D01*
X012572Y012385D02*
X012495Y012385D01*
X012495Y012483D02*
X012572Y012483D01*
X012338Y012188D02*
X011783Y012188D01*
X011783Y012286D02*
X012205Y012286D01*
X012136Y012385D02*
X011841Y012385D01*
X011783Y012089D02*
X020083Y012089D01*
X020083Y011991D02*
X011783Y011991D01*
X011795Y011892D02*
X020083Y011892D01*
X020083Y011794D02*
X011893Y011794D01*
X011992Y011695D02*
X020083Y011695D01*
X020083Y011597D02*
X012090Y011597D01*
X012189Y011498D02*
X016807Y011498D01*
X016860Y011520D02*
X016632Y011426D01*
X016458Y011251D01*
X016363Y011023D01*
X016363Y010777D01*
X016458Y010549D01*
X016632Y010374D01*
X016860Y010280D01*
X017107Y010280D01*
X017335Y010374D01*
X017509Y010549D01*
X017603Y010777D01*
X017603Y011023D01*
X017509Y011251D01*
X017335Y011426D01*
X017107Y011520D01*
X016860Y011520D01*
X016606Y011400D02*
X012287Y011400D01*
X012386Y011301D02*
X016508Y011301D01*
X016438Y011203D02*
X012484Y011203D01*
X012583Y011104D02*
X016397Y011104D01*
X016363Y011006D02*
X012681Y011006D01*
X012780Y010907D02*
X016363Y010907D01*
X016363Y010809D02*
X012878Y010809D01*
X012977Y010710D02*
X016391Y010710D01*
X016432Y010612D02*
X013075Y010612D01*
X013174Y010513D02*
X016494Y010513D01*
X016592Y010415D02*
X013272Y010415D01*
X013371Y010316D02*
X016773Y010316D01*
X017194Y010316D02*
X020098Y010316D01*
X020083Y010415D02*
X017375Y010415D01*
X017473Y010513D02*
X020083Y010513D01*
X020083Y010612D02*
X017535Y010612D01*
X017576Y010710D02*
X020083Y010710D01*
X020083Y010809D02*
X017603Y010809D01*
X017603Y010907D02*
X020083Y010907D01*
X020083Y011006D02*
X017603Y011006D01*
X017570Y011104D02*
X020083Y011104D01*
X020083Y011203D02*
X017529Y011203D01*
X017459Y011301D02*
X020083Y011301D01*
X020083Y011400D02*
X017361Y011400D01*
X017160Y011498D02*
X020083Y011498D01*
X020583Y011597D02*
X024483Y011597D01*
X024483Y011695D02*
X020583Y011695D01*
X020583Y011794D02*
X024483Y011794D01*
X024483Y011892D02*
X020583Y011892D01*
X020583Y011991D02*
X024483Y011991D01*
X024483Y012089D02*
X020583Y012089D01*
X020583Y012188D02*
X024483Y012188D01*
X024483Y012286D02*
X020583Y012286D01*
X020583Y012385D02*
X024426Y012385D01*
X024381Y012483D02*
X020583Y012483D01*
X020583Y012582D02*
X024363Y012582D01*
X024366Y012680D02*
X020583Y012680D01*
X020583Y012779D02*
X024407Y012779D01*
X024487Y012877D02*
X020583Y012877D01*
X020583Y012976D02*
X025505Y012976D01*
X025499Y012972D02*
X025442Y012931D01*
X025392Y012881D01*
X025351Y012824D01*
X025319Y012762D01*
X025297Y012695D01*
X025287Y012629D01*
X025695Y012629D01*
X025695Y012551D01*
X025772Y012551D01*
X025772Y012143D01*
X025838Y012154D01*
X025905Y012176D01*
X025968Y012208D01*
X026025Y012249D01*
X026074Y012299D01*
X026116Y012356D01*
X026148Y012418D01*
X026169Y012485D01*
X026180Y012551D01*
X025772Y012551D01*
X025772Y012629D01*
X026180Y012629D01*
X026169Y012695D01*
X026148Y012762D01*
X026116Y012824D01*
X026074Y012881D01*
X026025Y012931D01*
X025968Y012972D01*
X025926Y012994D01*
X025998Y013024D01*
X026129Y013155D01*
X026200Y013327D01*
X026200Y013513D01*
X026129Y013685D01*
X025998Y013816D01*
X025826Y013887D01*
X025640Y013887D01*
X025469Y013816D01*
X025337Y013685D01*
X025266Y013513D01*
X025266Y013327D01*
X025337Y013155D01*
X025469Y013024D01*
X025541Y012994D01*
X025499Y012972D01*
X025419Y013074D02*
X020583Y013074D01*
X020583Y013173D02*
X025330Y013173D01*
X025289Y013271D02*
X020583Y013271D01*
X020583Y013370D02*
X025266Y013370D01*
X025266Y013468D02*
X020583Y013468D01*
X020583Y013567D02*
X025288Y013567D01*
X025329Y013665D02*
X020583Y013665D01*
X020583Y013764D02*
X025416Y013764D01*
X025580Y013862D02*
X022521Y013862D01*
X022598Y013894D02*
X022729Y014025D01*
X022800Y014197D01*
X022800Y014383D01*
X022729Y014555D01*
X022598Y014686D01*
X022526Y014716D01*
X022568Y014738D01*
X022625Y014779D01*
X022674Y014829D01*
X022716Y014886D01*
X022748Y014948D01*
X022769Y015015D01*
X022780Y015081D01*
X022372Y015081D01*
X022372Y015159D01*
X022295Y015159D01*
X022295Y015567D01*
X022229Y015556D01*
X022162Y015534D01*
X022099Y015502D01*
X022042Y015461D01*
X021992Y015411D01*
X021951Y015354D01*
X021919Y015292D01*
X021897Y015225D01*
X021887Y015159D01*
X022295Y015159D01*
X022295Y015081D01*
X021887Y015081D01*
X021897Y015015D01*
X021919Y014948D01*
X021951Y014886D01*
X021992Y014829D01*
X022042Y014779D01*
X022099Y014738D01*
X022141Y014716D01*
X022069Y014686D01*
X021937Y014555D01*
X021866Y014383D01*
X021866Y014197D01*
X021937Y014025D01*
X022069Y013894D01*
X022240Y013823D01*
X022426Y013823D01*
X022598Y013894D01*
X022665Y013961D02*
X029621Y013961D01*
X029374Y014059D02*
X022743Y014059D01*
X022784Y014158D02*
X029126Y014158D01*
X028878Y014256D02*
X022800Y014256D01*
X022800Y014355D02*
X028631Y014355D01*
X028383Y014453D02*
X022771Y014453D01*
X022731Y014552D02*
X028136Y014552D01*
X027888Y014650D02*
X022634Y014650D01*
X022583Y014749D02*
X027641Y014749D01*
X027393Y014847D02*
X022688Y014847D01*
X022746Y014946D02*
X027145Y014946D01*
X026898Y015044D02*
X022774Y015044D01*
X022780Y015159D02*
X022769Y015225D01*
X022748Y015292D01*
X022716Y015354D01*
X022674Y015411D01*
X022625Y015461D01*
X022568Y015502D01*
X022505Y015534D01*
X022438Y015556D01*
X022372Y015567D01*
X022372Y015159D01*
X022780Y015159D01*
X022764Y015241D02*
X026403Y015241D01*
X026650Y015143D02*
X022372Y015143D01*
X022295Y015143D02*
X021800Y015143D01*
X021800Y015213D02*
X021800Y015027D01*
X021729Y014855D01*
X021598Y014724D01*
X021526Y014694D01*
X021568Y014672D01*
X021625Y014631D01*
X021674Y014581D01*
X021716Y014524D01*
X021748Y014462D01*
X021769Y014395D01*
X021780Y014329D01*
X021372Y014329D01*
X021372Y014251D01*
X021372Y013843D01*
X021438Y013854D01*
X021505Y013876D01*
X021568Y013908D01*
X021625Y013949D01*
X021674Y013999D01*
X021716Y014056D01*
X021748Y014118D01*
X021769Y014185D01*
X021780Y014251D01*
X021372Y014251D01*
X021295Y014251D01*
X021295Y013843D01*
X021229Y013854D01*
X021162Y013876D01*
X021099Y013908D01*
X021042Y013949D01*
X020992Y013999D01*
X020951Y014056D01*
X020919Y014118D01*
X020897Y014185D01*
X020887Y014251D01*
X021295Y014251D01*
X021295Y014329D01*
X020887Y014329D01*
X020897Y014395D01*
X020919Y014462D01*
X020951Y014524D01*
X020992Y014581D01*
X021042Y014631D01*
X021099Y014672D01*
X021141Y014694D01*
X021069Y014724D01*
X020937Y014855D01*
X020866Y015027D01*
X020866Y015213D01*
X020937Y015385D01*
X021069Y015516D01*
X021240Y015587D01*
X021426Y015587D01*
X021598Y015516D01*
X021729Y015385D01*
X021800Y015213D01*
X021789Y015241D02*
X021902Y015241D01*
X021943Y015340D02*
X021748Y015340D01*
X021676Y015438D02*
X022019Y015438D01*
X022168Y015537D02*
X021549Y015537D01*
X021118Y015537D02*
X018098Y015537D01*
X018105Y015534D02*
X018038Y015556D01*
X017972Y015567D01*
X017972Y015159D01*
X017895Y015159D01*
X017895Y015567D01*
X017829Y015556D01*
X017762Y015534D01*
X017699Y015502D01*
X017642Y015461D01*
X017592Y015411D01*
X017551Y015354D01*
X017519Y015292D01*
X017497Y015225D01*
X017487Y015159D01*
X017895Y015159D01*
X017895Y015081D01*
X017487Y015081D01*
X017497Y015015D01*
X017519Y014948D01*
X017551Y014886D01*
X017592Y014829D01*
X017642Y014779D01*
X017699Y014738D01*
X017741Y014716D01*
X017669Y014686D01*
X017537Y014555D01*
X017466Y014383D01*
X017466Y014197D01*
X017537Y014025D01*
X017669Y013894D01*
X017840Y013823D01*
X018026Y013823D01*
X018198Y013894D01*
X018329Y014025D01*
X018400Y014197D01*
X018400Y014383D01*
X018329Y014555D01*
X018198Y014686D01*
X018126Y014716D01*
X018168Y014738D01*
X018225Y014779D01*
X018274Y014829D01*
X018316Y014886D01*
X018348Y014948D01*
X018369Y015015D01*
X018380Y015081D01*
X017972Y015081D01*
X017972Y015159D01*
X018380Y015159D01*
X018369Y015225D01*
X018348Y015292D01*
X018316Y015354D01*
X018274Y015411D01*
X018225Y015461D01*
X018168Y015502D01*
X018105Y015534D01*
X017972Y015537D02*
X017895Y015537D01*
X017895Y015438D02*
X017972Y015438D01*
X017972Y015340D02*
X017895Y015340D01*
X017895Y015241D02*
X017972Y015241D01*
X017972Y015143D02*
X020866Y015143D01*
X020878Y015241D02*
X018364Y015241D01*
X018323Y015340D02*
X020919Y015340D01*
X020991Y015438D02*
X018248Y015438D01*
X017768Y015537D02*
X017149Y015537D01*
X017198Y015516D02*
X017026Y015587D01*
X016840Y015587D01*
X016669Y015516D01*
X016537Y015385D01*
X016466Y015213D01*
X016466Y015027D01*
X016537Y014855D01*
X016669Y014724D01*
X016741Y014694D01*
X016699Y014672D01*
X016642Y014631D01*
X016592Y014581D01*
X016551Y014524D01*
X016519Y014462D01*
X016497Y014395D01*
X016487Y014329D01*
X016895Y014329D01*
X016895Y014251D01*
X016972Y014251D01*
X016972Y013843D01*
X017038Y013854D01*
X017105Y013876D01*
X017168Y013908D01*
X017225Y013949D01*
X017274Y013999D01*
X017316Y014056D01*
X017348Y014118D01*
X017369Y014185D01*
X017380Y014251D01*
X016972Y014251D01*
X016972Y014329D01*
X017380Y014329D01*
X017369Y014395D01*
X017348Y014462D01*
X017316Y014524D01*
X017274Y014581D01*
X017225Y014631D01*
X017168Y014672D01*
X017126Y014694D01*
X017198Y014724D01*
X017329Y014855D01*
X017400Y015027D01*
X017400Y015213D01*
X017329Y015385D01*
X017198Y015516D01*
X017276Y015438D02*
X017619Y015438D01*
X017543Y015340D02*
X017348Y015340D01*
X017389Y015241D02*
X017502Y015241D01*
X017400Y015143D02*
X017895Y015143D01*
X017493Y015044D02*
X017400Y015044D01*
X017367Y014946D02*
X017520Y014946D01*
X017579Y014847D02*
X017321Y014847D01*
X017223Y014749D02*
X017684Y014749D01*
X017633Y014650D02*
X017199Y014650D01*
X017296Y014552D02*
X017536Y014552D01*
X017495Y014453D02*
X017351Y014453D01*
X017376Y014355D02*
X017466Y014355D01*
X017466Y014256D02*
X016972Y014256D01*
X016895Y014256D02*
X010443Y014256D01*
X010198Y014158D02*
X016506Y014158D01*
X016497Y014185D02*
X016519Y014118D01*
X016551Y014056D01*
X016592Y013999D01*
X016642Y013949D01*
X016699Y013908D01*
X016762Y013876D01*
X016829Y013854D01*
X016895Y013843D01*
X016895Y014251D01*
X016487Y014251D01*
X016497Y014185D01*
X016549Y014059D02*
X009953Y014059D01*
X009709Y013961D02*
X016630Y013961D01*
X016803Y013862D02*
X013601Y013862D01*
X013572Y013862D02*
X013495Y013862D01*
X013466Y013862D02*
X012687Y013862D01*
X012850Y013764D02*
X013245Y013764D01*
X013159Y013665D02*
X012937Y013665D01*
X012978Y013567D02*
X013111Y013567D01*
X013088Y013468D02*
X013000Y013468D01*
X013000Y013370D02*
X013089Y013370D01*
X013112Y013271D02*
X012977Y013271D01*
X012936Y013173D02*
X013160Y013173D01*
X013249Y013074D02*
X012848Y013074D01*
X012762Y012976D02*
X013258Y012976D01*
X013160Y012877D02*
X012878Y012877D01*
X012939Y012779D02*
X013106Y012779D01*
X013066Y012680D02*
X012972Y012680D01*
X012305Y012976D02*
X007259Y012976D01*
X007504Y013074D02*
X012219Y013074D01*
X012130Y013173D02*
X007749Y013173D01*
X007994Y013271D02*
X012089Y013271D01*
X012066Y013370D02*
X008239Y013370D01*
X008484Y013468D02*
X012066Y013468D01*
X012088Y013567D02*
X008729Y013567D01*
X008974Y013665D02*
X012129Y013665D01*
X012216Y013764D02*
X009219Y013764D01*
X009464Y013862D02*
X012380Y013862D01*
X013495Y013764D02*
X013572Y013764D01*
X013572Y013665D02*
X013495Y013665D01*
X013495Y013567D02*
X013572Y013567D01*
X013572Y013468D02*
X013495Y013468D01*
X013572Y013459D02*
X013572Y013867D01*
X013638Y013856D01*
X013705Y013834D01*
X013768Y013802D01*
X013825Y013761D01*
X013874Y013711D01*
X013916Y013654D01*
X013948Y013592D01*
X013969Y013525D01*
X013980Y013459D01*
X013572Y013459D01*
X013956Y013567D02*
X020083Y013567D01*
X020083Y013665D02*
X013908Y013665D01*
X013821Y013764D02*
X020083Y013764D01*
X020083Y013862D02*
X018121Y013862D01*
X018265Y013961D02*
X020083Y013961D01*
X020051Y014059D02*
X018343Y014059D01*
X018384Y014158D02*
X019992Y014158D01*
X019963Y014256D02*
X018400Y014256D01*
X018400Y014355D02*
X019963Y014355D01*
X019996Y014453D02*
X018371Y014453D01*
X018331Y014552D02*
X020062Y014552D01*
X020212Y014650D02*
X018234Y014650D01*
X018183Y014749D02*
X021044Y014749D01*
X021068Y014650D02*
X020455Y014650D01*
X020605Y014552D02*
X020971Y014552D01*
X020916Y014453D02*
X020670Y014453D01*
X020703Y014355D02*
X020891Y014355D01*
X020906Y014158D02*
X020675Y014158D01*
X020703Y014256D02*
X021295Y014256D01*
X021372Y014256D02*
X021866Y014256D01*
X021866Y014355D02*
X021776Y014355D01*
X021751Y014453D02*
X021895Y014453D01*
X021936Y014552D02*
X021696Y014552D01*
X021599Y014650D02*
X022033Y014650D01*
X022084Y014749D02*
X021623Y014749D01*
X021721Y014847D02*
X021979Y014847D01*
X021920Y014946D02*
X021767Y014946D01*
X021800Y015044D02*
X021893Y015044D01*
X022295Y015241D02*
X022372Y015241D01*
X022372Y015340D02*
X022295Y015340D01*
X022295Y015438D02*
X022372Y015438D01*
X022372Y015537D02*
X022295Y015537D01*
X022498Y015537D02*
X025660Y015537D01*
X025412Y015635D02*
X013872Y015635D01*
X013627Y015537D02*
X016718Y015537D01*
X016591Y015438D02*
X013382Y015438D01*
X013137Y015340D02*
X016519Y015340D01*
X016478Y015241D02*
X012893Y015241D01*
X012648Y015143D02*
X016466Y015143D01*
X016466Y015044D02*
X012403Y015044D01*
X012158Y014946D02*
X016500Y014946D01*
X016546Y014847D02*
X011913Y014847D01*
X011668Y014749D02*
X016644Y014749D01*
X016668Y014650D02*
X011423Y014650D01*
X011178Y014552D02*
X016571Y014552D01*
X016516Y014453D02*
X010933Y014453D01*
X010688Y014355D02*
X016491Y014355D01*
X016895Y014158D02*
X016972Y014158D01*
X016972Y014059D02*
X016895Y014059D01*
X016895Y013961D02*
X016972Y013961D01*
X016972Y013862D02*
X016895Y013862D01*
X017063Y013862D02*
X017746Y013862D01*
X017602Y013961D02*
X017236Y013961D01*
X017318Y014059D02*
X017523Y014059D01*
X017483Y014158D02*
X017360Y014158D01*
X018288Y014847D02*
X020946Y014847D01*
X020900Y014946D02*
X018346Y014946D01*
X018374Y015044D02*
X020866Y015044D01*
X022648Y015438D02*
X025907Y015438D01*
X026155Y015340D02*
X022723Y015340D01*
X024174Y016128D02*
X015097Y016128D01*
X015342Y016226D02*
X023927Y016226D01*
X024422Y016029D02*
X014852Y016029D01*
X014607Y015931D02*
X024670Y015931D01*
X024917Y015832D02*
X014362Y015832D01*
X014117Y015734D02*
X025165Y015734D01*
X021883Y014158D02*
X021760Y014158D01*
X021718Y014059D02*
X021923Y014059D01*
X022002Y013961D02*
X021636Y013961D01*
X021463Y013862D02*
X022146Y013862D01*
X021372Y013862D02*
X021295Y013862D01*
X021203Y013862D02*
X020583Y013862D01*
X020583Y013961D02*
X021030Y013961D01*
X020949Y014059D02*
X020616Y014059D01*
X021295Y014059D02*
X021372Y014059D01*
X021372Y013961D02*
X021295Y013961D01*
X021295Y014158D02*
X021372Y014158D01*
X020083Y013468D02*
X013978Y013468D01*
X013978Y013370D02*
X020083Y013370D01*
X020083Y013271D02*
X013955Y013271D01*
X013906Y013173D02*
X020083Y013173D01*
X020083Y013074D02*
X013818Y013074D01*
X013808Y012976D02*
X020083Y012976D01*
X020083Y012877D02*
X013907Y012877D01*
X013961Y012779D02*
X020083Y012779D01*
X020083Y012680D02*
X014000Y012680D01*
X014000Y012582D02*
X020083Y012582D01*
X020083Y012483D02*
X013995Y012483D01*
X013954Y012385D02*
X020083Y012385D01*
X020083Y012286D02*
X013890Y012286D01*
X013782Y012188D02*
X020083Y012188D01*
X020162Y010218D02*
X013469Y010218D01*
X013568Y010119D02*
X020261Y010119D01*
X020359Y010021D02*
X013666Y010021D01*
X013765Y009922D02*
X020458Y009922D01*
X020556Y009824D02*
X013863Y009824D01*
X013962Y009725D02*
X020655Y009725D01*
X020753Y009627D02*
X014060Y009627D01*
X014159Y009528D02*
X020852Y009528D01*
X020950Y009430D02*
X014257Y009430D01*
X012664Y010316D02*
X007671Y010316D01*
X007259Y010021D02*
X006453Y010021D01*
X006453Y010119D02*
X007161Y010119D01*
X007062Y010218D02*
X006453Y010218D01*
X006453Y010316D02*
X006964Y010316D01*
X006898Y010415D02*
X006453Y010415D01*
X006453Y010513D02*
X006883Y010513D01*
X006883Y010612D02*
X006453Y010612D01*
X006453Y010710D02*
X006812Y010710D01*
X006771Y010809D02*
X006453Y010809D01*
X006453Y010907D02*
X006763Y010907D01*
X006777Y011006D02*
X006453Y011006D01*
X006453Y011104D02*
X006817Y011104D01*
X006913Y011203D02*
X006453Y011203D01*
X006453Y011301D02*
X007924Y011301D01*
X007813Y011203D02*
X007354Y011203D01*
X007449Y011104D02*
X007741Y011104D01*
X007701Y011006D02*
X007490Y011006D01*
X007793Y011400D02*
X006453Y011400D01*
X006453Y011498D02*
X007720Y011498D01*
X007679Y011597D02*
X006453Y011597D01*
X006453Y011695D02*
X007666Y011695D01*
X007666Y011794D02*
X006453Y011794D01*
X006453Y011892D02*
X007699Y011892D01*
X007743Y011991D02*
X006453Y011991D01*
X006453Y012089D02*
X007842Y012089D01*
X008425Y012089D02*
X008880Y012089D01*
X008777Y011991D02*
X008523Y011991D01*
X008719Y011892D02*
X008697Y011825D01*
X009095Y011794D02*
X009172Y011794D01*
X009172Y011892D02*
X009095Y011892D01*
X009095Y011991D02*
X009172Y011991D01*
X009172Y012089D02*
X009095Y012089D01*
X009563Y011597D02*
X011383Y011597D01*
X011482Y011498D02*
X009522Y011498D01*
X009445Y011400D02*
X011580Y011400D01*
X011679Y011301D02*
X009362Y011301D01*
X009481Y011203D02*
X011777Y011203D01*
X011876Y011104D02*
X009550Y011104D01*
X009591Y011006D02*
X011974Y011006D01*
X012073Y010907D02*
X009600Y010907D01*
X009600Y010809D02*
X012171Y010809D01*
X012270Y010710D02*
X009564Y010710D01*
X009516Y010612D02*
X012368Y010612D01*
X009552Y009528D02*
X006453Y009528D01*
X006453Y009430D02*
X009650Y009430D01*
X009749Y009331D02*
X006453Y009331D01*
X006453Y009233D02*
X009847Y009233D01*
X009946Y009134D02*
X006453Y009134D01*
X006453Y009036D02*
X010044Y009036D01*
X010143Y008937D02*
X006453Y008937D01*
X008092Y008839D02*
X010241Y008839D01*
X010340Y008740D02*
X008448Y008740D01*
X008662Y008642D02*
X010438Y008642D01*
X010537Y008543D02*
X008876Y008543D01*
X009046Y008445D02*
X010635Y008445D01*
X010734Y008346D02*
X009174Y008346D01*
X009302Y008248D02*
X010832Y008248D01*
X010931Y008149D02*
X009431Y008149D01*
X009548Y008051D02*
X011029Y008051D01*
X011128Y007952D02*
X009629Y007952D01*
X009711Y007854D02*
X011226Y007854D01*
X011372Y007755D02*
X009792Y007755D01*
X009874Y007657D02*
X018593Y007657D01*
X019673Y007657D02*
X019713Y007657D01*
X019672Y007558D02*
X019812Y007558D01*
X020455Y007558D02*
X020812Y007558D01*
X020713Y007657D02*
X020554Y007657D01*
X020616Y007755D02*
X020650Y007755D01*
X021455Y007558D02*
X021812Y007558D01*
X021713Y007657D02*
X021554Y007657D01*
X021616Y007755D02*
X021650Y007755D01*
X022455Y007558D02*
X022812Y007558D01*
X022713Y007657D02*
X022554Y007657D01*
X022616Y007755D02*
X022650Y007755D01*
X023455Y007558D02*
X023812Y007558D01*
X023713Y007657D02*
X023554Y007657D01*
X023616Y007755D02*
X023650Y007755D01*
X024455Y007558D02*
X024857Y007558D01*
X024741Y007657D02*
X024554Y007657D01*
X024616Y007755D02*
X024675Y007755D01*
X025083Y007755D02*
X025183Y007755D01*
X025183Y007657D02*
X025083Y007657D01*
X025083Y007558D02*
X025183Y007558D01*
X025410Y007558D02*
X025812Y007558D01*
X025713Y007657D02*
X025525Y007657D01*
X025592Y007755D02*
X025650Y007755D01*
X025183Y007854D02*
X025083Y007854D01*
X025083Y008051D02*
X025183Y008051D01*
X025183Y008149D02*
X025083Y008149D01*
X025083Y008248D02*
X025183Y008248D01*
X025183Y008346D02*
X025083Y008346D01*
X025083Y008445D02*
X025183Y008445D01*
X025406Y008445D02*
X025814Y008445D01*
X025716Y008346D02*
X025523Y008346D01*
X025591Y008248D02*
X025651Y008248D01*
X024860Y008445D02*
X024452Y008445D01*
X024551Y008346D02*
X024744Y008346D01*
X024676Y008248D02*
X024615Y008248D01*
X023814Y008445D02*
X023531Y008445D01*
X023551Y008346D02*
X023716Y008346D01*
X023651Y008248D02*
X023615Y008248D01*
X023882Y007263D02*
X029018Y007263D01*
X029068Y007361D02*
X010060Y007361D01*
X011342Y008445D02*
X018597Y008445D01*
X018593Y008346D02*
X011441Y008346D01*
X011244Y008543D02*
X019837Y008543D01*
X019814Y008445D02*
X019669Y008445D01*
X019673Y008346D02*
X019716Y008346D01*
X019738Y008642D02*
X011145Y008642D01*
X011047Y008740D02*
X019640Y008740D01*
X020452Y008445D02*
X020814Y008445D01*
X020716Y008346D02*
X020551Y008346D01*
X020615Y008248D02*
X020651Y008248D01*
X023953Y007164D02*
X028969Y007164D01*
X028919Y007066D02*
X023953Y007066D01*
X023953Y006967D02*
X028875Y006967D01*
X028851Y006869D02*
X023953Y006869D01*
X023953Y006770D02*
X028826Y006770D01*
X028802Y006672D02*
X027461Y006672D01*
X027392Y006700D02*
X027074Y006700D01*
X026780Y006578D01*
X026555Y006353D01*
X026433Y006059D01*
X026433Y005741D01*
X026555Y005447D01*
X026780Y005222D01*
X027074Y005100D01*
X027392Y005100D01*
X027686Y005222D01*
X027911Y005447D01*
X028033Y005741D01*
X028033Y006059D01*
X027911Y006353D01*
X027686Y006578D01*
X027392Y006700D01*
X027692Y006573D02*
X028777Y006573D01*
X028753Y006475D02*
X027790Y006475D01*
X027889Y006376D02*
X028729Y006376D01*
X028718Y006278D02*
X027943Y006278D01*
X027984Y006179D02*
X028717Y006179D01*
X028713Y006081D02*
X028024Y006081D01*
X028033Y005982D02*
X028713Y005982D01*
X028713Y005884D02*
X028033Y005884D01*
X028033Y005785D02*
X028713Y005785D01*
X028713Y005687D02*
X028011Y005687D01*
X027970Y005588D02*
X028713Y005588D01*
X028713Y005490D02*
X027929Y005490D01*
X027856Y005391D02*
X028713Y005391D01*
X028713Y005293D02*
X027757Y005293D01*
X027619Y005194D02*
X028713Y005194D01*
X028713Y005096D02*
X023953Y005096D01*
X023953Y005194D02*
X026847Y005194D01*
X026710Y005293D02*
X023953Y005293D01*
X023953Y005391D02*
X026611Y005391D01*
X026538Y005490D02*
X023953Y005490D01*
X023953Y005588D02*
X026497Y005588D01*
X026456Y005687D02*
X023953Y005687D01*
X023953Y005785D02*
X026433Y005785D01*
X026433Y005884D02*
X023953Y005884D01*
X023953Y005982D02*
X026433Y005982D01*
X026442Y006081D02*
X023953Y006081D01*
X023953Y006179D02*
X026483Y006179D01*
X026524Y006278D02*
X023953Y006278D01*
X023953Y006376D02*
X026578Y006376D01*
X026677Y006475D02*
X023953Y006475D01*
X023953Y006573D02*
X026775Y006573D01*
X027006Y006672D02*
X023953Y006672D01*
X030095Y010513D02*
X030172Y010513D01*
X030172Y010612D02*
X030095Y010612D01*
X030095Y010710D02*
X030172Y010710D01*
X030172Y010809D02*
X030095Y010809D01*
X030375Y010513D02*
X030850Y010513D01*
X030751Y010612D02*
X030484Y010612D01*
X030543Y010710D02*
X030702Y010710D01*
X030666Y010809D02*
X030573Y010809D01*
X029741Y011104D02*
X024983Y011104D01*
X024983Y011006D02*
X029701Y011006D01*
X029813Y011203D02*
X024983Y011203D01*
X024983Y011301D02*
X029924Y011301D01*
X029793Y011400D02*
X024983Y011400D01*
X024983Y011498D02*
X029720Y011498D01*
X029679Y011597D02*
X024983Y011597D01*
X024983Y011695D02*
X029666Y011695D01*
X029666Y011794D02*
X024983Y011794D01*
X024983Y011892D02*
X029699Y011892D01*
X029743Y011991D02*
X024983Y011991D01*
X024983Y012089D02*
X029842Y012089D01*
X030425Y012089D02*
X030880Y012089D01*
X030777Y011991D02*
X030523Y011991D01*
X030719Y011892D02*
X030697Y011825D01*
X032592Y012779D02*
X027161Y012779D01*
X027129Y012855D02*
X027200Y012683D01*
X027200Y012497D01*
X027129Y012325D01*
X026998Y012194D01*
X026826Y012123D01*
X026640Y012123D01*
X026469Y012194D01*
X026337Y012325D01*
X026266Y012497D01*
X026266Y012683D01*
X026337Y012855D01*
X026469Y012986D01*
X026541Y013016D01*
X026499Y013038D01*
X026442Y013079D01*
X026392Y013129D01*
X026351Y013186D01*
X026319Y013248D01*
X026297Y013315D01*
X026287Y013381D01*
X026695Y013381D01*
X026695Y013459D01*
X026695Y013867D01*
X026629Y013856D01*
X026562Y013834D01*
X026499Y013802D01*
X026442Y013761D01*
X026392Y013711D01*
X026351Y013654D01*
X026319Y013592D01*
X026297Y013525D01*
X026287Y013459D01*
X026695Y013459D01*
X026772Y013459D01*
X026772Y013867D01*
X026838Y013856D01*
X026905Y013834D01*
X026968Y013802D01*
X027025Y013761D01*
X027074Y013711D01*
X027116Y013654D01*
X027148Y013592D01*
X027169Y013525D01*
X027180Y013459D01*
X026772Y013459D01*
X026772Y013381D01*
X027180Y013381D01*
X027169Y013315D01*
X027148Y013248D01*
X027116Y013186D01*
X027074Y013129D01*
X027025Y013079D01*
X026968Y013038D01*
X026926Y013016D01*
X026998Y012986D01*
X027129Y012855D01*
X027107Y012877D02*
X032345Y012877D01*
X032097Y012976D02*
X027008Y012976D01*
X027018Y013074D02*
X031849Y013074D01*
X031602Y013173D02*
X027106Y013173D01*
X027155Y013271D02*
X031354Y013271D01*
X031107Y013370D02*
X027178Y013370D01*
X027178Y013468D02*
X030859Y013468D01*
X030612Y013567D02*
X027156Y013567D01*
X027108Y013665D02*
X030364Y013665D01*
X030116Y013764D02*
X027021Y013764D01*
X026801Y013862D02*
X029869Y013862D01*
X027200Y012680D02*
X032840Y012680D01*
X032913Y012582D02*
X027200Y012582D01*
X027195Y012483D02*
X032913Y012483D01*
X032913Y012385D02*
X027154Y012385D01*
X027090Y012286D02*
X032913Y012286D01*
X032913Y012188D02*
X026982Y012188D01*
X026484Y012188D02*
X025928Y012188D01*
X025772Y012188D02*
X025695Y012188D01*
X025695Y012143D02*
X025695Y012551D01*
X025287Y012551D01*
X025297Y012485D01*
X025319Y012418D01*
X025351Y012356D01*
X025392Y012299D01*
X025442Y012249D01*
X025499Y012208D01*
X025562Y012176D01*
X025629Y012154D01*
X025695Y012143D01*
X025695Y012286D02*
X025772Y012286D01*
X025772Y012385D02*
X025695Y012385D01*
X025695Y012483D02*
X025772Y012483D01*
X025772Y012582D02*
X026266Y012582D01*
X026266Y012680D02*
X026172Y012680D01*
X026139Y012779D02*
X026306Y012779D01*
X026360Y012877D02*
X026078Y012877D01*
X025962Y012976D02*
X026458Y012976D01*
X026449Y013074D02*
X026048Y013074D01*
X026136Y013173D02*
X026360Y013173D01*
X026312Y013271D02*
X026177Y013271D01*
X026200Y013370D02*
X026289Y013370D01*
X026288Y013468D02*
X026200Y013468D01*
X026178Y013567D02*
X026311Y013567D01*
X026359Y013665D02*
X026137Y013665D01*
X026050Y013764D02*
X026445Y013764D01*
X026666Y013862D02*
X025887Y013862D01*
X026695Y013862D02*
X026772Y013862D01*
X026772Y013764D02*
X026695Y013764D01*
X026695Y013665D02*
X026772Y013665D01*
X026772Y013567D02*
X026695Y013567D01*
X026695Y013468D02*
X026772Y013468D01*
X025389Y012877D02*
X024980Y012877D01*
X025060Y012779D02*
X025328Y012779D01*
X025295Y012680D02*
X025101Y012680D01*
X025103Y012582D02*
X025695Y012582D01*
X025298Y012483D02*
X025085Y012483D01*
X025041Y012385D02*
X025336Y012385D01*
X025405Y012286D02*
X024983Y012286D01*
X024983Y012188D02*
X025538Y012188D01*
X026062Y012286D02*
X026377Y012286D01*
X026313Y012385D02*
X026130Y012385D01*
X026169Y012483D02*
X026272Y012483D01*
X009453Y009627D02*
X006453Y009627D01*
X006453Y009725D02*
X009355Y009725D01*
X007456Y009824D02*
X006453Y009824D01*
X006453Y009922D02*
X007358Y009922D01*
D15*
X007133Y010900D03*
X011533Y012600D03*
X020333Y014300D03*
X024733Y012600D03*
D16*
X021333Y015100D02*
X021333Y015120D01*
X012533Y013420D02*
X012533Y013400D01*
M02*
