G75*
G70*
%OFA0B0*%
%FSLAX24Y24*%
%IPPOS*%
%LPD*%
%AMOC8*
5,1,8,0,0,1.08239X$1,22.5*
%
%ADD10C,0.0060*%
%ADD11C,0.0080*%
D10*
X006797Y011982D02*
X006797Y012218D01*
X007270Y012218D02*
X007270Y011982D01*
X010097Y011982D02*
X010097Y012218D01*
X010570Y012218D02*
X010570Y011982D01*
X011197Y013682D02*
X011197Y013918D01*
X011670Y013918D02*
X011670Y013682D01*
X014497Y013682D02*
X014497Y013918D01*
X014970Y013918D02*
X014970Y013682D01*
X015497Y015482D02*
X015497Y015718D01*
X015970Y015718D02*
X015970Y015482D01*
X018797Y015482D02*
X018797Y015718D01*
X019270Y015718D02*
X019270Y015482D01*
X019997Y015482D02*
X019997Y015718D01*
X020470Y015718D02*
X020470Y015482D01*
X023297Y015482D02*
X023297Y015718D01*
X023770Y015718D02*
X023770Y015482D01*
X024397Y013918D02*
X024397Y013682D01*
X024870Y013682D02*
X024870Y013918D01*
X027697Y013918D02*
X027697Y013682D01*
X028170Y013682D02*
X028170Y013918D01*
X028697Y012218D02*
X028697Y011982D01*
X029170Y011982D02*
X029170Y012218D01*
X032197Y012218D02*
X032197Y011982D01*
X032670Y011982D02*
X032670Y012218D01*
D11*
X018883Y007500D02*
X018633Y007750D01*
X018633Y008250D01*
X018883Y008500D01*
X019383Y008500D01*
X019633Y008250D01*
X019883Y008500D01*
X020383Y008500D01*
X020633Y008250D01*
X020883Y008500D01*
X021383Y008500D01*
X021633Y008250D01*
X021883Y008500D01*
X022383Y008500D01*
X022633Y008250D01*
X022883Y008500D01*
X023383Y008500D01*
X023633Y008250D01*
X023883Y008500D01*
X024383Y008500D01*
X024633Y008250D01*
X024883Y008500D01*
X025383Y008500D01*
X025633Y008250D01*
X025883Y008500D01*
X026383Y008500D01*
X026633Y008250D01*
X026633Y007750D01*
X026383Y007500D01*
X025883Y007500D01*
X025633Y007750D01*
X025383Y007500D01*
X024883Y007500D01*
X024633Y007750D01*
X024383Y007500D01*
X023883Y007500D01*
X023633Y007750D01*
X023383Y007500D01*
X022883Y007500D01*
X022633Y007750D01*
X022383Y007500D01*
X021883Y007500D01*
X021633Y007750D01*
X021383Y007500D01*
X020883Y007500D01*
X020633Y007750D01*
X020383Y007500D01*
X019883Y007500D01*
X019633Y007750D01*
X019383Y007500D01*
X018883Y007500D01*
M02*
