%
M48
M72
T01C0.0200
T02C0.0354
T03C0.0400
T04C0.0900
T05C0.1260
%
T01
X7133Y10900
X11533Y12600
X20333Y14300
X24733Y12600
T02
X25733Y12590
X26733Y12590
X26733Y13420
X25733Y13420
X22333Y14290
X21333Y14290
X21333Y15120
X22333Y15120
X17933Y15120
X16933Y15120
X16933Y14290
X17933Y14290
X13533Y13420
X12533Y13420
X12533Y12590
X13533Y12590
X9133Y11720
X8133Y11720
X8133Y10890
X9133Y10890
X30133Y10890
X31133Y10890
X31133Y11720
X30133Y11720
T03
X26133Y8000
X25133Y8000
X24133Y8000
X23133Y8000
X22133Y8000
X21133Y8000
X20133Y8000
X19133Y8000
T04
X16983Y10900
X22283Y10900
T05
X12033Y5900
X27233Y5900
M30
