G75*
G70*
%OFA0B0*%
%FSLAX24Y24*%
%IPPOS*%
%LPD*%
%AMOC8*
5,1,8,0,0,1.08239X$1,22.5*
%
%ADD10C,0.0080*%
%ADD11C,0.0100*%
%ADD12C,0.0059*%
D10*
X007433Y010420D02*
X009833Y010420D01*
X009833Y012150D01*
X007433Y012150D01*
X007433Y010420D01*
X011833Y012120D02*
X014233Y012120D01*
X014233Y013850D01*
X011833Y013850D01*
X011833Y012120D01*
X016233Y013820D02*
X018633Y013820D01*
X018633Y015550D01*
X016233Y015550D01*
X016233Y013820D01*
X020633Y013820D02*
X020633Y015550D01*
X023033Y015550D01*
X023033Y013820D01*
X020633Y013820D01*
X025033Y013850D02*
X025033Y012120D01*
X027433Y012120D01*
X027433Y013850D01*
X025033Y013850D01*
X029433Y012150D02*
X031833Y012150D01*
X031833Y010420D01*
X029433Y010420D01*
X029433Y012150D01*
D11*
X029542Y011900D02*
X029544Y011923D01*
X029550Y011946D01*
X029559Y011967D01*
X029572Y011987D01*
X029588Y012004D01*
X029606Y012018D01*
X029626Y012029D01*
X029648Y012037D01*
X029671Y012041D01*
X029695Y012041D01*
X029718Y012037D01*
X029740Y012029D01*
X029760Y012018D01*
X029778Y012004D01*
X029794Y011987D01*
X029807Y011967D01*
X029816Y011946D01*
X029822Y011923D01*
X029824Y011900D01*
X029822Y011877D01*
X029816Y011854D01*
X029807Y011833D01*
X029794Y011813D01*
X029778Y011796D01*
X029760Y011782D01*
X029740Y011771D01*
X029718Y011763D01*
X029695Y011759D01*
X029671Y011759D01*
X029648Y011763D01*
X029626Y011771D01*
X029606Y011782D01*
X029588Y011796D01*
X029572Y011813D01*
X029559Y011833D01*
X029550Y011854D01*
X029544Y011877D01*
X029542Y011900D01*
X025142Y013600D02*
X025144Y013623D01*
X025150Y013646D01*
X025159Y013667D01*
X025172Y013687D01*
X025188Y013704D01*
X025206Y013718D01*
X025226Y013729D01*
X025248Y013737D01*
X025271Y013741D01*
X025295Y013741D01*
X025318Y013737D01*
X025340Y013729D01*
X025360Y013718D01*
X025378Y013704D01*
X025394Y013687D01*
X025407Y013667D01*
X025416Y013646D01*
X025422Y013623D01*
X025424Y013600D01*
X025422Y013577D01*
X025416Y013554D01*
X025407Y013533D01*
X025394Y013513D01*
X025378Y013496D01*
X025360Y013482D01*
X025340Y013471D01*
X025318Y013463D01*
X025295Y013459D01*
X025271Y013459D01*
X025248Y013463D01*
X025226Y013471D01*
X025206Y013482D01*
X025188Y013496D01*
X025172Y013513D01*
X025159Y013533D01*
X025150Y013554D01*
X025144Y013577D01*
X025142Y013600D01*
X020742Y015300D02*
X020744Y015323D01*
X020750Y015346D01*
X020759Y015367D01*
X020772Y015387D01*
X020788Y015404D01*
X020806Y015418D01*
X020826Y015429D01*
X020848Y015437D01*
X020871Y015441D01*
X020895Y015441D01*
X020918Y015437D01*
X020940Y015429D01*
X020960Y015418D01*
X020978Y015404D01*
X020994Y015387D01*
X021007Y015367D01*
X021016Y015346D01*
X021022Y015323D01*
X021024Y015300D01*
X021022Y015277D01*
X021016Y015254D01*
X021007Y015233D01*
X020994Y015213D01*
X020978Y015196D01*
X020960Y015182D01*
X020940Y015171D01*
X020918Y015163D01*
X020895Y015159D01*
X020871Y015159D01*
X020848Y015163D01*
X020826Y015171D01*
X020806Y015182D01*
X020788Y015196D01*
X020772Y015213D01*
X020759Y015233D01*
X020750Y015254D01*
X020744Y015277D01*
X020742Y015300D01*
X016342Y015300D02*
X016344Y015323D01*
X016350Y015346D01*
X016359Y015367D01*
X016372Y015387D01*
X016388Y015404D01*
X016406Y015418D01*
X016426Y015429D01*
X016448Y015437D01*
X016471Y015441D01*
X016495Y015441D01*
X016518Y015437D01*
X016540Y015429D01*
X016560Y015418D01*
X016578Y015404D01*
X016594Y015387D01*
X016607Y015367D01*
X016616Y015346D01*
X016622Y015323D01*
X016624Y015300D01*
X016622Y015277D01*
X016616Y015254D01*
X016607Y015233D01*
X016594Y015213D01*
X016578Y015196D01*
X016560Y015182D01*
X016540Y015171D01*
X016518Y015163D01*
X016495Y015159D01*
X016471Y015159D01*
X016448Y015163D01*
X016426Y015171D01*
X016406Y015182D01*
X016388Y015196D01*
X016372Y015213D01*
X016359Y015233D01*
X016350Y015254D01*
X016344Y015277D01*
X016342Y015300D01*
X011942Y013600D02*
X011944Y013623D01*
X011950Y013646D01*
X011959Y013667D01*
X011972Y013687D01*
X011988Y013704D01*
X012006Y013718D01*
X012026Y013729D01*
X012048Y013737D01*
X012071Y013741D01*
X012095Y013741D01*
X012118Y013737D01*
X012140Y013729D01*
X012160Y013718D01*
X012178Y013704D01*
X012194Y013687D01*
X012207Y013667D01*
X012216Y013646D01*
X012222Y013623D01*
X012224Y013600D01*
X012222Y013577D01*
X012216Y013554D01*
X012207Y013533D01*
X012194Y013513D01*
X012178Y013496D01*
X012160Y013482D01*
X012140Y013471D01*
X012118Y013463D01*
X012095Y013459D01*
X012071Y013459D01*
X012048Y013463D01*
X012026Y013471D01*
X012006Y013482D01*
X011988Y013496D01*
X011972Y013513D01*
X011959Y013533D01*
X011950Y013554D01*
X011944Y013577D01*
X011942Y013600D01*
X007542Y011900D02*
X007544Y011923D01*
X007550Y011946D01*
X007559Y011967D01*
X007572Y011987D01*
X007588Y012004D01*
X007606Y012018D01*
X007626Y012029D01*
X007648Y012037D01*
X007671Y012041D01*
X007695Y012041D01*
X007718Y012037D01*
X007740Y012029D01*
X007760Y012018D01*
X007778Y012004D01*
X007794Y011987D01*
X007807Y011967D01*
X007816Y011946D01*
X007822Y011923D01*
X007824Y011900D01*
X007822Y011877D01*
X007816Y011854D01*
X007807Y011833D01*
X007794Y011813D01*
X007778Y011796D01*
X007760Y011782D01*
X007740Y011771D01*
X007718Y011763D01*
X007695Y011759D01*
X007671Y011759D01*
X007648Y011763D01*
X007626Y011771D01*
X007606Y011782D01*
X007588Y011796D01*
X007572Y011813D01*
X007559Y011833D01*
X007550Y011854D01*
X007544Y011877D01*
X007542Y011900D01*
D12*
X011948Y008352D02*
X012185Y008114D01*
X012531Y008397D01*
X012600Y008358D01*
X012671Y008325D01*
X012869Y008802D01*
X012797Y008840D01*
X012734Y008890D01*
X012682Y008952D01*
X012641Y009022D01*
X012615Y009098D01*
X012603Y009178D01*
X012607Y009259D01*
X012625Y009337D01*
X012658Y009411D01*
X012704Y009477D01*
X012762Y009534D01*
X012829Y009579D01*
X012903Y009610D01*
X012982Y009628D01*
X013063Y009630D01*
X013142Y009617D01*
X013218Y009589D01*
X013288Y009548D01*
X013348Y009494D01*
X013397Y009430D01*
X013434Y009358D01*
X013456Y009280D01*
X013464Y009200D01*
X013458Y009128D01*
X013440Y009058D01*
X013410Y008992D01*
X013370Y008932D01*
X013320Y008879D01*
X013262Y008835D01*
X013198Y008802D01*
X013396Y008325D01*
X013467Y008358D01*
X013535Y008397D01*
X013882Y008114D01*
X014119Y008352D01*
X013837Y008698D01*
X013887Y008790D01*
X013927Y008886D01*
X013956Y008987D01*
X014401Y009032D01*
X014401Y009368D01*
X013956Y009413D01*
X013927Y009514D01*
X013887Y009610D01*
X013837Y009702D01*
X014119Y010048D01*
X013882Y010286D01*
X013535Y010003D01*
X013444Y010054D01*
X013347Y010094D01*
X013246Y010123D01*
X013201Y010568D01*
X012865Y010568D01*
X012820Y010123D01*
X012720Y010094D01*
X012623Y010054D01*
X012531Y010003D01*
X012185Y010286D01*
X011948Y010048D01*
X012230Y009702D01*
X012179Y009610D01*
X012139Y009514D01*
X012110Y009413D01*
X011666Y009368D01*
X011666Y009032D01*
X012110Y008987D01*
X012139Y008886D01*
X012179Y008790D01*
X012230Y008698D01*
X011948Y008352D01*
X011961Y008368D02*
X012497Y008368D01*
X012581Y008368D02*
X012689Y008368D01*
X012713Y008426D02*
X012008Y008426D01*
X012055Y008484D02*
X012737Y008484D01*
X012760Y008541D02*
X012102Y008541D01*
X012149Y008599D02*
X012784Y008599D01*
X012808Y008656D02*
X012196Y008656D01*
X012221Y008714D02*
X012832Y008714D01*
X012856Y008771D02*
X012190Y008771D01*
X012163Y008829D02*
X012818Y008829D01*
X012739Y008886D02*
X012139Y008886D01*
X012123Y008944D02*
X012688Y008944D01*
X012653Y009002D02*
X011966Y009002D01*
X011666Y009059D02*
X012628Y009059D01*
X012612Y009117D02*
X011666Y009117D01*
X011666Y009174D02*
X012604Y009174D01*
X012606Y009232D02*
X011666Y009232D01*
X011666Y009289D02*
X012614Y009289D01*
X012629Y009347D02*
X011666Y009347D01*
X012025Y009404D02*
X012655Y009404D01*
X012693Y009462D02*
X012124Y009462D01*
X012142Y009520D02*
X012747Y009520D01*
X012826Y009577D02*
X012166Y009577D01*
X012193Y009635D02*
X013874Y009635D01*
X013901Y009577D02*
X013238Y009577D01*
X013319Y009520D02*
X013925Y009520D01*
X013942Y009462D02*
X013373Y009462D01*
X013410Y009404D02*
X014042Y009404D01*
X014401Y009347D02*
X013437Y009347D01*
X013454Y009289D02*
X014401Y009289D01*
X014401Y009232D02*
X013461Y009232D01*
X013462Y009174D02*
X014401Y009174D01*
X014401Y009117D02*
X013455Y009117D01*
X013440Y009059D02*
X014401Y009059D01*
X014101Y009002D02*
X013415Y009002D01*
X013378Y008944D02*
X013944Y008944D01*
X013927Y008886D02*
X013327Y008886D01*
X013250Y008829D02*
X013903Y008829D01*
X013877Y008771D02*
X013211Y008771D01*
X013235Y008714D02*
X013845Y008714D01*
X013871Y008656D02*
X013259Y008656D01*
X013282Y008599D02*
X013918Y008599D01*
X013965Y008541D02*
X013306Y008541D01*
X013330Y008484D02*
X014012Y008484D01*
X014059Y008426D02*
X013354Y008426D01*
X013378Y008368D02*
X013486Y008368D01*
X013570Y008368D02*
X014105Y008368D01*
X014078Y008311D02*
X013640Y008311D01*
X013711Y008253D02*
X014021Y008253D01*
X013963Y008196D02*
X013782Y008196D01*
X013852Y008138D02*
X013906Y008138D01*
X012426Y008311D02*
X011988Y008311D01*
X012046Y008253D02*
X012356Y008253D01*
X012285Y008196D02*
X012103Y008196D01*
X012161Y008138D02*
X012214Y008138D01*
X012225Y009692D02*
X013842Y009692D01*
X013876Y009750D02*
X012191Y009750D01*
X012144Y009807D02*
X013923Y009807D01*
X013970Y009865D02*
X012097Y009865D01*
X012050Y009922D02*
X014016Y009922D01*
X014063Y009980D02*
X012003Y009980D01*
X011956Y010038D02*
X012489Y010038D01*
X012419Y010095D02*
X011994Y010095D01*
X012052Y010153D02*
X012348Y010153D01*
X012278Y010210D02*
X012109Y010210D01*
X012167Y010268D02*
X012207Y010268D01*
X012593Y010038D02*
X013473Y010038D01*
X013577Y010038D02*
X014110Y010038D01*
X014072Y010095D02*
X013648Y010095D01*
X013718Y010153D02*
X014015Y010153D01*
X013957Y010210D02*
X013789Y010210D01*
X013860Y010268D02*
X013900Y010268D01*
X013343Y010095D02*
X012724Y010095D01*
X012823Y010153D02*
X013243Y010153D01*
X013238Y010210D02*
X012829Y010210D01*
X012835Y010268D02*
X013232Y010268D01*
X013226Y010325D02*
X012841Y010325D01*
X012847Y010383D02*
X013220Y010383D01*
X013214Y010440D02*
X012852Y010440D01*
X012858Y010498D02*
X013208Y010498D01*
X013202Y010556D02*
X012864Y010556D01*
M02*
